<svg xmlns="http://www.w3.org/2000/svg" viewBox="0 0 68.1 59.4" class="d-inline-block mx-auto my-5" width="70">
<path d="m41.4 26.5a1 1 0 0 1 -1-.89 6.47 6.47 0 0 0 -6.51-5.71 6.56 6.56 0 0 0 -6.51 5.63 1.01 1.01 0 1 1 -2-.27 8.57 8.57 0 0 1 8.49-7.37 8.46 8.46 0 0 1 8.49 7.49 1 1 0 0 1 -.89 1.1h-.07z" fill="url(#paint2_linear_11_60)"/> 
<path d="m33.9 19.9a6.4 6.4 0 1 1 6.4-6.4 6.4 6.4 0 0 1 -6.4 6.4zm0-10.8a4.4 4.4 0 1 0 4.4 4.4 4.4 4.4 0 0 0 -4.4-4.4z" fill="url(#paint2_linear_11_60)" />
<path d="m33.9 34.2a17.1 17.1 0 1 1 17.1-17.1 17.12 17.12 0 0 1 -17.1 17.1zm0-32.2a15.1 15.1 0 1 0 15.1 15.1 15.12 15.12 0 0 0 -15.1-15.1z" fill="url(#paint2_linear_11_60)" />
<g fill="url(#paint1_linear_11_60)">
<path d="m11.1 59.2a11.1 11.1 0 1 1 11.1-11.1 11.11 11.11 0 0 1 -11.1 11.1zm0-20.2a9.1 9.1 0 1 0 9.1 9.1 9.1 9.1 0 0 0 -9.1-9.1z" />
<path d="m18 40.6a1 1 0 0 1 -.78-1.6l3.5-4.4a1 1 0 0 1 1.57 1.24l-3.54 4.4a1 1 0 0 1 -.75.36zm-2.8 13.2a1 1 0 0 1 -1-.85 3.2 3.2 0 0 0 -3.11-2.75 3.11 3.11 0 0 0 -3.09 2.65 1.011 1.011 0 0 1 -2-.3 5.1 5.1 0 0 1 5.09-4.35 5.21 5.21 0 0 1 5.12 4.5 1 1 0 0 1 -.84 1.14h-.17z" />
<path d="m11.1 50.2a3.9 3.9 0 1 1 3.9-3.9 3.9 3.9 0 0 1 -3.9 3.9zm0-5.8a1.9 1.9 0 1 0 1.9 1.9 1.9 1.9 0 0 0 -1.9-1.9zm45.8 15a11.2 11.2 0 1 1 11.2-11.2 11.21 11.21 0 0 1 -11.2 11.2zm0-20.4a9.2 9.2 0 1 0 9.2 9.2 9.21 9.21 0 0 0 -9.2-9.2z" />
<path d="m49.9 40.6a1 1 0 0 1 -.78-.38l-3.5-4.4a1 1 0 0 1 1.57-1.24l3.5 4.4a1 1 0 0 1 -.79 1.62zm11.1 13.3a1 1 0 0 1 -1-.85 3.2 3.2 0 0 0 -3.11-2.75 3.13 3.13 0 0 0 -3.14 2.7 1.005 1.005 0 0 1 -2-.2 5.11 5.11 0 0 1 5.09-4.5 5.21 5.21 0 0 1 5.09 4.45 1 1 0 0 1 -.84 1.14h-.09z" />
<path d="m56.9 50.3a3.9 3.9 0 1 1 3.9-3.9 3.9 3.9 0 0 1 -3.9 3.9zm0-5.8a1.9 1.9 0 1 0 1.9 1.9 1.9 1.9 0 0 0 -1.9-1.9z" />
</g>
<defs>
    <filter id="filter0_d_11_60" x="0" y="0.994263" width="54" height="54" filterUnits="userSpaceOnUse" color-interpolation-filters="sRGB">
    <feFlood flood-opacity="0" result="BackgroundImageFix"/>
    <feColorMatrix in="SourceAlpha" type="matrix" values="0 0 0 0 0 0 0 0 0 0 0 0 0 0 0 0 0 0 127 0" result="hardAlpha"/>
    <feOffset dy="4"/>
    <feGaussianBlur stdDeviation="8"/>
    <feComposite in2="hardAlpha" operator="out"/>
    <feColorMatrix type="matrix" values="0 0 0 0 0.941176 0 0 0 0 0.14902 0 0 0 0 0.384314 0 0 0 1 0"/>
    <feBlend mode="normal" in2="BackgroundImageFix" result="effect1_dropShadow_11_60"/>
    <feBlend mode="normal" in="SourceGraphic" in2="effect1_dropShadow_11_60" result="shape"/>
    </filter>
    //background
    <linearGradient id="paint0_linear_11_60" x1="27" y1="0" x2="27" y2="48" gradientUnits="userSpaceOnUse">
    <stop stop-color="#ff4d4d"/>
    <stop offset="1" stop-color="#f9cb28"/>
    </linearGradient>
    <linearGradient id="paint1_linear_11_60" x1="35.4615" y1="17.7125" x2="22.1326" y2="13.2704" gradientUnits="userSpaceOnUse">
    <stop stop-color="#f9cb28"/>
    <stop offset="1" stop-color="#ff4d4d"/>
    </linearGradient>
    <linearGradient id="paint2_linear_11_60" x1="35.4615" y1="17.7125" x2="22.1326" y2="13.2704" gradientUnits="userSpaceOnUse">
    <stop stop-color="#f9cb28"/>
    <stop offset="1" stop-color="#ff4d4d"/>
    </linearGradient>
    </defs>
</svg>