<svg xmlns="http://www.w3.org/2000/svg" fill="none" height="893" viewBox="0 0 927 893" width="927"><g opacity=".3" stroke="#627597" stroke-dasharray="2 5"><path d="m35.5 100.5h99v99h-99z"/><path d="m35.5 496.5h99v99h-99z"/><path d="m-63.5 496.5h99v99h-99z"/><path d="m629.5 496.5h99v99h-99z"/><path d="m332.5 100.5h99v99h-99z"/><path d="m332.5 496.5h99v99h-99z"/><path d="m35.5 298.5h99v99h-99z"/><path d="m629.5 298.5h99v99h-99z"/><path d="m332.5 298.5h99v99h-99z"/><path d="m35.5 199.5h99v99h-99z"/><path d="m-63.5 199.5h99v99h-99z"/><path d="m629.5 199.5h99v99h-99z"/><path d="m35.5 595.5h99v99h-99z"/><path d="m629.5 595.5h99v99h-99z"/><path d="m332.5 199.5h99v99h-99z"/><path d="m332.5 595.5h99v99h-99z"/><path d="m629.5 397.5h99v99h-99z"/><path d="m-64.5 793.5h99v99h-99z"/><path d="m332.5 397.5h99v99h-99z"/><path d="m728.5 100.5h99v99h-99z"/><path d="m134.5 496.5h99v99h-99z"/><path d="m431.5 100.5h99v99h-99z"/><path d="m431.5 496.5h99v99h-99z"/><path d="m134.5 298.5h99v99h-99z"/><path d="m728.5 298.5h99v99h-99z"/><path d="m431.5 298.5h99v99h-99z"/><path d="m431.5 694.5h99v99h-99z"/><path d="m134.5 199.5h99v99h-99z"/><path d="m134.5 595.5h99v99h-99z"/><path d="m728.5 595.5h99v99h-99z"/><path d="m431.5 199.5h99v99h-99z"/><path d="m431.5 595.5h99v99h-99z"/><path d="m134.5 397.5h99v99h-99z"/><path d="m728.5 397.5h99v99h-99z"/><path d="m431.5 397.5h99v99h-99z"/><path d="m431.5 793.5h99v99h-99z"/><path d="m233.5 100.5h99v99h-99z"/><path d="m233.5 1.5h99v99h-99z"/><path d="m629.5.5h99v99h-99z"/><path d="m233.5 496.5h99v99h-99z"/><path d="m530.5 496.5h99v99h-99z"/><path d="m233.5 298.5h99v99h-99z"/><path d="m233.5 694.5h99v99h-99z"/><path d="m827.5 694.5h99v99h-99z"/><path d="m530.5 298.5h99v99h-99z"/><path d="m530.5 694.5h99v99h-99z"/><path d="m233.5 199.5h99v99h-99z"/><path d="m233.5 595.5h99v99h-99z"/><path d="m827.5 595.5h99v99h-99z"/><path d="m530.5 199.5h99v99h-99z"/><path d="m530.5 595.5h99v99h-99z"/><path d="m233.5 397.5h99v99h-99z"/><path d="m827.5 397.5h99v99h-99z"/><path d="m530.5 397.5h99v99h-99z"/></g></svg>