<svg xmlns="http://www.w3.org/2000/svg" fill="none" height="830" viewBox="0 0 1192 830" width="1192"><g opacity=".3" stroke="#627597" stroke-dasharray="2 5"><path d="m101.5 37.5h99v99h-99z"/><path d="m2.5 433.5h99v99h-99z"/><path d="m-96.5 433.5h99v99h-99z"/><path d="m596.5 433.5h99v99h-99z"/><path d="m299.5 433.5h99v99h-99z"/><path d="m2.5 235.5h99v99h-99z"/><path d="m596.5 235.5h99v99h-99z"/><path d="m299.5 235.5h99v99h-99z"/><path d="m299.5 631.5h99v99h-99z"/><path d="m2.5 136.5h99v99h-99z"/><path d="m-96.5 36.5h99v99h-99z"/><path d="m596.5 136.5h99v99h-99z"/><path d="m2.5 532.5h99v99h-99z"/><path d="m596.5 532.5h99v99h-99z"/><path d="m299.5 136.5h99v99h-99z"/><path d="m299.5 532.5h99v99h-99z"/><path d="m596.5 334.5h99v99h-99z"/><path d="m-97.5 730.5h99v99h-99z"/><path d="m299.5 334.5h99v99h-99z"/><path d="m100.5 730.5h99v99h-99z"/><path d="m101.5 433.5h99v99h-99z"/><path d="m695.5 433.5h99v99h-99z"/><path d="m398.5 37.5h99v99h-99z"/><path d="m1092.5 37.5h99v99h-99z"/><path d="m398.5 433.5h99v99h-99z"/><path d="m101.5 235.5h99v99h-99z"/><path d="m695.5 235.5h99v99h-99z"/><path d="m398.5 235.5h99v99h-99z"/><path d="m398.5 631.5h99v99h-99z"/><path d="m101.5 136.5h99v99h-99z"/><path d="m101.5 532.5h99v99h-99z"/><path d="m695.5 532.5h99v99h-99z"/><path d="m398.5 136.5h99v99h-99z"/><path d="m398.5 532.5h99v99h-99z"/><path d="m101.5 334.5h99v99h-99z"/><path d="m398.5 334.5h99v99h-99z"/><path d="m398.5 730.5h99v99h-99z"/><path d="m200.5 37.5h99v99h-99z"/><path d="m200.5 433.5h99v99h-99z"/><path d="m497.5 433.5h99v99h-99z"/><path d="m200.5 235.5h99v99h-99z"/><path d="m200.5 631.5h99v99h-99z"/><path d="m497.5 235.5h99v99h-99z"/><path d="m497.5 631.5h99v99h-99z"/><path d="m200.5 136.5h99v99h-99z"/><path d="m200.5 532.5h99v99h-99z"/><path d="m794.5 532.5h99v99h-99z"/><path d="m497.5 532.5h99v99h-99z"/><path d="m200.5 334.5h99v99h-99z"/><path d="m497.5 334.5h99v99h-99z"/></g></svg>