<svg xmlns="http://www.w3.org/2000/svg" fill="none" height="892" viewBox="0 0 1159 892" width="1159"><g opacity=".3" stroke="#627597" stroke-dasharray="2 5"><path d="m-.5.5h99v99h-99z" transform="matrix(-1 0 0 1 1089 99)"/><path d="m-.5.5h99v99h-99z" transform="matrix(-1 0 0 1 1089 495)"/><path d="m-.5.5h99v99h-99z" transform="matrix(-1 0 0 1 1188 495)"/><path d="m-.5.5h99v99h-99z" transform="matrix(-1 0 0 1 495 495)"/><path d="m-.5.5h99v99h-99z" transform="matrix(-1 0 0 1 792 99)"/><path d="m-.5.5h99v99h-99z" transform="matrix(-1 0 0 1 792 495)"/><path d="m-.5.5h99v99h-99z" transform="matrix(-1 0 0 1 1089 297)"/><path d="m-.5.5h99v99h-99z" transform="matrix(-1 0 0 1 495 297)"/><path d="m-.5.5h99v99h-99z" transform="matrix(-1 0 0 1 792 297)"/><path d="m-.5.5h99v99h-99z" transform="matrix(-1 0 0 1 792 693)"/><path d="m-.5.5h99v99h-99z" transform="matrix(-1 0 0 1 1089 198)"/><path d="m-.5.5h99v99h-99z" transform="matrix(-1 0 0 1 1188 198)"/><path d="m-.5.5h99v99h-99z" transform="matrix(-1 0 0 1 1089 594)"/><path d="m-.5.5h99v99h-99z" transform="matrix(-1 0 0 1 495 594)"/><path d="m-.5.5h99v99h-99z" transform="matrix(-1 0 0 1 792 198)"/><path d="m-.5.5h99v99h-99z" transform="matrix(-1 0 0 1 792 594)"/><path d="m-.5.5h99v99h-99z" transform="matrix(-1 0 0 1 495 396)"/><path d="m-.5.5h99v99h-99z" transform="matrix(-1 0 0 1 1189 792)"/><path d="m-.5.5h99v99h-99z" transform="matrix(-1 0 0 1 792 396)"/><path d="m-.5.5h99v99h-99z" transform="matrix(-1 0 0 1 792 792)"/><path d="m-.5.5h99v99h-99z" transform="matrix(-1 0 0 1 198 792)"/><path d="m-.5.5h99v99h-99z" transform="matrix(-1 0 0 1 990 495)"/><path d="m-.5.5h99v99h-99z" transform="matrix(-1 0 0 1 396 495)"/><path d="m-.5.5h99v99h-99z" transform="matrix(-1 0 0 1 99 99)"/><path d="m-.5.5h99v99h-99z" transform="matrix(-1 0 0 1 693 495)"/><path d="m-.5.5h99v99h-99z" transform="matrix(-1 0 0 1 990 297)"/><path d="m-.5.5h99v99h-99z" transform="matrix(-1 0 0 1 396 297)"/><path d="m-.5.5h99v99h-99z" transform="matrix(-1 0 0 1 693 297)"/><path d="m-.5.5h99v99h-99z" transform="matrix(-1 0 0 1 693 693)"/><path d="m-.5.5h99v99h-99z" transform="matrix(-1 0 0 1 99 693)"/><path d="m-.5.5h99v99h-99z" transform="matrix(-1 0 0 1 990 594)"/><path d="m-.5.5h99v99h-99z" transform="matrix(-1 0 0 1 396 594)"/><path d="m-.5.5h99v99h-99z" transform="matrix(-1 0 0 1 693 594)"/><path d="m-.5.5h99v99h-99z" transform="matrix(-1 0 0 1 990 396)"/><path d="m-.5.5h99v99h-99z" transform="matrix(-1 0 0 1 396 396)"/><path d="m-.5.5h99v99h-99z" transform="matrix(-1 0 0 1 693 396)"/><path d="m-.5.5h99v99h-99z" transform="matrix(-1 0 0 1 693 792)"/><path d="m-.5.5h99v99h-99z" transform="matrix(-1 0 0 1 891 0)"/><path d="m-.5.5h99v99h-99z" transform="matrix(-1 0 0 1 891 495)"/><path d="m-.5.5h99v99h-99z" transform="matrix(-1 0 0 1 297 495)"/><path d="m-.5.5h99v99h-99z" transform="matrix(-1 0 0 1 594 495)"/><path d="m-.5.5h99v99h-99z" transform="matrix(-1 0 0 1 891 297)"/><path d="m-.5.5h99v99h-99z" transform="matrix(-1 0 0 1 891 693)"/><path d="m-.5.5h99v99h-99z" transform="matrix(-1 0 0 1 297 693)"/><path d="m-.5.5h99v99h-99z" transform="matrix(-1 0 0 1 594 297)"/><path d="m-.5.5h99v99h-99z" transform="matrix(-1 0 0 1 594 693)"/><path d="m-.5.5h99v99h-99z" transform="matrix(-1 0 0 1 891 198)"/><path d="m-.5.5h99v99h-99z" transform="matrix(-1 0 0 1 891 594)"/><path d="m-.5.5h99v99h-99z" transform="matrix(-1 0 0 1 594 198)"/><path d="m-.5.5h99v99h-99z" transform="matrix(-1 0 0 1 594 594)"/><path d="m-.5.5h99v99h-99z" transform="matrix(-1 0 0 1 891 396)"/><path d="m-.5.5h99v99h-99z" transform="matrix(-1 0 0 1 594 396)"/></g></svg>