<svg width="54" height="55" viewBox="0 0 54 55" fill="none" xmlns="http://www.w3.org/2000/svg">
<g opacity="0.15">
<circle cx="27" cy="24" r="24" fill="url(#paint0_linear_11_64)"/>
<circle cx="27" cy="24" r="23.5" stroke="white" stroke-opacity="0.4"/>
</g>
<g filter="url(#filter0_d_11_64)">
<path fill-rule="evenodd" clip-rule="evenodd" d="M33.364 17.636C29.8492 14.1213 24.1508 14.1213 20.636 17.636C17.1213 21.1508 17.1213 26.8492 20.636 30.364C24.1508 33.8787 29.8492 33.8787 33.364 30.364C36.8787 26.8492 36.8787 21.1508 33.364 17.636ZM19.2218 16.2218C23.5176 11.9261 30.4824 11.9261 34.7782 16.2218C39.0739 20.5176 39.0739 27.4824 34.7782 31.7782C30.4824 36.0739 23.5176 36.0739 19.2218 31.7782C14.9261 27.4824 14.9261 20.5176 19.2218 16.2218ZM24.1716 22.1716C23.6193 22.1716 23.1716 21.7239 23.1716 21.1716C23.1716 20.6193 23.6193 20.1716 24.1716 20.1716H29.8284C30.3807 20.1716 30.8284 20.6193 30.8284 21.1716V26.8284C30.8284 27.3807 30.3807 27.8284 29.8284 27.8284C29.2761 27.8284 28.8284 27.3807 28.8284 26.8284V23.5858L24.8787 27.5355C24.4882 27.9261 23.855 27.9261 23.4645 27.5355C23.0739 27.145 23.0739 26.5118 23.4645 26.1213L27.4142 22.1716H24.1716Z" fill="url(#paint1_linear_11_64)"/>
</g>
<defs>
<filter id="filter0_d_11_64" x="0" y="1" width="54" height="54" filterUnits="userSpaceOnUse" color-interpolation-filters="sRGB">
<feFlood flood-opacity="0" result="BackgroundImageFix"/>
<feColorMatrix in="SourceAlpha" type="matrix" values="0 0 0 0 0 0 0 0 0 0 0 0 0 0 0 0 0 0 127 0" result="hardAlpha"/>
<feOffset dy="4"/>
<feGaussianBlur stdDeviation="8"/>
<feComposite in2="hardAlpha" operator="out"/>
<feColorMatrix type="matrix" values="0 0 0 0 0.941176 0 0 0 0 0.14902 0 0 0 0 0.384314 0 0 0 1 0"/>
<feBlend mode="normal" in2="BackgroundImageFix" result="effect1_dropShadow_11_64"/>
<feBlend mode="normal" in="SourceGraphic" in2="effect1_dropShadow_11_64" result="shape"/>
</filter>
<linearGradient id="paint0_linear_11_64" x1="27" y1="0" x2="27" y2="48" gradientUnits="userSpaceOnUse">
<stop stop-color="#3286F1"/>
<stop offset="1" stop-color="#C43AC4"/>
</linearGradient>
<linearGradient id="paint1_linear_11_64" x1="35.4615" y1="17.7183" x2="22.1326" y2="13.2761" gradientUnits="userSpaceOnUse">
<stop stop-color="#FF1E56"/>
<stop offset="1" stop-color="#9C51A1"/>
</linearGradient>
</defs>
</svg>
