<svg width="54" height="55" viewBox="0 0 54 55" fill="none" xmlns="http://www.w3.org/2000/svg">
<g opacity="0.15">
<circle cx="27" cy="24" r="24" fill="url(#paint0_linear_11_60)"/>
<circle cx="27" cy="24" r="23.5" stroke="white" stroke-opacity="0.4"/>
</g>
<g filter="url(#filter0_d_11_60)">
<path fill-rule="evenodd" clip-rule="evenodd" d="M30.663 15.7734C28.8902 14.9835 26.9096 14.7878 25.0166 15.2155C23.1235 15.6433 21.4194 16.6715 20.1585 18.1468C18.8975 19.6221 18.1472 21.4655 18.0195 23.4021C17.8918 25.3387 18.3935 27.2646 19.4499 28.8928C20.5062 30.5209 22.0605 31.764 23.881 32.4365C25.7015 33.1091 27.6907 33.1752 29.5518 32.6249C31.413 32.0746 33.0464 30.9375 34.2084 29.3831C35.3705 27.8286 35.9989 25.9402 36 23.9994V23.08C36 22.5277 36.4477 22.08 37 22.08C37.5523 22.08 38 22.5277 38 23.08V24C37.9986 26.3721 37.2306 28.6807 35.8103 30.5806C34.39 32.4804 32.3936 33.8703 30.1189 34.5428C27.8442 35.2154 25.413 35.1346 23.1879 34.3126C20.9628 33.4906 19.0631 31.9713 17.7721 29.9813C16.481 27.9914 15.8678 25.6374 16.0238 23.2705C16.1799 20.9036 17.0969 18.6505 18.6381 16.8473C20.1793 15.0442 22.2621 13.7875 24.5758 13.2647C26.8896 12.742 29.3103 12.9811 31.477 13.9466C31.9815 14.1713 32.2082 14.7625 31.9834 15.267C31.7587 15.7715 31.1675 15.9982 30.663 15.7734Z" fill="url(#paint1_linear_11_60)"/>
<path fill-rule="evenodd" clip-rule="evenodd" d="M37.7068 15.2925C38.0975 15.6829 38.0978 16.316 37.7075 16.7067L27.7075 26.7167C27.52 26.9044 27.2656 27.0099 27.0003 27.01C26.735 27.0101 26.4805 26.9047 26.2929 26.7171L23.2929 23.7171C22.9024 23.3266 22.9024 22.6934 23.2929 22.3029C23.6834 21.9124 24.3166 21.9124 24.7071 22.3029L26.9997 24.5954L36.2925 15.2932C36.6829 14.9025 37.316 14.9022 37.7068 15.2925Z" fill="url(#paint2_linear_11_60)"/>
</g>
<defs>
<filter id="filter0_d_11_60" x="0" y="0.994263" width="54" height="54" filterUnits="userSpaceOnUse" color-interpolation-filters="sRGB">
<feFlood flood-opacity="0" result="BackgroundImageFix"/>
<feColorMatrix in="SourceAlpha" type="matrix" values="0 0 0 0 0 0 0 0 0 0 0 0 0 0 0 0 0 0 127 0" result="hardAlpha"/>
<feOffset dy="4"/>
<feGaussianBlur stdDeviation="8"/>
<feComposite in2="hardAlpha" operator="out"/>
<feColorMatrix type="matrix" values="0 0 0 0 0.941176 0 0 0 0 0.14902 0 0 0 0 0.384314 0 0 0 1 0"/>
<feBlend mode="normal" in2="BackgroundImageFix" result="effect1_dropShadow_11_60"/>
<feBlend mode="normal" in="SourceGraphic" in2="effect1_dropShadow_11_60" result="shape"/>
</filter>
<linearGradient id="paint0_linear_11_60" x1="27" y1="0" x2="27" y2="48" gradientUnits="userSpaceOnUse">
<stop stop-color="#3286F1"/>
<stop offset="1" stop-color="#C43AC4"/>
</linearGradient>
<linearGradient id="paint1_linear_11_60" x1="35.4615" y1="17.7125" x2="22.1326" y2="13.2704" gradientUnits="userSpaceOnUse">
<stop stop-color="#FF1E56"/>
<stop offset="1" stop-color="#9C51A1"/>
</linearGradient>
<linearGradient id="paint2_linear_11_60" x1="35.4615" y1="17.7125" x2="22.1326" y2="13.2704" gradientUnits="userSpaceOnUse">
<stop stop-color="#FF1E56"/>
<stop offset="1" stop-color="#9C51A1"/>
</linearGradient>
</defs>
</svg>
