<svg width="54" height="55" viewBox="0 0 54 55" fill="none" xmlns="http://www.w3.org/2000/svg">
<g opacity="0.15">
<circle cx="27" cy="24" r="24" fill="url(#paint0_linear_11_64)"/>
<circle cx="27" cy="24" r="23.5" stroke="white" stroke-opacity="0.4"/>
</g>
<g filter="url(#filter0_d_11_64)">

<path  transform="translate(14 12)" fill="url(#paint1_linear_11_64)" d="M9.3 12c0 0.2-0.1 0.4-0.2 0.5l-2.8 2.8c-0.3 0.3-0.8 0.3-1.1 0c-0.3-0.3-0.3-0.8 0-1.1L7.4 12L5.2 9.8C4.9 9.5 4.9 9 5.2 8.7c0.3-0.3 0.8-0.3 1.1 0L9 11.5C9.2 11.6 9.3 11.8 9.3 12z"/>
<path  transform="translate(14 12)" fill="url(#paint1_linear_11_64)" d="M11.2 14c-0.4 0-0.8 0.3-0.8 0.8s0.3 0.8 0.8 0.8h5c0.4 0 0.8-0.3 0.8-0.8S16.7 14 16.2 14H11.2z"/>
<path  transform="translate(14 12)" fill="url(#paint1_linear_11_64)" fill-rule="evenodd" clip-rule="evenodd" d="M0 4.8C0 3.8 0.8 3 1.8 3h20.5c1 0 1.8 0.8 1.8 1.8v14.5c0 1-0.8 1.8-1.8 1.8H1.8c-1 0-1.8-0.8-1.8-1.8V4.8z M1.8 4.5c-0.1 0-0.2 0.1-0.2 0.2v14.5c0 0.1 0.1 0.2 0.2 0.2h20.5c0.1 0 0.2-0.1 0.2-0.2V4.8c0-0.1-0.1-0.2-0.2-0.2H1.8z"/>
</g>
<defs>
<filter id="filter0_d_11_64" x="0" y="1" width="54" height="54" filterUnits="userSpaceOnUse" color-interpolation-filters="sRGB">
<feFlood flood-opacity="0" result="BackgroundImageFix"/>
<feColorMatrix in="SourceAlpha" type="matrix" values="0 0 0 0 0 0 0 0 0 0 0 0 0 0 0 0 0 0 127 0" result="hardAlpha"/>
<feOffset dy="4"/>
<feGaussianBlur stdDeviation="8"/>
<feComposite in2="hardAlpha" operator="out"/>
<feColorMatrix type="matrix" values="0 0 0 0 0.941176 0 0 0 0 0.14902 0 0 0 0 0.384314 0 0 0 1 0"/>
<feBlend mode="normal" in2="BackgroundImageFix" result="effect1_dropShadow_11_64"/>
<feBlend mode="normal" in="SourceGraphic" in2="effect1_dropShadow_11_64" result="shape"/>
</filter>
<linearGradient id="paint0_linear_11_64" x1="1" y1="0" x2="27" y2="48" gradientUnits="userSpaceOnUse">
<stop stop-color="#3286F1"/>
<stop offset="1" stop-color="#C43AC4"/>
</linearGradient>
<linearGradient id="paint1_linear_11_64" x1="16" y1="14" x2="11" y2="6" gradientUnits="userSpaceOnUse">
<stop stop-color="#FF1E56"/>
<stop offset="1" stop-color="#9C51A1"/>
</linearGradient>
</defs>
</svg>
