<svg width="54" height="55" viewBox="0 0 54 55" fill="none" xmlns="http://www.w3.org/2000/svg">
<g opacity="0.15">
<circle cx="27" cy="24" r="24" fill="url(#paint0_linear_11_49)"/>
<circle cx="27" cy="24" r="23.5" stroke="white" stroke-opacity="0.4"/>
</g>
<g filter="url(#filter0_d_11_49)">
<path fill-rule="evenodd" clip-rule="evenodd" d="M36.7072 13.2929C37.0977 13.6834 37.0977 14.3166 36.7072 14.7071L35.4143 16L37.7072 18.2929C38.0977 18.6834 38.0977 19.3166 37.7072 19.7071L34.2072 23.2071C33.8166 23.5976 33.1835 23.5976 32.793 23.2071L30.5001 20.9142L27.7536 23.6607C28.0611 24.0765 28.3185 24.5285 28.5198 25.0075C28.8518 25.7978 29.0242 26.646 29.0271 27.5033C29.03 28.3605 28.8632 29.2099 28.5365 30.0024C28.2098 30.795 27.7295 31.5151 27.1233 32.1213C26.5171 32.7274 25.797 33.2077 25.0045 33.5344C24.2119 33.8612 23.3626 34.0279 22.5053 34.025C21.6481 34.0221 20.7999 33.8497 20.0095 33.5177C19.2192 33.1857 18.5023 32.7006 17.9002 32.0904L17.8927 32.0828C16.7087 30.8568 16.0536 29.2149 16.0684 27.5106C16.0832 25.8063 16.7668 24.176 17.972 22.9709C19.1771 21.7657 20.8074 21.0821 22.5117 21.0673C23.8845 21.0554 25.2168 21.4782 26.3239 22.2619L35.293 13.2929C35.6835 12.9024 36.3166 12.9024 36.7072 13.2929ZM34.0001 17.4142L31.9143 19.5L33.5001 21.0858L35.5858 19L34.0001 17.4142ZM19.3277 30.6895C18.5103 29.8412 18.0581 28.7061 18.0683 27.528C18.0786 26.3481 18.5518 25.2194 19.3862 24.3851C20.2205 23.5508 21.3492 23.0775 22.529 23.0673C23.7089 23.057 24.8456 23.5106 25.6943 24.3303C25.7034 24.339 25.7126 24.3476 25.7219 24.3559C26.1283 24.7656 26.4522 25.2498 26.6759 25.7821C26.9057 26.3293 27.0251 26.9165 27.0271 27.51C27.0291 28.1035 26.9137 28.6915 26.6875 29.2402C26.4613 29.7889 26.1288 30.2874 25.7091 30.707C25.2894 31.1267 24.7909 31.4592 24.2422 31.6854C23.6935 31.9116 23.1055 32.027 22.512 32.025C21.9186 32.023 21.3313 31.9037 20.7842 31.6738C20.2387 31.4446 19.7437 31.1101 19.3277 30.6895ZM19.3277 30.6895L19.3313 30.6933L18.6121 31.388L19.3239 30.6856L19.3277 30.6895Z" fill="url(#paint1_linear_11_49)"/>
</g>
<defs>
<filter id="filter0_d_11_49" x="0.0681458" y="1" width="53.9319" height="53.0251" filterUnits="userSpaceOnUse" color-interpolation-filters="sRGB">
<feFlood flood-opacity="0" result="BackgroundImageFix"/>
<feColorMatrix in="SourceAlpha" type="matrix" values="0 0 0 0 0 0 0 0 0 0 0 0 0 0 0 0 0 0 127 0" result="hardAlpha"/>
<feOffset dy="4"/>
<feGaussianBlur stdDeviation="8"/>
<feComposite in2="hardAlpha" operator="out"/>
<feColorMatrix type="matrix" values="0 0 0 0 0.941176 0 0 0 0 0.14902 0 0 0 0 0.384314 0 0 0 1 0"/>
<feBlend mode="normal" in2="BackgroundImageFix" result="effect1_dropShadow_11_49"/>
<feBlend mode="normal" in="SourceGraphic" in2="effect1_dropShadow_11_49" result="shape"/>
</filter>
<linearGradient id="paint0_linear_11_49" x1="27" y1="0" x2="27" y2="48" gradientUnits="userSpaceOnUse">
<stop stop-color="#3286F1"/>
<stop offset="1" stop-color="#C43AC4"/>
</linearGradient>
<linearGradient id="paint1_linear_11_49" x1="35.4694" y1="17.5092" x2="22.2978" y2="12.9301" gradientUnits="userSpaceOnUse">
<stop stop-color="#FF1E56"/>
<stop offset="1" stop-color="#9C51A1"/>
</linearGradient>
</defs>
</svg>
