<svg xmlns="http://www.w3.org/2000/svg" fill="none" viewBox="0 0 201 50" height="50" width="201">
<path fill="white" d="M43.2922 0.383789H6.8553C3.25363 0.383789 0.342285 3.28068 0.342285 6.84954V43.1354C0.342285 46.7192 3.26864 49.616 6.8553 49.616H43.2922C46.8938 49.616 49.8052 46.7042 49.8052 43.1354V6.86447C49.8052 3.28068 46.8788 0.383789 43.2922 0.383789ZM11.6727 26.7395C11.6727 19.0493 17.9306 12.8225 25.6442 12.8225C33.3728 12.8225 39.6157 19.0344 39.6157 26.7246C39.6157 34.4148 33.3578 40.6417 25.6442 40.6417C17.9306 40.6417 11.6727 34.4298 11.6727 26.7395ZM15.7996 26.7395C15.7996 32.1451 20.2117 36.5352 25.6442 36.5352C31.0917 36.5352 35.4888 32.1451 35.4888 26.7395C35.4888 21.334 31.0767 16.9439 25.6442 16.9439C20.2117 16.9439 15.7996 21.334 15.7996 26.7395ZM25.6442 26.2468V18.9448C25.6442 18.7806 25.7943 18.6611 25.9443 18.6611C28.8407 18.7656 31.3468 20.3783 32.6975 22.7377C32.7725 22.887 32.7275 23.0662 32.5774 23.1408L26.0644 26.5006C25.8693 26.6052 25.6442 26.4558 25.6442 26.2468ZM15.6646 12.7329L16.52 13.5841C16.64 13.7185 16.625 13.9275 16.475 14.0171C15.7846 14.5099 15.1544 15.0474 14.5391 15.6597C13.9388 16.257 13.3985 16.8991 12.9033 17.571C12.7833 17.7054 12.5882 17.7353 12.4531 17.6009L11.6127 16.7647C10.7723 15.9285 10.7723 14.5845 11.6127 13.7483L12.6332 12.7329C13.4736 11.8967 14.8242 11.8967 15.6646 12.7329ZM30.2213 9.6867V11.3741C30.2213 11.5682 30.0412 11.7026 29.8612 11.6578C28.4955 11.2845 27.0849 11.0903 25.6592 11.0903C24.1735 11.0903 22.7028 11.2994 21.3072 11.7026C21.1121 11.7474 20.932 11.613 20.932 11.4189V9.6867C20.932 8.50704 21.8925 7.55136 23.078 7.55136H28.0753C29.2609 7.55136 30.2213 8.50704 30.2213 9.6867Z" clip-rule="evenodd" fill-rule="evenodd"/>
<path fill="white" d="M124.015 38.0434C124.015 42.0304 122.994 44.9422 120.938 46.7938C118.882 48.6455 115.746 49.5713 111.514 49.5713C109.968 49.5713 106.757 49.2726 104.19 48.7052L105.136 44.0761C107.282 44.5241 110.118 44.6436 111.604 44.6436C113.96 44.6436 115.641 44.1657 116.646 43.21C117.652 42.2544 118.147 40.8358 118.147 38.9543V37.9986C117.562 38.2823 116.796 38.566 115.851 38.8647C114.905 39.1484 113.81 39.2977 112.579 39.2977C110.959 39.2977 109.488 39.0439 108.152 38.5362C106.817 38.0285 105.661 37.2819 104.716 36.2963C103.77 35.3108 103.02 34.0714 102.495 32.5931C101.969 31.1148 101.699 28.4717 101.699 26.5305C101.699 24.7087 101.984 22.4241 102.54 20.901C103.11 19.3779 103.92 18.0638 105.016 16.9737C106.096 15.8837 107.417 15.0475 108.963 14.4352C110.508 13.823 112.324 13.4347 114.29 13.4347C116.196 13.4347 117.952 13.6737 119.663 13.9574C121.373 14.2411 122.829 14.5397 124.015 14.8683V38.0434ZM107.702 26.5156C107.702 28.9645 108.242 31.6822 109.323 32.8171C110.403 33.9519 111.799 34.5194 113.51 34.5194C114.44 34.5194 115.326 34.385 116.151 34.1311C116.976 33.8773 117.637 33.5786 118.162 33.2202V18.7208C117.742 18.6312 115.986 18.2729 114.29 18.2281C112.159 18.1683 110.538 19.0344 109.398 20.4231C108.272 21.8118 107.702 24.2458 107.702 26.5156ZM151.868 26.5156C151.868 28.4866 151.582 29.9799 150.997 31.6075C150.412 33.2352 149.586 34.6239 148.521 35.7737C147.455 36.9235 146.18 37.8194 144.679 38.4466C143.178 39.0737 140.867 39.4321 139.712 39.4321C138.556 39.4172 136.26 39.0887 134.775 38.4466C133.289 37.8045 132.013 36.9235 130.948 35.7737C129.882 34.6239 129.057 33.2352 128.457 31.6075C127.856 29.9799 127.556 28.4866 127.556 26.5156C127.556 24.5445 127.826 22.6481 128.427 21.0354C129.027 19.4227 129.867 18.0489 130.948 16.8991C132.028 15.7493 133.319 14.8683 134.79 14.2411C136.275 13.6139 137.911 13.3153 139.682 13.3153C141.453 13.3153 143.088 13.6289 144.589 14.2411C146.09 14.8683 147.38 15.7493 148.431 16.8991C149.496 18.0489 150.322 19.4227 150.922 21.0354C151.552 22.6481 151.868 24.5445 151.868 26.5156ZM145.865 26.5305C145.865 24.0069 145.309 21.9014 144.229 20.4381C143.148 18.9598 141.633 18.2281 139.697 18.2281C137.761 18.2281 136.245 18.9598 135.165 20.4381C134.084 21.9164 133.559 24.0069 133.559 26.5305C133.559 29.0839 134.099 30.8012 135.18 32.2795C136.26 33.7727 137.776 34.5044 139.712 34.5044C141.648 34.5044 143.163 33.7578 144.244 32.2795C145.324 30.7862 145.865 29.0839 145.865 26.5305ZM164.939 39.4321C155.319 39.4769 155.319 31.6971 155.319 30.4577L155.304 2.86258L161.172 1.93677V29.3527C161.172 30.0546 161.172 34.5044 164.939 34.5194V39.4321ZM175.278 39.4321H169.381V14.2262L175.278 13.3004V39.4321ZM172.322 10.5379C174.288 10.5379 175.894 8.95502 175.894 6.99887C175.894 5.04272 174.303 3.45988 172.322 3.45988C170.341 3.45988 168.75 5.04272 168.75 6.99887C168.75 8.95502 170.356 10.5379 172.322 10.5379ZM189.94 13.3153C191.876 13.3153 193.512 13.5542 194.832 14.032C196.153 14.5099 197.218 15.1818 197.999 16.033C198.779 16.8841 199.334 18.0489 199.665 19.2733C200.01 20.4978 200.175 21.8417 200.175 23.32V38.3421C199.274 38.5362 197.909 38.7602 196.078 39.029C194.247 39.2977 192.191 39.4321 189.91 39.4321C188.394 39.4321 186.999 39.2828 185.753 38.9991C184.493 38.7154 183.427 38.2525 182.527 37.6104C181.641 36.9683 180.951 36.147 180.441 35.1316C179.945 34.1162 179.69 32.6827 179.69 31.1894C179.69 29.7559 179.976 28.845 180.531 27.8595C181.101 26.8739 181.866 26.0676 182.827 25.4404C183.802 24.8133 184.913 24.3653 186.188 24.0965C187.464 23.8277 188.8 23.6933 190.18 23.6933C190.826 23.6933 191.501 23.7381 192.221 23.8128C192.942 23.8875 193.692 24.0218 194.502 24.216V23.2603C194.502 22.5883 194.427 21.9462 194.262 21.3489C194.097 20.7367 193.812 20.2141 193.422 19.7512C193.017 19.2883 192.491 18.9299 191.831 18.676C191.171 18.4222 190.33 18.2281 189.325 18.2281C187.974 18.2281 186.744 18.3923 185.618 18.5864C184.493 18.7806 183.562 19.0045 182.857 19.2584L182.152 14.4651C182.887 14.2112 183.982 13.9574 185.393 13.7035C186.804 13.4497 188.319 13.3153 189.94 13.3153ZM190.435 34.5044C192.236 34.5044 193.572 34.3999 194.502 34.2207V28.2776C194.172 28.188 193.707 28.0835 193.092 27.9939C192.476 27.9043 191.801 27.8446 191.051 27.8446C190.405 27.8446 189.745 27.8894 189.085 27.9939C188.424 28.0835 187.824 28.2627 187.299 28.5165C186.774 28.7704 186.338 29.1287 186.023 29.5917C185.693 30.0546 185.543 30.3233 185.543 31.0252C185.543 32.3989 186.023 33.1904 186.894 33.713C187.779 34.2506 188.95 34.5044 190.435 34.5044ZM74.5517 13.4646C76.4876 13.4646 78.1234 13.7035 79.444 14.1814C80.7646 14.6592 81.8301 15.3312 82.6105 16.1823C83.4058 17.0484 83.9461 18.1982 84.2762 19.4227C84.6214 20.6471 84.7865 21.991 84.7865 23.4693V38.4914C83.8861 38.6855 82.5204 38.9095 80.6896 39.1783C78.8587 39.4471 76.8028 39.5815 74.5217 39.5815C73.006 39.5815 71.6104 39.4321 70.3648 39.1484C69.1042 38.8647 68.0387 38.4018 67.1383 37.7597C66.2529 37.1176 65.5626 36.2963 65.0523 35.2809C64.5571 34.2655 64.302 32.832 64.302 31.3387C64.302 29.9052 64.5871 28.9944 65.1424 28.0088C65.7127 27.0233 66.478 26.2169 67.4385 25.5898C68.4139 24.9626 69.5244 24.5146 70.8 24.2458C72.0756 23.9771 73.4112 23.8427 74.7919 23.8427C75.4372 23.8427 76.1125 23.8875 76.8328 23.9621C77.5381 24.0368 78.3035 24.1712 79.1139 24.3653V23.4096C79.1139 22.7377 79.0388 22.0956 78.8737 21.4983C78.7087 20.886 78.4235 20.3634 78.0334 19.9005C77.6282 19.4376 77.1029 19.0792 76.4426 18.8254C75.7823 18.5715 74.9419 18.3774 73.9365 18.3774C72.5858 18.3774 71.3553 18.5416 70.2297 18.7358C69.1042 18.9299 68.1738 19.1539 67.4685 19.4077L66.7631 14.6144C67.4985 14.3606 68.594 14.1067 70.0046 13.8529C71.4153 13.5841 72.931 13.4646 74.5517 13.4646ZM75.062 34.6687C76.8628 34.6687 78.1984 34.5642 79.1289 34.385V28.4419C78.7987 28.3523 78.3335 28.2477 77.7182 28.1581C77.1029 28.0685 76.4276 28.0088 75.6773 28.0088C75.032 28.0088 74.3717 28.0536 73.7114 28.1581C73.051 28.2477 72.4508 28.4269 71.9255 28.6808C71.4003 28.9346 70.9651 29.293 70.6499 29.7559C70.3198 30.2188 70.1697 30.4876 70.1697 31.1894C70.1697 32.5632 70.6499 33.3546 71.5203 33.8773C72.3907 34.3999 73.5763 34.6687 75.062 34.6687ZM98.848 39.4321C89.2285 39.4769 89.2285 31.6971 89.2285 30.4577L89.2135 2.86258L95.0812 1.93677V29.3527C95.0812 30.0546 95.0812 34.5044 98.848 34.5194V39.4321Z"/>
</svg>