<svg width="250" height="75" viewBox="0 0 250 75" fill="none" xmlns="http://www.w3.org/2000/svg">
<path fill-rule="evenodd" clip-rule="evenodd" d="M88.9442 43.2066C88.9442 44.451 88.9442 52.2659 98.5722 52.2205H98.5718V47.286C94.8014 47.2716 94.8014 42.8028 94.8014 42.0961V13L88.9277 13.9313L88.9442 43.2066ZM78.8342 47.1521C77.9029 47.3314 76.5653 47.4364 74.7629 47.4364C73.275 47.4364 72.0882 47.1665 71.2167 46.6412C70.3452 46.1178 69.8651 45.3205 69.8651 43.9421C69.8651 43.2375 70.0155 42.9676 70.3452 42.5019C70.6604 42.0384 71.0972 41.6778 71.6226 41.4223C72.148 41.1668 72.7496 40.9876 73.411 40.8969C74.0703 40.7919 74.7316 40.7465 75.3786 40.7465C76.0622 40.7464 76.7446 40.7966 77.4208 40.8969C77.8971 40.964 78.3694 41.0597 78.8342 41.1833V47.1521ZM79.149 26.8599C77.8263 26.3798 76.1887 26.1388 74.252 26.1388H74.2516C72.6301 26.1388 71.1116 26.2583 69.7003 26.5302C68.2869 26.7837 67.1908 27.0391 66.4553 27.2946L67.1599 32.1076C67.8666 31.8541 68.7979 31.6275 69.9249 31.4338C71.0519 31.2381 72.284 31.0733 73.6355 31.0733C74.641 31.0733 75.4837 31.269 76.145 31.5245C76.8064 31.7779 77.3297 32.1385 77.7356 32.6041C78.132 33.07 78.4196 33.6182 78.5783 34.2091C78.7431 34.8087 78.8193 35.4535 78.8193 36.1273V37.0874C78.0076 36.8937 77.2411 36.7577 76.5344 36.6815C75.8133 36.6073 75.1375 36.562 74.4906 36.562C73.1101 36.562 71.773 36.698 70.4956 36.9679C69.2182 37.2378 68.1077 37.6869 67.1311 38.3174C66.1689 38.9479 65.4024 39.7576 64.8338 40.7465C64.2754 41.7376 63.9911 42.6524 63.9911 44.0925C63.9911 45.5924 64.2466 47.0306 64.7431 48.0525C65.2541 49.0703 65.9443 49.8965 66.8302 50.5414C67.7327 51.1863 68.7979 51.6519 70.0609 51.9362C71.3074 52.2205 72.7043 52.3709 74.2207 52.3709C76.506 52.3709 78.5639 52.235 80.3959 51.9651C82.2271 51.6952 83.5956 51.4706 84.496 51.2769V36.187C84.496 34.7036 84.3311 33.3541 83.985 32.124C83.6549 30.894 83.1151 29.7382 82.3178 28.8687C81.5373 28.0137 80.4701 27.3399 79.149 26.8599ZM194.322 46.9852C193.391 47.1665 192.056 47.2716 190.253 47.2716C188.765 47.2716 187.593 47.0161 186.707 46.4763C185.836 45.953 185.356 45.1557 185.356 43.7773C185.356 43.0727 185.504 42.8028 185.836 42.3371C186.151 41.8735 186.586 41.513 187.113 41.2575C187.638 41.002 188.24 40.8228 188.899 40.7321C189.561 40.627 190.222 40.5817 190.867 40.5817C191.551 40.5816 192.234 40.6319 192.911 40.7321C193.527 40.8228 193.992 40.9279 194.322 41.0185V46.9852ZM194.653 26.7095C193.331 26.2294 191.693 25.9904 189.756 25.9904C188.133 25.9904 186.616 26.1243 185.205 26.3798C183.792 26.6353 182.696 26.8887 181.96 27.1442L182.665 31.9592C183.371 31.7037 184.303 31.4792 185.43 31.2834C186.557 31.0898 187.789 30.9249 189.14 30.9249C190.146 30.9249 190.988 31.1186 191.65 31.3741C192.311 31.6275 192.835 31.9881 193.24 32.4537C193.637 32.9193 193.925 33.4677 194.083 34.0587C194.248 34.6583 194.322 35.3031 194.322 35.9789V36.939C193.512 36.7433 192.76 36.6073 192.039 36.5332C191.318 36.459 190.642 36.4137 189.997 36.4137C188.615 36.4137 187.278 36.5476 186 36.8175C184.723 37.0874 183.613 37.5386 182.636 38.167C181.674 38.7975 180.907 39.6072 180.339 40.5961C179.782 41.5872 179.496 42.5019 179.496 43.9421C179.496 45.442 179.751 46.8822 180.248 47.9021C180.759 48.9199 181.449 49.7461 182.335 50.391C183.238 51.0359 184.303 51.5015 185.566 51.7858C186.812 52.0701 188.209 52.2205 189.725 52.2205C192.01 52.2205 194.068 52.0866 195.9 51.8167C197.732 51.5448 199.1 51.3202 200 51.1265V36.0387C200 34.5532 199.835 33.2037 199.489 31.9736C199.159 30.7436 198.603 29.5733 197.822 28.7183C197.041 27.8633 195.974 27.1895 194.653 26.7095ZM175.697 19.6446C175.697 21.6102 174.087 23.2007 172.12 23.2007C170.152 23.2007 168.545 21.6102 168.545 19.6446C168.545 17.6811 170.138 16.0905 172.12 16.0905C174.104 16.0905 175.697 17.6811 175.697 19.6446ZM169.175 52.2205H175.078V25.9739L169.175 26.9032V52.2205ZM155.101 43.2066C155.101 44.451 155.101 52.2659 164.729 52.2205V47.286C160.959 47.2716 160.959 42.8028 160.959 42.0961V13L155.085 13.9313L155.101 43.2066ZM143.998 33.1439C145.08 34.6129 145.636 36.7268 145.636 39.2631C145.636 41.8282 145.096 43.5362 144.015 45.0362C142.933 46.5217 141.415 47.2716 139.478 47.2716C137.539 47.2716 136.023 46.5361 134.941 45.0362C133.86 43.5507 133.318 41.8282 133.318 39.2631C133.318 36.7268 133.845 34.6273 134.926 33.1439C136.006 31.6584 137.525 30.9249 139.462 30.9249C141.4 30.9249 142.917 31.6584 143.998 33.1439ZM150.773 44.3624C151.36 42.7265 151.644 41.2287 151.644 39.2487H151.644C151.644 37.2687 151.329 35.3629 150.699 33.7435C150.097 32.124 149.27 30.7436 148.206 29.5898C147.155 28.434 145.863 27.548 144.359 26.9196C142.857 26.3036 141.221 25.9904 139.447 25.9904C137.675 25.9904 136.037 26.2892 134.549 26.9196C133.078 27.548 131.786 28.434 130.705 29.5898C129.623 30.7436 128.782 32.124 128.181 33.7435C127.579 35.3629 127.31 37.2687 127.31 39.2487C127.31 41.2287 127.61 42.7265 128.21 44.3624C128.812 45.9963 129.637 47.3911 130.705 48.547C131.77 49.7008 133.047 50.5867 134.535 51.2316C136.022 51.8765 138.32 52.2061 139.478 52.2205C140.633 52.2205 142.948 51.86 144.449 51.2316C145.952 50.6011 147.229 49.7008 148.296 48.547C149.361 47.3911 150.188 45.9963 150.773 44.3624ZM109.057 45.576C107.976 44.4366 107.436 41.7067 107.436 39.2487C107.436 36.9679 108.006 34.5243 109.133 33.1274C110.275 31.7346 111.896 30.8631 114.029 30.9249C115.728 30.9682 117.486 31.3288 117.906 31.4194V45.9819C117.379 46.3404 116.719 46.6412 115.893 46.8966C115.067 47.1521 114.181 47.286 113.25 47.286C111.535 47.286 110.139 46.7174 109.057 45.576ZM120.683 59.615C122.742 57.7546 123.764 54.8309 123.764 50.8257H123.763V27.548C122.577 27.2184 121.12 26.9196 119.408 26.6353C117.696 26.3489 115.938 26.1099 114.028 26.1099C112.061 26.1099 110.246 26.4993 108.698 27.1133C107.151 27.7293 105.829 28.57 104.747 29.664C103.649 30.758 102.839 32.0787 102.268 33.6075C101.712 35.1383 101.425 37.4335 101.425 39.2631C101.425 41.2122 101.697 43.8659 102.223 45.3514C102.748 46.8369 103.5 48.0813 104.446 49.0703C105.391 50.0613 106.549 50.8113 107.887 51.3202C109.222 51.8311 110.695 52.0866 112.316 52.0866C113.55 52.0866 114.646 51.9362 115.592 51.6519C116.538 51.3511 117.304 51.0647 117.889 50.7804V51.7405C117.889 53.6319 117.395 55.0555 116.387 56.0156C115.382 56.9758 113.699 57.4558 111.342 57.4558C109.854 57.4558 107.015 57.3343 104.866 56.8851L103.92 61.5353C106.49 62.1039 109.704 62.4047 111.251 62.4047C115.487 62.4047 118.627 61.4735 120.683 59.615ZM6.51066 13.0012H42.9374C46.5224 13.0012 49.448 15.9125 49.448 19.5119V55.9406C49.448 59.5256 46.5368 62.4492 42.9374 62.4492H6.51066C2.92568 62.4492 0 59.54 0 55.9406V19.4954C0 15.9125 2.90919 13.0012 6.51066 13.0012ZM29.8766 24.0397V22.344C29.8762 21.7749 29.6498 21.2294 29.2472 20.8271C28.8446 20.425 28.2988 20.1991 27.7298 20.1992H22.7252C22.1561 20.1991 21.6103 20.425 21.2078 20.8271C20.8052 21.2294 20.5788 21.7749 20.5783 22.344V24.085C20.5783 24.2787 20.7576 24.4146 20.9533 24.3693C22.369 23.9605 23.8354 23.7539 25.3089 23.7553C26.7367 23.7553 28.1501 23.949 29.5161 24.324C29.6974 24.3693 29.8766 24.2354 29.8766 24.0397ZM16.161 26.2586L15.3059 25.4036C15.1067 25.2042 14.8702 25.0461 14.6098 24.9382C14.3494 24.8303 14.0704 24.7747 13.7885 24.7747C13.5067 24.7747 13.2276 24.8303 12.9672 24.9382C12.7068 25.0461 12.4703 25.2042 12.2711 25.4036L11.2491 26.4235C11.0494 26.622 10.8908 26.8582 10.7826 27.1182C10.6744 27.3783 10.6188 27.6572 10.6188 27.9388C10.6188 28.2205 10.6744 28.4994 10.7826 28.7595C10.8908 29.0196 11.0494 29.2556 11.2491 29.4542L12.0898 30.2948C12.2257 30.4288 12.4215 30.3979 12.541 30.2639C13.0369 29.5828 13.5845 28.9408 14.1789 28.3437C14.7784 27.7423 15.4261 27.191 16.1157 26.6954C16.2656 26.6048 16.2805 26.3946 16.161 26.2586ZM25.294 31.6423V38.9771C25.294 39.1872 25.5207 39.3377 25.7143 39.2326L32.2353 35.8577C32.3836 35.7836 32.429 35.6023 32.3548 35.4539C31.0032 33.0825 28.4937 31.4631 25.5948 31.358C25.4444 31.358 25.294 31.4775 25.294 31.6423ZM25.294 49.3117C19.8568 49.3117 15.4395 44.9006 15.4395 39.4716C15.4395 34.0426 19.8568 29.6335 25.294 29.6335C30.7333 29.6335 35.149 34.0426 35.149 39.4716C35.149 44.9006 30.7482 49.3117 25.294 49.3117ZM25.294 25.4943C17.5719 25.4943 11.3085 31.7494 11.3085 39.4716C11.3085 47.1958 17.5719 53.4365 25.294 53.4365C33.0162 53.4365 39.2796 47.1813 39.2796 39.4571C39.2796 31.733 33.0306 25.4943 25.294 25.4943Z" fill="white"/>
</svg>
