<svg width="250" height="75" viewBox="0 0 250 75" fill="none" xmlns="http://www.w3.org/2000/svg">
<path d="M41.1853 11H23.9153L29.2482 27.6909H46.5184L32.5504 37.6311L37.8833 54.4107C46.8716 47.8371 49.8204 37.8791 46.5184 27.6732L41.1853 11ZM1.3122 27.6909H18.5824L23.9153 11H6.64511L1.3122 27.6909C-1.98996 37.8969 0.959032 47.8547 9.94729 54.4284L15.2802 37.6489L1.3122 27.6909ZM9.94729 54.4107L23.9153 64.3331L37.8833 54.4107L23.9153 44.3111L9.94729 54.4107ZM140.286 27.2657C136.207 27.2657 133.593 29.1262 132.375 32.156H132.057V18.4241H125.929V54.3398H132.198V38.7473C132.198 34.8847 134.582 32.6699 137.955 32.6699C141.239 32.6699 143.182 34.7784 143.182 38.3753V54.3398H149.45V37.3298C149.433 30.8626 145.795 27.2657 140.286 27.2657ZM166.385 18.3532C157.909 18.3532 152.788 25.0154 152.77 36.5858C152.77 48.1913 157.856 54.9422 166.385 54.9422C174.897 54.96 180 48.2091 180 36.5858C179.982 25.0332 174.861 18.3532 166.385 18.3532ZM159.251 36.5858C159.269 28.1339 162.006 23.6865 166.385 23.6865C169.387 23.6865 171.612 25.7419 172.725 29.7286L159.357 39.4738C159.286 38.588 159.251 37.6133 159.251 36.5858ZM166.385 49.538C163.295 49.538 161.017 47.3409 159.94 43.0884L173.378 33.29C173.484 34.3178 173.537 35.4162 173.537 36.6033C173.537 45.1084 170.8 49.538 166.385 49.538ZM97.7107 43.1238C97.7107 47.1813 94.8147 49.2013 92.0422 49.2013C89.0227 49.2013 87.0273 47.0573 87.0273 43.6731V27.6555H80.7585V44.6478C80.7585 51.0618 84.3962 54.6942 89.6231 54.6942C93.614 54.6942 96.404 52.5856 97.6224 49.6089H97.9049V54.3576H103.98V27.6555H97.7107V43.1238ZM66.5784 27.248C60.9807 27.248 56.6898 29.7463 55.3124 34.6189L61.1573 35.4518C61.7753 33.6267 63.5413 32.0674 66.6138 32.0674C69.5276 32.0674 71.1169 33.5558 71.1169 36.1782V36.2844C71.1169 38.0918 69.2273 38.1804 64.5302 38.6764C59.3738 39.2258 54.4293 40.7851 54.4293 46.7916C54.4293 52.0364 58.2613 54.8182 63.3293 54.8182C67.4969 54.8182 69.9867 52.8513 71.1345 50.6189H71.3465V54.2867H77.368V36.4262C77.3856 29.3742 71.6642 27.248 66.5784 27.248ZM71.1345 44.7009C71.1345 47.6776 68.7507 50.1936 64.9716 50.1936C62.3582 50.1936 60.4862 48.9887 60.4862 46.6853C60.4862 44.2756 62.5878 43.2656 65.3778 42.858C67.02 42.6278 70.3045 42.2202 71.1345 41.5469V44.7009ZM117.365 20.9756H111.096V27.6555H107.299V32.6699H111.096V47.4471C111.061 52.4616 114.698 54.9422 119.413 54.8004C120.826 54.7651 121.885 54.5347 122.609 54.322V49.3431C122.133 49.414 121.02 49.5558 120.226 49.5736C118.654 49.6089 117.382 49.0242 117.382 46.4727V32.6699H122.609V27.6732H117.365V20.9756Z" fill="white"/>
</svg>
