<svg width="250" height="75" viewBox="0 0 250 75" fill="none" xmlns="http://www.w3.org/2000/svg">
<path fill-rule="evenodd" clip-rule="evenodd" d="M44.3278 6H11.6976C5.2372 6 0 11.2372 0 17.6976V56.4844C0 62.9448 5.2372 68.182 11.6976 68.182H44.3278C54.1884 68.182 62.182 60.1884 62.182 50.3278V50.2389C62.182 44.5702 59.6504 41.4606 58.0011 39.4348C57.2043 38.456 56.6134 37.7302 56.6134 37.091C56.6134 36.4518 57.2043 35.726 58.0011 34.7472C59.6504 32.7214 62.182 29.6118 62.182 23.9431V23.8542C62.182 13.9936 54.1884 6 44.3278 6ZM12.7693 21.5453C12.7693 20.0122 14.0122 18.7693 15.5453 18.7693H44.8041C46.3373 18.7693 47.5801 20.0122 47.5801 21.5453V52.6363C47.5801 54.1694 46.3373 55.4123 44.8041 55.4123H15.5453C14.0122 55.4123 12.7693 54.1694 12.7693 52.6363V21.5453ZM21.0978 27.6524H39.2249C40.1448 27.6524 40.8905 28.3981 40.8905 29.318C40.8905 30.2378 40.1448 30.9835 39.2249 30.9835H21.0978C20.1779 30.9835 19.4322 30.2378 19.4322 29.318C19.4322 28.3981 20.1779 27.6524 21.0978 27.6524ZM39.2249 35.4257H21.0978C20.1779 35.4257 19.4322 36.1714 19.4322 37.0913C19.4322 38.0112 20.1779 38.7569 21.0978 38.7569H39.2249C40.1448 38.7569 40.8905 38.0112 40.8905 37.0913C40.8905 36.1714 40.1448 35.4257 39.2249 35.4257ZM26.0945 43.1983H34.7C35.6199 43.1983 36.3656 43.944 36.3656 44.8638C36.3656 45.7837 35.6199 46.5294 34.7 46.5294H26.0945C25.1746 46.5294 24.4289 45.7837 24.4289 44.8638C24.4289 43.944 25.1746 43.1983 26.0945 43.1983ZM151.27 27.7748C151.869 28.3914 152.627 28.6996 153.545 28.6996C154.462 28.6996 155.221 28.3979 155.82 27.7945C156.419 27.191 156.718 26.4301 156.718 25.5118C156.718 24.6198 156.419 23.872 155.82 23.2686C155.221 22.6651 154.462 22.3634 153.545 22.3634C152.627 22.3634 151.869 22.6651 151.27 23.2686C150.671 23.872 150.372 24.6198 150.372 25.5118C150.372 26.4039 150.671 27.1582 151.27 27.7748ZM91.001 22.9145H81.5486C80.7938 22.9145 80.1819 23.5264 80.1819 24.2812V51.4582C80.1819 52.213 80.7938 52.8249 81.5486 52.8249H91.6891C95.0279 52.8249 97.5829 52.0837 99.3543 50.6013C101.126 49.1189 102.011 46.974 102.011 44.1666C102.011 42.3825 101.552 40.8345 100.635 39.5226C99.7174 38.2108 98.4686 37.3318 96.8884 36.8858C98.0098 36.2823 98.8955 35.4165 99.5454 34.2883C100.195 33.1601 100.52 31.9139 100.52 30.5495C100.52 28.1095 99.6983 26.227 98.0544 24.902C96.4105 23.577 94.0594 22.9145 91.001 22.9145ZM91.2688 48.1416H85.7254V39.7588H90.9629C94.4037 39.7588 96.124 41.1231 96.124 43.8518C96.124 45.2161 95.7035 46.2722 94.8624 47.0199C94.0213 47.7677 92.8235 48.1416 91.2688 48.1416ZM85.7254 35.1539H90.1601C91.7403 35.1539 92.9254 34.8391 93.7155 34.2094C94.5056 33.5797 94.9006 32.6089 94.9006 31.297C94.9006 30.0901 94.512 29.1718 93.7346 28.5422C92.9573 27.9125 91.7913 27.5976 90.2366 27.5976H85.7254V35.1539ZM110.173 52.1557C111.537 53.0216 113.072 53.4545 114.78 53.4545C116.233 53.4545 117.507 53.1855 118.603 52.6477C119.699 52.1098 120.578 51.3162 121.241 50.2667L121.297 52.1619C121.308 52.5312 121.611 52.8248 121.98 52.8248H125.718C126.096 52.8248 126.402 52.5189 126.402 52.1415V33.4761C126.402 33.0987 126.096 32.7927 125.718 32.7927H121.981C121.611 32.7927 121.309 33.0866 121.298 33.456L121.241 35.3902C120.604 34.367 119.743 33.5733 118.66 33.0092C117.577 32.4451 116.373 32.1631 115.047 32.1631C113.263 32.1631 111.658 32.655 110.23 33.6389C108.803 34.6228 107.701 35.9215 106.924 37.5351C106.146 39.1487 105.758 40.9262 105.758 42.8678C105.758 44.9668 106.153 46.823 106.943 48.4366C107.733 50.0502 108.81 51.2899 110.173 52.1557ZM116.233 48.5741C117.736 48.5741 118.973 48.0363 119.941 46.9605C120.91 45.8848 121.394 44.4943 121.394 42.7888C121.394 41.1097 120.916 39.7322 119.96 38.6565C119.004 37.5808 117.762 37.0429 116.233 37.0429C114.704 37.0429 113.461 37.5808 112.505 38.6565C111.55 39.7322 111.072 41.1097 111.072 42.7888C111.072 44.4943 111.556 45.8848 112.524 46.9605C113.493 48.0363 114.729 48.5741 116.233 48.5741ZM133.857 52.9232C135.182 53.2774 136.584 53.4545 138.062 53.4545C140.687 53.4545 142.745 52.9035 144.236 51.8015C145.727 50.6996 146.472 49.1778 146.472 47.2363C146.472 45.4784 145.969 44.1009 144.962 43.1039C143.956 42.1069 142.229 41.2411 139.782 40.5065C138.457 40.1129 137.571 39.7521 137.125 39.4242C136.679 39.0962 136.456 38.6436 136.456 38.0664C136.456 37.0432 137.386 36.5315 139.247 36.5315C140.19 36.5315 141.178 36.6693 142.21 36.9448C142.721 37.0812 143.355 37.3227 144.113 37.6691C144.173 37.6965 144.236 37.7151 144.301 37.7243C144.675 37.7771 145.021 37.517 145.074 37.1433L145.485 34.2338C145.527 33.9358 145.369 33.6453 145.096 33.5184C144.131 33.07 143.303 32.7625 142.611 32.596C141.413 32.3074 140.215 32.1631 139.018 32.1631C136.571 32.1631 134.647 32.714 133.245 33.816C131.843 34.918 131.142 36.4266 131.142 38.3419C131.142 40.0473 131.633 41.4051 132.614 42.4152C133.595 43.4253 135.233 44.2584 137.527 44.9143C138.979 45.3341 139.935 45.7014 140.394 46.0163C140.853 46.3311 141.082 46.7902 141.082 47.3937C141.082 48.5219 139.999 49.086 137.832 49.086C136.762 49.086 135.647 48.9023 134.487 48.535C133.899 48.3486 133.171 48.0227 132.304 47.5573C132.234 47.5198 132.158 47.4947 132.08 47.4832C131.706 47.4287 131.359 47.6872 131.305 48.0606L130.865 51.0707C130.824 51.349 130.958 51.6238 131.202 51.7632L131.202 51.7631C132.193 52.3283 133.077 52.715 133.857 52.9232ZM151.591 32.7926H155.538C155.915 32.7926 156.221 33.0986 156.221 33.476V52.1414C156.221 52.5187 155.915 52.8247 155.538 52.8247H151.591C151.213 52.8247 150.907 52.5187 150.907 52.1414V33.476C150.907 33.0986 151.213 32.7926 151.591 32.7926ZM162.562 32.7927H166.329C166.702 32.7927 167.006 33.0923 167.012 33.4655L167.04 35.2722C167.601 34.2751 168.384 33.5077 169.391 32.9698C170.398 32.432 171.577 32.1631 172.927 32.1631C175.221 32.1631 176.973 32.8911 178.184 34.3473C179.395 35.8035 180 37.909 180 40.6639V52.1415C180 52.5189 179.694 52.8248 179.317 52.8248H175.369C174.992 52.8248 174.686 52.5189 174.686 52.1415V41.6871C174.686 38.5649 173.526 37.0038 171.207 37.0038C169.933 37.0038 168.945 37.4433 168.244 38.3222C167.543 39.2012 167.193 40.4409 167.193 42.0413V52.1415C167.193 52.5189 166.887 52.8248 166.51 52.8248H162.562C162.185 52.8248 161.879 52.5189 161.879 52.1415V33.4761C161.879 33.0987 162.185 32.7927 162.562 32.7927Z" fill="white"/>
</svg>
