<svg xmlns="http://www.w3.org/2000/svg" xmlns:xlink="http://www.w3.org/1999/xlink" width="132px" height="30px" viewBox="0 0 132 30">
  <path fill="#fcd042" d="M69 29.6H42.9v-2.2H69v2.2zm35.7-2.1v2.2H132v-2.2h-27.3z"/>
  <path fill="#0060d3" d="M60.5 12.2H42.9V9.7h17.6v2.5zm52.8-2.5v2.5H132V9.7h-18.7z"/>
  <path fill="#002d5e" d="M36.3 14.4c2 0 3.3.9 4.2 2V.4c0-.3-.4-.5-.6-.3L20 14.5h.5c2.1 0 3.1 1.3 3.1 2.7 0 1.1-.6 1.9-1.4 2.3-.1.1-.1.2 0 .3.9.4 1.6 1.4 1.6 2.5 0 1.6-1.1 2.9-3.1 2.9H15c-.1 0-.2-.1-.2-.2v-6.8L.1 29.1c-.3.2-.1.6.2.6h39.8c.2 0 .3-.2.3-.3V24c-1.1 1-2.5 1.6-4.2 1.6-3.2 0-5.8-2.2-5.8-5.6.1-3.5 2.7-5.6 5.9-5.6m-7.9 10.7c0 .1-.1.2-.2.2h-1.9c-.1 0-.2-.1-.2-.2V14.7c0-.1.1-.2.2-.2h1.9c.1 0 .2.1.2.2v10.4zm-11.2-6.5v-1.9c0-.1 0-.1.1-.1H20c.8 0 1.3.5 1.3 1.1 0 .7-.5 1.1-1.3 1.1h-2.7s-.1-.1-.1-.2m0 4.5v-2c0-.1.1-.2.2-.2h2.8c.9 0 1.4.6 1.4 1.2 0 .8-.5 1.2-1.4 1.2h-2.8c-.2 0-.2-.1-.2-.2M39 17.7l1.5-.8v2.4H36c-.1 0-.2.1-.2.2V21c0 .1.1.2.2.2h2.5c.1 0 .2.1.2.2v1c0 .1 0 .1-.1.1-.5.4-1.3.8-2.2.8-2 0-3.4-1.5-3.4-3.5s1.4-3.5 3.4-3.5c1.1 0 1.9.6 2.4 1.2 0 .2.1.3.2.2m3.1 2.2c0-3.3 2.4-5.6 5.5-5.6 2 0 3.3 1 4.1 2.2.1.1 0 .2-.1.3l-1.2.7c-.1 0-.2 0-.2-.1-.5-.8-1.5-1.4-2.5-1.4-2.1 0-3.6 1.6-3.6 3.9 0 2.2 1.5 3.9 3.6 3.9 1.1 0 2-.6 2.5-1.4 0-.1.1-.1.2-.1l1.2.6c.1.1.1.2.1.3-.8 1.2-2.1 2.3-4.1 2.3-3.1 0-5.5-2.3-5.5-5.6m10.7 0c0-2.7 1.5-4.8 3.9-5.4 3.9-1 7.5 2.6 6.7 6.7-.5 2.5-2.5 4.2-5.2 4.2-3.2.1-5.4-2.3-5.4-5.5m8.8 0c0-2.2-1.4-3.9-3.5-3.9s-3.5 1.7-3.5 3.9 1.3 3.9 3.5 3.9c2.1 0 3.5-1.7 3.5-3.9m13 5.3V17l-3.3 8.3s0 .1-.1.1h-.7s-.1 0-.1-.1L67.2 17v8.2c0 .1-.1.1-.1.1h-1.6c-.1 0-.1-.1-.1-.1V14.7c0-.1.1-.1.1-.1h2.4c.1 0 .2.1.2.2l2.9 7.4 2.9-7.4c0-.1.1-.2.2-.2h2.4c.1 0 .1.1.1.1v10.5c0 .1-.1.1-.1.1h-1.6c-.2 0-.3 0-.3-.1m18.7-.1V14.7c0-.1.1-.2.2-.2h7c.1 0 .2.1.2.2V16c0 .1-.1.2-.2.2h-5.1c-.1 0-.2.1-.2.2v2.4c0 .1.1.2.2.2h5c.1 0 .2.1.2.2v1.3c0 .1-.1.2-.2.2h-5c-.1 0-.2.1-.2.2v2.6c0 .1.1.2.2.2h5.1c.1 0 .2.1.2.2v1.3c0 .1-.1.2-.2.2h-7c-.1-.1-.2-.2-.2-.3m16.2.1l-2.3-3.8c0-.1-.1-.1-.2-.1h-1.6c-.1 0-.2.1-.2.2v3.6c0 .1-.1.2-.2.2h-1.5c-.1 0-.2-.1-.2-.2V14.7c0-.1.1-.2.2-.2h4.6c2.1 0 3.6 1.4 3.6 3.4 0 1.8-1.1 2.8-2.3 3.1-.1 0-.2.2-.1.3.5.7 1.8 2.9 2.3 3.7.1.1 0 .3-.2.3h-1.7c-.1 0-.1 0-.2-.1m.3-7.3c0-1-.8-1.7-1.8-1.7h-2.4c-.1 0-.2.1-.2.2v3c0 .1.1.2.2.2h2.4c1 0 1.8-.7 1.8-1.7m14.7 7.2V14.7c0-.1.1-.2.2-.2h7c.1 0 .2.1.2.2V16c0 .1-.1.2-.2.2h-5.1c-.1 0-.2.1-.2.2v2.4c0 .1.1.2.2.2h5c.1 0 .2.1.2.2v1.3c0 .1-.1.2-.2.2h-5c-.1 0-.2.1-.2.2v2.6c0 .1.1.2.2.2h5.1c.1 0 .2.1.2.2v1.3c0 .1-.1.2-.2.2h-7c-.1-.1-.2-.2-.2-.3m-11.4-5.2c0-3.3 2.4-5.6 5.5-5.6 2 0 3.3 1 4.1 2.2.1.1 0 .2-.1.3l-1.2.7c-.1 0-.2 0-.2-.1-.5-.8-1.5-1.4-2.5-1.4-2.1 0-3.6 1.6-3.6 3.9 0 2.2 1.5 3.9 3.6 3.9 1.1 0 2-.6 2.5-1.4 0-.1.1-.1.2-.1l1.2.6c.1.1.1.2.1.3-.8 1.2-2.1 2.3-4.1 2.3-3.1 0-5.5-2.3-5.5-5.6m-24.5 5.3V17l-3.3 8.3s0 .1-.1.1h-.7s-.1 0-.1-.1L81.2 17v8.2c0 .1-.1.1-.1.1h-1.6c-.1 0-.1-.1-.1-.1V14.7c0-.1.1-.1.1-.1h2.4c.1 0 .2.1.2.2l2.9 7.4 2.9-7.4c0-.1.1-.2.2-.2h2.4c.1 0 .1.1.1.1v10.5c0 .1-.1.1-.1.1h-1.6c-.2 0-.3 0-.3-.1m-15.8 3.4v-1.3h.8v1.3c0 .3.1.4.4.4.2 0 .4-.1.4-.4v-1.3h.8v1.3c0 .8-.5 1.1-1.1 1.1-.9-.1-1.3-.4-1.3-1.1zm4.5-1.3h.8v.9l.7-.9h.9l-.8 1 .8 1.3h-.9l-.5-.7-.2.2v.5h-.8v-2.3zm4.4 0h1.1c.4 0 .7.1.8.3.1.1.2.3.2.5 0 .3-.2.6-.5.7l.5.8H83l-.4-.7h-.2v.7h-.8v-2.3zm1.1 1.1c.2 0 .3-.1.3-.2s-.1-.2-.3-.2h-.3v.5h.3zm3.9-1.1h.8l1 2.3h-.8l-.1-.3h-.8l-.1.3h-.8l.8-2.3zm.6 1.4l-.2-.6-.2.6h.4zm3.3-1.4h.8v2.3h-.8v-2.3zm3 0h.7l.8 1v-1h.8v2.3h-.7l-.9-1.1v1.1h-.8v-2.3zm4.5 0h2v.6h-1.2v.2h1.1v.6h-1.1v.3h1.2v.6h-2v-2.3zM63.3 11.8l.4-.5c.3.2.5.3.8.3.1 0 .2 0 .2-.1s-.1-.1-.3-.2c-.5-.1-1-.3-1-.7 0-.4.3-.8 1-.8.4 0 .8.1 1 .3l-.4.5c-.2-.2-.5-.2-.7-.2-.1 0-.2 0-.2.1s.1.1.3.1c.6.1 1 .3 1 .7 0 .5-.4.8-1 .8-.4.1-.8 0-1.1-.3zm4.4-1.3H67v-.7h2.1v.7h-.7v1.7h-.8v-1.7zm3.7-.7h.8l1 2.3h-.8l-.1-.3h-.8l-.1.3h-.8l.8-2.3zm.6 1.5l-.2-.6-.2.6h.4zm2.8-1.5h.7l.8 1v-1h.8v2.3h-.7l-.9-1.1v1.1h-.8V9.8zm4.1 0h.9c.9 0 1.4.5 1.4 1.1 0 .7-.5 1.2-1.4 1.2h-.9V9.8zm.8.7v1h.1c.4 0 .6-.1.6-.5 0-.3-.2-.5-.6-.5h-.1zm3.2-.7h.8v2.3h-.8V9.8zm2.6 0h.7l.8 1v-1h.8v2.3h-.7l-.9-1.1v1.1h-.8V9.8zm4.1 1.2c0-.7.5-1.2 1.3-1.2.4 0 .7.1 1 .3l-.4.5c-.2-.1-.3-.2-.5-.2-.3 0-.5.2-.5.5s.2.6.6.6c.1 0 .2 0 .3-.1v-.2H91v-.5h1.1v1.1c-.3.2-.6.3-1 .3-.9.1-1.5-.4-1.5-1.1zm6.3-1.2h.8l.3 1.1.4-1.1h.7l.4 1.1.3-1.1h.8l-.8 2.3h-.7l-.4-1.1-.4 1.1h-.7l-.7-2.3zm5.4 0h.8v2.3h-.8V9.8zm3.1.7h-.7v-.7h2.1v.7h-.7v1.7h-.8v-1.7zm3.2-.7h.8v.8h.7v-.8h.8v2.3h-.8v-.8h-.7v.8h-.8V9.8z"/>
</svg>