<svg width="250" height="75" viewBox="0 0 250 75" fill="none" xmlns="http://www.w3.org/2000/svg">
<g clip-path="url(#clip0_1557_2683)">
<path fill-rule="evenodd" clip-rule="evenodd" d="M25.5731 23.2736C21.6471 23.2376 18.0453 24.8584 15.4521 27.4156L15.4448 27.4228L15.4402 27.4273L15.4519 27.4157C17.649 25.2186 17.685 21.6528 15.4879 19.4917C13.3003 17.3041 9.75574 17.259 7.55643 19.4274L7.56415 19.4197C12.1744 14.8094 18.5856 12 25.6091 12C32.6325 12.036 39.0077 14.9174 43.618 19.5637C45.8151 21.7968 45.779 25.3266 43.582 27.5237C41.3849 29.7208 37.8551 29.6847 35.658 27.4877C33.1008 24.8944 29.535 23.2736 25.5731 23.2736ZM7.47242 19.5111C2.89461 24.0814 0.0362106 30.4336 0.00033794 37.4646C-0.0353948 44.4682 2.76486 50.7983 7.31086 55.4349C5.188 53.2324 5.2476 49.7223 7.42002 47.5855C9.61711 45.3884 13.1829 45.4244 15.38 47.6215C17.577 49.8186 17.541 53.3844 15.3439 55.5454C13.1514 57.7379 9.59599 57.7066 7.3978 55.5232L7.42001 55.5456C7.55902 55.6846 7.70337 55.8149 7.85238 55.9366C12.4283 60.353 18.6404 63.0742 25.4646 63.1092C32.5241 63.1452 38.8993 60.2998 43.5456 55.6895C45.7427 53.4924 45.7787 49.9627 43.5816 47.7296C41.3485 45.5325 37.8187 45.4965 35.6216 47.6935C33.0284 50.2508 29.4266 51.8716 25.5006 51.8356C21.5387 51.8356 17.9729 50.2148 15.4157 47.6215C15.3112 47.5171 15.2038 47.4176 15.0937 47.3229C12.7024 44.7553 11.2032 41.278 11.2379 37.5006C11.2379 33.5533 12.8467 29.9993 15.4233 27.444C13.224 29.6124 9.67951 29.5672 7.49193 27.3796C5.31351 25.2012 5.33041 21.6773 7.47242 19.5111ZM214.09 26.6948C215.171 26.6948 215.999 27.5953 215.999 28.6758V30.0085C215.999 31.053 215.135 31.9534 214.054 31.9534H210.02L209.948 47.8373C209.948 48.9178 209.084 49.7823 208.003 49.7823H205.914C204.833 49.7823 203.969 48.9178 203.969 47.8373L204.041 25.8664C204.041 21.0761 206.778 17.2942 211.677 16.862C211.749 16.862 211.812 16.853 211.875 16.844C211.938 16.835 212.001 16.826 212.073 16.826C212.265 16.802 212.457 16.81 212.649 16.818C212.745 16.822 212.841 16.826 212.937 16.826H214.81C215.891 16.826 216.719 17.7264 216.719 18.8069V20.0316C216.719 21.0761 215.855 21.9765 214.774 21.9765H213.406H213.262C210.956 21.9765 209.984 23.7414 209.948 25.9025L210.056 26.6948H214.09ZM245.858 49.8902C244.777 49.8902 243.913 49.0258 243.913 47.9452L244.021 22.8048C244.021 21.7243 244.885 20.8598 245.966 20.8598H248.055C249.136 20.8598 250 21.7243 250 22.8048L249.892 47.9452C249.892 49.0258 249.028 49.8902 247.947 49.8902H245.858ZM68.6503 43.0113C70.0525 41.9519 70.4034 42.3211 71.3586 43.326C71.5076 43.4828 71.6712 43.655 71.8559 43.8397C71.9746 43.9584 72.1291 44.0922 72.2969 44.2377L72.2971 44.2378L72.2972 44.2379C73.097 44.9311 74.2007 45.8876 73.1886 46.7211C70.6313 48.8101 68.3262 49.7466 65.0486 49.7466C57.6649 49.7106 52.4423 44.1998 52.8745 36.8882C53.0546 33.6106 54.3513 30.5131 56.9085 28.388C59.2497 26.407 62.1671 25.5426 65.2286 25.6147C66.7774 25.6507 68.1461 25.8668 69.5868 26.4791C70.5233 26.8393 71.4237 27.2715 72.2161 27.8838C73.817 29.1289 73.0987 29.847 71.866 31.0793L71.8199 31.1254L71.8197 31.1256C71.5316 31.4137 71.2436 31.7017 70.9915 31.9898L70.9463 32.0351C70.3227 32.6595 69.8907 33.092 69.0465 32.4941C67.3897 31.3415 65.3007 30.7292 63.3197 31.2334C56.9446 32.8542 57.2327 44.1998 65.0486 44.2359C66.2732 44.2719 67.6418 43.7676 68.6503 43.0113ZM227.273 50.2145C230.479 50.2145 232.64 49.0979 234.909 46.9729L235.017 47.9454C235.089 48.9538 235.845 49.8543 236.926 49.8543H238.691C239.771 49.8543 240.636 48.9899 240.636 47.9454L240.708 28.6398C240.708 27.5593 239.843 26.6948 238.763 26.6948H236.674C235.593 26.6948 234.729 27.5593 234.729 28.6398L234.693 34.4387C234.693 34.5827 234.693 34.7268 234.729 34.8709V38.5087C234.693 41.8223 232.496 44.7758 229.002 44.7758C225.472 44.7758 223.671 42.1465 223.671 38.7968L223.707 28.5678C223.707 27.4872 222.843 26.6228 221.762 26.6228H219.673C218.593 26.6228 217.728 27.4872 217.728 28.5678L217.692 38.7968C217.692 44.8118 220.79 50.1785 227.273 50.2145ZM200.007 26.6228H195.577V22.6968C195.577 21.6163 194.713 20.7519 193.668 20.7519H191.615C190.535 20.7519 189.67 21.6163 189.67 22.6608C189.652 25.8131 189.643 28.9563 189.634 32.0995C189.625 35.2414 189.616 38.3833 189.598 41.5342C189.598 46.2165 191.723 49.314 196.514 49.6382C196.838 49.6742 197.126 49.6742 197.45 49.6742H199.143C200.223 49.6742 201.088 48.8098 201.088 47.7652V46.4326C201.088 45.3521 200.223 44.4876 199.179 44.4876H198.278C196.405 44.4876 195.505 43.4071 195.505 41.5342L195.541 31.8094H199.971C201.052 31.8094 201.916 30.9449 201.916 29.9004V28.5678C201.916 27.4872 201.052 26.6228 200.007 26.6228ZM131.501 26.3707H135.931C136.976 26.3707 137.84 27.2352 137.84 28.3157V29.6484C137.84 30.6929 136.976 31.5573 135.895 31.5573H131.465V41.2821C131.465 43.155 132.366 44.2356 134.239 44.2356H135.139C136.184 44.2356 137.048 45.1 137.048 46.1805V47.5132C137.048 48.5577 136.184 49.4221 135.103 49.4221H133.77C128.548 49.3861 125.522 47.153 125.522 41.2821C125.54 38.1332 125.549 34.9933 125.558 31.8535L125.558 31.8454L125.558 31.8374C125.567 28.6976 125.576 25.5577 125.594 22.4088C125.594 21.3643 126.459 20.4998 127.539 20.4998H129.592C130.637 20.4998 131.501 21.3643 131.501 22.4448V26.3707ZM112.916 25.8667C109.926 25.8667 107.621 27.1273 105.496 29.1083L105.424 28.1358C105.352 27.1273 104.596 26.2268 103.515 26.2268H101.75C100.67 26.2268 99.8055 27.0913 99.8055 28.1358V28.9642C99.7875 32.0411 99.7785 35.127 99.7694 38.213L99.7694 38.2208C99.7604 41.3093 99.7514 44.3978 99.7334 47.4773C99.7334 48.5579 100.598 49.4223 101.642 49.4223H103.695C104.776 49.4223 105.64 48.5579 105.64 47.5134L105.676 37.6085C105.712 34.2948 107.909 31.3774 111.403 31.3774C114.933 31.3774 116.734 34.0067 116.734 37.3563L116.698 47.5134C116.698 48.5939 117.562 49.4583 118.643 49.4583H120.732C121.812 49.4583 122.677 48.5939 122.677 47.5134L122.713 37.2843C122.749 31.1973 119.399 25.9027 112.916 25.8667ZM169.681 29.3603C171.806 27.3793 174.111 26.1187 177.1 26.1187C183.584 26.1547 186.933 31.4493 186.897 37.5364L186.861 47.7654C186.861 48.8459 185.997 49.7104 184.916 49.7104H182.827C181.747 49.7104 180.882 48.8459 180.882 47.7654L180.918 37.6084C180.918 34.2587 179.117 31.6294 175.588 31.6294C172.094 31.6294 169.897 34.5469 169.861 37.8605L169.825 47.7654C169.825 48.8099 168.96 49.6744 167.88 49.6744H165.827C164.782 49.6744 163.918 48.8099 163.918 47.7294L163.99 28.3878C163.99 27.3433 164.854 26.4789 165.935 26.4789H167.7C168.78 26.4789 169.537 27.3793 169.609 28.3878L169.681 29.3603ZM73.873 37.7165C73.909 30.729 78.8794 25.6505 85.9029 25.6865C92.8904 25.7225 97.9689 30.8371 97.9329 37.7885C97.8969 44.884 92.9264 49.8545 85.8309 49.8185C78.7354 49.7824 73.837 44.776 73.873 37.7165ZM144.216 40.1292C144.72 43.3708 147.817 44.7034 150.843 44.7394C152.284 44.7394 153.94 44.3793 155.237 43.767C155.309 43.7309 155.381 43.6989 155.453 43.6669C155.597 43.6029 155.741 43.5388 155.885 43.4428C156.606 43.0466 157.254 42.7945 157.902 43.4428C158.023 43.564 158.141 43.6852 158.256 43.805L158.257 43.8051L158.257 43.8058C158.485 44.0418 158.708 44.2725 158.947 44.4873C159.271 44.8115 159.595 45.1356 159.883 45.5318C160.776 46.6564 160.272 46.9913 159.319 47.6242L159.319 47.6245L159.207 47.6991C159.184 47.714 159.162 47.729 159.139 47.7442C159.111 47.7629 159.083 47.7818 159.055 47.801C156.678 49.3857 153.58 50.1781 150.735 50.1781C143.099 50.1421 138.056 45.4958 138.056 37.788C138.092 30.5124 143.135 25.686 150.411 25.722C157.83 25.7581 162.044 30.1162 162.152 37.5359L162.155 37.7014C162.191 39.5885 162.202 40.2012 160.171 40.2012L144.216 40.1292ZM91.9541 37.7881C91.9541 34.2944 89.5409 31.1248 85.9031 31.1248C82.1212 31.1248 79.8521 34.1503 79.8161 37.7521C79.8161 41.3899 82.0492 44.3434 85.8671 44.3434C89.685 44.3434 91.9541 41.4259 91.9541 37.7881ZM144.36 35.1228L156.318 35.1588C155.885 32.1693 153.4 30.9807 150.555 30.9807C147.709 30.9807 145.26 32.3134 144.36 35.1228Z" fill="white"/>
</g>
<defs>
<clipPath id="clip0_1557_2683">
<rect width="250" height="75" fill="white"/>
</clipPath>
</defs>
</svg>
