<svg width="250" height="75" viewBox="0 0 250 75" fill="none" xmlns="http://www.w3.org/2000/svg">
<path fill-rule="evenodd" clip-rule="evenodd" d="M94.3614 22.3427C94.3614 15.5369 90.1768 10.5911 82.0186 10.5911H69.0841V40.1803H82.0186C90.1768 40.1803 94.3614 35.2346 94.3614 28.4294V22.3427ZM80.7083 16.5544C85.1043 16.5544 87.0911 18.5413 87.0911 22.3028V28.4714C87.0911 32.2329 85.1043 34.2198 80.7083 34.2198H76.3123V16.5544H80.7083ZM106.187 34.6876H116.881L118.571 40.1803H125.842L115.275 10.5911H107.835L97.2679 40.1831H104.538L106.187 34.6876ZM115.106 28.8544H107.962L111.555 17.1462L115.106 28.8544ZM148.83 16.7225V10.5911H125.579V16.7204H133.57V40.1803H140.838V16.7225H148.83ZM152.86 27.2878C152.86 35.0231 157.467 40.7721 166.428 40.7721C175.39 40.7721 179.997 35.0231 180 27.2878V23.4836C180 15.7484 175.389 10 166.428 10C157.467 10 152.86 15.7484 152.86 23.4836V27.2878ZM160.13 23.1033C160.13 18.8768 162.202 16.0439 166.428 16.0439C170.655 16.0439 172.726 18.8768 172.726 23.1033V27.6681C172.726 31.8954 170.655 34.7275 166.428 34.7275C162.202 34.7275 160.13 31.8954 160.13 27.6681V23.1033ZM76.9275 61.6628C76.4913 61.8151 76.0281 61.8745 75.5675 61.8373C72.8876 61.8373 71.8005 60.0572 71.8005 57.5033V54.7173C71.8005 52.1635 72.8842 50.3833 75.5675 50.3833C76.0281 50.3461 76.4913 50.4055 76.9275 50.5578C77.3637 50.7102 77.7633 50.9519 78.1006 51.2677C78.4379 51.5835 78.7055 51.9662 78.8862 52.3915C79.0669 52.8167 79.1567 53.275 79.1499 53.737H83.2518C83.2001 49.919 80.3886 46.721 75.6158 46.721C70.0438 46.721 67.3611 50.229 67.3611 54.924V57.2973C67.3611 61.9923 70.0438 65.501 75.6158 65.501C80.3886 65.501 83.2001 62.3017 83.2518 58.4837H79.1499C79.1567 58.9456 79.0669 59.4039 78.8862 59.8292C78.7055 60.2544 78.4379 60.6372 78.1006 60.9529C77.7633 61.2687 77.3637 61.5105 76.9275 61.6628ZM105.172 47.0813H101.096L96.3234 56.9102L91.5767 47.0813H87.5011V65.1393H91.7579V55.595L94.5694 61.1146H98.0774L100.916 55.595V65.1393H105.172V47.0813ZM109.53 59.7995C109.53 63.4343 112.445 65.501 116.779 65.501C120.958 65.501 124.157 63.2048 124.157 59.5935C124.157 57.0913 122.996 55.4917 120.106 54.718L115.309 53.4283C114.965 53.3756 114.654 53.1945 114.439 52.9215C114.223 52.6486 114.119 52.304 114.148 51.9575C114.148 50.6678 115.128 50.1263 116.676 50.1263C118.533 50.1263 119.204 51.1322 119.204 52.3453V52.6547H123.304V52.2158C123.304 48.9138 120.724 46.7217 116.674 46.7217C112.391 46.7217 109.837 48.785 109.837 52.3708C109.837 55.3118 111.282 56.5498 114.094 57.2463L118.609 58.3817C118.98 58.4414 119.314 58.6397 119.544 58.9366C119.774 59.2334 119.883 59.6066 119.849 59.9807C119.849 61.3737 118.636 62.1218 116.804 62.1218C114.767 62.1218 113.786 61.1932 113.786 59.6714V59.309H109.53V59.7995ZM0 10.5815H27.105C40.6609 10.5815 54.2093 22.803 54.2093 37.8642C54.2093 52.9254 40.6609 65.1394 27.105 65.1394H0V10.5815ZM20.2191 48.1642C22.2571 49.527 24.6534 50.2549 27.105 50.2559C28.7331 50.2571 30.3454 49.9375 31.8499 49.3154C33.3544 48.6932 34.7216 47.7806 35.8732 46.6298C37.0248 45.479 37.9384 44.1125 38.5617 42.6085C39.1849 41.1044 39.5057 39.4923 39.5056 37.8642C39.5064 35.4126 38.7802 33.0158 37.4189 30.9768C36.0575 28.9379 34.1221 27.3485 31.8575 26.4095C29.5928 25.4705 27.1005 25.2242 24.6958 25.7016C22.2911 26.179 20.082 27.3588 18.3478 29.0917C16.6136 30.8247 15.4323 33.0329 14.9531 35.4373C14.4739 37.8416 14.7185 40.3341 15.6558 42.5994C16.5932 44.8648 18.1812 46.8013 20.2191 48.1642Z" fill="white"/>
</svg>
