<svg width="250" height="75" viewBox="0 0 250 75" fill="none" xmlns="http://www.w3.org/2000/svg">
<path fill-rule="evenodd" clip-rule="evenodd" d="M9.69972 17.5665C14.6839 13.3256 21.0143 10.9978 27.5575 11C34.0947 11.0043 40.4174 13.334 45.3954 17.5727C50.3734 21.8115 53.6824 27.6829 54.731 34.1378C55.7796 40.5926 54.4993 47.2101 51.1191 52.8076C47.7389 58.405 42.479 62.6175 36.2796 64.6923C34.8837 64.9661 34.391 64.1037 34.391 63.3735C34.391 63.0723 34.3945 62.5442 34.3992 61.8383C34.4087 60.416 34.4229 58.2717 34.4229 55.8075C34.4229 53.2383 33.5425 51.559 32.5526 50.7057C38.6882 50.0257 45.1293 47.6939 45.1293 37.1069C45.1716 34.3698 44.1569 31.7218 42.2965 29.7143C42.5839 29.0115 43.5236 26.2096 42.0273 22.4129C42.0273 22.4129 39.7145 21.6737 34.4594 25.2376C29.9425 24.0025 25.1771 24.0025 20.6602 25.2376C15.3959 21.6737 13.0831 22.4129 13.0831 22.4129C11.5869 26.2142 12.5312 29.0161 12.8186 29.7143C10.9565 31.7211 9.94016 34.3692 9.98116 37.1069C9.98116 47.6665 16.4132 50.0303 22.5305 50.7285C21.7413 51.4176 21.0297 52.6314 20.7834 54.4111C19.2096 55.1276 15.2226 56.346 12.7638 52.1294C12.7638 52.1294 11.3086 49.4873 8.54422 49.291C8.54422 49.291 5.85281 49.2545 8.35263 50.9658C8.35263 50.9658 10.1591 51.8054 11.4136 54.9998C11.4136 54.9998 13.0284 59.9191 20.6921 58.2489C20.6989 59.384 20.7078 60.487 20.7152 61.3926C20.7227 62.3256 20.7286 63.0492 20.7286 63.3826C20.7286 64.1082 20.2177 64.9616 18.8492 64.706C12.6407 62.6391 7.37042 58.429 3.98187 52.8295C0.593328 47.23 -0.692192 40.6068 0.355471 34.1456C1.40313 27.6845 4.71557 21.8074 9.69972 17.5665ZM91.5241 22.7648C90.5694 22.2968 88.1475 21.449 83.4128 21.449C76.6671 21.449 69.7471 24.3189 69.7471 38.1162C69.7471 51.9135 77.6697 53.9694 84.346 53.9694C89.5798 53.9694 92.8643 51.8519 93.1989 51.6267L93.2169 51.6144L93.2271 51.6073C93.3654 51.5309 93.3804 51.3376 93.3804 51.2494V35.8402C93.3804 35.5795 93.169 35.3678 92.9083 35.3678H82.8032C82.5425 35.3678 82.3311 35.5795 82.3311 35.8402V40.7808C82.3311 41.0415 82.5425 41.2538 82.8032 41.2538H86.7451V47.392C86.7451 47.392 85.8601 47.6938 83.4128 47.6938C80.5259 47.6938 76.4928 46.6388 76.4928 37.7703C76.4928 28.8995 80.6925 27.7326 84.6351 27.7326C87.7052 27.7326 89.2032 28.2186 90.1543 28.5272C90.2606 28.5617 90.36 28.5939 90.4541 28.6231C90.7482 28.7132 91.02 28.4204 91.02 28.1593L92.1471 23.3861C92.1471 23.2635 92.1057 23.117 91.9668 23.0171C91.9021 22.971 91.7813 22.8951 91.5964 22.801L91.5241 22.7648ZM154.447 32.8982C154.447 32.6355 154.237 32.4218 153.978 32.4218H148.247C147.989 32.4218 147.777 32.6355 147.777 32.8982V46.5927C147.777 52.5141 151.077 53.9628 155.616 53.9628C159.341 53.9628 162.344 51.9048 162.344 51.9048C162.344 51.9048 162.486 52.9895 162.551 53.1177C162.616 53.246 162.784 53.3758 162.967 53.3758L166.612 53.3595C166.87 53.3595 167.082 53.1458 167.082 52.884L167.08 32.8982C167.08 32.6355 166.87 32.4218 166.609 32.4218H160.963C160.705 32.4218 160.494 32.6355 160.494 32.8982V47.4965C160.494 47.4965 160.48 47.5062 160.455 47.5237L160.418 47.5484C160.096 47.76 158.785 48.5461 157.023 48.5461C154.988 48.5461 154.447 47.6223 154.447 45.6291V32.8982ZM176.653 23.1023C176.653 22.8392 176.443 22.6272 176.184 22.6272H170.478C170.218 22.6272 170.008 22.8392 170.008 23.1023V52.8754C170.008 53.1381 170.218 53.3514 170.479 53.3514H174.438C174.616 53.3514 174.751 53.2596 174.85 53.0991C174.949 52.9388 175.091 51.7259 175.091 51.7259C175.091 51.7259 177.424 53.937 181.841 53.937C187.026 53.937 190 51.3069 190 42.1296C190 32.9523 185.25 31.753 182.041 31.753C178.835 31.753 176.653 33.1837 176.653 33.1837V23.1023ZM115.317 26.7361C115.317 26.5224 115.206 26.4159 114.96 26.4159H109.144C108.917 26.4159 108.796 26.5154 108.796 26.7327V32.5593C108.796 32.5593 105.882 33.2631 105.684 33.3195C105.488 33.3766 105.344 33.5576 105.344 33.7736V37.4351C105.344 37.6985 105.554 37.9109 105.814 37.9109H108.796V46.7196C108.796 53.2623 113.386 53.905 116.482 53.905C117.897 53.905 119.59 53.4503 119.87 53.3474C120.039 53.285 120.137 53.1101 120.137 52.9201L120.142 48.8923C120.142 48.6299 119.92 48.4169 119.67 48.4169C119.575 48.4169 119.424 48.4317 119.236 48.45C118.933 48.4796 118.535 48.5184 118.13 48.5184C116.033 48.5184 115.323 47.5435 115.323 46.2819V46.2371L115.323 37.9109H119.591C119.851 37.9109 120.062 37.6985 120.062 37.4351V32.8488C120.062 32.586 119.851 32.3744 119.591 32.3744H115.323L115.323 32.3704L115.323 32.0801L115.323 32.0152L115.322 31.7881L115.322 31.7025L115.322 31.5178L115.322 31.4193L115.322 31.211L115.321 30.8742L115.321 30.6363L115.321 30.2644L115.32 30.0093L115.319 29.1021L115.319 28.847L115.319 28.475L115.318 28.2371L115.318 27.9003L115.318 27.6919L115.318 27.5933L115.317 27.4086L115.317 27.323L115.317 27.0958L115.317 27.0308L115.317 26.7361ZM129.488 23.1023C129.488 22.8392 129.279 22.6272 129.019 22.6272H123.329C123.071 22.6272 122.859 22.8392 122.859 23.1023V52.8754C122.859 53.1381 123.071 53.3514 123.329 53.3514H129.019C129.279 53.3514 129.488 53.1381 129.488 52.8754V40.1401H138.357V40.1439L138.357 40.3715L138.357 40.431L138.357 40.6462L138.357 40.7297L138.356 40.9137L138.356 41.2293L138.356 41.4645L138.35 46.3163L138.349 46.6983L138.349 46.8892L138.349 47.2698L138.343 51.5505L138.343 51.7857L138.343 52.1014L138.342 52.2853L138.342 52.3689L138.342 52.5842L138.342 52.6437L138.342 52.8754C138.342 53.1381 138.553 53.3514 138.813 53.3514H144.516C144.777 53.3514 144.985 53.1381 144.986 52.8754V23.1023C144.986 22.8392 144.778 22.6272 144.517 22.6272H138.827C138.567 22.6272 138.356 22.8392 138.356 23.1023L138.356 25.2061L138.356 25.3405L138.356 27.4535L138.356 27.6156L138.357 29.5852L138.357 29.7473L138.357 31.8601L138.357 31.9946L138.357 34.0945V34.0978H129.488V23.1023ZM103.238 32.8515C103.238 32.5904 103.028 32.377 102.768 32.377H97.0956C96.8356 32.377 96.6029 32.6455 96.6029 32.9062V52.5966C96.6029 53.1752 96.9634 53.3474 97.4298 53.3474H102.54C103.101 53.3474 103.238 53.072 103.238 52.5872V32.8515ZM179.446 37.2044C181.479 37.0221 183.438 37.6364 183.438 42.4868C183.438 47.6013 182.554 48.6106 179.814 48.5281C177.856 48.4687 176.527 47.5796 176.527 47.5796V38.1512C176.527 38.1512 177.838 37.348 179.446 37.2044ZM103.645 27.0088C103.645 24.9602 102.003 23.3046 99.9762 23.3046C97.9517 23.3046 96.3077 24.9602 96.3077 27.0088C96.3077 29.0558 97.9517 30.7161 99.9762 30.7161C102.003 30.7161 103.645 29.0558 103.645 27.0088Z" fill="white"/>
</svg>
