<?xml version="1.0" encoding="utf-8"?>
<!-- Generator: Adobe Illustrator 26.3.1, SVG Export Plug-In . SVG Version: 6.00 Build 0)  -->
<svg version="1.1" id="Layer_1" xmlns="http://www.w3.org/2000/svg" xmlns:xlink="http://www.w3.org/1999/xlink" x="0px" y="0px"
	 viewBox="0 0 367 100" style="enable-background:new 0 0 367 100;" xml:space="preserve">
<style type="text/css">
	.st0{fill-rule:evenodd;clip-rule:evenodd;fill:#FFFFFF;}
	.st1{fill:#FFFFFF;}
</style>
<path class="st0" d="M50,6.5l37.7,21.8v43.5L50,93.5L12.3,71.8V28.2L50,6.5z M16.5,30.7v32l27.7-48L16.5,30.7z M50,13.1L18.1,68.4
	h63.8L50,13.1z M77.7,72.7H22.3l27.7,16L77.7,72.7z M83.5,62.7l-27.7-48l27.7,16V62.7z"/>
<circle class="st1" cx="14.4" cy="29.5" r="8.9"/>
<circle class="st1" cx="14.4" cy="70.5" r="8.9"/>
<circle class="st1" cx="50" cy="91.1" r="8.9"/>
<circle class="st1" cx="85.6" cy="70.5" r="8.9"/>
<circle class="st1" cx="85.6" cy="29.5" r="8.9"/>
<circle class="st1" cx="50" cy="8.9" r="8.9"/>
<path class="st1" d="M138.9,71.6c-5.2,0-9.2-1.5-12.1-4.5s-4.4-7-4.6-12.1c0-1.2-0.1-3.2-0.1-5.9s0-4.7,0.1-5.9
	c0.2-5,1.7-9.1,4.6-12.1s6.9-4.5,12.1-4.5c3.5,0,6.5,0.7,8.9,2c2.4,1.3,4.2,2.9,5.4,4.8c1.2,1.8,1.9,3.4,1.9,4.8v0.1
	c0,0.3-0.1,0.6-0.4,0.8s-0.6,0.3-0.9,0.3h-1.4c-0.4,0-0.6-0.1-0.8-0.2s-0.3-0.5-0.5-1c-0.7-2.2-2.1-4.1-4.1-5.6
	c-2-1.5-4.7-2.2-8.1-2.2c-3.9,0-6.9,1.1-9.2,3.2c-2.2,2.1-3.4,5.4-3.6,9.9c0,1.2-0.1,3.1-0.1,5.6s0,4.4,0.1,5.6
	c0.2,4.5,1.4,7.8,3.6,9.9c2.2,2.1,5.3,3.2,9.2,3.2s7-1.1,9.4-3.3c2.4-2.2,3.6-5.5,3.6-9.8v-3.2h-10.9c-0.4,0-0.8-0.1-1-0.4
	c-0.2-0.3-0.4-0.6-0.4-1.1v-0.9c0-0.4,0.1-0.8,0.4-1c0.2-0.3,0.6-0.4,1-0.4h13.4c0.5,0,0.8,0.1,1.1,0.4s0.4,0.6,0.4,1.1v5.5
	c0,3.3-0.7,6.3-2,8.8c-1.3,2.5-3.3,4.5-5.8,5.9C145.4,70.9,142.4,71.6,138.9,71.6z"/>
<path class="st1" d="M165.9,71c-0.4,0-0.8-0.1-1-0.4s-0.4-0.6-0.4-1V39.9c0-0.4,0.1-0.8,0.4-1c0.2-0.3,0.6-0.4,1-0.4h1
	c0.4,0,0.8,0.1,1,0.4c0.3,0.2,0.4,0.6,0.4,1v2.9c1.5-2.9,4.3-4.3,8.5-4.3h2.3c0.4,0,0.8,0.1,1,0.4s0.4,0.6,0.4,1v0.9
	c0,0.4-0.1,0.8-0.4,1s-0.6,0.4-1,0.4h-2.7c-2.5,0-4.5,0.7-5.9,2.2c-1.5,1.5-2.2,3.4-2.2,5.9v19.4c0,0.4-0.1,0.8-0.4,1
	c-0.2,0.2-0.6,0.4-1,0.4H165.9z"/>
<path class="st1" d="M194.6,71.6c-2,0-3.9-0.4-5.6-1.2c-1.7-0.8-3.1-2-4.1-3.4c-1-1.4-1.5-3-1.5-4.7c0-2.8,1.1-5,3.3-6.8
	c2.2-1.8,5.3-2.9,9.1-3.4l9.9-1.4v-2.2c0-2.3-0.7-4-2.1-5.2c-1.4-1.2-3.5-1.9-6.4-1.9c-2.1,0-3.9,0.4-5.2,1.2
	c-1.3,0.8-2.2,1.8-2.6,3c-0.2,0.5-0.4,0.9-0.6,1.1c-0.2,0.2-0.5,0.2-0.9,0.2h-0.9c-0.4,0-0.7-0.1-1-0.4c-0.2-0.3-0.4-0.6-0.4-1
	c0-0.9,0.4-2,1.2-3.2c0.8-1.2,2.1-2.3,3.9-3.2s3.9-1.4,6.4-1.4c4.5,0,7.6,1.1,9.5,3.2s2.8,4.7,2.8,7.8v20.8c0,0.4-0.1,0.8-0.4,1
	s-0.6,0.4-1,0.4H207c-0.4,0-0.8-0.1-1-0.4s-0.4-0.6-0.4-1v-2.9c-0.9,1.4-2.3,2.5-4.1,3.5C199.8,71.1,197.5,71.6,194.6,71.6z
	 M195.2,68c3,0,5.5-1,7.5-3c2-2,2.9-4.9,2.9-8.6v-2.1l-8.1,1.1c-3.4,0.5-6,1.2-7.8,2.4s-2.6,2.5-2.6,4.2c0,1.9,0.8,3.4,2.4,4.4
	C191.2,67.5,193.1,68,195.2,68z"/>
<path class="st1" d="M220.8,82.9c-0.4,0-0.8-0.1-1-0.4s-0.4-0.6-0.4-1V39.9c0-0.4,0.1-0.8,0.4-1s0.6-0.4,1-0.4h1.1
	c0.4,0,0.8,0.1,1,0.4s0.4,0.6,0.4,1v2.9c2.4-3.3,5.9-4.9,10.5-4.9c4.5,0,7.8,1.4,9.9,4.3c2.2,2.8,3.3,6.3,3.4,10.5
	c0,0.4,0.1,1.1,0.1,2.1s0,1.6-0.1,2.1c-0.1,4.2-1.3,7.7-3.4,10.6c-2.1,2.8-5.4,4.2-9.9,4.2c-4.5,0-8-1.6-10.5-4.9v14.8
	c0,0.4-0.1,0.8-0.4,1s-0.6,0.4-1,0.4H220.8z M233.3,68c3.4,0,5.8-1.1,7.4-3.2c1.6-2.2,2.4-4.9,2.6-8.3c0-0.4,0.1-1,0.1-1.8
	c0-3.9-0.8-7-2.2-9.5c-1.5-2.5-4.1-3.8-7.8-3.8c-3.3,0-5.8,1.1-7.4,3.3c-1.7,2.2-2.6,4.7-2.7,7.7l-0.1,2.4l0.1,2.4
	c0,1.8,0.4,3.5,1.2,5.1c0.8,1.6,1.9,2.9,3.4,3.9S231.1,68,233.3,68z"/>
<path class="st1" d="M257.1,71c-0.4,0-0.8-0.1-1-0.4s-0.4-0.6-0.4-1V28c0-0.4,0.1-0.8,0.4-1s0.6-0.4,1-0.4h1.1c0.4,0,0.8,0.1,1,0.4
	s0.4,0.6,0.4,1v14.8c1.2-1.6,2.7-2.9,4.2-3.7c1.6-0.8,3.7-1.2,6.2-1.2c4.1,0,7.2,1.3,9.4,3.9c2.2,2.6,3.3,5.9,3.3,10.1v17.8
	c0,0.4-0.1,0.8-0.4,1s-0.6,0.4-1,0.4h-1.1c-0.4,0-0.8-0.1-1-0.4s-0.4-0.6-0.4-1V52.2c0-3.4-0.8-6-2.5-7.9c-1.6-1.9-4-2.8-7.1-2.8
	c-3,0-5.4,1-7.2,2.9c-1.8,1.9-2.7,4.5-2.7,7.8v17.4c0,0.4-0.1,0.8-0.4,1s-0.6,0.4-1,0.4H257.1z"/>
<path class="st1" d="M321.7,75.1c-0.6,0-1.3-0.5-2-1.4l-2.8-3.8c-2.5,1.2-5.4,1.8-8.8,1.8c-10.7,0-16.2-5.8-16.5-17.2
	c0-1.2-0.1-3-0.1-5.2s0-4,0.1-5.2c0.2-5.7,1.7-10,4.6-12.9s6.9-4.4,11.9-4.4s9,1.5,11.9,4.4s4.5,7.2,4.6,12.9
	c0.1,2.5,0.1,4.2,0.1,5.2s0,2.8-0.1,5.2c-0.2,6-1.7,10.3-4.6,13.1l4,5.6c0.1,0.2,0.2,0.5,0.2,0.7c0,0.3-0.1,0.6-0.4,0.9
	s-0.5,0.4-0.9,0.4H321.7z M308.2,67.9c3.8,0,6.7-1.1,8.9-3.4c2.2-2.3,3.5-5.8,3.6-10.4c0.1-2.5,0.1-4.1,0.1-4.9s0-2.4-0.1-4.9
	c-0.2-4.7-1.4-8.1-3.6-10.4c-2.2-2.3-5.2-3.4-8.9-3.4s-6.7,1.1-8.9,3.4c-2.2,2.2-3.5,5.7-3.6,10.4c0,1.2-0.1,2.9-0.1,4.9
	s0,3.7,0.1,4.9c0.2,4.7,1.4,8.1,3.6,10.4C301.4,66.8,304.4,67.9,308.2,67.9z"/>
<path class="st1" d="M336.1,71c-0.4,0-0.8-0.1-1-0.4s-0.4-0.6-0.4-1v-41c0-0.4,0.1-0.8,0.4-1s0.6-0.4,1-0.4h1.2c0.4,0,0.8,0.1,1,0.4
	s0.4,0.6,0.4,1v38.6h21.6c0.5,0,0.8,0.1,1.1,0.4s0.4,0.6,0.4,1.1v0.9c0,0.4-0.1,0.8-0.4,1c-0.2,0.2-0.6,0.4-1,0.4H336.1z"/>
</svg>
