<svg width="250" height="75" viewBox="0 0 250 75" fill="none" xmlns="http://www.w3.org/2000/svg">
<path fill-rule="evenodd" clip-rule="evenodd" d="M4.183 28.7778V45.5098H0V50.7385H13.5947V45.5098H9.41175V23.549H0V28.7778H4.183ZM6.2745 17.2745C7.99999 17.2745 9.41175 15.8627 9.41175 14.1372C9.41175 12.4118 7.99999 11 6.2745 11C4.54901 11 3.13725 12.4118 3.13725 14.1372C3.13725 15.8627 4.54901 17.2745 6.2745 17.2745ZM160 57.7974C160 59.6797 158.484 61.1961 156.654 61.1961H106.876C105.046 61.1961 103.529 59.6797 103.529 57.7974V16.4903C103.529 14.6079 105.046 13.0916 106.876 13.0916H156.654C158.484 13.0916 160 14.6079 160 16.4903V57.7974ZM153.099 25.6407L143.269 36.9348L153.099 48.2812C154.301 49.693 154.197 51.8368 152.785 53.0917C152.157 53.6668 151.373 53.9283 150.589 53.9283C149.648 53.9283 148.706 53.5623 148.027 52.7779L138.772 42.1113L129.517 52.7779C128.837 53.5623 127.896 53.9283 126.955 53.9283C126.171 53.9283 125.386 53.6668 124.759 53.0917C123.347 51.8368 123.242 49.693 124.445 48.2812L134.275 36.9871L124.445 25.6407C123.242 24.229 123.347 22.0852 124.759 20.8303C126.171 19.5754 128.314 19.7322 129.517 21.144L138.772 31.8107L148.027 21.144C149.282 19.7322 151.373 19.5754 152.785 20.8303C154.197 22.0852 154.301 24.229 153.099 25.6407ZM110.012 50.8956C110.012 52.7779 111.476 54.2943 113.359 54.2943C115.241 54.2943 116.757 52.7779 116.705 50.8956V23.7584C116.705 21.876 115.189 20.3597 113.359 20.3597C111.529 20.3597 110.012 21.876 110.012 23.7584V50.8956ZM20.9148 45.51V28.778H16.7318V23.5492H26.5618V26.6865C29.6991 24.1244 32.9932 22.9741 36.0258 22.9741C39.0585 22.9741 41.15 24.3858 42.3003 27.2093C45.7513 24.3858 48.9931 22.9741 51.9735 22.9741C53.699 22.9741 55.1108 23.3401 56.2088 24.1244C57.3069 24.9087 58.0912 25.9022 58.4572 27.0525C58.8232 28.2551 59.0323 29.9806 59.0323 32.2812V45.51H63.7382V50.7387H53.7513V33.2747C53.7513 31.7061 53.699 30.608 53.5422 29.9806C53.3853 29.3531 53.0716 28.8303 52.4964 28.3597C51.9212 27.9414 51.2415 27.7322 50.4572 27.7322C48.2088 27.7322 45.699 28.8825 42.8232 31.2355V45.51H47.0585V50.7387H37.699V32.8041C37.699 31.0263 37.4376 29.7714 36.967 28.9348C36.4441 28.1505 35.6075 27.7322 34.4049 27.7322C32.418 27.7322 29.2808 28.5165 26.1958 30.8695V45.51H31.4768V50.7387H16.7318V45.51H20.9148ZM97.2542 28.7776V23.5488V23.4965H87.7901V27.6795C85.0189 24.8037 81.4634 22.9214 77.9601 22.9214C74.4568 22.9214 71.4242 24.2286 68.7575 26.8952C66.0908 29.5619 64.7837 33.0129 64.7837 37.3004C64.7837 41.222 65.9863 44.5684 68.3915 47.2351C70.7967 49.9017 73.934 51.2612 77.7509 51.2612C79.8424 51.2612 81.7771 50.7906 83.5549 49.8494C85.2803 48.9083 86.5875 47.8625 87.4241 46.8168V49.2743C87.4241 51.052 87.3718 52.3592 87.1627 53.0913C87.0058 53.8756 86.5875 54.6599 85.9601 55.4965C85.3326 56.3331 84.3915 57.0651 83.0843 57.6403C81.7771 58.2154 80.4176 58.5292 78.9013 58.5292C76.1823 58.5292 73.6725 57.6403 71.3719 55.8102L67.9732 59.6795C71.0582 62.0847 74.5614 63.2873 78.483 63.2873C81.0451 63.2873 83.4503 62.8167 85.5418 61.8756C87.6856 60.9344 89.2542 59.7841 90.2999 58.4246C91.3457 57.0651 92.0254 55.7056 92.2869 54.3984C92.5483 53.0913 92.7052 51.052 92.7052 48.3331L92.7575 28.7776H97.2542ZM72.7314 43.9932C71.1627 42.2155 70.3784 39.9671 70.3784 37.2481C70.3784 34.4246 71.2673 32.124 72.9405 30.5553C74.6137 28.8821 76.6006 28.0455 78.9013 28.0455C81.2019 28.0455 83.1888 28.8821 84.9143 30.5553C86.6398 32.2285 87.5287 34.4769 87.5287 37.2481C87.5287 40.0194 86.6398 42.2677 84.9143 43.9932C83.1888 45.7187 81.1496 46.6076 78.7444 46.6076C76.2869 46.6076 74.3 45.7187 72.7314 43.9932Z" fill="white"/>
</svg>
