<svg width="3164" height="1438" viewBox="0 0 3164 1438" fill="none" xmlns="http://www.w3.org/2000/svg">
<g clip-path="url(#clip0_2_3667)">
<path d="M1837.42 439.231H2318.86V527.9H2127.88V994.373H2032.38V527.9H1837.42V439.231Z" fill="white"/>
<path d="M1045.63 439.231V527.9H659.727V670.54H970.073V759.209H659.727V905.705H1045.63V994.373H564.235V527.9H564.195V439.231H1045.63Z" fill="white"/>
<path d="M1286.03 439.463H1161.06L1608.68 994.605H1734.01L1510.18 717.225L1733.65 439.887L1608.68 440.079L1447.61 639.688L1286.03 439.463Z" fill="white"/>
<path d="M1414.27 836.004L1351.69 758.36L1160.7 995.028H1286.03L1414.27 836.004Z" fill="white"/>
<path fill-rule="evenodd" clip-rule="evenodd" d="M567.581 994.373L119.365 439H0V994.141H95.492V557.661L447.619 994.373H567.581Z" fill="white"/>
<path d="M2340.33 990.982C2333.34 990.982 2327.39 988.565 2322.41 983.73C2317.42 978.895 2314.96 973.042 2315.03 966.108C2314.96 959.364 2317.42 953.574 2322.41 948.739C2327.39 943.904 2333.34 941.487 2340.33 941.487C2347.06 941.487 2352.94 943.904 2357.92 948.739C2362.97 953.574 2365.49 959.364 2365.56 966.108C2365.49 970.688 2364.33 974.886 2362 978.64C2359.61 982.458 2356.57 985.448 2352.75 987.611C2348.99 989.838 2344.85 990.982 2340.33 990.982Z" fill="white"/>
<path d="M2503.31 757.117H2545.63V919.792C2545.57 934.743 2542.33 947.53 2535.99 958.282C2529.59 969.034 2520.72 977.24 2509.33 983.03C2498.01 988.755 2484.74 991.682 2469.67 991.682C2455.88 991.682 2443.53 989.201 2432.53 984.366C2421.53 979.531 2412.8 972.278 2406.39 962.735C2399.92 953.192 2396.75 941.296 2396.75 927.045H2439.13C2439.19 933.28 2440.62 938.687 2443.33 943.204C2446.05 947.721 2449.8 951.156 2454.59 953.574C2459.44 955.991 2465.01 957.2 2471.28 957.2C2478.08 957.2 2483.9 955.8 2488.62 952.937C2493.35 950.138 2496.97 945.939 2499.5 940.341C2501.95 934.807 2503.25 927.935 2503.31 919.792V757.117Z" fill="white"/>
<path d="M2719.74 820.737C2718.71 810.876 2714.18 803.178 2706.29 797.707C2698.32 792.172 2688.04 789.436 2675.42 789.436C2666.56 789.436 2658.93 790.772 2652.58 793.381C2646.24 796.053 2641.32 799.615 2637.96 804.132C2634.6 808.649 2632.91 813.802 2632.78 819.592C2632.78 824.427 2633.94 828.626 2636.21 832.125C2638.48 835.687 2641.51 838.678 2645.46 841.095C2649.34 843.576 2653.68 845.612 2658.41 847.266C2663.19 848.92 2667.98 850.32 2672.77 851.465L2694.83 856.873C2703.7 858.908 2712.3 861.645 2720.52 865.143C2728.73 868.579 2736.18 872.969 2742.71 878.249C2749.25 883.529 2754.42 889.891 2758.24 897.335C2762.06 904.778 2764 913.494 2764 923.546C2764 937.096 2760.51 948.993 2753.45 959.299C2746.4 969.542 2736.24 977.558 2722.91 983.348C2709.65 989.074 2693.6 992 2674.71 992C2656.46 992 2640.55 989.201 2627.15 983.603C2613.7 978.068 2603.21 969.924 2595.64 959.236C2588.07 948.548 2584 935.506 2583.41 920.174H2625.34C2625.93 928.189 2628.51 934.87 2632.91 940.278C2637.38 945.621 2643.2 949.566 2650.32 952.238C2657.5 954.846 2665.52 956.182 2674.39 956.182C2683.64 956.182 2691.79 954.782 2698.84 952.047C2705.83 949.311 2711.33 945.495 2715.28 940.532C2719.29 935.633 2721.3 929.844 2721.36 923.228C2721.3 917.184 2719.48 912.157 2715.99 908.213C2712.43 904.269 2707.51 900.961 2701.23 898.289C2694.9 895.617 2687.52 893.199 2679.11 891.1L2652.32 884.356C2632.98 879.457 2617.64 872.014 2606.44 862.026C2595.19 852.038 2589.62 838.805 2589.62 822.2C2589.62 808.586 2593.38 796.626 2600.95 786.383C2608.45 776.14 2618.74 768.188 2631.75 762.525C2644.82 756.8 2659.57 754 2676 754C2692.7 754 2707.32 756.8 2719.94 762.525C2732.55 768.188 2742.46 776.077 2749.63 786.128C2756.82 796.18 2760.57 807.695 2760.77 820.737H2719.74Z" fill="white"/>
</g>
<defs>
<clipPath id="clip0_2_3667">
<rect width="2764" height="560" fill="white" transform="translate(0 439)"/>
</clipPath>
</defs>
</svg>
