<svg width="250" height="75" viewBox="0 0 250 75" fill="none" xmlns="http://www.w3.org/2000/svg">
<path fill-rule="evenodd" clip-rule="evenodd" d="M57.1071 39.1142L52.8398 34.8377C52.5015 34.4987 52.3114 34.0389 52.3114 33.5595V28.3276C52.3114 23.4928 51.8091 21.7395 50.8659 19.972C49.9227 18.2044 48.5385 16.8172 46.7746 15.8719C45.0109 14.9266 43.2615 14.4232 38.4369 14.4232H31.5363C31.3371 14.4232 31.1756 14.2613 31.1756 14.0616C31.1756 13.9658 31.2135 13.8738 31.2812 13.806L35.5485 9.52946C35.8868 9.19044 36.3457 9 36.8241 9H39.2236C45.6562 9 47.9889 9.6712 50.3406 10.9316C52.6923 12.192 54.5379 14.0416 55.7956 16.3983C57.0533 18.7551 57.7231 21.0927 57.7231 27.5393V38.8586C57.7231 39.0583 57.5616 39.2201 57.3623 39.2201C57.2666 39.2201 57.1748 39.1821 57.1071 39.1142ZM27.6736 66.2302L31.9409 61.9537C32.2792 61.6146 32.738 61.4242 33.2163 61.4242H38.4369C43.2615 61.4242 45.0109 60.9208 46.7746 59.9755C48.5385 59.0302 49.9227 57.6429 50.8659 55.8754C51.8091 54.1078 52.3114 52.3547 52.3114 47.5198V40.6043C52.3114 40.4046 52.4731 40.2428 52.6723 40.2428C52.7679 40.2428 52.8597 40.2808 52.9273 40.3486L57.1947 44.6252C57.533 44.9642 57.7231 45.424 57.7231 45.9035V48.3081C57.7231 54.7547 57.0533 57.0923 55.7956 59.4491C54.5379 61.8059 52.6923 63.6554 50.3406 64.9158C47.9889 66.1762 45.6562 66.8474 39.2236 66.8474H27.9286C27.7293 66.8474 27.5678 66.6856 27.5678 66.4859C27.5678 66.39 27.6059 66.298 27.6736 66.2302ZM0.615866 36.7332L4.88319 41.0097C5.22147 41.3488 5.41153 41.8085 5.41153 42.288V47.5198C5.41153 52.3547 5.91384 54.1078 6.85711 55.8754C7.80039 57.6429 9.18463 59.0302 10.9484 59.9755C12.7122 60.9208 14.4616 61.4242 19.2862 61.4242H26.1867C26.386 61.4242 26.5475 61.586 26.5475 61.7858C26.5475 61.8817 26.5094 61.9736 26.4417 62.0414L22.1745 66.318C21.8361 66.657 21.3774 66.8474 20.899 66.8474H18.4994C12.0667 66.8474 9.73413 66.1762 7.38246 64.9158C5.03078 63.6554 3.18518 61.8059 1.92748 59.4491C0.669791 57.0923 0 54.7547 0 48.3081V36.9888C0 36.7891 0.161524 36.6273 0.360772 36.6273C0.456455 36.6273 0.548209 36.6654 0.615866 36.7332ZM25.7821 13.8937C25.4439 14.2328 24.9851 14.4232 24.5066 14.4232H19.2862C14.4616 14.4232 12.7122 14.9266 10.9484 15.8719C9.18463 16.8172 7.80039 18.2044 6.85711 19.972C5.91384 21.7395 5.41153 23.4928 5.41153 28.3276V35.2431C5.41153 35.4429 5.25001 35.6047 5.05076 35.6047C4.95507 35.6047 4.86331 35.5666 4.79566 35.4988L0.528333 31.2223C0.190048 30.8832 0 30.4235 0 29.944V27.5393C0 21.0927 0.669791 18.7551 1.92748 16.3983C3.18518 14.0416 5.03078 12.192 7.38246 10.9316C9.73413 9.6712 12.0667 9 18.4994 9H29.7943C29.9936 9 30.1552 9.16188 30.1552 9.36156C30.1552 9.45744 30.1171 9.54939 30.0495 9.61719L25.7821 13.8937ZM48.0939 30.1085L42.2749 24.5353C41.8901 24.1497 41.4401 23.8694 40.9603 23.6944C40.5637 23.5441 40.1337 23.4619 39.6846 23.4619H22.5131C22.3138 23.4619 22.1524 23.3 22.1524 23.1003C22.1524 23.0044 22.1904 22.9124 22.2581 22.8446L26.5295 18.5676C26.8677 18.2289 27.3262 18.0387 27.8044 18.0387H41.4883C45.4734 18.0387 48.7038 21.2761 48.7038 25.2696V29.8471C48.7038 30.0468 48.5422 30.2086 48.3429 30.2086C48.2502 30.2086 48.1609 30.1728 48.0939 30.1085ZM36.66 57.202L42.2211 51.3705C42.6059 50.985 42.8857 50.534 43.0602 50.0532C43.2103 49.6557 43.2924 49.2249 43.2924 48.7746V31.5661C43.2924 31.3665 43.4537 31.2046 43.653 31.2046C43.7487 31.2046 43.8405 31.2428 43.9083 31.3106L48.176 35.5912C48.5139 35.9302 48.7038 36.3898 48.7038 36.869V50.5823C48.7038 54.5759 45.4734 57.8133 41.4883 57.8133H36.9206C36.7214 57.8133 36.5601 57.6515 36.5601 57.4517C36.5601 57.3587 36.5957 57.2692 36.66 57.202ZM9.62927 45.7389L15.4481 51.3122C15.8329 51.6977 16.2829 51.9781 16.7627 52.1531C17.1593 52.3033 17.5893 52.3856 18.0384 52.3856H35.21C35.4092 52.3856 35.5707 52.5474 35.5707 52.7471C35.5707 52.8431 35.5326 52.9351 35.465 53.0029L31.1936 57.2798C30.8553 57.6185 30.3967 57.8088 29.9187 57.8088H16.2346C12.2497 57.8088 9.01925 54.5714 9.01925 50.5778V46.0003C9.01925 45.8006 9.18077 45.6388 9.38001 45.6388C9.47287 45.6388 9.56215 45.6746 9.62927 45.7389ZM21.0631 18.65L15.5019 24.4814C15.1171 24.867 14.8374 25.3181 14.6628 25.7987C14.5128 26.1963 14.4308 26.6272 14.4308 27.0773V44.2858C14.4308 44.4855 14.2692 44.6474 14.07 44.6474C13.9743 44.6474 13.8824 44.6093 13.8148 44.5413L9.54704 40.2608C9.20907 39.9219 9.01925 39.4623 9.01925 38.9831V25.2696C9.01925 21.2761 12.2497 18.0387 16.2346 18.0387H20.8023C21.0015 18.0387 21.163 18.2005 21.163 18.4002C21.163 18.4933 21.1272 18.5827 21.0631 18.65ZM74.2594 25.6856H75.6558C76.6086 25.6856 77.3811 26.458 77.3811 27.4109V29.0445C77.3811 29.0951 77.4222 29.1362 77.4728 29.1362C78.2676 27.7304 79.3376 26.7079 80.6825 26.069C82.0277 25.43 83.4796 25.1105 85.0386 25.1105C86.7199 25.1105 88.2331 25.4219 89.5782 26.0451C90.9231 26.6681 92.0695 27.5227 93.0172 28.609C93.9648 29.6954 94.6832 30.9733 95.1724 32.443C95.6615 33.9126 95.9061 35.4943 95.9061 37.1876C95.9061 38.8809 95.6462 40.4624 95.1266 41.9322C94.6069 43.4019 93.8808 44.6798 92.9484 45.7662C92.0161 46.8525 90.8926 47.7072 89.5782 48.3302C88.2638 48.9531 86.8269 49.2647 85.2679 49.2647C84.2286 49.2647 83.3116 49.1529 82.5168 48.9292C81.7219 48.7055 81.0189 48.418 80.4074 48.0666C79.796 47.715 79.2764 47.3397 78.8485 46.9404C78.4204 46.5409 78.069 46.1496 77.7937 45.7662C77.7179 45.7662 77.6562 45.8278 77.6562 45.9038V57.5109C77.6562 58.6738 76.7134 59.6165 75.5507 59.6165H74.2594C73.0965 59.6165 72.1537 58.6738 72.1537 57.5109V27.7911C72.1537 26.6282 73.0965 25.6856 74.2594 25.6856ZM90.4036 37.1876C90.4036 36.2931 90.2584 35.4303 89.9679 34.5996C89.6775 33.769 89.2496 33.0342 88.684 32.3951C88.1185 31.7561 87.4383 31.2449 86.6436 30.8615C85.8488 30.4781 84.947 30.2864 83.9382 30.2864C82.9294 30.2864 82.0277 30.4781 81.2327 30.8615C80.438 31.2449 79.7579 31.7561 79.1923 32.3951C78.6269 33.0342 78.1988 33.769 77.9084 34.5996C77.6181 35.4303 77.4728 36.2931 77.4728 37.1876C77.4728 38.0822 77.6181 38.9449 77.9084 39.7755C78.1988 40.6062 78.6269 41.3411 79.1923 41.9801C79.7579 42.6192 80.438 43.1303 81.2327 43.5137C82.0277 43.8971 82.9294 44.0888 83.9382 44.0888C84.947 44.0888 85.8488 43.8971 86.6436 43.5137C87.4383 43.1303 88.1185 42.6192 88.684 41.9801C89.2496 41.3411 89.6775 40.6062 89.9679 39.7755C90.2584 38.9449 90.4036 38.0822 90.4036 37.1876ZM103.835 25.6856H105.411C106.416 25.6856 107.232 26.5009 107.232 27.5067V29.2362C107.232 29.2868 107.273 29.3279 107.324 29.3279C107.935 27.986 108.806 26.9476 109.937 26.2127C111.068 25.4778 112.368 25.1105 113.835 25.1105C114.171 25.1105 114.5 25.1425 114.821 25.2063C115.394 25.3204 115.807 25.8235 115.807 26.4077V29.563C115.807 30.1975 115.292 30.7119 114.658 30.7119C114.589 30.7119 114.521 30.706 114.454 30.6938C114.011 30.6139 113.575 30.5739 113.147 30.5739C111.863 30.5739 110.831 30.8215 110.052 31.3167C109.272 31.812 108.676 32.379 108.264 33.0181C107.851 33.6571 107.576 34.296 107.438 34.9351C107.301 35.5741 107.232 36.0533 107.232 36.3729V46.584C107.232 47.7469 106.289 48.6896 105.126 48.6896H103.835C102.672 48.6896 101.73 47.7469 101.73 46.584V27.7911C101.73 26.6282 102.672 25.6856 103.835 25.6856ZM122.452 25.6856H123.743C124.906 25.6856 125.848 26.6282 125.848 27.7911V46.584C125.848 47.7469 124.906 48.6896 123.743 48.6896H122.452C121.289 48.6896 120.346 47.7469 120.346 46.584V27.7911C120.346 26.6282 121.289 25.6856 122.452 25.6856ZM119.566 17.8738C119.566 16.9472 119.895 16.1405 120.552 15.4536C121.21 14.7667 122.043 14.4232 123.051 14.4232C124.06 14.4232 124.909 14.7507 125.596 15.4057C126.284 16.0606 126.628 16.8833 126.628 17.8738C126.628 18.8643 126.284 19.6869 125.596 20.3419C124.909 20.9969 124.06 21.3244 123.051 21.3244C122.043 21.3244 121.21 20.9809 120.552 20.294C119.895 19.6071 119.566 18.8004 119.566 17.8738ZM143.273 30.9427C142.157 30.1217 141.163 29.7113 140.292 29.7113C139.559 29.7113 138.84 29.903 138.137 30.2864C137.434 30.6698 137.083 31.2928 137.083 32.1554C137.083 32.8584 137.373 33.3695 137.954 33.6891C138.535 34.0086 139.268 34.2801 140.155 34.5038C141.041 34.7275 141.996 34.959 143.021 35.1986C144.045 35.4384 145 35.8057 145.887 36.3009C146.773 36.7962 147.507 37.4751 148.087 38.3378C148.668 39.2004 148.959 40.3826 148.959 41.8843C148.959 43.2581 148.676 44.4163 148.11 45.3587C147.545 46.3013 146.811 47.0601 145.909 47.6352C145.008 48.2103 143.991 48.6257 142.86 48.8813C141.729 49.137 140.598 49.2647 139.467 49.2647C137.755 49.2647 136.181 49.0091 134.744 48.4979C134.181 48.2977 133.506 47.8955 132.719 47.291C131.796 46.5832 131.622 45.2613 132.33 44.3387C132.39 44.2601 132.456 44.186 132.527 44.1166L133.098 43.5574C133.885 42.7856 135.135 42.7524 135.963 43.4811C136.296 43.7748 136.586 44.0014 136.83 44.1606C137.64 44.6878 138.626 44.9514 139.788 44.9514C140.185 44.9514 140.598 44.9035 141.026 44.8077C141.454 44.7118 141.851 44.5521 142.218 44.3284C142.585 44.1047 142.883 43.8251 143.112 43.4898C143.342 43.1542 143.456 42.7628 143.456 42.3156C143.456 41.5168 143.166 40.9257 142.585 40.5423C142.004 40.1589 141.271 39.8475 140.384 39.6079C139.497 39.3681 138.542 39.1445 137.518 38.9369C136.494 38.7292 135.539 38.3937 134.652 37.9305C133.766 37.4672 133.032 36.8201 132.451 35.9895C131.871 35.1588 131.58 34.0086 131.58 32.5389C131.58 31.2608 131.832 30.1506 132.337 29.208C132.841 28.2656 133.506 27.4908 134.331 26.8837C135.157 26.2766 136.104 25.8294 137.174 25.5418C138.244 25.2543 139.329 25.1105 140.43 25.1105C141.897 25.1105 143.349 25.374 144.786 25.9013C145.306 26.0921 145.887 26.4457 146.527 26.9616V26.9618C147.433 27.6913 147.575 29.0168 146.846 29.9223C146.785 29.9977 146.719 30.0687 146.649 30.1349L145.963 30.7799C145.223 31.476 144.092 31.5444 143.273 30.9427ZM155.787 25.6856H156.803C157.966 25.6856 158.909 26.6282 158.909 27.7911V29.28C159.49 28.1936 160.277 27.2272 161.362 26.3804C162.447 25.5338 163.907 25.1105 165.741 25.1105C169.196 25.1105 171.489 26.5323 172.62 29.3758C173.414 27.9061 174.407 26.8278 175.599 26.1408C176.791 25.4539 178.213 25.1105 179.864 25.1105C181.331 25.1105 182.57 25.366 183.579 25.8773C184.586 26.3885 185.404 27.0915 186.031 27.986C186.658 28.8806 187.109 29.927 187.384 31.125C187.659 32.3231 187.797 33.6091 187.797 34.983V46.584C187.797 47.7469 186.854 48.6896 185.692 48.6896H184.4C183.237 48.6896 182.295 47.7469 182.295 46.584V35.654C182.295 34.9512 182.234 34.2721 182.112 33.6171C181.988 32.9622 181.774 32.3871 181.469 31.8918C181.164 31.3966 180.751 31.0053 180.232 30.7177C179.711 30.4302 179.039 30.2864 178.213 30.2864C177.357 30.2864 176.631 30.4542 176.036 30.7895C175.44 31.125 174.95 31.5724 174.567 32.1316C174.187 32.6906 173.91 33.3297 173.743 34.0484C173.574 34.7673 173.491 35.4943 173.491 36.2291V46.584C173.491 47.7469 172.548 48.6896 171.384 48.6896H170.094C168.931 48.6896 167.987 47.7469 167.987 46.584V34.983C167.987 33.5453 167.698 32.4031 167.116 31.5563C166.536 30.7097 165.574 30.2864 164.227 30.2864C163.311 30.2864 162.538 30.4461 161.912 30.7656C161.285 31.0852 160.766 31.5165 160.353 32.0596C159.941 32.6027 159.643 33.2259 159.459 33.9287C159.276 34.6316 159.184 35.3664 159.184 36.1332V46.584C159.184 47.7469 158.241 48.6896 157.079 48.6896H155.787C154.624 48.6896 153.682 47.7469 153.682 46.584V27.7911C153.682 26.6282 154.624 25.6856 155.787 25.6856ZM196.689 25.6856H197.98C199.143 25.6856 200.086 26.6282 200.086 27.7911V46.584C200.086 47.7469 199.143 48.6896 197.98 48.6896H196.689C195.526 48.6896 194.583 47.7469 194.583 46.584V27.7911C194.583 26.6282 195.526 25.6856 196.689 25.6856ZM193.803 17.8738C193.803 16.9472 194.133 16.1405 194.79 15.4536C195.447 14.7667 196.28 14.4232 197.289 14.4232C198.298 14.4232 199.146 14.7507 199.834 15.4057C200.522 16.0606 200.866 16.8833 200.866 17.8738C200.866 18.8643 200.522 19.6869 199.834 20.3419C199.146 20.9969 198.298 21.3244 197.289 21.3244C196.28 21.3244 195.447 20.9809 194.79 20.294C194.133 19.6071 193.803 18.8004 193.803 17.8738ZM220.72 31.3273C220.495 31.1501 220.296 31.0108 220.124 30.9094C219.42 30.494 218.702 30.2864 217.969 30.2864C216.96 30.2864 216.059 30.4781 215.263 30.8615C214.468 31.2449 213.788 31.7561 213.222 32.3951C212.657 33.0342 212.229 33.769 211.939 34.5996C211.648 35.4303 211.503 36.2931 211.503 37.1876C211.503 38.0822 211.648 38.9449 211.939 39.7755C212.229 40.6062 212.657 41.3411 213.222 41.9801C213.788 42.6192 214.468 43.1303 215.263 43.5137C216.059 43.8971 216.96 44.0888 217.969 44.0888C218.824 44.0888 219.619 43.9051 220.354 43.5377C220.502 43.4634 220.662 43.3623 220.836 43.2346V43.2348C221.712 42.5909 222.933 42.7193 223.656 43.5312L224.493 44.4709C225.229 45.298 225.155 46.5653 224.328 47.3014C224.226 47.3917 224.115 47.4714 223.998 47.5394C223.28 47.9548 222.554 48.2901 221.821 48.5458C221.086 48.8014 220.384 48.9851 219.711 49.0969C219.038 49.2088 218.458 49.2647 217.969 49.2647C216.317 49.2647 214.759 48.9771 213.292 48.402C211.824 47.8269 210.555 47.0122 209.485 45.9579C208.416 44.9035 207.568 43.6336 206.941 42.1479C206.314 40.6621 206.001 39.0088 206.001 37.1876C206.001 35.3664 206.314 33.7131 206.941 32.2274C207.568 30.7416 208.416 29.4716 209.485 28.4173C210.555 27.3629 211.824 26.5482 213.292 25.9731C214.759 25.398 216.317 25.1105 217.969 25.1105C219.375 25.1105 220.789 25.3901 222.21 25.9491C222.751 26.1622 223.391 26.5432 224.127 27.0921C225.06 27.7871 225.251 29.1063 224.557 30.0386C224.506 30.1079 224.45 30.1738 224.39 30.2361L223.54 31.1249C222.791 31.9068 221.573 31.9944 220.72 31.3273Z" fill="white"/>
</svg>
