<svg width="250" height="75" viewBox="0 0 250 75" fill="none" xmlns="http://www.w3.org/2000/svg">
<g clip-path="url(#clip0_1960_3001)">
<path d="M68.4993 41.1402C66.8134 40.2179 65.9261 39.4712 65.9261 38.4171C65.9261 37.0555 67.124 36.221 69.0317 36.221C71.2499 36.221 73.2019 37.1433 73.2019 37.1433L74.7547 32.4437C74.7547 32.4437 73.335 31.3457 69.1204 31.3457C63.2642 31.3457 59.1827 34.6837 59.1827 39.3394C59.1827 41.9747 61.0903 43.9951 63.6191 45.4445C65.6599 46.5865 66.3698 47.421 66.3698 48.6069C66.3698 49.8806 65.3494 50.8908 63.4417 50.8908C60.6023 50.8908 57.9405 49.4414 57.9405 49.4414L56.299 54.141C56.299 54.141 58.7834 55.7661 62.9093 55.7661C68.9429 55.7661 73.2463 52.8233 73.2463 47.5528C73.335 44.6539 71.1168 42.6335 68.4993 41.1402Z" fill="white"/>
<path d="M92.545 31.2578C89.5725 31.2578 87.2656 32.6633 85.4466 34.7716L85.3579 34.7276L87.931 21.3755H81.1876L74.666 55.3269H81.365L83.5833 43.7316C84.4706 39.3394 86.7332 36.6602 88.8627 36.6602C90.3711 36.6602 90.9478 37.6704 90.9478 39.1198C90.9478 40.0422 90.8591 41.1402 90.6373 42.0625L88.1085 55.3708H94.8076L97.4251 41.6673C97.7356 40.2178 97.9131 38.5049 97.9131 37.319C98.0018 33.4978 96.0498 31.2578 92.545 31.2578Z" fill="white"/>
<path d="M113.175 31.2578C105.1 31.2578 99.7321 38.4609 99.7321 46.4986C99.7321 51.6374 102.926 55.81 108.96 55.81C116.901 55.81 122.225 48.7825 122.225 40.5692C122.269 35.7817 119.474 31.2578 113.175 31.2578ZM109.892 50.6711C107.585 50.6711 106.653 48.7386 106.653 46.3229C106.653 42.5017 108.649 36.3088 112.287 36.3088C114.683 36.3088 115.437 38.3292 115.437 40.3057C115.437 44.4343 113.441 50.6711 109.892 50.6711Z" fill="white"/>
<path d="M139.439 31.2578C134.913 31.2578 132.34 35.2108 132.34 35.2108H132.251L132.651 31.6531H126.706C126.395 34.0688 125.863 37.7143 125.331 40.4813L120.672 64.726H127.371L129.235 54.8876H129.368C129.368 54.8876 130.743 55.766 133.316 55.766C141.213 55.766 146.359 47.7723 146.359 39.6908C146.359 35.2547 144.363 31.2578 139.439 31.2578ZM133.05 50.8029C131.32 50.8029 130.299 49.8366 130.299 49.8366L131.409 43.6437C132.207 39.5151 134.381 36.748 136.688 36.748C138.729 36.748 139.35 38.6366 139.35 40.3935C139.35 44.6539 136.777 50.8029 133.05 50.8029Z" fill="white"/>
<path d="M155.942 21.7268C153.813 21.7268 152.083 23.3958 152.083 25.5919C152.083 27.5684 153.325 28.9299 155.232 28.9299H155.321C157.406 28.9299 159.225 27.5245 159.27 25.0648C159.314 23.0884 157.983 21.7268 155.942 21.7268Z" fill="white"/>
<path d="M146.537 55.3269H153.28L157.85 31.7849H151.062L146.537 55.3269Z" fill="white"/>
<path d="M174.886 31.741H170.228L170.45 30.6429C170.849 28.359 172.18 26.3386 174.442 26.3386C175.64 26.3386 176.572 26.69 176.572 26.69L177.903 21.5073C177.903 21.5073 176.749 20.9363 174.265 20.9363C171.869 20.9363 169.518 21.5951 167.699 23.1324C165.392 25.0649 164.327 27.832 163.795 30.6429L163.617 31.741H160.512L159.536 36.748H162.641L159.092 55.3269H165.791L169.34 36.748H173.954L174.886 31.741Z" fill="white"/>
<path d="M191.035 31.7849C191.035 31.7849 186.82 42.2382 184.957 47.948H184.868C184.735 46.1033 183.227 31.7849 183.227 31.7849H176.173L180.21 53.3943C180.299 53.8775 180.254 54.1849 180.077 54.4924C179.278 55.9857 177.992 57.4351 176.439 58.4892C175.197 59.4116 173.777 59.9826 172.668 60.3778L174.531 65.9998C175.906 65.6924 178.701 64.5943 181.097 62.3982C184.158 59.5433 186.998 55.1951 189.881 49.2218L198.089 31.7849H191.035V31.7849Z" fill="white"/>
<path d="M33.1849 16.5003C33.1849 16.5003 32.5638 16.676 31.5434 16.9834C31.3659 16.4124 31.0997 15.7536 30.7448 15.0509C29.5913 12.8548 27.8611 11.6689 25.8203 11.6689C25.6872 11.6689 25.5541 11.6689 25.3767 11.7128C25.3323 11.625 25.2436 11.5811 25.1992 11.4932C24.3119 10.5269 23.1584 10.0877 21.7831 10.1317C19.1212 10.2195 16.4594 12.1081 14.3298 15.4901C12.8214 17.8618 11.668 20.8485 11.3574 23.1764C8.29624 24.0987 6.16673 24.7575 6.12236 24.8015C4.5696 25.2846 4.52523 25.3285 4.34777 26.7779C4.21468 27.876 0.133118 58.7968 0.133118 58.7968L33.6729 64.5505V16.4564C33.4067 16.4564 33.2736 16.5003 33.1849 16.5003ZM25.421 18.872C23.6464 19.3991 21.6944 20.014 19.7867 20.585C20.3191 18.5207 21.3838 16.4564 22.6261 15.0948C23.1141 14.6117 23.7795 14.0407 24.5337 13.6893C25.2879 15.2705 25.4654 17.4226 25.421 18.872ZM21.7831 11.9324C22.4042 11.9324 22.9366 12.0642 23.3803 12.3277C22.6704 12.6791 21.9606 13.2501 21.2951 13.9089C19.6093 15.7097 18.3227 18.5207 17.7903 21.1999C16.1932 21.683 14.596 22.1662 13.132 22.6054C14.108 18.3889 17.7016 12.0203 21.7831 11.9324ZM16.6368 36.0893C16.8143 38.9003 24.3119 39.5152 24.7556 46.1473C25.0661 51.374 21.9606 54.9317 17.4797 55.1952C12.0672 55.5466 9.0948 52.3842 9.0948 52.3842L10.2483 47.5528C10.2483 47.5528 13.2207 49.7928 15.6164 49.6171C17.1692 49.5293 17.7459 48.2556 17.7016 47.3771C17.4797 43.6877 11.3574 43.9073 10.9581 37.8462C10.6032 32.7513 13.9749 27.6124 21.4282 27.1293C24.3119 26.9536 25.776 27.6564 25.776 27.6564L24.0901 33.9811C24.0901 33.9811 22.1824 33.1026 19.9198 33.2783C16.6368 33.4979 16.5924 35.5622 16.6368 36.0893ZM27.1956 18.345C27.1956 17.0273 27.0182 15.1387 26.3971 13.5575C28.4378 13.9528 29.4139 16.1928 29.8575 17.5544C29.059 17.774 28.1717 18.0375 27.1956 18.345Z" fill="white"/>
<path d="M34.6933 64.4626L48.6238 61.0367C48.6238 61.0367 42.6346 20.9363 42.5902 20.6728C42.5459 20.4093 42.324 20.2336 42.1022 20.2336C41.8804 20.2336 37.9763 20.1458 37.9763 20.1458C37.9763 20.1458 35.5806 17.8618 34.6933 16.9834V64.4626Z" fill="white"/>
</g>
<defs>
<clipPath id="clip0_1960_3001">
<rect width="198" height="56" fill="white" transform="translate(0 10)"/>
</clipPath>
</defs>
</svg>
