<svg width="250" height="75" viewBox="0 0 250 75" fill="none" xmlns="http://www.w3.org/2000/svg">
<path fill-rule="evenodd" clip-rule="evenodd" d="M78.5016 15.1764L68.3918 17.3514V9.13473L78.5016 7V15.1764ZM99.5281 19.7275C95.5808 19.7275 93.0433 21.5803 91.6336 22.8692L91.11 20.3719H82.2488V67.336L92.3183 65.2013L92.3586 53.8026C93.8086 54.8498 95.9433 56.3401 99.4878 56.3401C106.698 56.3401 113.263 50.5401 113.263 37.772C113.223 26.0914 106.577 19.7275 99.5281 19.7275ZM97.1102 47.4789C94.7338 47.4789 93.3241 46.6331 92.3574 45.5859L92.3172 30.6428C93.3644 29.4747 94.8144 28.6691 97.1102 28.6691C100.776 28.6691 103.313 32.7775 103.313 38.0539C103.313 43.4511 100.816 47.4789 97.1102 47.4789ZM145 38.1748C145 27.8636 140.006 19.7275 130.46 19.7275C120.874 19.7275 115.074 27.8636 115.074 38.0942C115.074 50.2179 121.921 56.3401 131.749 56.3401C136.542 56.3401 140.167 55.2526 142.906 53.7221V45.6665C140.167 47.0359 137.025 47.8818 133.037 47.8818C129.13 47.8818 125.667 46.5123 125.224 41.7595H144.919C144.919 41.5377 144.934 41.0339 144.951 40.4534L144.951 40.4522C144.973 39.6627 145 38.7316 145 38.1748ZM125.103 34.3482C125.103 29.7968 127.882 27.9038 130.42 27.9038C132.877 27.9038 135.495 29.7968 135.495 34.3482H125.103ZM68.3918 20.4124H78.5016V55.6556H68.3918V20.4124ZM56.9114 20.4122L57.5558 23.3927C59.9322 19.0427 64.6447 19.9288 65.9336 20.4122V29.6761C64.685 29.233 60.6572 28.6691 58.2808 31.7705V55.6553H48.2113V20.4122H56.9114ZM37.4182 11.6724L27.5904 13.7668L27.5501 46.0294C27.5501 51.9906 32.021 56.3809 37.9821 56.3809C41.2849 56.3809 43.7016 55.7767 45.0307 55.0517V46.8753C43.7418 47.3989 37.3779 49.2517 37.3779 43.2905V28.9919H45.0307V20.4127H37.3779L37.4182 11.6724ZM13.6139 28.4678C11.4792 28.4678 10.1903 29.072 10.1903 30.6428C10.1903 32.3579 12.4085 33.1124 15.1604 34.0484C19.6467 35.5743 25.5515 37.5826 25.5765 45.022C25.5765 52.2318 19.8167 56.3804 11.4389 56.3804C7.97503 56.3804 4.1889 55.6957 0.443057 54.0846V44.4984C3.8264 46.3512 8.09586 47.7206 11.4389 47.7206C13.6945 47.7206 15.3056 47.1165 15.3056 45.2637C15.3056 43.3639 12.901 42.4955 9.99805 41.4472C5.577 39.8506 0 37.8366 0 31.1262C0 23.997 5.43752 19.7275 13.6139 19.7275C16.957 19.7275 20.2598 20.2511 23.6029 21.5803V31.0456C20.5417 29.3942 16.6751 28.4678 13.6139 28.4678Z" fill="white"/>
</svg>
