<?xml version="1.0" encoding="utf-8"?>
<!-- Generator: Adobe Illustrator 26.3.1, SVG Export Plug-In . SVG Version: 6.00 Build 0)  -->
<svg version="1.1" id="Layer_1" xmlns="http://www.w3.org/2000/svg" xmlns:xlink="http://www.w3.org/1999/xlink" x="0px" y="0px"
	 viewBox="0 0 250 75" style="enable-background:new 0 0 250 75;" xml:space="preserve">
<style type="text/css">
	.st0{fill-rule:evenodd;clip-rule:evenodd;fill:#FFFFFF;}
</style>
<path class="st0" d="M31.9,11.4c-4.1-0.9-8.4-0.2-12,2l-12.6,8c-1.7,1.1-3.1,2.5-4.3,4.1C2,27.1,1.2,29,0.9,31
	c-0.6,3.3-0.1,6.7,1.5,9.7c-1.1,1.6-1.8,3.5-2.1,5.4c-0.4,2-0.3,4.1,0.1,6.1c0.4,2,1.3,3.9,2.5,5.5c2.4,3.4,6,5.8,10.1,6.7
	c4.1,0.9,8.4,0.2,12-2l12.5-8c1.7-1.1,3.1-2.5,4.3-4.1c1.1-1.7,1.9-3.5,2.2-5.5c0.6-3.3,0.1-6.7-1.5-9.7c1.1-1.6,1.8-3.5,2.2-5.4
	c0.4-2,0.3-4.1-0.1-6.1c-0.4-2-1.3-3.9-2.5-5.5C39.6,14.6,36,12.2,31.9,11.4z M18.7,58.4c-2,0.5-4.1,0.4-6-0.3c-2-0.7-3.7-2-4.8-3.7
	c-0.7-1-1.2-2.1-1.5-3.3c-0.3-1.2-0.3-2.4-0.1-3.6c0.1-0.4,0.2-0.8,0.3-1.2l0.2-0.7L7.5,46c1.5,1.1,3.1,1.9,4.9,2.4l0.5,0.1v0.5
	c0,0.7,0.1,1.3,0.5,1.9c0.3,0.5,0.8,0.9,1.4,1.1c0.6,0.2,1.2,0.2,1.8,0.1c0.3-0.1,0.5-0.2,0.8-0.3l12.5-8c0.3-0.2,0.6-0.4,0.8-0.7
	c0.2-0.3,0.3-0.6,0.4-1c0.1-0.4,0.1-0.7,0-1.1c-0.1-0.4-0.2-0.7-0.5-1c-0.3-0.5-0.8-0.9-1.4-1.1c-0.6-0.2-1.2-0.2-1.8-0.1
	c-0.3,0.1-0.5,0.2-0.8,0.3l-4.8,3c-0.8,0.5-1.6,0.9-2.5,1.1c-2,0.5-4.1,0.4-6-0.3c-1.9-0.7-3.6-2-4.7-3.7c-0.7-1-1.2-2.1-1.4-3.3
	c-0.3-1.2-0.3-2.4,0-3.6C7.3,31.1,7.8,30,8.4,29c0.7-1,1.5-1.8,2.6-2.5l12.6-8c0.8-0.5,1.6-0.9,2.5-1.1c2-0.5,4.1-0.4,6,0.3
	c1.9,0.7,3.6,2,4.7,3.7c0.7,1,1.2,2.1,1.5,3.3c0.3,1.2,0.3,2.4,0.1,3.6c-0.1,0.4-0.2,0.8-0.3,1.2l-0.2,0.7l-0.6-0.5
	c-1.5-1.1-3.1-1.9-4.9-2.4l-0.5-0.1v-0.5c0.1-0.7-0.1-1.3-0.4-1.9c-0.4-0.5-0.8-0.9-1.4-1.1c-0.6-0.2-1.2-0.2-1.8-0.1
	c-0.3,0.1-0.5,0.2-0.8,0.3l-12.5,8c-0.3,0.2-0.6,0.5-0.8,0.8c-0.2,0.3-0.3,0.6-0.4,1c-0.1,0.4-0.1,0.7,0,1.1c0.1,0.4,0.2,0.7,0.5,1
	c0.3,0.5,0.8,0.9,1.4,1.1c0.6,0.2,1.2,0.2,1.8,0.1c0.3-0.1,0.5-0.2,0.8-0.3l4.8-3c0.8-0.5,1.6-0.9,2.5-1.1c2-0.5,4.1-0.4,6,0.3
	s3.6,2,4.7,3.7c0.7,1,1.2,2.1,1.4,3.3c0.3,1.2,0.3,2.4,0,3.6c-0.2,1.2-0.7,2.3-1.3,3.3c-0.7,1-1.5,1.8-2.6,2.5l-12.6,8
	C20.5,57.8,19.6,58.2,18.7,58.4z M65.4,50.8c1.8,1.2,4,1.8,6.6,1.8c2.9,0,5.2-0.7,7-2.2c1.8-1.5,2.7-3.6,2.7-6.3
	c0-0.8-0.1-1.6-0.3-2.3c-0.2-0.7-0.4-1.3-0.7-1.8c-0.3-0.5-0.7-1-1.2-1.5c-0.5-0.5-1-0.9-1.4-1.1c-0.4-0.3-1-0.6-1.8-1
	c-0.8-0.4-1.3-0.6-1.8-0.7c-0.4-0.2-1-0.4-1.8-0.7c-1.3-0.5-2.3-0.8-3-1.1c-0.7-0.3-1.3-0.7-1.9-1.3c-0.6-0.6-0.9-1.2-0.9-2
	c0-1.1,0.4-1.9,1.1-2.5c0.8-0.6,1.9-0.9,3.2-0.9c1.3,0,2.4,0.3,3.3,0.8c0.9,0.5,1.5,1.2,1.9,2.1l3.9-1.3c-0.5-1.7-1.5-3.1-3.1-4.1
	c-1.5-1-3.4-1.6-5.7-1.6c-2.8,0-5,0.7-6.6,2.2c-1.6,1.4-2.4,3.2-2.4,5.3c0,1,0.2,1.9,0.5,2.7c0.4,0.8,0.7,1.5,1.2,2
	c0.5,0.5,1.1,1,2,1.5c0.9,0.5,1.6,0.8,2.2,1.1c0.5,0.2,1.4,0.5,2.4,0.9c0.9,0.3,1.5,0.5,2,0.7c0.5,0.2,1,0.4,1.7,0.8
	c0.7,0.3,1.2,0.7,1.5,1c0.3,0.3,0.6,0.7,0.9,1.3c0.3,0.5,0.4,1,0.4,1.6c0,1.4-0.5,2.5-1.4,3.3c-0.9,0.8-2.2,1.1-3.7,1.1
	c-1.5,0-2.8-0.4-4-1.1c-1.1-0.8-2-1.8-2.6-3.2l-4,1.5C62.3,47.9,63.5,49.6,65.4,50.8z M88.4,23.6l9.8,28.6h4.2l9.7-28.6h-4.5
	l-6.4,19.9c-0.4,1.3-0.7,2.3-0.9,3.3c-0.2-0.9-0.5-2-0.9-3.3l-6.5-19.9H88.4z M120.7,51.9V23.4h17.7v4h-13.4v7.8h8.7v4h-8.7v8.7
	h14.3v4H120.7z M150.2,23.6v28.6h18.2v-4.1h-13.9V23.6H150.2z M184.6,27.7v24.5h-4.2V27.7h-8.1v-4.1h20.4v4.1H184.6z M201.4,23.6
	v28.6H220v-4h-14.3v-8.7h8.7v-4h-8.7v-7.8h13.4v-4H201.4z"/>
</svg>
