<svg width="250" height="75" viewBox="0 0 250 75" fill="none" xmlns="http://www.w3.org/2000/svg">
<path fill-rule="evenodd" clip-rule="evenodd" d="M12.9144 32.2704C14.6373 25.4235 18.9414 22 25.8298 22C32.2314 22 35.1619 24.9558 37.6945 27.5128C39.2484 29.0808 40.6534 30.4979 42.6192 30.9858C46.0629 31.8422 49.0764 30.5587 51.6587 27.1352C49.9368 33.9811 45.6317 37.4046 38.7443 37.4046C32.3427 37.4046 29.4112 34.4478 26.8785 31.8928C25.3247 30.3238 23.9197 28.9066 21.9549 28.4187C18.5112 27.5634 15.4977 28.8469 12.9144 32.2704ZM0 47.675C1.72185 40.828 6.027 37.4046 12.9144 37.4046C19.3154 37.4046 22.247 40.3619 24.7795 42.9167L24.7801 42.9173C26.3339 44.4853 27.739 45.9025 29.7038 46.3914C33.1475 47.2468 36.161 45.9632 38.7443 42.5398C37.0224 49.3867 32.7173 52.8091 25.8298 52.8091C19.4278 52.8091 16.4973 49.8528 13.9648 47.298L13.9641 47.2974C12.4103 45.7284 11.0053 44.3112 9.03948 43.8233C5.59679 42.968 2.58329 44.2515 0 47.675ZM72.9769 34.9822H77.4845V31.2237H72.9769V25.2139L69.0503 26.3709V31.2237H65.7058V34.9822H69.0503V43.6542C69.0503 48.3521 71.4494 50.0142 77.4845 49.2915V45.786C74.5034 45.9308 72.9769 45.9672 72.9769 43.6542V34.9822ZM98.5921 31.2237H94.6666V33.7897C93.2849 31.91 91.1399 30.754 88.3045 30.754C83.3607 30.754 79.2529 34.8739 79.2529 40.2571C79.2529 45.6059 83.3607 49.7612 88.3045 49.7612C91.1399 49.7612 93.2849 48.6042 94.6666 46.69V49.2915H98.5921V31.2237ZM94.6666 40.2571C94.6666 43.6178 92.1947 46.0391 88.923 46.0391C85.6514 46.0391 83.1795 43.6178 83.1795 40.2571C83.1795 36.8974 85.6514 34.4761 88.923 34.4761C92.1947 34.4761 94.6666 36.8964 94.6666 40.2571ZM102.628 26.0207C102.628 27.3579 103.755 28.5139 105.135 28.5139C106.517 28.5139 107.644 27.3569 107.644 26.0207C107.641 25.3578 107.375 24.7232 106.905 24.2559C106.434 23.7886 105.799 23.5267 105.135 23.5275C104.472 23.5269 103.837 23.789 103.367 24.2563C102.897 24.7235 102.631 25.358 102.628 26.0207ZM103.173 31.2237V49.2915H107.099V31.2237H103.173ZM111.643 22.911V49.2905H115.569V22.911H111.643ZM145.197 31.2237H141.052L137.489 43.6896L133.71 31.2237H129.965L126.148 43.6896L122.621 31.2237H118.477L124.185 49.2915H128.038L131.855 37.114L135.636 49.2915H139.49L145.197 31.2237ZM147.559 26.0207C147.559 27.3579 148.686 28.5139 150.068 28.5139C151.449 28.5139 152.576 27.3569 152.576 26.0207C152.573 25.3578 152.307 24.7232 151.837 24.2559C151.366 23.7886 150.731 23.5267 150.068 23.5275C149.405 23.5267 148.769 23.7886 148.298 24.2559C147.829 24.7232 147.562 25.3578 147.559 26.0207ZM148.105 31.2237V49.2915H152.03V31.2237H148.105ZM173.115 38.1981C173.115 33.5002 170.207 30.754 166.135 30.754C163.663 30.754 161.701 31.658 160.501 33.5367V31.2237H156.574V49.2915H160.501V39.6072C160.501 35.9216 162.537 34.4042 165.118 34.4042C167.59 34.4042 169.189 35.8487 169.189 38.5949V49.2905H173.115V38.1981ZM195.654 23.9972H191.727V33.7887C190.346 31.909 188.202 30.753 185.366 30.753C180.422 30.753 176.315 34.8729 176.315 40.2561C176.315 45.6048 180.422 49.7602 185.366 49.7602C188.202 49.7602 190.346 48.6042 191.727 46.689V49.2905H195.654V23.9972ZM191.727 40.2571C191.727 43.6178 189.255 46.0391 185.984 46.0391C182.712 46.0391 180.24 43.6178 180.24 40.2571C180.24 36.8974 182.712 34.4761 185.984 34.4761C189.255 34.4761 191.727 36.8964 191.727 40.2571ZM199.216 40.2571C199.216 45.6059 203.324 49.7612 208.813 49.7612V49.7602C212.375 49.7602 215.466 47.9179 216.992 45.0633L213.611 43.1481C212.739 44.8102 210.958 45.9308 208.777 45.9308C205.578 45.9308 203.142 43.5095 203.142 40.2571C203.142 37.0057 205.578 34.5844 208.777 34.5844C210.958 34.5844 212.739 35.6685 213.538 37.3671L216.919 35.4154C215.466 32.5963 212.375 30.754 208.813 30.754C203.324 30.754 199.216 34.8739 199.216 40.2571ZM227.078 38.5645C225.124 38.0249 223.463 37.5658 223.463 36.2101C223.463 34.9093 224.699 34.2949 226.117 34.2949C227.607 34.2949 228.879 34.9457 229.534 36.3548L232.842 34.5125C231.57 32.1276 229.098 30.754 226.117 30.754C222.409 30.754 219.464 32.8858 219.464 36.2829C219.464 40.0767 222.828 41.0238 225.61 41.8071C227.571 42.3592 229.243 42.83 229.243 44.1593C229.243 45.6059 227.898 46.1839 226.153 46.1839C224.154 46.1839 222.699 45.208 222.118 43.5823L218.737 45.533C219.9 48.1345 222.518 49.7612 226.153 49.7612C230.079 49.7612 233.242 47.8106 233.242 44.1968C233.242 40.267 229.864 39.3338 227.078 38.5645ZM243.837 38.5645C241.883 38.0249 240.222 37.5658 240.222 36.2101C240.222 34.9093 241.458 34.2949 242.876 34.2949C244.366 34.2949 245.638 34.9457 246.292 36.3548L249.6 34.5125C248.328 32.1276 245.856 30.754 242.876 30.754C239.167 30.754 236.223 32.8858 236.223 36.2829C236.223 40.0767 239.587 41.0238 242.369 41.8071C244.33 42.3592 246.002 42.83 246.002 44.1593C246.002 45.6059 244.656 46.1839 242.911 46.1839C240.912 46.1839 239.458 45.208 238.876 43.5823L235.495 45.533C236.659 48.1345 239.276 49.7612 242.911 49.7612C246.838 49.7612 250 47.8106 250 44.1968C250 40.267 246.622 39.3338 243.837 38.5645Z" fill="white"/>
</svg>
