<svg fill="none" height="75" viewBox="0 0 250 75" width="250" xmlns="http://www.w3.org/2000/svg"><path clip-rule="evenodd" d="m52.2777 60.2744-26.1388-45.2744-26.1389 45.2744zm147.7223-41.7374v32.5409h-6.367v-32.5409zm-100.2273 7.7816c-7.8098 0-13.4408 5.0934-13.4408 12.7334 0 7.6401 6.3384 12.7334 14.1481 12.7334 4.719 0 8.878-1.8675 11.453-5.0155l-5.412-3.1268c-1.429 1.5634-3.6 2.476-6.041 2.476-3.3884 0-6.2675-1.7686-7.3357-4.5982h19.8217c.156-.7923.248-1.6129.248-2.4759 0-7.633-5.631-12.7264-13.4413-12.7264zm-6.6914 10.2575c.8843-2.8226 3.3036-4.5982 6.6851-4.5982 3.3886 0 5.8076 1.7756 6.6846 4.5982zm69.4257 2.4759c0-7.64 5.631-12.7334 13.441-12.7334s13.441 5.0934 13.441 12.7264c0 .863-.092 1.6836-.248 2.4759h-19.821c1.068 2.8296 3.947 4.5982 7.335 4.5982 2.441 0 4.613-.9126 6.042-2.476l5.411 3.1268c-2.575 3.148-6.734 5.0155-11.453 5.0155-7.809 0-14.148-5.0933-14.148-12.7334zm6.755-2.4759c.884-2.8226 3.304-4.5982 6.685-4.5982 3.389 0 5.808 1.7756 6.685 4.5982zm-20.536 9.5501c-4.301 0-7.074-2.8297-7.074-7.0742 0-4.2444 2.78-7.0741 7.074-7.0741 2.915 0 5.101 1.3229 6.226 3.4805l5.433-3.1339c-2.257-3.7492-6.466-6.0059-11.659-6.0059-7.809 0-13.44 5.0934-13.44 12.7334 0 7.6401 5.624 12.7334 13.44 12.7334 5.193 0 9.409-2.2566 11.659-6.0059l-5.433-3.1338c-1.125 2.1576-3.311 3.4805-6.226 3.4805zm-57.2363-27.5892-19.6024 33.9557-19.6024-33.9557h7.35l12.2524 21.2223 12.2524-21.2223zm41.6733 15.3438v-6.8548c-5.157 0-9.338 2.9145-9.338 6.5082v-6.5082h-6.367v24.052h6.367v-10.4697c0-4.2445 2.964-7.0741 7.074-7.0741.806 0 1.556.1415 2.264.3466z" fill="#fff" fill-rule="evenodd"/></svg>