<?xml version="1.0" encoding="utf-8"?>
<!-- Generator: Adobe Illustrator 26.3.1, SVG Export Plug-In . SVG Version: 6.00 Build 0)  -->
<svg version="1.1" id="Layer_1" xmlns="http://www.w3.org/2000/svg" xmlns:xlink="http://www.w3.org/1999/xlink" x="0px" y="0px"
	 viewBox="0 0 561 132" style="enable-background:new 0 0 561 132;" xml:space="preserve">
<style type="text/css">
	.st0{fill:#FFFFFF;}
</style>
<path class="st0" d="M561,12c0,6.6-5.4,12-12,12s-12-5.4-12-12c0-6.6,5.4-12,12-12S561,5.4,561,12z"/>
<path class="st0" d="M417,105c5,0,9-4,9-9V60c0-5,4-9,9-9h18c5,0,9,4,9,9v36c0,5,4,9,9,9s9-4,9-9V60c0-5,4-9,9-9h18c5,0,9,4,9,9v36
	c0,5,4,9,9,9h27c5,0,9-4,9-9V42c0-5-4-9-9-9s-9,4-9,9v40.5c0,2.5-2,4.5-4.5,4.5s-4.5-2-4.5-4.5V42c0-5-4-9-9-9H417c-5,0-9,4-9,9v54
	C408,101,412,105,417,105z"/>
<path class="st0" d="M27,87c-5,0-9-4-9-9V42c0-5-4-9-9-9c-5,0-9,4-9,9v54c0,5,4,9,9,9h108c5,0,9-4,9-9V60c0-5,4-9,9-9h103.5
	c2.5,0,4.5,2,4.5,4.5s-2,4.5-4.5,4.5H144c-5,0-9,4-9,9v27c0,5,4,9,9,9h108c5,0,9-4,9-9V42c0-5-4-9-9-9H117c-5,0-9,4-9,9v36
	c0,5-4,9-9,9H81c-5,0-9-4-9-9V42c0-5-4-9-9-9s-9,4-9,9v36c0,5-4,9-9,9H27z M243,82.5c0,2.5-2,4.5-4.5,4.5h-81c-2.5,0-4.5-2-4.5-4.5
	s2-4.5,4.5-4.5h81C241,78,243,80,243,82.5z"/>
<path class="st0" d="M273,96c0,5,4,9,9,9h94.5c2.5,0,4.5,2,4.5,4.5s-2,4.5-4.5,4.5H282c-5,0-9,4-9,9s4,9,9,9h108c5,0,9-4,9-9V42
	c0-5-4-9-9-9H282c-5,0-9,4-9,9V96z M300,51c-5,0-9,4-9,9v18c0,5,4,9,9,9h72c5,0,9-4,9-9V60c0-5-4-9-9-9H300z"/>
</svg>
