<?xml version="1.0" encoding="utf-8"?>
<svg version="1.1" id="Layer_1" xmlns="http://www.w3.org/2000/svg" xmlns:xlink="http://www.w3.org/1999/xlink" x="0px" y="0px"
	 viewBox="0 0 500 500" enable-background="new 0 0 500 500" xml:space="preserve">
<path fill="#FFFFFF" d="M250.5,499.5L250.5,499.5c-138.1,0-250-111.9-250-250v0c0-138.1,111.9-250,250-250h0
	c138.1,0,250,111.9,250,250v0C500.5,387.6,388.6,499.5,250.5,499.5z"/>
<path fill="#24292F" d="M309.4,225.2l1.9-3.7c2.7-5.3,5.8-10.4,7.4-19.3l0.5-3.9c0.6-4.7,0.7-9.5,0.2-14.2
	c-1.6-15-8.7-28.1-19.2-37.6s-24.3-15.1-39.4-15.1h-64c-8.4,0-15.2,6.8-15.2,15.2v182.9c0,8.1,6.6,14.6,14.6,14.6h91.4
	c16.5,0,32-7.7,41.9-20.9l4.9-6.4C363.5,267.4,325.1,231.7,309.4,225.2z M212.7,162.9h49.7c7.5,0,14.7,3.4,19.1,9.4
	c8.3,11.1,8.3,26.8,0,37.9c-2.2,3-5.2,5.3-8.4,6.9c-3.3,1.6-7,2.4-10.7,2.4h-49.7V162.9z M302.4,307.2c-1.9,1.9-4.2,3.3-6.6,4.3
	c-2.5,1-5.1,1.5-7.8,1.5h-75.2v-62.3H288c5.3,0,10.4,2.1,14.2,5.8C316.4,270.2,316.4,293.5,302.4,307.2z"/>
</svg>
