<svg xmlns="http://www.w3.org/2000/svg" height="56" viewBox="0 0 56 56" width="56">
<g fill="none" fill-rule="evenodd" transform="translate(4 4)">
<g transform="translate(0 1)">
<path d="m8 15c4.4183851 0 8 3.5816149 8 8s-3.5816149 8-8 8c-4.41838509 0-8-3.5816149-8-8s3.58161491-8 8-8z" stroke="url(#paint1_linear_11_60)" stroke-linecap="round" stroke-linejoin="round" stroke-width="2"/>
<path d="m26 17c3.3136957 0 6 2.6863043 6 6s-2.6863043 6-6 6-6-2.6863043-6-6 2.6863043-6 6-6z" stroke="url(#paint1_linear_11_60)" stroke-linecap="round" stroke-linejoin="round" stroke-width="2"/>
<path d="m42 0c2.761413 0 5 2.23858696 5 5s-2.238587 5-5 5-5-2.23858696-5-5 2.238587-5 5-5z" stroke="url(#paint2_linear_11_60)" stroke-linecap="round" stroke-linejoin="round" stroke-width="2"/>
<g fill="url(#paint2_linear_11_60)" transform="translate(36 35)">
<path d="m6 0c.55243665 0 1 .44756335 1 1s-.44756335 1-1 1-1-.44756335-1-1 .44756335-1 1-1"/>
<path d="m3.44122314 2.48083496c0 .55243665-.44756335 1-1 1-.55243664 0-1-.44756335-1-1s.44756336-1 1-1c.55243665 0 1 .44756335 1 1z"/>
<path d="m10.5544434 2.48254395c0 .55243664-.4475634 1-1.00000004 1-.55243665 0-1-.44756336-1-1 0-.55243665.44756335-1 1-1 .55243664 0 1.00000004.44756335 1.00000004 1z"/>
<path d="m3.43988037 9.50982666c0 .55243664-.44756335 1.00000004-1 1.00000004s-1-.4475634-1-1.00000004c0-.55243665.44756335-1 1-1s1 .44756335 1 1z"/>
<path d="m10.4654541 9.60131836c0 .55243664-.4475634 1.00000004-1 1.00000004-.55243665 0-1-.4475634-1-1.00000004 0-.55243665.44756335-1 1-1 .5524366 0 1 .44756335 1 1z"/>
<path d="m6 10c.55243665 0 1 .4475634 1 1s-.44756335 1-1 1-1-.4475634-1-1 .44756335-1 1-1"/>
<path d="m11 5c.5524366 0 1 .44756335 1 1s-.4475634 1-1 1-1-.44756335-1-1 .4475634-1 1-1"/>
<path d="m1 5c.55243665 0 1 .44756335 1 1s-.44756335 1-1 1-1-.44756335-1-1 .44756335-1 1-1"/>
</g>
<g stroke-width="2">
<path d="m26 36c2.761413 0 5 2.238587 5 5s-2.238587 5-5 5-5-2.238587-5-5 2.238587-5 5-5z" stroke="url(#paint2_linear_11_60)" stroke-linecap="round" stroke-linejoin="round"/>
<path d="m28.0356931 21.6070557-3.0691874 3.0651125-1.490747-1.4854753" stroke="url(#paint1_linear_11_60)" stroke-linecap="round" stroke-linejoin="round"/>
<path d="m42 17c3.3136957 0 6 2.6863043 6 6s-2.6863043 6-6 6-6-2.6863043-6-6 2.6863043-6 6-6z" stroke="url(#paint1_linear_11_60)" stroke-linecap="round" stroke-linejoin="round"/>
<path d="m7.0933645 19.7485767 3.845906 2.3959271c.4687613.2920295.6120308.9087724.3200013 1.3775337-.0820762.1317474-.1936951.2425794-.3260199.3237213l-3.84590593 2.3583203c-.47081581.2887055-1.08652956.141076-1.37523513-.3297398-.09645825-.1573024-.14751255-.3382261-.14751255-.5227477v-4.7542474c0-.5522848.44771525-1 1-1 .18692582 0 .37010964.0523924.52876621.1512325z" fill-rule="nonzero" stroke="url(#paint1_linear_11_60)" stroke-linecap="round" stroke-linejoin="round"/>
<path d="m16 23h4" stroke="url(#paint1_linear_11_60)"/>
<path d="m32 23h4" stroke="url(#paint1_linear_11_60)"/>
<path d="m42 10v3.0511475" stroke="url(#paint2_linear_11_60)" stroke-linecap="round"/>
<path d="m26 33v3" stroke="url(#paint2_linear_11_60)" stroke-linecap="round"/>
</g>
<path d="m40 22c.5518316 0 1 .4481684 1 1 0 .5526111-.4481684 1-1 1s-1-.4473889-1-1c0-.5518316.4481684-1 1-1" fill="url(#paint2_linear_11_60)"/>
<path d="m44 22c.5518316 0 1 .4481684 1 1 0 .5526111-.4481684 1-1 1s-1-.4473889-1-1c0-.5518316.4481684-1 1-1" fill="url(#paint2_linear_11_60)"/>
</g>
<path d="m21 36.0273438h-11c-1.1045695 0-2 .8954305-2 2v4" stroke="url(#paint2_linear_11_60)" stroke-linecap="round" stroke-linejoin="round" stroke-width="2" transform="matrix(1 0 0 -1 0 78.054688)"/>
<path d="m21 6.02734375h-11c-1.1045695 0-2 .8954305-2 2v4.00000005" stroke="url(#paint2_linear_11_60)" stroke-linecap="round" stroke-linejoin="round" stroke-width="2"/>
<g fill="url(#paint2_linear_11_60)" transform="translate(21)">
<path d="m5 0c.55243665 0 1 .44756335 1 1s-.44756335 1-1 1-1-.44756335-1-1 .44756335-1 1-1"/>
<path d="m2.44122314 2.48083496c0 .55243665-.44756335 1-1 1-.55243664 0-.99999999-.44756335-.99999999-1s.44756335-1 .99999999-1c.55243665 0 1 .44756335 1 1z"/>
<path d="m9.55444336 2.48254395c0 .55243664-.44756335 1-1 1s-1-.44756336-1-1c0-.55243665.44756335-1 1-1s1 .44756335 1 1z"/>
<path d="m2.43988037 9.50982666c0 .55243664-.44756335 1.00000004-1 1.00000004s-1-.4475634-1-1.00000004c0-.55243665.44756335-1 1-1s1 .44756335 1 1z"/>
<path d="m9.4654541 9.60131836c0 .55243664-.44756335 1.00000004-1 1.00000004s-1-.4475634-1-1.00000004c0-.55243665.44756335-1 1-1s1 .44756335 1 1z"/>
<path d="m5 10c.55243665 0 1 .4475634 1 1s-.44756335 1-1 1-1-.4475634-1-1 .44756335-1 1-1"/>
</g>
<g stroke="url(#paint2_linear_11_60)" stroke-linecap="round" stroke-width="2">
<path d="m31 6.02734375h6"/>
<path d="m32 42.0273438h5"/>
</g>
</g>
<defs>
    <filter id="filter0_d_11_60" x="0" y="0.994263" width="54" height="54" filterUnits="userSpaceOnUse" color-interpolation-filters="sRGB">
    <feFlood flood-opacity="0" result="BackgroundImageFix"/>
    <feColorMatrix in="SourceAlpha" type="matrix" values="0 0 0 0 0 0 0 0 0 0 0 0 0 0 0 0 0 0 127 0" result="hardAlpha"/>
    <feOffset dy="4"/>
    <feGaussianBlur stdDeviation="8"/>
    <feComposite in2="hardAlpha" operator="out"/>
    <feColorMatrix type="matrix" values="0 0 0 0 0.941176 0 0 0 0 0.14902 0 0 0 0 0.384314 0 0 0 1 0"/>
    <feBlend mode="normal" in2="BackgroundImageFix" result="effect1_dropShadow_11_60"/>
    <feBlend mode="normal" in="SourceGraphic" in2="effect1_dropShadow_11_60" result="shape"/>
    </filter>
    //background
    <linearGradient id="paint0_linear_11_60" x1="27" y1="0" x2="27" y2="48" gradientUnits="userSpaceOnUse">
    <stop stop-color="#9A1FB8"/>
    <stop offset="1" stop-color="#FF0080"/>
    </linearGradient>
    <linearGradient id="paint1_linear_11_60" x1="35.4615" y1="17.7125" x2="22.1326" y2="13.2704" gradientUnits="userSpaceOnUse">
    <stop stop-color="#FF0080"/>
    <stop offset="1" stop-color="#9A1FB8"/>
    </linearGradient>
    <linearGradient id="paint2_linear_11_60" x1="35.4615" y1="17.7125" x2="22.1326" y2="13.2704" gradientUnits="userSpaceOnUse">
    <stop stop-color="#FF0080"/>
    <stop offset="1" stop-color="#9A1FB8"/>
    </linearGradient>
    </defs>
</svg>