<?xml version="1.0" encoding="utf-8"?>
<!-- Generator: Adobe Illustrator 27.1.1, SVG Export Plug-In . SVG Version: 6.00 Build 0)  -->
<svg version="1.1" id="Layer_1" xmlns="http://www.w3.org/2000/svg" xmlns:xlink="http://www.w3.org/1999/xlink" x="0px" y="0px"
	 viewBox="0 0 113.7 40.9" style="enable-background:new 0 0 113.7 40.9;" xml:space="preserve">
<style type="text/css">
	.st0{fill:#FFFFFF;}
</style>
<g id="Google_Partner-_White" transform="translate(0.5 0.501)">
	<path id="Path_3125" class="st0" d="M34.4,20c0-1-0.1-2-0.3-3H20.4v5.7h7.7c-0.3,1.8-1.3,3.4-2.8,4.4v3.7H30
		C32.9,28,34.5,24.1,34.4,20L34.4,20z"/>
	<path id="Path_3126" class="st0" d="M20.4,34.4c3.6,0.1,7-1.2,9.7-3.5l-4.7-3.7c-4.1,2.6-9.5,1.4-12.2-2.6c-0.4-0.6-0.7-1.3-1-2
		H7.3v3.8C9.8,31.2,14.8,34.4,20.4,34.4z"/>
	<path id="Path_3127" class="st0" d="M12.2,22.5c-0.6-1.8-0.6-3.8,0-5.6v-3.8H7.3c-2.1,4.1-2.1,9,0,13.1L12.2,22.5L12.2,22.5z"/>
	<path id="Path_3128" class="st0" d="M20.4,10.9c2.1,0,4.1,0.8,5.6,2.2l4.2-4.2C27.5,6.4,24,5,20.4,5.1c-5.5,0-10.6,3.1-13,8.1
		l4.9,3.8C13.3,13.4,16.6,10.9,20.4,10.9z"/>
	<g id="Layer_3" transform="translate(15.42 51.951)">
		<g id="Group_1459">
			<g id="Group_1447">
				<path id="Path_3130" class="st0" d="M25.2-35.5c-0.5-0.3-1-0.8-1.3-1.3c-0.6-1.1-0.6-2.5,0-3.7c0.6-1.1,1.8-1.8,3.1-1.8
					c0.5,0,1,0.1,1.4,0.3c0.4,0.2,0.8,0.4,1.1,0.8l-0.6,0.6c-0.2-0.3-0.5-0.5-0.8-0.6c-0.3-0.1-0.7-0.2-1.1-0.2
					c-0.5,0-1,0.1-1.4,0.4c-0.4,0.2-0.8,0.6-1,1c-0.5,0.9-0.5,2.1,0,3c0.2,0.4,0.6,0.8,1,1c0.8,0.4,1.7,0.5,2.5,0.1
					c0.3-0.1,0.6-0.3,0.8-0.6c0.2-0.2,0.3-0.4,0.4-0.7c0.1-0.3,0.2-0.6,0.2-0.8H27v-0.8h3.3c0,0.2,0,0.3,0,0.5
					c0,0.4-0.1,0.8-0.2,1.2c-0.1,0.4-0.4,0.8-0.6,1.1C28.9-35.3,28-35,27-35C26.4-35,25.7-35.2,25.2-35.5z"/>
				<path id="Path_3131" class="st0" d="M27-34.9c-0.6,0-1.3-0.2-1.8-0.5l0,0c-0.6-0.3-1-0.8-1.3-1.3c-0.7-1.2-0.7-2.6,0-3.8
					c0.7-1.1,1.9-1.8,3.2-1.8c0.5,0,1,0.1,1.5,0.3c0.4,0.2,0.8,0.4,1.1,0.8l0.1,0.1l-0.7,0.7l-0.1-0.1c-0.2-0.3-0.5-0.5-0.8-0.6
					c-0.3-0.1-0.7-0.2-1.1-0.2c-0.5,0-0.9,0.1-1.3,0.3c-0.4,0.2-0.7,0.6-1,1c-0.5,0.9-0.5,2,0,2.9c0.2,0.4,0.6,0.7,1,1
					c0.8,0.4,1.7,0.5,2.5,0.1c0.3-0.1,0.6-0.3,0.8-0.6c0.2-0.2,0.3-0.4,0.4-0.6c0.1-0.2,0.2-0.5,0.2-0.7h-2.6v-0.9h3.5l0,0.1
					c0,0.2,0,0.3,0,0.5c0,0.4-0.1,0.9-0.2,1.3c-0.1,0.4-0.4,0.8-0.7,1.1C28.9-35.3,28-34.9,27-34.9z M27-42.2c-1.3,0-2.4,0.7-3,1.7
					c-0.6,1.1-0.6,2.5,0,3.6c0.3,0.5,0.7,1,1.3,1.3l0,0c0.5,0.3,1.1,0.5,1.8,0.5c0.9,0,1.8-0.3,2.5-1c0.3-0.3,0.5-0.6,0.6-1
					c0.1-0.4,0.2-0.8,0.2-1.2c0-0.1,0-0.3,0-0.4h-3.2v0.6h2.6l0,0.1c0,0.3-0.1,0.6-0.2,0.9c-0.1,0.3-0.2,0.5-0.4,0.7
					c-0.2,0.3-0.5,0.5-0.8,0.6c-0.8,0.3-1.8,0.3-2.6-0.1c-0.4-0.2-0.8-0.6-1.1-1c-0.5-1-0.5-2.1,0-3.1c0.3-0.4,0.6-0.8,1-1
					c0.8-0.4,1.7-0.5,2.6-0.1c0.3,0.1,0.6,0.3,0.8,0.6l0.5-0.5c-0.3-0.3-0.6-0.5-1-0.7C27.9-42.1,27.5-42.2,27-42.2z"/>
			</g>
			<g id="Group_1448" transform="translate(7.808 1.997)">
				<path id="Path_3132" class="st0" d="M24.6-37.3c-0.4-0.2-0.7-0.6-0.9-0.9c-0.4-0.8-0.4-1.8,0-2.7c0.2-0.4,0.5-0.7,0.9-0.9
					c0.8-0.5,1.8-0.5,2.6,0c0.4,0.2,0.7,0.6,0.9,0.9c0.4,0.8,0.4,1.8,0,2.7c-0.2,0.4-0.5,0.7-0.9,0.9C26.4-36.9,25.4-36.9,24.6-37.3
					z M26.8-38c0.3-0.2,0.5-0.4,0.6-0.7c0.3-0.6,0.3-1.4,0-2c-0.1-0.3-0.4-0.5-0.6-0.7c-0.3-0.2-0.6-0.2-0.8-0.2
					c-0.6,0-1.2,0.3-1.5,0.9c-0.3,0.6-0.3,1.4,0,2c0.1,0.3,0.4,0.5,0.6,0.7c0.3,0.2,0.6,0.2,0.9,0.2C26.2-37.7,26.5-37.8,26.8-38z"
					/>
				<path id="Path_3133" class="st0" d="M25.9-36.9c-0.5,0-0.9-0.1-1.4-0.4c-0.4-0.2-0.7-0.6-0.9-1c-0.4-0.9-0.4-1.9,0-2.7
					c0.2-0.4,0.5-0.7,0.9-1c0.8-0.5,1.9-0.5,2.7,0c0.4,0.2,0.7,0.6,0.9,1c0.4,0.9,0.4,1.9,0,2.7c-0.2,0.4-0.5,0.7-0.9,1
					C26.9-37,26.4-36.9,25.9-36.9z M25.9-42.2c-0.4,0-0.9,0.1-1.3,0.3c-0.4,0.2-0.7,0.5-0.9,0.9c-0.4,0.8-0.4,1.8,0,2.6
					c0.2,0.4,0.5,0.7,0.9,0.9l0,0c0.8,0.4,1.7,0.4,2.5,0c0.4-0.2,0.7-0.5,0.9-0.9c0.4-0.8,0.4-1.8,0-2.6c-0.2-0.4-0.5-0.7-0.9-0.9
					C26.8-42.1,26.4-42.2,25.9-42.2L25.9-42.2z M25.9-37.7c-0.7,0-1.3-0.4-1.6-0.9c-0.3-0.7-0.3-1.4,0-2.1c0.2-0.3,0.4-0.5,0.7-0.7
					c0.8-0.5,1.9-0.2,2.4,0.6c0,0,0,0,0,0.1c0.3,0.7,0.3,1.4,0,2.1c-0.2,0.3-0.4,0.5-0.7,0.7l0,0C26.6-37.7,26.2-37.7,25.9-37.7z
					 M25.9-41.4c-0.6,0-1.1,0.3-1.4,0.8c-0.3,0.6-0.3,1.3,0,1.9c0.1,0.3,0.3,0.5,0.6,0.6c0.5,0.3,1.1,0.3,1.6,0l0,0
					c0.3-0.1,0.5-0.4,0.6-0.6c0.3-0.6,0.3-1.3,0-1.9c-0.1-0.3-0.3-0.5-0.6-0.6C26.5-41.3,26.2-41.4,25.9-41.4L25.9-41.4z"/>
			</g>
			<g id="Group_1449" transform="translate(13.576 1.997)">
				<path id="Path_3134" class="st0" d="M24.6-37.3c-0.4-0.2-0.7-0.6-0.9-0.9c-0.4-0.8-0.4-1.8,0-2.7c0.2-0.4,0.5-0.7,0.9-0.9
					c0.8-0.5,1.8-0.5,2.6,0c0.4,0.2,0.7,0.6,0.9,0.9c0.4,0.8,0.4,1.8,0,2.7c-0.2,0.4-0.5,0.7-0.9,0.9C26.4-36.9,25.4-36.9,24.6-37.3
					z M26.8-38c0.3-0.2,0.5-0.4,0.6-0.7c0.3-0.6,0.3-1.4,0-2c-0.1-0.3-0.4-0.5-0.6-0.7c-0.3-0.2-0.6-0.2-0.8-0.2
					c-0.6,0-1.2,0.3-1.5,0.9c-0.3,0.6-0.3,1.4,0,2C24.9-37.8,25.9-37.5,26.8-38C26.8-38,26.8-38,26.8-38z"/>
				<path id="Path_3135" class="st0" d="M25.9-36.9c-0.5,0-0.9-0.1-1.4-0.4c-0.4-0.2-0.7-0.6-0.9-1c-0.4-0.9-0.4-1.9,0-2.7
					c0.2-0.4,0.5-0.7,0.9-1c0.8-0.5,1.9-0.5,2.7,0c0.4,0.2,0.7,0.6,0.9,1c0.4,0.9,0.4,1.9,0,2.7c-0.2,0.4-0.5,0.7-0.9,1
					C26.9-37,26.4-36.9,25.9-36.9z M25.9-42.2c-0.4,0-0.9,0.1-1.3,0.3c-0.4,0.2-0.7,0.5-0.9,0.9c-0.4,0.8-0.4,1.8,0,2.6
					c0.2,0.4,0.5,0.7,0.9,0.9l0,0c0.8,0.4,1.7,0.4,2.5,0c0.4-0.2,0.7-0.5,0.9-0.9c0.4-0.8,0.4-1.8,0-2.6c-0.2-0.4-0.5-0.7-0.9-0.9
					C26.8-42.1,26.4-42.2,25.9-42.2L25.9-42.2z M25.9-37.7c-0.7,0-1.3-0.4-1.6-0.9c-0.3-0.7-0.3-1.4,0-2.1c0.2-0.3,0.4-0.5,0.7-0.7
					c0.6-0.3,1.2-0.3,1.8,0c0.3,0.2,0.5,0.4,0.7,0.7c0.3,0.7,0.3,1.4,0,2.1c-0.2,0.3-0.4,0.5-0.7,0.7l0,0
					C26.6-37.7,26.2-37.7,25.9-37.7z M25.9-41.4c-0.6,0-1.1,0.3-1.4,0.8c-0.3,0.6-0.3,1.3,0,1.9c0.1,0.3,0.3,0.5,0.6,0.6
					c0.5,0.3,1.1,0.3,1.6,0l0,0c0.3-0.1,0.5-0.4,0.6-0.6c0.3-0.6,0.3-1.3,0-1.9c-0.1-0.3-0.3-0.5-0.6-0.6
					C26.5-41.3,26.2-41.4,25.9-41.4L25.9-41.4z"/>
			</g>
			<g id="Group_1450" transform="translate(19.344 1.997)">
				<path id="Path_3136" class="st0" d="M24.4-35.3c-0.4-0.2-0.6-0.6-0.8-1l0.7-0.3c0.1,0.3,0.3,0.5,0.5,0.7
					c0.3,0.2,0.6,0.3,0.9,0.3c0.4,0,0.9-0.1,1.2-0.4c0.3-0.3,0.5-0.8,0.4-1.2v-0.6h0c-0.2,0.3-0.4,0.5-0.7,0.6
					c-0.3,0.2-0.7,0.2-1,0.2c-0.4,0-0.8-0.1-1.2-0.3c-0.4-0.2-0.6-0.6-0.8-0.9c-0.4-0.9-0.4-1.9,0-2.7c0.2-0.4,0.5-0.7,0.8-0.9
					c0.3-0.2,0.8-0.3,1.2-0.3c0.3,0,0.7,0.1,1,0.2c0.3,0.1,0.5,0.4,0.7,0.6h0v-0.7h0.8v4.8c0,0.7-0.2,1.3-0.7,1.8
					C26.7-34.8,25.4-34.7,24.4-35.3L24.4-35.3z M26.6-38c0.3-0.2,0.5-0.4,0.6-0.7c0.2-0.3,0.2-0.7,0.2-1c0-0.4-0.1-0.7-0.2-1
					c-0.1-0.3-0.3-0.5-0.6-0.6c-0.5-0.3-1.1-0.3-1.6,0c-0.3,0.2-0.5,0.4-0.6,0.6c-0.2,0.3-0.2,0.7-0.2,1c0,0.3,0.1,0.7,0.2,1
					c0.3,0.5,0.8,0.9,1.4,0.9C26.1-37.7,26.4-37.8,26.6-38L26.6-38z"/>
				<path id="Path_3137" class="st0" d="M25.8-34.8c-0.5,0-1-0.1-1.5-0.4c-0.4-0.2-0.6-0.6-0.8-1l0-0.1l0.9-0.4l0,0.1
					c0.1,0.3,0.3,0.5,0.5,0.7c0.3,0.2,0.6,0.3,0.9,0.3c0.4,0,0.8-0.1,1.1-0.4c0.3-0.3,0.4-0.7,0.4-1.2v-0.3
					c-0.2,0.2-0.4,0.4-0.6,0.5c-0.3,0.2-0.7,0.3-1,0.2c-0.4,0-0.9-0.1-1.2-0.3c-0.4-0.2-0.7-0.6-0.9-1c-0.4-0.9-0.4-1.9,0-2.8
					c0.2-0.4,0.5-0.7,0.9-1c0.4-0.2,0.8-0.4,1.2-0.3c0.4,0,0.7,0.1,1,0.2c0.2,0.1,0.4,0.3,0.6,0.5v-0.6h1v4.8c0,0.7-0.2,1.4-0.7,1.9
					C27.1-35,26.5-34.8,25.8-34.8z M23.7-36.2c0.1,0.3,0.4,0.7,0.7,0.9c1,0.8,2.4,0.6,3.2-0.4c0.4-0.4,0.5-1,0.5-1.6V-42h-0.6v0.7
					h-0.2l0,0c-0.2-0.3-0.4-0.5-0.7-0.6c-0.3-0.2-0.6-0.2-1-0.2c-0.4,0-0.8,0.1-1.1,0.3c-0.3,0.2-0.6,0.5-0.8,0.9
					c-0.4,0.8-0.4,1.8,0,2.6c0.2,0.4,0.5,0.7,0.8,0.9c0.3,0.2,0.7,0.3,1.1,0.3c0.3,0,0.7-0.1,1-0.2c0.3-0.1,0.5-0.3,0.7-0.6l0,0h0.2
					v0.6c0,0.5-0.1,0.9-0.4,1.3c-0.3,0.3-0.8,0.5-1.2,0.5c-0.3,0-0.7-0.1-1-0.3c-0.2-0.2-0.4-0.4-0.5-0.7L23.7-36.2z M25.8-37.7
					c-0.6,0-1.2-0.3-1.5-0.9c-0.2-0.3-0.2-0.7-0.2-1c0-0.4,0.1-0.7,0.2-1c0.1-0.3,0.4-0.5,0.6-0.7c0.5-0.3,1.2-0.3,1.7,0
					c0.3,0.2,0.5,0.4,0.6,0.7c0.2,0.3,0.2,0.7,0.2,1.1c0,0.4-0.1,0.7-0.2,1c-0.1,0.3-0.4,0.5-0.6,0.7C26.4-37.7,26.1-37.7,25.8-37.7
					z M25.8-41.4c-0.3,0-0.5,0.1-0.8,0.2c-0.2,0.2-0.4,0.4-0.6,0.6c-0.1,0.3-0.2,0.6-0.2,1c0,0.3,0.1,0.7,0.2,1
					c0.2,0.5,0.8,0.8,1.3,0.8c0.3,0,0.5-0.1,0.8-0.2c0.2-0.2,0.4-0.4,0.6-0.6c0.1-0.3,0.2-0.6,0.2-1c0-0.3-0.1-0.7-0.2-1
					c-0.1-0.3-0.3-0.5-0.5-0.6C26.4-41.4,26.1-41.4,25.8-41.4L25.8-41.4z"/>
			</g>
			<g id="Group_1451" transform="translate(25.384 0.155)">
				<path id="Path_3138" class="st0" d="M23.4-42.3h0.8v6.9h-0.8V-42.3z"/>
				<path id="Path_3139" class="st0" d="M24.3-35.2h-1v-7.1h1V-35.2z M23.5-35.4h0.7v-6.8h-0.7V-35.4z"/>
			</g>
			<g id="Group_1452" transform="translate(27.168 1.997)">
				<path id="Path_3140" class="st0" d="M24.6-37.3c-0.4-0.2-0.7-0.5-0.9-0.9c-0.2-0.4-0.3-0.9-0.3-1.3c0-0.5,0.1-0.9,0.3-1.3
					c0.2-0.4,0.5-0.7,0.8-1c0.4-0.2,0.8-0.4,1.3-0.4c0.4,0,0.9,0.1,1.3,0.3c0.4,0.2,0.6,0.5,0.8,0.9c0.2,0.4,0.3,0.9,0.3,1.3
					c0,0.1,0,0.2,0,0.3h-3.9c0,0.3,0.1,0.7,0.3,0.9c0.1,0.2,0.4,0.4,0.6,0.6c0.2,0.1,0.5,0.2,0.8,0.2c0.6,0,1.2-0.3,1.5-0.9l0.7,0.3
					c-0.2,0.4-0.5,0.7-0.9,0.9C26.4-36.9,25.4-36.9,24.6-37.3L24.6-37.3z M27.3-40.1c0-0.2-0.1-0.4-0.2-0.6
					c-0.1-0.2-0.3-0.4-0.5-0.5c-0.3-0.2-0.5-0.2-0.8-0.2c-0.4,0-0.7,0.1-1,0.4c-0.3,0.3-0.5,0.6-0.5,1L27.3-40.1z"/>
				<path id="Path_3141" class="st0" d="M25.9-36.9c-0.5,0-0.9-0.1-1.3-0.4l0,0c-0.4-0.2-0.7-0.6-0.9-1c-0.2-0.4-0.3-0.9-0.3-1.4
					c0-0.5,0.1-0.9,0.3-1.4c0.2-0.4,0.5-0.7,0.9-1c0.4-0.3,0.8-0.4,1.3-0.4c0.5,0,0.9,0.1,1.3,0.3c0.4,0.2,0.7,0.5,0.9,0.9
					c0.2,0.4,0.3,0.9,0.3,1.3c0,0.1,0,0.2,0,0.3l0,0.1h-3.9c0,0.3,0.1,0.6,0.3,0.8c0.1,0.2,0.3,0.4,0.6,0.6c0.2,0.1,0.5,0.2,0.7,0.2
					c0.6,0,1.1-0.3,1.4-0.8l0-0.1l0.8,0.4l0,0.1c-0.2,0.4-0.5,0.7-0.9,1C26.8-37,26.3-36.9,25.9-36.9z M24.6-37.4
					c0.8,0.4,1.7,0.4,2.5,0c0.3-0.2,0.6-0.5,0.8-0.8l-0.5-0.3c-0.3,0.5-0.9,0.9-1.5,0.9c-0.3,0-0.6-0.1-0.8-0.2
					c-0.3-0.1-0.5-0.4-0.6-0.6c-0.2-0.3-0.3-0.6-0.3-1v-0.1h3.9c0-0.1,0-0.1,0-0.2c0-0.4-0.1-0.9-0.3-1.3c-0.2-0.4-0.4-0.7-0.8-0.9
					c-0.4-0.2-0.8-0.3-1.2-0.3c-0.4,0-0.9,0.1-1.2,0.3c-0.3,0.2-0.6,0.6-0.8,0.9c-0.2,0.4-0.3,0.8-0.3,1.3c0,0.5,0.1,0.9,0.3,1.3
					C24-37.9,24.3-37.6,24.6-37.4L24.6-37.4z M27.4-40.1h-3.2l0-0.1c0.1-0.4,0.3-0.8,0.6-1c0.3-0.3,0.7-0.4,1-0.4
					c0.3,0,0.6,0.1,0.9,0.2c0.2,0.1,0.4,0.3,0.5,0.6C27.3-40.6,27.3-40.4,27.4-40.1L27.4-40.1z M24.4-40.2h2.8
					c0-0.2-0.1-0.3-0.2-0.5c-0.1-0.2-0.3-0.4-0.5-0.5c-0.2-0.1-0.5-0.2-0.8-0.2c-0.3,0-0.7,0.1-0.9,0.3
					C24.6-40.8,24.4-40.6,24.4-40.2L24.4-40.2z"/>
			</g>
			<g id="Group_1453" transform="translate(34.912 0.155)">
				<path id="Path_3142" class="st0" d="M23.4-42.3h2.3c0.4,0,0.7,0.1,1.1,0.3c0.3,0.2,0.6,0.4,0.8,0.7c0.4,0.7,0.4,1.5,0,2.1
					c-0.2,0.3-0.5,0.6-0.8,0.7c-0.3,0.2-0.7,0.3-1.1,0.3h-1.5v2.8h-0.8L23.4-42.3z M25.7-38.9c0.2,0,0.5-0.1,0.7-0.2
					c0.2-0.1,0.3-0.3,0.5-0.5c0.2-0.4,0.2-0.8,0-1.2c-0.1-0.2-0.3-0.4-0.5-0.5c-0.2-0.1-0.4-0.2-0.7-0.2h-1.5v2.5L25.7-38.9z"/>
				<path id="Path_3143" class="st0" d="M24.3-35.2h-1v-7.1h2.4c0.4,0,0.8,0.1,1.1,0.3c0.3,0.2,0.6,0.4,0.8,0.8
					c0.4,0.7,0.4,1.5,0,2.2c-0.2,0.3-0.5,0.6-0.8,0.8c-0.3,0.2-0.7,0.3-1.1,0.3h-1.4V-35.2z M23.5-35.4h0.6v-2.8h1.6
					c0.4,0,0.7-0.1,1-0.3c0.3-0.2,0.6-0.4,0.8-0.7c0.4-0.6,0.4-1.4,0-2c-0.2-0.3-0.4-0.5-0.8-0.7c-0.3-0.2-0.7-0.3-1-0.3h-2.3
					L23.5-35.4z M25.7-38.8h-1.6v-2.7h1.6c0.3,0,0.5,0.1,0.7,0.2c0.2,0.1,0.4,0.3,0.5,0.5c0.2,0.4,0.2,0.9,0,1.3
					c-0.1,0.2-0.3,0.4-0.5,0.5C26.3-38.9,26-38.8,25.7-38.8L25.7-38.8z M24.3-39h1.5c0.2,0,0.4-0.1,0.6-0.2c0.2-0.1,0.3-0.3,0.4-0.4
					c0.2-0.4,0.2-0.8,0-1.1c-0.1-0.2-0.3-0.3-0.4-0.4c-0.2-0.1-0.4-0.2-0.6-0.2h-1.5V-39z"/>
			</g>
			<g id="Group_1454" transform="translate(40.177 1.997)">
				<path id="Path_3144" class="st0" d="M24.3-37.2c-0.3-0.1-0.5-0.3-0.7-0.6c-0.2-0.3-0.2-0.5-0.2-0.8c0-0.5,0.2-0.9,0.6-1.2
					c0.4-0.3,1-0.5,1.5-0.4c0.3,0,0.6,0,0.8,0.1c0.2,0,0.4,0.1,0.6,0.2v-0.3c0-0.3-0.1-0.7-0.4-0.9c-0.3-0.2-0.6-0.3-1-0.3
					c-0.3,0-0.5,0.1-0.8,0.2c-0.2,0.1-0.4,0.3-0.6,0.5l-0.6-0.5c0.2-0.3,0.5-0.5,0.8-0.7c0.4-0.2,0.7-0.3,1.1-0.3
					c0.6,0,1.1,0.2,1.6,0.5c0.4,0.4,0.6,0.9,0.6,1.4v3.1h-0.8v-0.7h0c-0.2,0.3-0.4,0.5-0.6,0.6c-0.3,0.2-0.6,0.3-1,0.3
					C24.9-37,24.6-37.1,24.3-37.2z M26.1-37.9c0.2-0.1,0.4-0.3,0.6-0.6c0.1-0.2,0.2-0.5,0.2-0.8c-0.2-0.1-0.4-0.2-0.6-0.3
					c-0.2-0.1-0.5-0.1-0.7-0.1c-0.4,0-0.7,0.1-1,0.3c-0.2,0.2-0.4,0.4-0.3,0.7c0,0.3,0.1,0.5,0.3,0.7c0.2,0.2,0.5,0.3,0.8,0.3
					C25.6-37.7,25.9-37.8,26.1-37.9L26.1-37.9z"/>
				<path id="Path_3145" class="st0" d="M25.3-36.9c-0.3,0-0.7-0.1-1-0.2l0,0c-0.3-0.1-0.5-0.4-0.7-0.6c-0.2-0.3-0.2-0.6-0.2-0.9
					c0-0.5,0.2-1,0.6-1.3c0.5-0.3,1-0.5,1.5-0.5c0.3,0,0.6,0,0.8,0.1c0.2,0,0.3,0.1,0.5,0.2v-0.2c0-0.3-0.1-0.6-0.4-0.8
					c-0.3-0.2-0.6-0.3-0.9-0.3c-0.3,0-0.5,0.1-0.7,0.2c-0.2,0.1-0.4,0.3-0.5,0.5l0,0.1l-0.8-0.6l0-0.1c0.2-0.3,0.5-0.6,0.8-0.7
					c0.4-0.2,0.8-0.3,1.2-0.3c0.6,0,1.2,0.2,1.6,0.6c0.4,0.4,0.6,0.9,0.6,1.5v3.2h-1v-0.6c-0.2,0.2-0.3,0.3-0.6,0.5
					C25.9-37,25.6-36.9,25.3-36.9z M25.5-40.2c-0.5,0-1,0.1-1.4,0.4c-0.4,0.3-0.6,0.7-0.6,1.2c0,0.3,0.1,0.6,0.2,0.8
					c0.2,0.2,0.4,0.4,0.6,0.6l0,0c0.3,0.1,0.6,0.2,0.9,0.2c0.3,0,0.6-0.1,0.9-0.2c0.2-0.1,0.5-0.3,0.6-0.6l0,0H27v0.7h0.6v-3
					c0-0.5-0.2-1-0.6-1.4c-0.4-0.4-1-0.5-1.5-0.5c-0.4,0-0.8,0.1-1.1,0.2c-0.3,0.1-0.5,0.3-0.7,0.6l0.5,0.4c0.1-0.2,0.3-0.3,0.5-0.5
					c0.2-0.1,0.5-0.2,0.8-0.2c0.4,0,0.7,0.1,1,0.4c0.3,0.2,0.4,0.6,0.4,1v0.5l-0.1-0.1c-0.2-0.1-0.4-0.2-0.6-0.2
					C26-40.2,25.7-40.2,25.5-40.2z M25.3-37.6c-0.3,0-0.6-0.1-0.8-0.3c-0.2-0.2-0.3-0.4-0.3-0.7c0-0.3,0.1-0.6,0.4-0.8
					c0.3-0.2,0.7-0.3,1.1-0.3c0.3,0,0.5,0,0.7,0.1c0.2,0.1,0.4,0.1,0.6,0.3l0,0v0c0,0.3-0.1,0.6-0.2,0.8c-0.1,0.2-0.4,0.5-0.6,0.6
					l0,0C25.9-37.7,25.6-37.6,25.3-37.6L25.3-37.6z M25.6-39.6c-0.3,0-0.7,0.1-1,0.3c-0.2,0.2-0.3,0.4-0.3,0.7
					c0,0.2,0.1,0.5,0.3,0.6c0.2,0.2,0.5,0.2,0.7,0.2c0.3,0,0.5-0.1,0.7-0.2c0.2-0.1,0.4-0.3,0.5-0.5c0.1-0.2,0.2-0.5,0.2-0.7
					c-0.2-0.1-0.3-0.2-0.5-0.2C26.1-39.5,25.8-39.6,25.6-39.6z"/>
			</g>
			<g id="Group_1455" transform="translate(45.469 0.756)">
				<path id="Path_3146" class="st0" d="M23.4-40.8h0.8v0.8h0c0.1-0.3,0.3-0.5,0.6-0.7c0.3-0.2,0.6-0.2,0.9-0.2c0.1,0,0.2,0,0.4,0
					v0.8c-0.1,0-0.3,0-0.4,0c-0.4,0-0.8,0.1-1,0.4c-0.3,0.3-0.4,0.7-0.4,1.1v2.7h-0.8V-40.8z M28.4-35.9c-0.2-0.1-0.3-0.1-0.4-0.3
					c-0.1-0.1-0.2-0.3-0.3-0.4c-0.1-0.2-0.1-0.4-0.1-0.6v-2.9h-0.9v-0.7h0.9v-1.4h0.8v1.4h1.2v0.7h-1.2v2.8c0,0.2,0,0.4,0.2,0.6
					c0.1,0.2,0.3,0.2,0.5,0.2c0.2,0,0.4-0.1,0.5-0.2v0.8c-0.1,0-0.2,0.1-0.3,0.1c-0.1,0-0.3,0-0.4,0C28.8-35.8,28.6-35.8,28.4-35.9
					L28.4-35.9z"/>
				<path id="Path_3147" class="st0" d="M29-35.7c-0.2,0-0.4,0-0.6-0.1c-0.2-0.1-0.3-0.2-0.5-0.3c-0.1-0.1-0.2-0.3-0.3-0.5
					c-0.1-0.2-0.1-0.4-0.1-0.6V-40h-0.9v-0.9h0.9v-1.4h1v1.4h1.2v0.9h-1.2v2.7c0,0.2,0,0.4,0.1,0.6c0.1,0.1,0.3,0.2,0.5,0.2
					c0.2,0,0.4-0.1,0.5-0.2l0.1-0.1v1l0,0c-0.1,0-0.2,0.1-0.3,0.1C29.2-35.7,29.1-35.7,29-35.7z M26.8-40.2h0.9v3
					c0,0.2,0,0.4,0.1,0.6c0.1,0.2,0.2,0.3,0.3,0.4c0.1,0.1,0.3,0.2,0.4,0.2c0.2,0.1,0.3,0.1,0.5,0.1c0.1,0,0.2,0,0.4,0
					c0.1,0,0.2,0,0.2-0.1v-0.6c-0.1,0.1-0.3,0.1-0.5,0.1c-0.2,0-0.4-0.1-0.6-0.2c-0.1-0.2-0.2-0.4-0.2-0.7v-2.8h1.2v-0.6h-1.2v-1.4
					h-0.7v1.4h-0.9L26.8-40.2z M24.3-35.7h-1v-5.1h1v0.6c0.1-0.2,0.3-0.4,0.5-0.5c0.3-0.2,0.6-0.3,1-0.3c0.1,0,0.3,0,0.4,0l0.1,0v1
					l-0.1,0c-0.1,0-0.3,0-0.4,0c-0.4,0-0.7,0.1-1,0.4c-0.3,0.3-0.4,0.7-0.4,1L24.3-35.7z M23.5-35.9h0.7v-2.7c0-0.4,0.1-0.8,0.4-1.1
					c0.3-0.3,0.7-0.5,1.1-0.4c0.1,0,0.2,0,0.4,0v-0.7c-0.1,0-0.2,0-0.3,0c-0.3,0-0.6,0.1-0.9,0.2c-0.3,0.1-0.4,0.4-0.6,0.6l0,0.1
					h-0.2v-0.8h-0.6V-35.9z"/>
			</g>
			<g id="Group_1456" transform="translate(52.634 1.997)">
				<path id="Path_3148" class="st0" d="M23.4-42.1h0.8v0.7h0c0.2-0.3,0.4-0.5,0.6-0.6c0.3-0.2,0.6-0.3,0.9-0.3c0.5,0,1,0.2,1.4,0.5
					c0.3,0.4,0.5,0.9,0.5,1.4v3.2h-0.8v-3c0-0.4-0.1-0.7-0.3-1c-0.2-0.2-0.6-0.3-0.9-0.3c-0.3,0-0.5,0.1-0.7,0.2
					c-0.2,0.1-0.4,0.4-0.5,0.6c-0.1,0.2-0.2,0.5-0.2,0.8v2.8h-0.8L23.4-42.1z"/>
				<path id="Path_3149" class="st0" d="M27.7-37.1h-1v-3.1c0-0.3-0.1-0.7-0.3-0.9c-0.2-0.2-0.5-0.3-0.8-0.3c-0.2,0-0.5,0.1-0.7,0.2
					c-0.2,0.1-0.4,0.3-0.5,0.6c-0.1,0.2-0.2,0.5-0.2,0.7v2.9h-1v-5.1h1v0.6c0.2-0.2,0.3-0.4,0.6-0.5c0.3-0.2,0.6-0.3,1-0.3
					c0.5,0,1.1,0.2,1.4,0.5c0.3,0.4,0.5,0.9,0.5,1.5L27.7-37.1z M26.9-37.2h0.7v-3.1c0-0.5-0.1-1-0.5-1.3c-0.3-0.3-0.8-0.5-1.3-0.5
					c-0.3,0-0.6,0.1-0.9,0.2c-0.3,0.1-0.5,0.3-0.6,0.6l0,0h-0.2V-42h-0.6v4.8h0.7v-2.7c0-0.3,0.1-0.6,0.2-0.8
					c0.1-0.2,0.3-0.5,0.5-0.6c0.2-0.2,0.5-0.2,0.8-0.2c0.4,0,0.7,0.1,1,0.3c0.3,0.3,0.4,0.7,0.4,1.1L26.9-37.2z"/>
			</g>
			<g id="Group_1457" transform="translate(57.81 1.997)">
				<path id="Path_3150" class="st0" d="M24.6-37.3c-0.4-0.2-0.7-0.5-0.9-0.9c-0.2-0.4-0.3-0.9-0.3-1.3c0-0.5,0.1-0.9,0.3-1.3
					c0.2-0.4,0.5-0.7,0.8-1c0.4-0.2,0.8-0.4,1.3-0.4c0.4,0,0.9,0.1,1.3,0.3c0.4,0.2,0.6,0.5,0.8,0.9c0.2,0.4,0.3,0.9,0.3,1.3
					c0,0.1,0,0.2,0,0.3h-3.9c0,0.3,0.1,0.7,0.3,0.9c0.1,0.2,0.4,0.4,0.6,0.6c0.2,0.1,0.5,0.2,0.8,0.2c0.6,0,1.2-0.3,1.5-0.9l0.7,0.3
					c-0.2,0.4-0.5,0.7-0.9,0.9C26.4-36.9,25.4-36.9,24.6-37.3L24.6-37.3z M27.3-40.1c0-0.2-0.1-0.4-0.2-0.6
					c-0.1-0.2-0.3-0.4-0.5-0.5c-0.3-0.2-0.5-0.2-0.8-0.2c-0.4,0-0.7,0.1-1,0.4c-0.3,0.3-0.5,0.6-0.5,1L27.3-40.1z"/>
				<path id="Path_3151" class="st0" d="M25.9-36.9c-0.5,0-0.9-0.1-1.3-0.4l0,0c-0.4-0.2-0.7-0.6-0.9-1c-0.2-0.4-0.3-0.9-0.3-1.4
					c0-0.5,0.1-0.9,0.3-1.4c0.2-0.4,0.5-0.7,0.9-1c0.4-0.3,0.8-0.4,1.3-0.4c0.5,0,0.9,0.1,1.3,0.3c0.4,0.2,0.7,0.5,0.9,0.9
					c0.2,0.4,0.3,0.9,0.3,1.3c0,0.1,0,0.2,0,0.3l0,0.1h-3.9c0,0.3,0.1,0.6,0.3,0.8c0.1,0.2,0.3,0.4,0.6,0.6c0.2,0.1,0.5,0.2,0.7,0.2
					c0.6,0,1.1-0.3,1.4-0.8l0-0.1l0.8,0.4l0,0.1c-0.2,0.4-0.5,0.7-0.9,1C26.8-37,26.3-36.9,25.9-36.9z M24.6-37.4
					c0.8,0.4,1.7,0.4,2.5,0c0.3-0.2,0.6-0.5,0.8-0.8l-0.5-0.3c-0.3,0.5-0.9,0.9-1.5,0.9c-0.3,0-0.6-0.1-0.8-0.2
					c-0.3-0.1-0.5-0.4-0.6-0.6c-0.2-0.3-0.3-0.6-0.3-1v-0.1h3.9c0-0.1,0-0.1,0-0.2c0-0.4-0.1-0.9-0.3-1.3c-0.2-0.4-0.4-0.7-0.8-0.9
					c-0.4-0.2-0.8-0.3-1.2-0.3c-0.4,0-0.9,0.1-1.2,0.3c-0.3,0.2-0.6,0.5-0.8,0.9c-0.2,0.4-0.3,0.8-0.3,1.3c0,0.5,0.1,0.9,0.3,1.3
					C24-37.9,24.3-37.6,24.6-37.4L24.6-37.4z M27.4-40.1h-3.2l0-0.1c0.1-0.4,0.3-0.8,0.6-1c0.3-0.3,0.7-0.4,1-0.4
					c0.3,0,0.6,0.1,0.9,0.2c0.2,0.1,0.4,0.3,0.5,0.6C27.3-40.6,27.3-40.4,27.4-40.1L27.4-40.1z M24.4-40.2h2.8
					c0-0.2-0.1-0.3-0.2-0.5c-0.1-0.2-0.3-0.4-0.5-0.5c-0.2-0.1-0.5-0.2-0.8-0.2c-0.3,0-0.7,0.1-0.9,0.3
					C24.6-40.8,24.4-40.6,24.4-40.2L24.4-40.2z"/>
			</g>
			<g id="Group_1458" transform="translate(63.519 1.997)">
				<path id="Path_3152" class="st0" d="M23.4-42.1h0.8v0.8h0c0.1-0.3,0.3-0.5,0.6-0.7c0.3-0.2,0.6-0.3,0.9-0.3c0.2,0,0.4,0,0.6,0.1
					v0.9c-0.2-0.1-0.5-0.2-0.7-0.2c-0.2,0-0.5,0.1-0.7,0.2c-0.2,0.1-0.4,0.3-0.5,0.6c-0.1,0.2-0.2,0.5-0.2,0.7v2.8h-0.8L23.4-42.1z"
					/>
				<path id="Path_3153" class="st0" d="M24.3-37.1h-1v-5.1h1v0.6c0.1-0.2,0.3-0.3,0.5-0.5c0.3-0.2,0.6-0.3,0.9-0.3
					c0.2,0,0.4,0,0.6,0.1l0.1,0v1.1l-0.1-0.1c-0.2-0.1-0.4-0.2-0.7-0.1c-0.2,0-0.4,0.1-0.6,0.2c-0.2,0.1-0.3,0.3-0.5,0.5
					c-0.1,0.2-0.2,0.5-0.2,0.7L24.3-37.1z M23.5-37.2h0.7v-2.7c0-0.3,0.1-0.5,0.2-0.8c0.1-0.2,0.3-0.4,0.5-0.6
					c0.2-0.1,0.5-0.2,0.7-0.2c0.2,0,0.4,0,0.6,0.1v-0.7c-0.2-0.1-0.3-0.1-0.5-0.1c-0.3,0-0.6,0.1-0.8,0.3c-0.2,0.1-0.4,0.4-0.5,0.6
					l0,0.1h-0.2V-42h-0.6L23.5-37.2z"/>
			</g>
		</g>
		<g id="Group_1460" transform="translate(8.358 27.725)">
			<path id="Path_3154" class="st0" d="M22.6-56.7h1.9c0.3,0,0.6,0.1,0.9,0.2c0.3,0.1,0.5,0.4,0.7,0.6c0.3,0.5,0.3,1.2,0,1.8
				c-0.2,0.3-0.4,0.5-0.7,0.6c-0.3,0.1-0.6,0.2-0.9,0.2h-1.1v2.2h-0.9L22.6-56.7z M24.6-54.1c0.2,0,0.3,0,0.5-0.1
				c0.4-0.2,0.5-0.8,0.3-1.2c-0.1-0.1-0.2-0.2-0.3-0.3c-0.2-0.1-0.3-0.1-0.5-0.1h-1.1v1.8L24.6-54.1z"/>
			<path id="Path_3155" class="st0" d="M27.1-56.7h2c0.3,0,0.6,0.1,0.9,0.2c0.6,0.3,0.9,0.9,0.9,1.5c0,0.4-0.1,0.7-0.4,1
				c-0.2,0.3-0.6,0.5-0.9,0.6l0,0l1.5,2.2v0h-1l-1.5-2.2H28v2.2h-0.9V-56.7z M29.1-54.1c0.2,0,0.5-0.1,0.7-0.2
				c0.2-0.2,0.3-0.4,0.3-0.6c0-0.1,0-0.3-0.1-0.4c-0.2-0.3-0.5-0.5-0.8-0.5H28v1.8H29.1z"/>
			<path id="Path_3156" class="st0" d="M31.7-56.7h3.4v0.8h-2.5v1.5h2.3v0.8h-2.3v1.5h2.5v0.8h-3.4V-56.7z"/>
			<path id="Path_3157" class="st0" d="M36.1-56.7h1.2l1.6,4.2h0l1.6-4.2h1.2v5.6h-0.9v-3.1l0-1h0l-1.6,4.1h-0.7l-1.6-4.1h0l0,1v3.1
				H36L36.1-56.7z"/>
			<path id="Path_3158" class="st0" d="M42.8-56.7h0.9v5.6h-0.9V-56.7z"/>
			<path id="Path_3159" class="st0" d="M44.8-56.7h3.4v0.8h-2.5v1.5h2.3v0.8h-2.3v1.5h2.5v0.8h-3.4V-56.7z"/>
			<path id="Path_3160" class="st0" d="M49.1-56.7h2c0.3,0,0.6,0.1,0.9,0.2c0.6,0.3,0.9,0.9,0.9,1.5c0,0.4-0.1,0.7-0.4,1
				c-0.2,0.3-0.6,0.5-0.9,0.6l0,0l1.5,2.2v0h-1l-1.5-2.2H50v2.2h-0.9L49.1-56.7z M51.1-54.1c0.2,0,0.5-0.1,0.7-0.2
				c0.2-0.2,0.3-0.4,0.3-0.6c0-0.1,0-0.3-0.1-0.4c-0.2-0.3-0.5-0.5-0.8-0.5H50v1.8H51.1z"/>
			<path id="Path_3161" class="st0" d="M55.1-51.9c0.2-0.2,0.5-0.5,1-1c0.5-0.5,0.8-0.8,1-1c0.2-0.2,0.3-0.4,0.4-0.6
				c0.1-0.2,0.1-0.3,0.1-0.5c0-0.2-0.1-0.4-0.2-0.5c-0.2-0.2-0.4-0.2-0.6-0.2c-0.2,0-0.4,0.1-0.6,0.2c-0.1,0.1-0.3,0.3-0.3,0.5
				l-0.8-0.3c0.1-0.2,0.2-0.4,0.3-0.6c0.2-0.2,0.4-0.3,0.6-0.5c0.3-0.1,0.5-0.2,0.8-0.2c0.3,0,0.6,0.1,0.9,0.2
				c0.3,0.1,0.5,0.3,0.6,0.6c0.1,0.2,0.2,0.5,0.2,0.8c0,0.3-0.1,0.6-0.2,0.9c-0.2,0.3-0.4,0.6-0.6,0.8c-0.1,0.1-0.4,0.4-0.8,0.8
				l-0.6,0.6l0,0h2.3v0.8h-3.5L55.1-51.9z"/>
			<path id="Path_3162" class="st0" d="M60.3-51.4c-0.3-0.3-0.6-0.6-0.8-1c-0.4-0.9-0.4-1.9,0-2.8c0.2-0.4,0.4-0.7,0.8-1
				c0.7-0.5,1.6-0.5,2.3,0c0.3,0.3,0.6,0.6,0.8,1c0.4,0.9,0.4,1.9,0,2.8c-0.2,0.4-0.4,0.7-0.8,1C61.9-50.9,60.9-50.9,60.3-51.4
				L60.3-51.4z M62.1-52.1c0.2-0.2,0.4-0.4,0.5-0.7c0.2-0.7,0.2-1.4,0-2c-0.1-0.3-0.2-0.5-0.5-0.7c-0.4-0.3-1-0.3-1.4,0
				c-0.2,0.2-0.4,0.4-0.5,0.7c-0.2,0.7-0.2,1.4,0,2c0.1,0.3,0.2,0.5,0.5,0.7C61.1-51.7,61.7-51.7,62.1-52.1z"/>
			<path id="Path_3163" class="st0" d="M64.1-51.9c0.2-0.2,0.5-0.5,1-1c0.5-0.5,0.8-0.8,1-1c0.2-0.2,0.3-0.4,0.4-0.6
				c0.1-0.2,0.1-0.3,0.1-0.5c0-0.2-0.1-0.4-0.2-0.5c-0.2-0.2-0.4-0.2-0.6-0.2c-0.2,0-0.4,0.1-0.6,0.2c-0.1,0.1-0.3,0.3-0.3,0.5
				l-0.8-0.3c0.1-0.2,0.2-0.4,0.3-0.6c0.2-0.2,0.4-0.3,0.6-0.5c0.3-0.1,0.5-0.2,0.8-0.2c0.3,0,0.6,0.1,0.9,0.2
				c0.3,0.1,0.5,0.3,0.6,0.6c0.1,0.2,0.2,0.5,0.2,0.8c0,0.3-0.1,0.6-0.2,0.9c-0.2,0.3-0.4,0.6-0.6,0.8c-0.1,0.1-0.4,0.4-0.8,0.8
				l-0.6,0.6l0,0h2.3v0.8h-3.5L64.1-51.9z"/>
			<path id="Path_3164" class="st0" d="M68.2-51.9c0.2-0.2,0.5-0.5,1-1c0.5-0.5,0.8-0.8,1-1c0.2-0.2,0.3-0.4,0.4-0.6
				c0.1-0.2,0.1-0.3,0.1-0.5c0-0.2-0.1-0.4-0.2-0.5c-0.2-0.2-0.4-0.2-0.6-0.2c-0.2,0-0.4,0.1-0.6,0.2C69.1-55.4,69-55.2,69-55
				l-0.8-0.3c0.1-0.2,0.2-0.4,0.3-0.6c0.2-0.2,0.4-0.3,0.6-0.5c0.3-0.1,0.5-0.2,0.8-0.2c0.3,0,0.6,0.1,0.9,0.2
				c0.3,0.1,0.5,0.3,0.6,0.6c0.1,0.2,0.2,0.5,0.2,0.8c0,0.3-0.1,0.6-0.2,0.9c-0.2,0.3-0.4,0.6-0.6,0.8c-0.1,0.1-0.4,0.4-0.8,0.8
				l-0.6,0.6l0,0h2.3v0.8h-3.5L68.2-51.9z"/>
		</g>
	</g>
</g>
</svg>
