<?xml version="1.0" encoding="utf-8"?>
<!-- Generator: Adobe Illustrator 27.1.1, SVG Export Plug-In . SVG Version: 6.00 Build 0)  -->
<svg version="1.1" id="Layer_1" xmlns="http://www.w3.org/2000/svg" xmlns:xlink="http://www.w3.org/1999/xlink" x="0px" y="0px"
	 viewBox="0 0 113.7 40.9" style="enable-background:new 0 0 113.7 40.9;" xml:space="preserve">
<style type="text/css">
	.st0{fill:#FFFFFF;}
</style>
<g id="Group_292" transform="translate(709.126 -292.784)">
	<g id="Group_290" transform="translate(-696.584 303.974)">
		<path id="Path_1649" class="st0" d="M4-3.8h2.8v6.2h5.9v-6.2h2.8v15.3h-2.8V5.1H6.8v6.4H4L4-3.8L4-3.8z"/>
		<path id="Path_1650" class="st0" d="M24.5,6.5c0,1.3-1,2.3-2.3,2.3c-1.3,0-2.3-1-2.3-2.3v-6.6h-2.7v6.6c0,2.8,2.2,5,5,5
			c2.8,0,5-2.2,5-5v-6.6h-2.7L24.5,6.5"/>
		<path id="Path_1651" class="st0" d="M34.6,0c-1.2-0.1-2.3,0.4-3.1,1.3v-5.1h-2.7v9.4c-0.2,3.1,2.2,5.7,5.3,5.9c0,0,0.1,0,0.1,0
			c3.2,0.1,5.9-2.5,6-5.7c0,0,0,0,0,0C40.2,2.6,37.7,0.1,34.6,0L34.6,0z M34.6,9c-1.8,0-3.2-1.5-3.2-3.3c0,0,0,0,0,0
			c0-1.8,1.4-3.3,3.2-3.3c0,0,0,0,0,0c1.7,0.1,3,1.6,2.9,3.3C37.6,7.5,36.3,8.9,34.6,9z"/>
		<path id="Path_1652" class="st0" d="M44.6,0.7c-0.1-0.9,0.6-1.7,1.5-1.8c0.1,0,0.2,0,0.4,0c1,0.1,1.9,0.6,2.5,1.3l1.7-2
			c-1-1.2-2.5-1.9-4.1-2c-2.9,0-5,1.7-5,4.5c0,5.2,6.4,3.5,6.4,6.4c-0.1,1-0.9,1.7-1.9,1.7c-1.6,0-2.1-0.8-2.8-1.6l-1.9,2
			c1.1,1.4,2.8,2.3,4.6,2.3c2.7,0,5-1.7,5-4.4C51,1.4,44.6,3.2,44.6,0.7"/>
		<path id="Path_1653" class="st0" d="M58-0.2c-3.1,0.1-5.5,2.7-5.4,5.8c0,0,0,0.1,0,0.1v9.4h2.7v-5.1c0.8,0.9,2,1.3,3.1,1.3
			c3.1-0.1,5.6-2.6,5.5-5.8C63.9,2.4,61.3-0.2,58-0.2C58-0.2,58-0.2,58-0.2L58-0.2z M58.5,8.9c-1.8,0-3.2-1.5-3.2-3.3c0,0,0,0,0,0
			c0-1.8,1.4-3.3,3.2-3.3c0,0,0,0,0,0c1.7,0.1,3,1.6,2.9,3.3C61.5,7.3,60.2,8.7,58.5,8.9z"/>
		<path id="Path_1654" class="st0" d="M83.7,9c-1.6,0-2-0.7-2-1.7V2.7h2.5V0.3h-2.5v-3.1l-2.7,1.2v9.4c0,2.4,1.7,3.6,3.9,3.6
			c0.4,0,0.7,0,1.1-0.1L84.6,9C84.3,9,84,9,83.7,9"/>
		<path id="Path_1655" class="st0" d="M76.6,2.8c-0.5-0.9-1.3-1.6-2.1-2.1c-0.7-0.4-1.4-0.6-2.2-0.7v-2.8c0.8-0.3,1.3-1.1,1.3-1.9
			c0-1.2-0.9-2.1-2.1-2.1c0,0,0,0,0,0c-1.2,0-2.1,1-2.1,2.1c0,0.8,0.5,1.6,1.2,1.9V0c-0.7,0.1-1.3,0.3-1.9,0.6
			c-1.2-0.9-5.2-4-7.5-5.7c0.1-0.2,0.1-0.4,0.1-0.6c0-1.3-1.1-2.4-2.4-2.4c-1.3,0-2.4,1.1-2.4,2.4c0,0,0,0,0,0
			c0,1.3,1.1,2.4,2.4,2.4c0.4,0,0.8-0.1,1.2-0.3l0.5,0.4l6.8,4.9c-0.4,0.3-0.7,0.7-1,1.1c-0.6,0.8-0.9,1.8-0.9,2.8v0.2
			c0,0.7,0.1,1.4,0.4,2c0.2,0.6,0.5,1.1,0.9,1.5l-2.3,2.3c-0.2-0.1-0.4-0.1-0.6-0.1c-0.5,0-0.9,0.2-1.3,0.5
			c-0.3,0.3-0.5,0.8-0.5,1.3c0,0.5,0.2,0.9,0.5,1.3c0.3,0.3,0.8,0.5,1.3,0.5c0.5,0,0.9-0.2,1.3-0.5c0.3-0.3,0.5-0.8,0.5-1.3
			c0-0.2,0-0.4-0.1-0.5l2.3-2.3c0.3,0.2,0.7,0.4,1,0.6c0.8,0.3,1.6,0.5,2.4,0.5h0.2c1,0,1.9-0.2,2.8-0.7c0.9-0.5,1.6-1.2,2.2-2
			c0.5-0.9,0.8-1.9,0.8-2.9V5.7C77.4,4.7,77.1,3.7,76.6,2.8L76.6,2.8z M73.8,7.7c-0.5,0.7-1.3,1.1-2.2,1.1h-0.1
			c-0.5,0-1-0.1-1.4-0.4c-0.5-0.3-0.9-0.6-1.2-1.1c-0.3-0.4-0.5-1-0.5-1.5V5.7c0-0.5,0.1-1,0.4-1.5C69,3.7,69.4,3.3,69.9,3
			c0.5-0.3,1-0.5,1.6-0.5h0.1c0.5,0,1,0.1,1.5,0.3c0.5,0.2,0.9,0.6,1.1,1c0.3,0.4,0.5,0.9,0.5,1.5c0,0.1,0,0.2,0,0.3
			C74.6,6.4,74.3,7.2,73.8,7.7L73.8,7.7z"/>
	</g>
	<g id="Group_291" transform="translate(-696.584 330.689)">
		<path id="Path_1657" class="st0" d="M4-2.5v-3.2c0-1.5,0.4-2.5,2-2.5c1.4,0,1.9,0.9,1.9,2.3v0.5H7.2v-0.5c0-1-0.2-1.7-1.2-1.7
			C5-7.6,4.8-6.8,4.8-5.8v3.4c0,1.2,0.3,1.8,1.3,1.8s1.2-0.7,1.2-1.7v-0.5h0.7v0.5C7.9-1,7.5,0,6,0C4.4,0,4-1.1,4-2.5L4-2.5z"/>
		<path id="Path_1658" class="st0" d="M9.1-8.1H12v0.6H9.9v3h1.7V-4H9.9v3.3H12v0.6H9.1V-8.1z"/>
		<path id="Path_1659" class="st0" d="M13.1-8.1h1.8c1.5,0,2,0.8,2,2c0,0.9-0.2,1.7-1.1,1.9L17-0.1h-0.7L15.1-4h-1.3v3.9H13
			L13.1-8.1z M14.8-4.6c1,0,1.3-0.5,1.3-1.5s-0.3-1.5-1.3-1.5h-1v3L14.8-4.6z"/>
		<path id="Path_1660" class="st0" d="M19-7.5h-1.5v-0.6h3.7v0.6h-1.5v7.4H19V-7.5z"/>
		<path id="Path_1661" class="st0" d="M22.1-8.1h0.8v8h-0.8V-8.1z"/>
		<path id="Path_1662" class="st0" d="M24.3-8.1h2.9v0.6H25v3h1.8V-4H25v3.9h-0.8V-8.1z"/>
		<path id="Path_1663" class="st0" d="M28.1-8.1h0.8v8h-0.8V-8.1z"/>
		<path id="Path_1664" class="st0" d="M30.3-8.1h2.9v0.6H31v3h1.7V-4H31v3.3h2.2v0.6h-2.9V-8.1z"/>
		<path id="Path_1665" class="st0" d="M34.2-8.1H36c1.7,0,2.2,0.9,2.2,2.4v3.2c0,1.5-0.5,2.5-2.1,2.5h-1.8L34.2-8.1z M36-0.7
			c1.3,0,1.4-0.9,1.4-2v-3c0-1.2-0.2-1.8-1.4-1.8h-1v6.9L36-0.7z"/>
		<path id="Path_1666" class="st0" d="M41.4-8.1h1.9c1.4,0,1.9,0.9,1.9,2.1c0,1.1-0.5,2.1-1.9,2.1h-1.2v3.8h-0.8L41.4-8.1z
			 M43.1-4.4c1,0,1.4-0.4,1.4-1.5c0-1.2-0.3-1.6-1.4-1.6h-1v3.1H43.1z"/>
		<path id="Path_1667" class="st0" d="M47-8.1h0.8l1.7,8h-0.7l-0.4-2.1h-1.9L46-0.1h-0.7L47-8.1z M48.3-2.8l-0.8-4.3l-0.8,4.3H48.3z
			"/>
		<path id="Path_1668" class="st0" d="M50.5-8.1h1.8c1.5,0,2,0.8,2,2c0,0.9-0.2,1.7-1.1,1.9l1.2,4.1h-0.7L52.5-4h-1.3v3.9h-0.8
			L50.5-8.1z M52.2-4.6c1,0,1.3-0.5,1.3-1.5s-0.3-1.5-1.3-1.5h-1v3L52.2-4.6z"/>
		<path id="Path_1669" class="st0" d="M56.4-7.5h-1.5v-0.6h3.7v0.6h-1.5v7.4h-0.8L56.4-7.5z"/>
		<path id="Path_1670" class="st0" d="M59.5-8.1H60l2.5,6.2v-6.2h0.7v8h-0.5l-2.6-6.3v6.3h-0.7L59.5-8.1z"/>
		<path id="Path_1671" class="st0" d="M64.6-8.1h2.9v0.6h-2.1v3h1.7V-4h-1.7v3.3h2.2v0.6h-2.9L64.6-8.1z"/>
		<path id="Path_1672" class="st0" d="M68.6-8.1h1.8c1.5,0,2,0.8,2,2c0,0.9-0.2,1.7-1.1,1.9l1.2,4.1h-0.7L70.6-4h-1.3v3.9h-0.8
			L68.6-8.1z M70.3-4.6c1,0,1.3-0.5,1.3-1.5s-0.3-1.5-1.3-1.5h-1v3L70.3-4.6z"/>
	</g>
</g>
</svg>
