<?xml version="1.0" encoding="utf-8"?>
<!-- Generator: Adobe Illustrator 27.1.1, SVG Export Plug-In . SVG Version: 6.00 Build 0)  -->
<svg version="1.1" id="Layer_1" xmlns="http://www.w3.org/2000/svg" xmlns:xlink="http://www.w3.org/1999/xlink" x="0px" y="0px"
	 viewBox="0 0 113.7 40.9" style="enable-background:new 0 0 113.7 40.9;" xml:space="preserve">
<style type="text/css">
	.st0{fill:none;}
	.st1{fill:#FFFFFF;}
	.st2{fill:#D2D2D2;}
</style>
<rect id="Rectangle_482" x="0.4" class="st0" width="115.7" height="40.9"/>
<rect id="Rectangle_483" x="0.4" class="st0" width="14.2" height="40.9"/>
<g id="Group_1468" transform="translate(6.481 14.837)">
	<path id="Path_3165" class="st1" d="M-0.2,13.6c-0.2,0-0.4,0-0.5,0.1c-0.1,0.1-0.3,0.2-0.4,0.3c-0.1,0.1-0.2,0.2-0.2,0.4
		c0,0.2-0.1,0.3-0.1,0.5c0,0.2,0,0.3,0.1,0.4c0,0.1,0.1,0.3,0.2,0.4c0.1,0.1,0.2,0.3,0.3,0.4c0.1,0.1,0.2,0.2,0.3,0.4h-0.8
		c-0.2-0.2-0.4-0.5-0.5-0.7C-2,15.4-2,15.1-2,14.7c0-0.3,0-0.5,0.1-0.8c0.1-0.2,0.2-0.4,0.3-0.6c0.2-0.2,0.3-0.3,0.6-0.4
		c0.2-0.1,0.5-0.2,0.8-0.1c0.2,0,0.5,0,0.7,0.1C0.6,12.9,0.8,13,1,13.2c0.2,0.1,0.4,0.3,0.5,0.5c0.2,0.2,0.4,0.4,0.5,0.7
		c0.2,0.3,0.4,0.6,0.6,0.8c0.1,0.2,0.3,0.3,0.4,0.5c0.1,0.1,0.3,0.2,0.4,0.3c0.2,0.1,0.3,0.1,0.5,0.1v-3.4h0.7v4.2H4.3
		c-0.3,0-0.5,0-0.7-0.1c-0.2-0.1-0.4-0.2-0.6-0.3c-0.2-0.2-0.4-0.4-0.6-0.6c-0.2-0.2-0.4-0.5-0.7-0.9c-0.1-0.2-0.3-0.4-0.5-0.6
		C1.1,14.1,1,14,0.8,13.9c-0.1-0.1-0.3-0.2-0.5-0.2C0.1,13.6,0,13.6-0.2,13.6z"/>
	<path id="Path_3166" class="st1" d="M1.3,6.4c0.5,0,1,0,1.5,0.2C3.2,6.7,3.5,6.8,3.9,7c0.3,0.2,0.5,0.4,0.7,0.7
		c0.2,0.3,0.2,0.6,0.2,1c0,0.3-0.1,0.6-0.2,0.9c-0.2,0.3-0.4,0.5-0.6,0.7c-0.3,0.2-0.7,0.3-1,0.4c-0.5,0.1-0.9,0.1-1.4,0.1
		c-0.5,0-1,0-1.5-0.1c-0.4-0.1-0.8-0.2-1.1-0.4c-0.3-0.2-0.5-0.4-0.7-0.7C-2,9.3-2.1,8.9-2,8.6C-2,7.2-0.9,6.4,1.3,6.4z M1.4,7.2
		c-1.9,0-2.8,0.5-2.8,1.4c0,1,1,1.5,2.9,1.5c1.8,0,2.7-0.5,2.7-1.4C4.1,7.7,3.2,7.2,1.4,7.2z"/>
	<path id="Path_3167" class="st1" d="M-0.2,1.7c-0.2,0-0.4,0-0.5,0.1C-0.9,1.8-1,1.9-1.1,2c-0.1,0.1-0.2,0.2-0.2,0.4
		c0,0.2-0.1,0.3-0.1,0.5c0,0.2,0,0.3,0.1,0.4c0,0.1,0.1,0.3,0.2,0.4C-1.1,3.9-1,4.1-0.9,4.2c0.1,0.1,0.2,0.2,0.3,0.4h-0.8
		c-0.2-0.2-0.4-0.5-0.5-0.7C-2,3.5-2,3.2-2,2.8C-2,2.6-2,2.3-1.9,2c0.1-0.2,0.2-0.4,0.3-0.6C-1.4,1.3-1.2,1.1-1,1
		c0.2-0.1,0.5-0.2,0.8-0.1c0.2,0,0.5,0,0.7,0.1C0.6,1,0.8,1.1,1,1.2c0.2,0.1,0.4,0.3,0.5,0.5c0.2,0.2,0.4,0.4,0.5,0.7
		C2.3,2.7,2.5,3,2.7,3.2c0.1,0.2,0.3,0.3,0.4,0.5c0.1,0.1,0.3,0.2,0.4,0.3C3.7,4,3.8,4,4,4V0.6h0.7v4.2H4.3c-0.3,0-0.5,0-0.7-0.1
		C3.4,4.6,3.1,4.5,3,4.4C2.8,4.2,2.6,4,2.4,3.8C2.2,3.6,2,3.3,1.7,3C1.6,2.7,1.4,2.5,1.2,2.3C1.1,2.2,1,2.1,0.8,1.9
		C0.6,1.8,0.5,1.8,0.3,1.7C0.1,1.7,0,1.7-0.2,1.7z"/>
	<path id="Path_3168" class="st1" d="M-0.2-4.3c-0.2,0-0.4,0-0.5,0.1C-0.9-4.1-1-4-1.1-3.9c-0.1,0.1-0.2,0.2-0.2,0.4
		C-1.4-3.4-1.4-3.2-1.4-3c0,0.2,0,0.3,0.1,0.4c0,0.1,0.1,0.3,0.2,0.4C-1.1-2-1-1.9-0.9-1.8c0.1,0.1,0.2,0.2,0.3,0.4h-0.8
		c-0.2-0.2-0.4-0.5-0.5-0.7C-2-2.5-2-2.8-2-3.1c0-0.3,0-0.5,0.1-0.8c0.1-0.2,0.2-0.4,0.3-0.6C-1.4-4.7-1.2-4.8-1-4.9
		C-0.8-5-0.5-5.1-0.3-5.1c0.2,0,0.5,0,0.7,0.1C0.6-4.9,0.8-4.8,1-4.7c0.2,0.1,0.4,0.3,0.5,0.5C1.8-4,1.9-3.8,2.1-3.6
		C2.3-3.3,2.5-3,2.7-2.8c0.1,0.2,0.3,0.3,0.4,0.5C3.2-2.2,3.3-2.1,3.5-2C3.7-2,3.8-2,4-2v-3.4h0.7v4.2H4.3c-0.3,0-0.5,0-0.7-0.1
		C3.4-1.3,3.1-1.4,3-1.6C2.8-1.7,2.6-1.9,2.4-2.1C2.2-2.4,2-2.7,1.7-3C1.6-3.2,1.4-3.4,1.2-3.6C1.1-3.8,1-3.9,0.8-4
		C0.6-4.1,0.5-4.2,0.3-4.2C0.1-4.3,0-4.3-0.2-4.3z"/>
</g>
<g id="Group_1470" transform="translate(34.993 11.664)">
	<path id="Path_3169" class="st1" d="M1.1-2.7v4.5H0.4v-3.5h0L-1,1.8h-0.5l-1.4-3.5h0v3.5h-0.7v-4.5h1.1l1.2,3.3h0l1.3-3.3L1.1-2.7z
		 M1.8-2.4c0-0.1,0-0.2,0.1-0.3C2-2.8,2.1-2.8,2.2-2.8c0.1,0,0.2,0,0.3,0.1c0.1,0.1,0.1,0.2,0.1,0.3c0,0.1,0,0.2-0.1,0.3
		C2.5-2,2.3-1.9,2.2-1.9C2.1-1.9,2-2,1.9-2.1C1.8-2.1,1.8-2.3,1.8-2.4L1.8-2.4z M2.6-1.4v3.2H1.9v-3.2L2.6-1.4z M4.8,1.2
		c0.1,0,0.2,0,0.4-0.1C5.3,1.1,5.4,1,5.5,0.9v0.7C5.4,1.7,5.3,1.8,5.1,1.8C5,1.8,4.8,1.8,4.6,1.8c-0.8,0-1.5-0.6-1.5-1.5
		c0,0,0-0.1,0-0.1c0-0.5,0.1-0.9,0.4-1.3c0.3-0.3,0.8-0.5,1.2-0.5c0.1,0,0.3,0,0.4,0.1c0.1,0,0.2,0.1,0.3,0.1v0.7
		C5.4-0.7,5.3-0.8,5.2-0.8c-0.1,0-0.2-0.1-0.4-0.1c-0.3,0-0.5,0.1-0.7,0.3C3.9-0.4,3.8-0.1,3.9,0.2c0,0.3,0.1,0.6,0.3,0.8
		C4.3,1.1,4.5,1.2,4.8,1.2L4.8,1.2z M7.6-1.5c0.1,0,0.1,0,0.2,0c0,0,0.1,0,0.1,0v0.8c-0.1,0-0.1-0.1-0.2-0.1c-0.1,0-0.2,0-0.3,0
		C7.3-0.8,7.1-0.7,7-0.6C6.8-0.4,6.8-0.1,6.8,0.1v1.6H6.1v-3.2h0.7v0.5h0C6.9-1.1,7-1.2,7.1-1.3C7.3-1.4,7.4-1.5,7.6-1.5L7.6-1.5z
		 M7.9,0.2c0-0.5,0.1-0.9,0.4-1.3c0.3-0.3,0.8-0.5,1.2-0.5c0.4,0,0.8,0.1,1.1,0.4c0.6,0.7,0.5,1.7,0,2.5c-0.3,0.3-0.7,0.5-1.2,0.5
		c-0.4,0-0.8-0.1-1.1-0.4C8,1.1,7.9,0.7,7.9,0.2L7.9,0.2z M8.7,0.2c0,0.3,0.1,0.5,0.2,0.8c0.2,0.2,0.4,0.3,0.6,0.3
		c0.2,0,0.5-0.1,0.6-0.3c0.2-0.2,0.2-0.5,0.2-0.8c0-0.3-0.1-0.6-0.2-0.8C10-0.8,9.8-0.9,9.5-0.9c-0.2,0-0.5,0.1-0.6,0.3
		C8.7-0.4,8.7-0.1,8.7,0.2L8.7,0.2z M12.2-0.6c0,0.1,0,0.2,0.1,0.3c0.1,0.1,0.3,0.2,0.4,0.2C13,0,13.2,0.1,13.3,0.3
		c0.1,0.2,0.2,0.3,0.2,0.5c0,0.3-0.1,0.6-0.3,0.7c-0.3,0.2-0.6,0.3-0.9,0.3c-0.1,0-0.3,0-0.4,0c-0.1,0-0.3-0.1-0.4-0.1V0.9
		c0.1,0.1,0.3,0.2,0.4,0.2c0.1,0.1,0.3,0.1,0.4,0.1c0.1,0,0.3,0,0.4-0.1c0.1-0.1,0.1-0.1,0.1-0.2c0-0.1,0-0.2-0.1-0.3
		c-0.1-0.1-0.3-0.2-0.5-0.2C12,0.3,11.8,0.2,11.6,0c-0.1-0.2-0.2-0.4-0.2-0.6c0-0.3,0.1-0.5,0.3-0.7c0.2-0.2,0.6-0.3,0.9-0.3
		c0.1,0,0.2,0,0.4,0c0.1,0,0.2,0.1,0.3,0.1v0.7c-0.1-0.1-0.2-0.1-0.3-0.2c-0.1,0-0.3-0.1-0.4-0.1c-0.1,0-0.2,0-0.3,0.1
		C12.2-0.8,12.2-0.7,12.2-0.6L12.2-0.6z M13.8,0.2c0-0.5,0.1-0.9,0.4-1.3c0.3-0.3,0.8-0.5,1.2-0.5c0.4,0,0.8,0.1,1.1,0.4
		c0.6,0.7,0.5,1.7,0,2.5c-0.3,0.3-0.7,0.5-1.2,0.5c-0.4,0-0.8-0.1-1.1-0.4C14,1.1,13.8,0.7,13.8,0.2L13.8,0.2z M14.6,0.2
		c0,0.3,0.1,0.5,0.2,0.8c0.2,0.2,0.4,0.3,0.6,0.3c0.2,0,0.5-0.1,0.6-0.3c0.2-0.2,0.2-0.5,0.2-0.8c0-0.3-0.1-0.6-0.2-0.8
		c-0.2-0.2-0.4-0.3-0.6-0.3c-0.2,0-0.5,0.1-0.6,0.3C14.7-0.4,14.6-0.1,14.6,0.2L14.6,0.2z M19.5-0.8h-1.1v2.6h-0.7v-2.6h-0.5v-0.6
		h0.5v-0.4c0-0.3,0.1-0.6,0.3-0.8c0.2-0.2,0.5-0.3,0.8-0.3c0.1,0,0.2,0,0.2,0c0.1,0,0.1,0,0.2,0v0.7c0,0-0.1,0-0.1-0.1
		c-0.1,0-0.1,0-0.2,0c-0.1,0-0.3,0-0.4,0.1c-0.1,0.1-0.1,0.3-0.1,0.4v0.4h1.1v-0.7l0.7-0.2v1h0.7v0.6h-0.7v1.5c0,0.1,0,0.3,0.1,0.4
		c0.1,0.1,0.2,0.1,0.3,0.1c0.1,0,0.1,0,0.2,0c0.1,0,0.1,0,0.2-0.1v0.6c-0.1,0-0.2,0.1-0.2,0.1c-0.1,0-0.2,0-0.3,0
		c-0.3,0-0.5-0.1-0.7-0.3c-0.2-0.2-0.3-0.5-0.2-0.8L19.5-0.8z"/>
	<g id="Group_1469">
		<rect id="Rectangle_484" x="-12.9" y="-4.2" class="st1" width="3.4" height="3.5"/>
		<rect id="Rectangle_485" x="-9.1" y="-4.2" class="st1" width="3.4" height="3.5"/>
		<rect id="Rectangle_486" x="-12.9" y="-0.3" class="st1" width="3.4" height="3.5"/>
		<rect id="Rectangle_487" x="-9.1" y="-0.3" class="st1" width="3.4" height="3.5"/>
	</g>
</g>
<g id="Group_1471" transform="translate(107.974 13.997)">
	<path id="Path_3170" class="st1" d="M-37-0.6h-0.7l-0.4-1.1h-1.6L-40-0.6h-0.7l1.5-4.2h0.8L-37-0.6z M-38.3-2.3l-0.6-1.7
		c0-0.1,0-0.2-0.1-0.3h0c0,0.1,0,0.2-0.1,0.3l-0.6,1.7H-38.3z"/>
	<path id="Path_3171" class="st1" d="M-33.9-0.6h-0.7v-0.5h0c-0.3,0.6-1,0.7-1.5,0.4c-0.1-0.1-0.2-0.1-0.3-0.2
		c-0.2-0.3-0.3-0.7-0.3-1.1c0-0.4,0.1-0.8,0.4-1.2c0.2-0.3,0.6-0.5,0.9-0.4c0.3,0,0.7,0.2,0.8,0.5h0V-5h0.7V-0.6z M-34.5-2v-0.4
		c0-0.2-0.1-0.4-0.2-0.5c-0.1-0.1-0.3-0.2-0.5-0.2c-0.2,0-0.4,0.1-0.6,0.3C-36-2.6-36-2.4-36-2.1c0,0.3,0.1,0.5,0.2,0.7
		c0.1,0.2,0.3,0.3,0.5,0.3c0.2,0,0.4-0.1,0.5-0.3C-34.6-1.5-34.5-1.8-34.5-2L-34.5-2z"/>
	<path id="Path_3172" class="st1" d="M-30.5-3.6l-1.1,3h-0.7l-1.1-3h0.7l0.6,2.1c0,0.1,0.1,0.3,0.1,0.4h0c0-0.1,0-0.3,0.1-0.4
		l0.7-2.1L-30.5-3.6z"/>
	<path id="Path_3173" class="st1" d="M-27.7-1.9h-2c0,0.2,0.1,0.5,0.2,0.6c0.2,0.2,0.4,0.2,0.6,0.2c0.3,0,0.6-0.1,0.8-0.3v0.5
		c-0.3,0.2-0.7,0.3-1,0.3c-0.4,0-0.7-0.1-1-0.4c-0.3-0.3-0.4-0.7-0.4-1.1c0-0.4,0.1-0.8,0.4-1.1c0.3-0.3,0.6-0.4,1-0.4
		c0.3,0,0.7,0.1,0.9,0.4c0.2,0.3,0.3,0.7,0.3,1.1L-27.7-1.9z M-28.3-2.4c0-0.2,0-0.4-0.2-0.6c-0.1-0.1-0.3-0.2-0.5-0.2
		c-0.2,0-0.4,0.1-0.5,0.2c-0.1,0.2-0.2,0.3-0.2,0.6L-28.3-2.4z"/>
	<path id="Path_3174" class="st1" d="M-25.4-3c-0.1-0.1-0.2-0.1-0.3-0.1c-0.2,0-0.4,0.1-0.5,0.3c-0.1,0.2-0.2,0.5-0.2,0.7v1.4h-0.7
		v-3h0.7V-3h0c0.1-0.2,0.2-0.4,0.3-0.5c0.1-0.1,0.3-0.2,0.4-0.2c0.1,0,0.2,0,0.3,0.1L-25.4-3z"/>
	<path id="Path_3175" class="st1" d="M-23.2-0.7c-0.2,0.1-0.3,0.1-0.5,0.1c-0.6,0-0.8-0.3-0.8-0.8v-1.7h-0.5v-0.5h0.5v-0.7l0.7-0.2
		v0.9h0.7v0.5h-0.7v1.5c0,0.1,0,0.3,0.1,0.4c0.1,0.1,0.2,0.1,0.3,0.1c0.1,0,0.2,0,0.3-0.1L-23.2-0.7z"/>
	<path id="Path_3176" class="st1" d="M-22.3-4.2c-0.1,0-0.2,0-0.3-0.1c-0.1-0.1-0.1-0.2-0.1-0.3c0-0.1,0-0.2,0.1-0.3
		C-22.5-5-22.4-5-22.3-5c0.1,0,0.2,0,0.3,0.1c0.1,0.1,0.1,0.2,0.1,0.3c0,0.1,0,0.2-0.1,0.3C-22.1-4.3-22.2-4.2-22.3-4.2z M-22-0.6
		h-0.7v-3h0.7V-0.6z"/>
	<path id="Path_3177" class="st1" d="M-21.3-0.7v-0.6c0.2,0.2,0.5,0.3,0.8,0.3c0.4,0,0.6-0.1,0.6-0.4c0-0.1,0-0.1-0.1-0.2
		c0-0.1-0.1-0.1-0.1-0.1c-0.1,0-0.1-0.1-0.2-0.1c-0.1,0-0.2-0.1-0.3-0.1c-0.1,0-0.2-0.1-0.3-0.2c-0.1,0-0.2-0.1-0.2-0.2
		c-0.1-0.1-0.1-0.1-0.1-0.2c0-0.1-0.1-0.2,0-0.3c0-0.1,0-0.3,0.1-0.4c0.1-0.1,0.2-0.2,0.3-0.3c0.1-0.1,0.2-0.1,0.4-0.2
		c0.1,0,0.3-0.1,0.4-0.1c0.2,0,0.5,0,0.7,0.1V-3c-0.2-0.1-0.5-0.2-0.7-0.2c-0.1,0-0.2,0-0.2,0c-0.1,0-0.1,0-0.2,0.1
		c0,0-0.1,0.1-0.1,0.1c0,0,0,0.1,0,0.1c0,0.1,0,0.1,0,0.2c0,0,0.1,0.1,0.1,0.1c0.1,0,0.1,0.1,0.2,0.1c0.1,0,0.2,0.1,0.2,0.1
		c0.1,0,0.2,0.1,0.3,0.2c0.1,0,0.2,0.1,0.3,0.2c0.1,0.1,0.1,0.1,0.2,0.2c0,0.1,0.1,0.2,0.1,0.3c0,0.1,0,0.3-0.1,0.4
		c-0.1,0.1-0.2,0.2-0.3,0.3c-0.1,0.1-0.3,0.1-0.4,0.2c-0.2,0-0.3,0.1-0.5,0.1C-20.8-0.5-21.1-0.6-21.3-0.7z"/>
	<path id="Path_3178" class="st1" d="M-18.3-4.2c-0.1,0-0.2,0-0.3-0.1c-0.1-0.1-0.1-0.2-0.1-0.3c0-0.1,0-0.2,0.1-0.3
		C-18.5-5-18.5-5-18.3-5c0.1,0,0.2,0,0.3,0.1c0.1,0.1,0.1,0.2,0.1,0.3c0,0.1,0,0.2-0.1,0.3C-18.1-4.3-18.2-4.2-18.3-4.2z M-18-0.6
		h-0.7v-3h0.7V-0.6z"/>
	<path id="Path_3179" class="st1" d="M-14.6-0.6h-0.7v-1.7c0-0.6-0.2-0.8-0.6-0.8c-0.2,0-0.4,0.1-0.5,0.2c-0.1,0.2-0.2,0.4-0.2,0.6
		v1.7h-0.7v-3h0.7v0.5h0c0.2-0.4,0.5-0.6,0.9-0.6c0.3,0,0.5,0.1,0.7,0.3c0.2,0.3,0.3,0.6,0.2,0.9L-14.6-0.6z"/>
	<path id="Path_3180" class="st1" d="M-11.2-0.9c0.1,0.8-0.4,1.5-1.2,1.6c-0.1,0-0.3,0-0.4,0c-0.3,0-0.7-0.1-1-0.2V0
		c0.3,0.2,0.6,0.3,0.9,0.3c0.5,0.1,1-0.3,1-0.8c0-0.1,0-0.2,0-0.3v-0.3h0c-0.3,0.6-1,0.7-1.6,0.4c-0.1-0.1-0.2-0.1-0.3-0.2
		C-13.9-1.3-14-1.6-14-2c0-0.4,0.1-0.9,0.3-1.2c0.2-0.3,0.6-0.5,1-0.4c0.3,0,0.7,0.2,0.8,0.5h0v-0.4h0.7L-11.2-0.9z M-11.8-2v-0.4
		c0-0.2-0.1-0.4-0.2-0.5c-0.1-0.1-0.3-0.2-0.5-0.2c-0.2,0-0.4,0.1-0.6,0.3c-0.2,0.2-0.2,0.5-0.2,0.8c0,0.3,0.1,0.5,0.2,0.7
		c0.1,0.2,0.3,0.3,0.5,0.3c0.2,0,0.4-0.1,0.5-0.3C-11.9-1.5-11.8-1.8-11.8-2z"/>
</g>
<rect id="Rectangle_488" x="61.4" y="7.5" class="st2" width="0.5" height="7.5"/>
<g id="Group_1472" transform="translate(36.371 34.993)">
	<path id="Path_3181" class="st1" d="M-13.4-2v-1.4c0.2,0.2,0.4,0.3,0.6,0.4c0.2,0.1,0.5,0.2,0.7,0.3c0.2,0.1,0.5,0.1,0.7,0.2
		c0.2,0,0.5,0.1,0.7,0.1c0.6,0,1.1-0.1,1.6-0.4c0.5-0.5,0.7-1.3,0.4-1.9C-8.9-5.1-9-5.3-9.2-5.4C-9.5-5.6-9.7-5.8-10-5.9
		c-0.3-0.2-0.6-0.3-0.9-0.5c-0.4-0.2-0.7-0.4-1-0.6c-0.3-0.2-0.6-0.4-0.8-0.6c-0.2-0.2-0.4-0.5-0.5-0.8c-0.3-0.7-0.3-1.6,0.1-2.3
		c0.2-0.3,0.5-0.6,0.8-0.9c0.3-0.2,0.7-0.4,1.1-0.5c0.4-0.1,0.9-0.2,1.3-0.2c0.7,0,1.5,0.1,2.2,0.4v1.4c-0.7-0.5-1.5-0.7-2.3-0.6
		c-0.3,0-0.5,0-0.8,0.1c-0.2,0.1-0.5,0.1-0.7,0.3c-0.2,0.1-0.4,0.3-0.5,0.5c-0.1,0.2-0.2,0.5-0.2,0.7c0,0.2,0,0.5,0.1,0.7
		c0.1,0.2,0.3,0.4,0.4,0.5c0.2,0.2,0.4,0.3,0.7,0.5c0.3,0.2,0.6,0.3,0.9,0.5c0.4,0.2,0.7,0.4,1,0.6c0.3,0.2,0.6,0.4,0.9,0.7
		c0.2,0.2,0.4,0.5,0.6,0.8c0.1,0.3,0.2,0.7,0.2,1c0,0.5-0.1,0.9-0.3,1.3C-7.8-2.5-8.1-2.2-8.4-2c-0.4,0.2-0.7,0.4-1.1,0.5
		c-0.4,0.1-0.9,0.2-1.4,0.1c-0.2,0-0.4,0-0.6,0c-0.2,0-0.5-0.1-0.7-0.1c-0.2,0-0.5-0.1-0.7-0.2C-13.1-1.8-13.3-1.9-13.4-2z"/>
	<path id="Path_3182" class="st1" d="M0.3-5h-5.1c0,0.7,0.2,1.4,0.6,1.9c0.4,0.5,1.1,0.7,1.7,0.7c0.8,0,1.6-0.3,2.2-0.8v1.1
		C-1-1.6-1.9-1.3-2.7-1.4c-0.9,0-1.8-0.3-2.4-1C-5.8-3.2-6.1-4.2-6-5.3c0-1,0.3-2.1,1-2.8c0.6-0.7,1.5-1.1,2.4-1.1
		c0.8,0,1.6,0.3,2.2,0.9C0-7.5,0.3-6.6,0.3-5.6V-5z M-0.9-6c0-0.6-0.1-1.2-0.5-1.6C-1.7-8-2.2-8.2-2.7-8.2c-0.5,0-1,0.2-1.4,0.6
		c-0.4,0.4-0.6,1-0.7,1.6H-0.9z"/>
	<path id="Path_3183" class="st1" d="M3.1-1.6H1.9v-11h1.2V-1.6z"/>
	<path id="Path_3184" class="st1" d="M11.2-5H6.1c0,0.7,0.2,1.4,0.6,1.9c0.4,0.5,1.1,0.7,1.7,0.7c0.8,0,1.6-0.3,2.2-0.8v1.1
		C9.9-1.6,9-1.3,8.1-1.4c-0.9,0-1.8-0.3-2.4-1C5.1-3.2,4.8-4.2,4.9-5.3c0-1,0.3-2.1,1-2.8c0.6-0.7,1.5-1.1,2.4-1.1
		c0.8,0,1.6,0.3,2.2,0.9c0.6,0.8,0.8,1.7,0.8,2.6L11.2-5z M10-6c0-0.6-0.1-1.2-0.5-1.6C9.2-8,8.7-8.2,8.2-8.2c-0.5,0-1,0.2-1.4,0.6
		C6.4-7.2,6.1-6.6,6.1-6H10z"/>
	<path id="Path_3185" class="st1" d="M17.8-1.9c-0.6,0.4-1.3,0.5-2,0.5c-0.9,0-1.8-0.3-2.5-1c-0.6-0.7-1-1.7-0.9-2.7
		c0-1.1,0.3-2.2,1-3c0.7-0.8,1.7-1.2,2.7-1.1c0.6,0,1.2,0.1,1.7,0.4v1.2c-0.5-0.4-1.1-0.6-1.7-0.6c-0.7,0-1.4,0.3-1.8,0.8
		c-0.5,0.6-0.7,1.4-0.7,2.2c0,0.8,0.2,1.5,0.7,2.1c0.5,0.5,1.1,0.8,1.8,0.8c0.6,0,1.3-0.2,1.8-0.6V-1.9z"/>
	<path id="Path_3186" class="st1" d="M22.8-1.6c-0.3,0.2-0.7,0.3-1.1,0.2c-1.3,0-1.9-0.7-1.9-2.2V-8h-1.2v-1h1.2v-1.8l1.2-0.4V-9
		h1.8v1H21v4.2c0,0.4,0.1,0.8,0.2,1.1c0.2,0.2,0.5,0.4,0.8,0.3c0.3,0,0.5-0.1,0.8-0.2V-1.6z"/>
	<path id="Path_3187" class="st1" d="M29.5-5.5v3.9h-1.2V-12h2.8c0.9-0.1,1.8,0.2,2.5,0.8c0.6,0.6,0.9,1.4,0.9,2.3
		c0,0.9-0.3,1.8-1,2.4c-0.7,0.7-1.7,1-2.7,0.9L29.5-5.5z M29.5-10.9v4.3h1.2c0.7,0,1.3-0.2,1.9-0.6c0.4-0.4,0.7-1,0.6-1.6
		c0-1.4-0.8-2.1-2.4-2.1L29.5-10.9z"/>
	<path id="Path_3188" class="st1" d="M40.8-1.6h-1.2v-1.2h0c-0.4,0.9-1.3,1.4-2.2,1.3c-0.6,0-1.2-0.2-1.7-0.6
		c-0.4-0.4-0.6-1-0.6-1.6c0-1.4,0.8-2.2,2.4-2.4l2.2-0.3c0-1.3-0.5-1.9-1.5-1.9c-0.9,0-1.7,0.3-2.4,0.9v-1.2
		c0.7-0.5,1.6-0.7,2.5-0.7c1.7,0,2.5,0.9,2.5,2.8L40.8-1.6z M39.7-5.3l-1.7,0.2c-0.4,0-0.8,0.2-1.2,0.4c-0.3,0.3-0.5,0.6-0.4,1
		c0,0.3,0.1,0.7,0.4,0.9c0.3,0.2,0.6,0.4,1,0.3c0.5,0,1.1-0.2,1.4-0.6c0.4-0.4,0.6-1,0.6-1.6L39.7-5.3z"/>
	<path id="Path_3189" class="st1" d="M46.7-7.8c-0.3-0.2-0.6-0.3-0.9-0.2c-0.5,0-1,0.3-1.2,0.7c-0.4,0.6-0.5,1.3-0.5,2v3.8h-1.2V-9
		h1.2v1.5h0c0.1-0.5,0.4-0.9,0.8-1.2C45.2-9,45.6-9.2,46-9.2c0.2,0,0.5,0,0.7,0.1L46.7-7.8z"/>
	<path id="Path_3190" class="st1" d="M51.2-1.6c-0.3,0.2-0.7,0.3-1.1,0.2c-1.3,0-1.9-0.7-1.9-2.2V-8H47v-1h1.2v-1.8l1.2-0.4V-9h1.8
		v1h-1.8v4.2c0,0.4,0.1,0.8,0.2,1.1c0.2,0.2,0.5,0.4,0.8,0.3c0.3,0,0.5-0.1,0.8-0.2L51.2-1.6z"/>
	<path id="Path_3191" class="st1" d="M58.7-1.6h-1.2v-4.3c0-1.6-0.6-2.4-1.7-2.4c-0.6,0-1.1,0.2-1.4,0.7C54-7,53.8-6.4,53.8-5.8v4.3
		h-1.2V-9h1.2v1.2h0c0.5-0.9,1.4-1.4,2.4-1.4c0.7,0,1.4,0.2,1.8,0.8c0.5,0.7,0.7,1.5,0.6,2.3V-1.6z"/>
	<path id="Path_3192" class="st1" d="M66.6-5h-5.1c0,0.7,0.2,1.4,0.6,1.9c0.4,0.5,1.1,0.7,1.7,0.7c0.8,0,1.6-0.3,2.2-0.8v1.1
		c-0.7,0.5-1.6,0.8-2.5,0.7c-0.9,0-1.8-0.3-2.4-1c-0.6-0.8-0.9-1.8-0.9-2.9c0-1,0.3-2.1,1-2.8c0.6-0.7,1.5-1.1,2.4-1.1
		c0.8,0,1.6,0.3,2.2,0.9c0.6,0.8,0.8,1.7,0.8,2.6L66.6-5z M65.4-6c0-0.6-0.1-1.2-0.5-1.6c-0.3-0.4-0.8-0.6-1.3-0.6
		c-0.5,0-1,0.2-1.4,0.6c-0.4,0.4-0.6,1-0.7,1.6H65.4z"/>
	<path id="Path_3193" class="st1" d="M72-7.8c-0.3-0.2-0.6-0.3-0.9-0.2c-0.5,0-1,0.3-1.2,0.7c-0.4,0.6-0.5,1.3-0.5,2v3.8h-1.2V-9
		h1.2v1.5h0c0.1-0.5,0.4-0.9,0.8-1.2c0.3-0.3,0.7-0.4,1.1-0.4c0.2,0,0.5,0,0.7,0.1L72-7.8z"/>
</g>
</svg>
