<?xml version="1.0" encoding="utf-8"?>
<!-- Generator: Adobe Illustrator 26.3.1, SVG Export Plug-In . SVG Version: 6.00 Build 0)  -->
<svg version="1.1" id="Layer_1" xmlns="http://www.w3.org/2000/svg" xmlns:xlink="http://www.w3.org/1999/xlink" x="0px" y="0px"
	 viewBox="0 0 700 700" style="enable-background:new 0 0 700 700;" xml:space="preserve">
<style type="text/css">
	.st0{fill:none;}
	.st1{fill:#FFFFFF;}
</style>
<g transform="translate(0.000000,700.000000) scale(0.100000,-0.100000)">
	<path d="M6989,1662C6898,823,6276,163,5444,23C5341,6,5235,5,3505,5C1544,5,1618,3,1405,56c-346,86-655,266-900,526
		C244,858,78,1202,18,1590c-19,124-19,3695,0,3820c63,411,236,755,527,1045c192,192,375,314,615,410c164,66,310,101,535,129
		c17,2,847,3,1845,2c1684-1,1822-3,1910-19c385-71,706-232,975-489c321-307,515-702,564-1150C7004,5203,7004,1797,6989,1662z"/>
</g>
<g>
	<g id="Layer_3_00000055688873975122543140000006300408375842569399_">
		<path class="st0" d="M383.5,312c-3.2,4.2-7.2,7.5-11.8,9.6c-4.6,2.2-9.7,3.4-14.9,3.4h-69.3v-79h69.4c10.5,0,20.5,4.7,26.7,13.1
			C395.1,274.7,395.1,296.6,383.5,312z"/>
		<path class="st0" d="M412.5,447.4c-2.7,2.7-5.8,4.7-9.2,6c-3.4,1.3-7.1,2.1-10.9,2.1H287.5v-86.8h105.1c7.4,0.1,14.6,2.9,19.9,8.1
			C432.1,395.8,432.1,428.2,412.5,447.4z"/>
		<path class="st1" d="M422.3,333l2.7-5.1c3.8-7.4,8.2-14.5,10.2-26.9l0.7-5.5c0.9-6.6,1-13.2,0.3-19.8
			c-2.2-20.9-12.2-39.3-26.8-52.4c-14.6-13.1-33.9-21-55-21h-89.4c-11.6,0-21.1,9.5-21.1,21.1v255.1c0,11.3,9.1,20.4,20.5,20.4
			h127.4c23,0,44.6-10.8,58.5-29.1l6.8-9C497.9,391.9,444.2,342.1,422.3,333z M287.5,246.1h69.4c10.5,0,20.5,4.7,26.7,13.1
			c11.6,15.5,11.6,37.4,0,52.9c-3.2,4.2-7.2,7.5-11.8,9.6c-4.6,2.2-9.7,3.4-14.9,3.4h-69.4V246.1z M412.5,447.4
			c-2.7,2.7-5.8,4.7-9.2,6c-3.4,1.3-7.1,2.1-10.9,2.1H287.5v-86.8h105.1c7.4,0.1,14.6,2.9,19.9,8.1
			C432.1,395.8,432.1,428.2,412.5,447.4z"/>
		<path class="st0" d="M383.5,312c-3.2,4.2-7.2,7.5-11.8,9.6c-4.6,2.2-9.7,3.4-14.9,3.4h-69.3v-79h69.4c10.5,0,20.5,4.7,26.7,13.1
			C395.1,274.7,395.1,296.6,383.5,312z"/>
		<path class="st0" d="M412.5,447.4c-2.7,2.7-5.8,4.7-9.2,6c-3.4,1.3-7.1,2.1-10.9,2.1H287.5v-86.8h105.1c7.4,0.1,14.6,2.9,19.9,8.1
			C432.1,395.8,432.1,428.2,412.5,447.4z"/>
	</g>
</g>
</svg>
