<?xml version="1.0" encoding="utf-8"?>
<svg version="1.1" id="Layer_1" xmlns="http://www.w3.org/2000/svg" xmlns:xlink="http://www.w3.org/1999/xlink" x="0px" y="0px"
	 viewBox="0 0 700 700" style="enable-background:new 0 0 700 700;" xml:space="preserve">
<style type="text/css">
	.st0{fill:none;}
</style>
<g transform="translate(0.000000,700.000000) scale(0.100000,-0.100000)">
	<path d="M3835.7,3879.8c-31.6-41.6-71.5-74.9-118.1-96.5c-37.7-18.6-79.4-29.7-121.9-33c-2.9-0.2-5.7-0.4-8.5-0.6
		c-6.4-0.3-12.8-0.5-19.3-0.5H2875v790.2h693.7c104.8,0,204.7-47.4,267-130.6C3951.4,4254.1,3951.4,4034.5,3835.7,3879.8z"/>
	<path d="M4125.2,2526.4c-26.6-26.6-58.2-46.5-92.3-59.8c-34.1-13.4-70.7-20.8-109-20.8H2875v868.3h1050.6
		c74-0.8,145.5-29.1,198.8-80.6C4320.7,3042.2,4321.5,2717.8,4125.2,2526.4z"/>
	<path d="M6989,5338c-49,448-243,843-564,1150c-269,257-590,418-975,489c-88,16-226,18-1910,19c-998,1-1828,0-1845-2
		c-225-28-371-63-535-129c-240-96-423-218-615-410C254,6165,81,5821,18,5410c-19-125-19-3696,0-3820c60-388,226-732,487-1008
		c245-260,554-440,900-526C1618,3,1544,5,3505,5c1730,0,1836,1,1939,18c832,140,1454,800,1545,1639C7004,1797,7004,5203,6989,5338z
		 M4571.9,2391.7l-68.2-89.8c-138.9-183-355.2-291.2-584.8-291.2H2644.6c-113.1,0-204.6,90.7-204.6,203.8v2551.1
		c0,116.5,94.8,211.3,211.3,211.3h894.1c210.5,0,404.3-79,549.9-210.5c145.5-131.4,245.3-315.2,267.8-524
		c6.6-65.7,5.8-132.2-3.3-197.9l-7.5-54.9c-20.8-124-64.1-194.7-102.3-268.7l-26.7-50.7C4442.1,3579.5,4978.6,3081.2,4571.9,2391.7z
		"/>
</g>
<g>
	<g id="Layer_3_00000055688873975122543140000006300408375842569399_">
		<path class="st0" d="M383.5,312c-3.2,4.2-7.1,7.5-11.8,9.6c-3.8,1.9-7.9,3-12.1,3.3c-0.3,0-0.6,0-0.9,0.1c-0.6,0-1.3,0-1.9,0
			h-69.3v-79h69.4c10.5,0,20.5,4.7,26.7,13.1C395,274.7,395,296.5,383.5,312z"/>
		<path class="st0" d="M412.5,447.4c-2.7,2.7-5.8,4.7-9.2,6c-3.4,1.3-7.1,2.1-10.9,2.1H287.5v-86.8h105.1c7.4,0.1,14.5,2.9,19.9,8.1
			C432.1,395.8,432.2,428.2,412.5,447.4z"/>
		<path class="st0" d="M383.5,312c-3.2,4.2-7.1,7.5-11.8,9.6c-3.8,1.9-7.9,3-12.1,3.3c-0.3,0-0.6,0-0.9,0.1c-0.6,0-1.3,0-1.9,0
			h-69.3v-79h69.4c10.5,0,20.5,4.7,26.7,13.1C395,274.7,395,296.5,383.5,312z"/>
		<path class="st0" d="M412.5,447.4c-2.7,2.7-5.8,4.7-9.2,6c-3.4,1.3-7.1,2.1-10.9,2.1H287.5v-86.8h105.1c7.4,0.1,14.5,2.9,19.9,8.1
			C432.1,395.8,432.2,428.2,412.5,447.4z"/>
	</g>
</g>
</svg>
