<?xml version="1.0" encoding="utf-8"?>
<!-- Generator: Adobe Illustrator 27.1.1, SVG Export Plug-In . SVG Version: 6.00 Build 0)  -->
<svg version="1.1" id="Layer_1" xmlns="http://www.w3.org/2000/svg" xmlns:xlink="http://www.w3.org/1999/xlink" x="0px" y="0px"
	 width="700px" height="700px" viewBox="0 0 700 700" style="enable-background:new 0 0 700 700;" xml:space="preserve">
<style type="text/css">
	.st0{fill:#FFFFFF;}
</style>
<g transform="translate(0.000000,700.000000) scale(0.100000,-0.100000)">
	<path class="st0" d="M1695,6994c-225-28-371-63-535-129c-240-96-423-218-615-410C254,6165,81,5821,18,5410c-19-125-19-3696,0-3820
		c60-388,226-732,487-1008c245-260,554-440,900-526C1618,3,1544,5,3505,5c1730,0,1836,1,1939,18c832,140,1454,800,1545,1639
		c15,135,15,3541,0,3676c-49,448-243,843-564,1150c-269,257-590,418-975,489c-88,16-226,18-1910,19C2542,6997,1712,6996,1695,6994z"
		/>
	<g>
		<g>
			<path d="M2934,4985.7c-25.2-44.6-60.4-87-100.7-117.2c-96.4-73.4-198.5-138.8-297.7-207.8c-92.8-64.7-179.8-137.4-258.2-219.3
				c-160.4-166.1-284.1-356-366.8-571.7c-89.9-234.4-127.3-476.1-110.7-726.3c19.4-291.2,107.9-559.5,264.6-804.7
				c149.6-233.7,345.9-421.4,586.8-560.2c199.2-115.1,412.8-186.3,642.2-213.6c220.1-26.6,437.2-11.5,651.5,46
				c242.3,65.4,459.5,179.8,650.8,340.9c192.7,161.8,341.6,357.4,448.7,585.4c85.6,182.7,135.9,374.7,153.2,574.6
				c18.7,212.1-3.6,421.4-64,626.4c-70.5,238-187.7,449.5-350.2,636.4c-120.1,138.1-259.6,251.7-417.8,344.5
				c-105,61.8-207.1,130.2-287.7,224.4c-74.8,87.7-92,190.6-79.1,300.6c6.5,54.7,17.3,108.6,46.7,156.1
				c13.7,20.9,29.5,40.3,43.9,60.4c11.5,15.8,33.8,19.4,49.6,7.9c50.3-37.4,97.1-77.7,148.1-112.2
				c88.5-59.7,179.1-117.2,268.2-174.7c149.6-97.1,282.6-213.6,399.1-347.3c135.9-156.8,247.4-330.1,331.5-520.7
				c83.4-187.7,136.6-383.3,161.1-587.5c5.8-48.9,10.1-98.5,15.1-148.1c0-1.4,0-2.2,0-3.6v-161.8c0-2.2,0-4.3-0.7-6.5
				c-1.4-6.5-2.9-13.7-2.9-20.1c-8.6-178.3-42.4-353.1-99.2-522.1c-77.7-229.4-193.4-438.7-348.8-624.2
				c-185.5-221.5-407.7-397.7-670.2-522.1c-151-71.2-307.8-124.4-471.8-153.9c-48.2-8.6-96.4-17.3-145.3-26.6
				c-157.5-17.3-361-20.1-590.4,24.5c-124.4,23.7-420.7,92.8-726.3,299.2c-190.6,128.7-354.5,285.5-490.4,471
				c-147.4,201.4-256,421.4-315,664.5c-23.7,99.2-36.7,200.6-54.7,301.3c-4.3,23.7-6.5,48.2-9.3,71.9c0,1.4,0,2.9,0,4.3v225.8
				c0,2.2,0,5,0.7,7.2c1.4,6.5,3.6,12.9,4.3,19.4c3.6,112.2,22.3,221.5,47.5,330.1c43.1,187,112.9,363.2,206.4,530
				c68.3,121.5,147.4,235.9,239.5,340.9c116.5,134.5,248.1,251.7,397,349.5c82.7,53.9,165.4,107.9,246.7,163.2
				c53.2,36.7,103.6,75.5,154.6,114.3c15.1,11.5,36.7,8.6,48.9-5.8C2995.2,5315.8,3018.2,5133.1,2934,4985.7z"/>
			<path d="M5002.3,3051.9c-2.2-192.7-40.3-378.3-115.1-555.9c-107.9-257.4-274-471-499.8-635.7c-217.9-158.2-461-253.1-729.9-281.2
				c-219.3-23-432.2,0-640,71.2c-243.1,83.4-451.6,220.8-625.6,411.3c-147.4,161.8-254.6,347.3-321.5,555.2
				c-67.6,210.7-84.9,426.4-57.5,647.2c22.3,186.3,78.4,361.7,162.5,527.1c95.6,187.7,224.4,350.2,387.6,484.7
				c83.4,68.3,167.6,135.2,251,202.8c26.6,21.6,49.6,46.7,75.5,69c33.8,30.2,49.6,30.9,83.4,0.7c64-56.8,87-133.8,98.5-215
				c22.3-153.2-51.1-265.4-157.5-361c-66.9-59.7-137.4-115.8-208.5-170.4c-94.9-73.4-173.3-161.1-240.2-260.3
				c-96.4-143.1-161.8-299.9-192.7-470.3c-33.8-184.8-28.8-368.2,20.9-549.4c73.4-270.4,220.1-493.3,440.8-665.9
				c165.4-128.7,351.7-212.9,558.8-246.7c221.5-36.7,438.7-17.3,649.4,63.3c274,105,486.1,284.1,636.4,536.5
				c135.2,228,191.3,475.3,169.7,738.6c-19.4,235.2-102.1,448-241.6,639.3c-82,112.2-187,197-294.1,281.9
				c-72.6,56.8-141.7,118.7-205.7,185.5c-93.5,97.8-118.7,217.2-83.4,347.3c10.8,41,30.2,80.5,48.9,118.7
				c8.6,18,24.5,33.8,40.3,46.7c33.1,28,46,27.3,79.1-1.4c78.4-67.6,153.2-138.8,235.9-200.6c90.6-68.3,179.1-138.8,256-222.2
				c181.2-197,304.2-425.7,371.8-683.9C4987.9,3325.9,5003.7,3190,5002.3,3051.9z"/>
			<path d="M3543.1,3806.3c265.4-6.5,523.5-117.9,732.1-338c149.6-157.5,243.1-345.9,281.2-560.2c46-257.4,7.9-503.4-116.5-733.5
				c-105.7-194.9-257.5-346.6-456.7-448c-280.5-142.4-570.3-158.2-863.7-48.9c-219.3,82-392.6,224.4-519.9,422.1
				c-115.8,180.5-176.2,377.5-179.1,592.6c-2.9,204.2,46.7,394.8,148.1,571.7c97.1,169.7,231.6,303.5,400.6,401.3
				C3135.4,3761,3314.5,3807.7,3543.1,3806.3z M3496.4,1633.8c471-4.3,867.3,384,863.7,866.6c-3.6,479.7-388.3,856.5-861.5,857.9
				c-480.4,0.7-878.1-398.4-862.2-892.4C2650.7,2009.9,3028.2,1632.4,3496.4,1633.8z"/>
			<path d="M3246.1,4511.1c-7.9,145.3,133,259.6,264.6,253.1c130.2-6.5,246.7-107.2,242.3-265.4c-3.6-130.9-120.8-241.6-258.9-240.2
				C3356.2,4259.4,3244.7,4373.7,3246.1,4511.1z"/>
			<path d="M3674.8,5132.4c-1.4-106.4-74.8-182.7-174.7-181.2c-97.8,0.7-173.3,87-172.6,195.6c0.7,86.3,79.1,156.1,173.3,155.3
				C3599.2,5301.4,3676.2,5226.6,3674.8,5132.4z"/>
			<path d="M3502.9,3005.9c373.2,0.7,686.1-309.9,672.4-702.6c-12.2-356-308.5-655.1-683.9-651.5c-373.9,3.6-677.4,315.7-671,687.5
				C2826.9,2710.3,3134.7,3010.9,3502.9,3005.9z M3985.4,2160.2c5,259.6-215.7,484-478.9,488.3c-269,4.3-494-212.9-495.5-482.5
				c-1.4-268.2,211.4-486.1,477.5-491.9C3759.6,1667.6,3980.4,1884.1,3985.4,2160.2z"/>
		</g>
	</g>
</g>
</svg>
