<?xml version="1.0" encoding="utf-8"?>
<!-- Generator: Adobe Illustrator 26.3.1, SVG Export Plug-In . SVG Version: 6.00 Build 0)  -->
<svg version="1.1" xmlns="http://www.w3.org/2000/svg" xmlns:xlink="http://www.w3.org/1999/xlink" x="0px" y="0px"
	 viewBox="0 0 647 662.9" style="enable-background:new 0 0 647 662.9;" xml:space="preserve">
<style type="text/css">
	.st0{display:none;}
	.st1{display:inline;fill:none;stroke:#000000;stroke-miterlimit:10;}
	.st2{display:inline;}
	.st3{fill:#B93C3B;}
	.st4{fill:none;}
	.st5{fill:#E6FB04;}
	.st6{fill:#14DDF0;}
</style>
<g id="Layer_1" class="st0">
	
		<image style="display:inline;overflow:visible;" width="664" height="607" xlink:href="bassnectar-unlimited.png"  transform="matrix(1 0 0 1 3.6471 24.7059)">
	</image>
	
		<rect x="99.6" y="119.9" transform="matrix(0.7071 0.7071 -0.7071 0.7071 337.2519 -127.9864)" class="st1" width="447.1" height="446.4"/>
</g>
<g id="Layer_2" class="st0">
	<g class="st2">
		<path class="st3" d="M323.4,659.6C233.9,572,95.2,433.1,5.3,343.9c53.2-52.9,187.5-186.5,239-237.8c0.1,0.1,79.6-79,79.8-78.3
			C324,27.6,7.6,344.9,7.9,343.8C7.9,343.9,324,659.5,323.4,659.6L323.4,659.6z"/>
	</g>
</g>
<g id="Layer_3">
	<g>
		<path class="st4" d="M317.5,112.2"/>
	</g>
	<g>
		<path class="st4" d="M633.2,427.8"/>
	</g>
	<g>
		<path class="st4" d="M317.6,112.5"/>
	</g>
</g>
<g id="Layer_4">
	<g>
		<g>
			<path class="st3" d="M323.5,659.9C233.9,572.3,95.3,433.4,5.3,344.2c53.2-52.9,187.5-186.5,239-237.8c0.1,0.1,79.6-79,79.8-78.3
				C324,27.9,7.7,345.2,8,344C8,344.2,324.1,659.8,323.5,659.9L323.5,659.9z"/>
		</g>
		<g>
			<polygon class="st5" points="322.8,658.4 245.6,580.4 168.9,502 15.5,345.1 14.3,343.9 15.5,342.6 169.4,185.4 246.4,106.8 
				323.7,28.6 323.8,28.7 16.9,344 16.9,343.8 322.9,658.3 			"/>
		</g>
		<g>
			<path class="st6" d="M323.9,660c-84.5-87.7-215.3-226.7-300.2-316c50.1-52.8,176.7-186.4,225.2-237.6c0.1,0.1,75.1-79,75.2-78.3
				C324,28,26,344.9,26.3,343.8C26.3,343.9,324.5,659.9,323.9,660L323.9,660z"/>
		</g>
	</g>
	<g>
		<g>
			<path class="st3" d="M324,659.7c87.5-88.8,226.2-227.7,315.3-317c0,0,0,2.5,0,2.5c-52.3-52.4-186.6-187.1-237.1-237.8
				c0.2-0.1-79.2-79.7-78.5-79.8c0.1,0,317.1,316.3,317.2,316.3C640.5,344,324.2,660.3,324,659.7L324,659.7z"/>
		</g>
		<g>
			<path class="st5" d="M324.7,658.2c84.8-88.5,219.3-226.8,305.6-315.8c0,0,0,2.5,0,2.5c-50.8-52.3-181.1-186.5-230.2-237.1
				c0.2-0.1-76.9-79.5-76.2-79.6c0.1,0,307.9,315.4,308,315.4C631.6,343.7,324.9,658.8,324.7,658.2L324.7,658.2z"/>
		</g>
		<g>
			<path class="st6" d="M323.5,659.8c82.5-88.9,213.3-227.9,297.3-317.2c0,0,0,2.5,0,2.5c-49.3-52.4-175.7-186.9-223.3-237.6
				c0.2-0.1-74.6-79.6-73.9-79.7c0.1,0,298.7,316.1,298.8,316.1C622.2,343.8,323.8,660.3,323.5,659.8L323.5,659.8z"/>
		</g>
	</g>
</g>
<g id="Layer_5">
</g>
</svg>
