<?xml version="1.0" encoding="utf-8"?>
<!-- Generator: Adobe Illustrator 26.3.1, SVG Export Plug-In . SVG Version: 6.00 Build 0)  -->
<svg version="1.1" id="Layer_1" xmlns="http://www.w3.org/2000/svg" xmlns:xlink="http://www.w3.org/1999/xlink" x="0px" y="0px"
	 viewBox="0 0 34.7 34" style="enable-background:new 0 0 34.7 34;" xml:space="preserve">
<style type="text/css">
	.st0{fill:none;stroke:#FFFFFF;stroke-miterlimit:10;}
</style>
<path class="st0" d="M17.5,16.3c-1.8,1.2-2.6,1-2.6,1c0.1-4.3,2.8-6.1,3.7-5.2C19.6,13,19.3,15,17.5,16.3z"/>
<path class="st0" d="M17.2,0.5C8.1,0.5,0.8,7.9,0.8,17s7.4,16.5,16.5,16.5c9.1,0,16.5-7.4,16.5-16.5S26.3,0.5,17.2,0.5z M17.7,25.2
	c-1.6,0-2.4,0-3.9-0.8c-0.8-0.4-1.3-1.2-1.7-2c-0.4-0.8-0.7-1.6-0.8-2.1c0,0-2.2-0.3-3.6-0.8c-1.4-0.6,0-2.5,0-2.5s0.4-0.7,1.2,0
	c0.8,0.7,2.4,0.4,2.4,0.4c0.1-1.1,0.4-2.6,1.1-4.2c1.4-3.3,3.6-4.4,5.3-4.5c1.8,0,3,0.5,4.1,2c2.4,6.1-6.3,9.2-6.3,9.2
	s-0.2,1.6,2.1,1.6v0c4.2-0.5,6.1-2.2,7-3c0.3-0.3,0.5-0.5,0.6-0.5c0.6,0,1.7,0,1.7,1.4S22.4,25.2,17.7,25.2z"/>
</svg>
