<?xml version="1.0" encoding="utf-8"?>
<!-- Generator: Adobe Illustrator 26.3.1, SVG Export Plug-In . SVG Version: 6.00 Build 0)  -->
<svg version="1.1" id="Layer_1" xmlns="http://www.w3.org/2000/svg" xmlns:xlink="http://www.w3.org/1999/xlink" x="0px" y="0px"
	 viewBox="0 0 38 38" style="enable-background:new 0 0 38 38;" xml:space="preserve">
<style type="text/css">
	.st0{fill:#FFFFFF;}
</style>
<path class="st0" d="M19,0C8.5,0,0,8.5,0,19s8.5,19,19,19s19-8.5,19-19S29.5,0,19,0z M8.4,29.6c-2.8-2.9-4.3-6.7-4.3-10.3l14.8,14.7
	C15.1,33.8,11.3,32.4,8.4,29.6z M22.3,33.5L4.5,15.7C6,9.1,11.9,4.1,19,4.1c5,0,9.4,2.4,12.1,6.1l-2,1.8c-2.3-3.1-6-5.2-10-5.2
	c-5.3,0-9.8,3.4-11.5,8.1l15.6,15.6c3.9-1.4,6.9-4.8,7.9-8.8h-6.5V19h9.5C33.9,26.1,28.9,32,22.3,33.5z"/>
</svg>
