<?xml version="1.0" encoding="utf-8"?>
<!-- Generator: Adobe Illustrator 26.3.1, SVG Export Plug-In . SVG Version: 6.00 Build 0)  -->
<svg version="1.1" id="Layer_1" xmlns="http://www.w3.org/2000/svg" xmlns:xlink="http://www.w3.org/1999/xlink" x="0px" y="0px"
	 viewBox="0 0 34.8 39" style="enable-background:new 0 0 34.8 39;" xml:space="preserve">
<style type="text/css">
	.st0{fill-rule:evenodd;clip-rule:evenodd;}
</style>
<path class="st0" d="M32.3,8C29.1,6.1,23.5,2.8,20,0.8c-1.8-1.1-4.1-1-5.9,0.1c-3,1.9-7.8,4.8-10.9,6.7c-1.9,1.1-3,3.2-3,5.3v13.5
	c0,2.2,1.1,4.2,3,5.2l11.4,6.6c1.5,0.9,3.4,0.9,4.9,0c3.3-1.8,9.2-5.1,12.6-7c1.6-0.9,2.6-2.6,2.6-4.4V12.2
	C34.7,10.5,33.8,8.9,32.3,8z M25,29.2h-4.1v-8.6h-6.8v8.6H10V9.6h4.1v7.2h6.8V9.6H25V29.2z"/>
</svg>
