<?xml version="1.0" encoding="utf-8"?>
<!-- Generator: Adobe Illustrator 26.3.1, SVG Export Plug-In . SVG Version: 6.00 Build 0)  -->
<svg version="1.1" id="Layer_1" xmlns="http://www.w3.org/2000/svg" xmlns:xlink="http://www.w3.org/1999/xlink" x="0px" y="0px"
	 viewBox="0 0 37.4 28" style="enable-background:new 0 0 37.4 28;" xml:space="preserve">
<style type="text/css">
	.st0{fill:none;}
</style>
<path class="st0" d="M11.6,27.1L11.6,27.1c-0.3-0.5-0.3-0.8-0.3-1.2H2.5L15.7,2.5l5.5,9.9l1.8-1.3l-5.5-9.9C17.3,1,16.7,0,15.6,0
	c-0.5,0-1.2,0.2-1.8,1.2L0.5,24.8c-0.1,0.2-0.6,1.3-0.1,2.2C0.6,27.5,1.2,28,2.4,28h11.1C12.3,28,11.8,27.5,11.6,27.1z"/>
<path class="st0" d="M36.8,24.9L26.1,5.7c-0.2-0.2-0.7-1.2-1.9-1.2c-0.5,0-1.1,0.2-1.8,1.2L21.1,8v4.5L24.3,7l10.6,18.9h-4
	c0.1,0.4,0,0.8-0.2,1.1v0.1C30.1,28,28.9,28,28.7,28H35c0.2,0,1.4,0,1.9-0.9C37.2,26.6,37.4,25.9,36.8,24.9z"/>
<path class="st0" d="M31,27.1L31,27.1l0.1-0.3c0.1-0.3,0.2-0.6,0.1-0.9l-0.4-1l-8.3-14.6L21.2,8h-0.1l-1.2,2.2l-8.4,14.6l-0.3,1
	c-0.1,0.4,0,0.8,0.2,1.2c0.3,0.5,0.8,0.9,1.9,0.9h15.6C29.2,28,30.4,28,31,27.1z M21.1,12.4l7.7,13.4H13.5L21.1,12.4z"/>
</svg>
