<?xml version="1.0" encoding="utf-8"?>
<!-- Generator: Adobe Illustrator 26.3.1, SVG Export Plug-In . SVG Version: 6.00 Build 0)  -->
<svg version="1.1" id="Layer_1" xmlns="http://www.w3.org/2000/svg" xmlns:xlink="http://www.w3.org/1999/xlink" x="0px" y="0px"
	 viewBox="0 0 22.9 20.1" style="enable-background:new 0 0 22.9 20.1;" xml:space="preserve">
<style type="text/css">
	.st0{fill:none;}
</style>
<path class="st0" d="M-0.6-0.6"/>
<path class="st0" d="M11.4,14.3c6.1,0,11-1.9,11-4.2s-4.9-4.2-11-4.2s-11,1.9-11,4.2S5.3,14.3,11.4,14.3z"/>
<path class="st0" d="M7.7,12.2c3,5.3,7.1,8.6,9.1,7.4S18.1,13.3,15,8c-3-5.3-7.1-8.6-9.1-7.4C3.9,1.8,4.7,7,7.7,12.2z"/>
<path class="st0" d="M7.7,8c-3,5.3-3.9,10.5-1.9,11.6c2,1.2,6.1-2.2,9.1-7.4c3-5.3,3.9-10.5,1.9-11.6C14.9-0.5,10.8,2.8,7.7,8z"/>
</svg>
