<?xml version="1.0" encoding="utf-8"?>
<!-- Generator: Adobe Illustrator 26.3.1, SVG Export Plug-In . SVG Version: 6.00 Build 0)  -->
<svg version="1.1" id="Layer_1" xmlns="http://www.w3.org/2000/svg" xmlns:xlink="http://www.w3.org/1999/xlink" x="0px" y="0px"
	 viewBox="0 0 46.1 54.9" style="enable-background:new 0 0 46.1 54.9;" xml:space="preserve">
<style type="text/css">
	.st0{fill-rule:evenodd;clip-rule:evenodd;}
</style>
<path class="st0" d="M32.5,1.2c-4.1-0.9-8.4-0.2-12,2L8,11.2c-1.7,1.1-3.1,2.5-4.3,4.1c-1.1,1.7-1.9,3.5-2.2,5.5
	c-0.6,3.3-0.1,6.7,1.5,9.7C2,32.1,1.2,34,0.9,35.9C0.5,37.9,0.6,40,1,42c0.4,2,1.3,3.9,2.5,5.5c2.4,3.4,6,5.8,10.1,6.7
	c4.1,0.9,8.4,0.2,12-2l12.5-8c1.7-1.1,3.1-2.5,4.3-4.1c1.1-1.7,1.9-3.5,2.2-5.5c0.6-3.3,0.1-6.7-1.5-9.7c1.1-1.6,1.8-3.5,2.2-5.4
	c0.4-2,0.3-4.1-0.1-6.1c-0.4-2-1.3-3.9-2.5-5.5C40.2,4.5,36.6,2.1,32.5,1.2z M19.4,48.3c-2,0.5-4.1,0.4-6-0.3c-2-0.7-3.7-2-4.8-3.7
	c-0.7-1-1.2-2.1-1.5-3.3c-0.3-1.2-0.3-2.4-0.1-3.6c0.1-0.4,0.2-0.8,0.3-1.2l0.2-0.7l0.7,0.5c1.5,1.1,3.1,1.9,4.9,2.4l0.5,0.1v0.5
	c0,0.7,0.1,1.3,0.5,1.9c0.3,0.5,0.8,0.9,1.4,1.1c0.6,0.2,1.2,0.2,1.8,0.1c0.3-0.1,0.5-0.2,0.8-0.3l12.5-8c0.3-0.2,0.6-0.4,0.8-0.7
	c0.2-0.3,0.3-0.6,0.4-1c0.1-0.4,0.1-0.7,0-1.1c-0.1-0.4-0.2-0.7-0.5-1c-0.3-0.5-0.8-0.9-1.4-1.1c-0.6-0.2-1.2-0.2-1.8-0.1
	c-0.3,0.1-0.5,0.2-0.8,0.3l-4.8,3c-0.8,0.5-1.6,0.9-2.5,1.1c-2,0.5-4.1,0.4-6-0.3c-1.9-0.7-3.6-2-4.7-3.7c-0.7-1-1.2-2.1-1.4-3.3
	c-0.3-1.2-0.3-2.4,0-3.6c0.2-1.2,0.7-2.3,1.3-3.3c0.7-1,1.5-1.8,2.6-2.5l12.6-8c0.8-0.5,1.6-0.9,2.5-1.1c2-0.5,4.1-0.4,6,0.3
	c1.9,0.7,3.6,2,4.7,3.7c0.7,1,1.2,2.1,1.5,3.3c0.3,1.2,0.3,2.4,0.1,3.6c-0.1,0.4-0.2,0.8-0.3,1.2L38.5,20l-0.6-0.5
	c-1.5-1.1-3.1-1.9-4.9-2.4L32.5,17v-0.5c0.1-0.7-0.1-1.3-0.4-1.9c-0.4-0.5-0.8-0.9-1.4-1.1c-0.6-0.2-1.2-0.2-1.8-0.1
	c-0.3,0.1-0.5,0.2-0.8,0.3l-12.5,8c-0.3,0.2-0.6,0.5-0.8,0.8c-0.2,0.3-0.3,0.6-0.4,1c-0.1,0.4-0.1,0.7,0,1.1c0.1,0.4,0.2,0.7,0.5,1
	c0.3,0.5,0.8,0.9,1.4,1.1c0.6,0.2,1.2,0.2,1.8,0.1c0.3-0.1,0.5-0.2,0.8-0.3l4.8-3c0.8-0.5,1.6-0.9,2.5-1.1c2-0.5,4.1-0.4,6,0.3
	s3.6,2,4.7,3.7c0.7,1,1.2,2.1,1.4,3.3c0.3,1.2,0.3,2.4,0,3.6c-0.2,1.2-0.7,2.3-1.3,3.3c-0.7,1-1.5,1.8-2.6,2.5l-12.6,8
	C21.1,47.6,20.3,48,19.4,48.3z"/>
</svg>
