<svg xmlns="http://www.w3.org/2000/svg" xmlns:xlink="http://www.w3.org/1999/xlink" fill="none" height="785" viewBox="0 0 1002 785" width="1002"><filter id="a" color-interpolation-filters="sRGB" filterUnits="userSpaceOnUse" height="542.303" width="918.265" x=".858078" y="139.254"><feFlood flood-opacity="0" result="BackgroundImageFix"/><feBlend in="SourceGraphic" in2="BackgroundImageFix" mode="normal" result="shape"/><feGaussianBlur result="effect1_foregroundBlur" stdDeviation="71.1864"/></filter><filter id="b" color-interpolation-filters="sRGB" filterUnits="userSpaceOnUse" height="618.424" width="780.204" x="70.9873" y=".419128"><feFlood flood-opacity="0" result="BackgroundImageFix"/><feBlend in="SourceGraphic" in2="BackgroundImageFix" mode="normal" result="shape"/><feGaussianBlur result="effect1_foregroundBlur" stdDeviation="71.1864"/></filter><filter id="c" color-interpolation-filters="sRGB" filterUnits="userSpaceOnUse" height="640.754" width="738.853" x="223.059" y="69.6979"><feFlood flood-opacity="0" result="BackgroundImageFix"/><feBlend in="SourceGraphic" in2="BackgroundImageFix" mode="normal" result="shape"/><feGaussianBlur result="effect1_foregroundBlur" stdDeviation="71.1864"/></filter><filter id="d" color-interpolation-filters="sRGB" filterUnits="userSpaceOnUse" height="648.15" width="855.017" x="32.5142" y="79.2526"><feFlood flood-opacity="0" result="BackgroundImageFix"/><feBlend in="SourceGraphic" in2="BackgroundImageFix" mode="normal" result="shape"/><feGaussianBlur result="effect1_foregroundBlur" stdDeviation="60.7519"/></filter><filter id="e" color-interpolation-filters="sRGB" filterUnits="userSpaceOnUse" height="525.61" width="860.515" x="49.0793" y="147.772"><feFlood flood-opacity="0" result="BackgroundImageFix"/><feBlend in="SourceGraphic" in2="BackgroundImageFix" mode="normal" result="shape"/><feGaussianBlur result="effect1_foregroundBlur" stdDeviation="60.7519"/></filter><filter id="f" color-interpolation-filters="sRGB" filterUnits="userSpaceOnUse" height="640.757" width="951.697" x="49.8312" y="108.743"><feFlood flood-opacity="0" result="BackgroundImageFix"/><feBlend in="SourceGraphic" in2="BackgroundImageFix" mode="normal" result="shape"/><feGaussianBlur result="effect1_foregroundBlur" stdDeviation="60.7519"/></filter><linearGradient id="g" gradientUnits="userSpaceOnUse" x1="186.503" x2="355.672" y1="406.876" y2="55.6691"><stop offset="0" stop-color="#ef7a76"/><stop offset="1" stop-color="#bda1f8" stop-opacity="0"/></linearGradient><linearGradient id="h" gradientUnits="userSpaceOnUse" x1="212.108" x2="765.585" y1="303.068" y2="301.475"><stop offset="0" stop-color="#c2a0fd"/><stop offset="1" stop-color="#c2a0fd"/></linearGradient><linearGradient id="i" gradientUnits="userSpaceOnUse" x1="234.458" x2="696.434" y1="388.738" y2="244.344"><stop offset="0" stop-color="#f8d45c"/><stop offset="1" stop-color="#ee797a"/></linearGradient><linearGradient id="j" gradientUnits="userSpaceOnUse" x1="285.317" x2="715.492" y1="195.58" y2="604.375"><stop offset="0" stop-color="#ff7170"/><stop offset="1" stop-color="#c2a0fd"/></linearGradient><g filter="url(#a)" opacity=".3"><ellipse fill="#60429f" rx="322.14" ry="114.581" transform="matrix(.979351 .20217 -.245575 .969378 459.991 410.405)"/></g><g filter="url(#b)" opacity=".3"><path d="m227.567 191.937c-85.304-110.5764 235.459 0 378.956 0 143.498 0 114.013 167.087 44.979 204.201-69.033 37.114-243.949 117.214-361.015 60.825-117.067-56.388 22.383-154.449-62.92-265.026z" fill="url(#g)"/></g><g filter="url(#c)" opacity=".3"><ellipse fill="#f8d45c" rx="178.257" ry="226.85" transform="matrix(.0582919 -.9983 .999831 -.0183949 592.486 390.075)"/></g><g filter="url(#d)" opacity=".3"><path d="m490.48 231.155c117.887 68.71 275.196 101.633 275.547 223.504s-96.544 172.7-183.593 142.933c-87.05-29.767-428.065-191.378-428.416-313.249-.35-121.871 249.413-82.955 336.462-53.188z" fill="url(#h)"/></g><g filter="url(#e)" opacity=".6"><path d="m173.976 372.872c25.002-80.35 181.004-83.857 349.872-99.985 168.869-16.127 285.88 22.402 260.877 102.753-25.003 80.35-182.166 158.561-351.035 174.689-168.868 16.127-284.717-97.106-259.714-177.457z" fill="url(#i)"/></g><g filter="url(#f)" opacity=".4"><path d="m880.025 425.93c-53.563 2.673-252.264-94.986-401.398-114.274-190.989-24.702-307.292-121.956-307.292-62.419 0 207.422 403.609 384.704 525.768 378.607 122.158-6.096 117.481 2.83 104.178-100.124-13.302-102.954-19.14-59.244 78.744-101.79z" fill="url(#j)"/></g></svg>