<svg xmlns="http://www.w3.org/2000/svg" xmlns:xlink="http://www.w3.org/1999/xlink" fill="none" height="651" viewBox="0 0 942 651" width="942"><filter id="a" color-interpolation-filters="sRGB" filterUnits="userSpaceOnUse" height="542.303" width="918.265" x="23.179" y="70.0949"><feFlood flood-opacity="0" result="BackgroundImageFix"/><feBlend in="SourceGraphic" in2="BackgroundImageFix" mode="normal" result="shape"/><feGaussianBlur result="effect1_foregroundBlur" stdDeviation="71.1864"/></filter><filter id="b" color-interpolation-filters="sRGB" filterUnits="userSpaceOnUse" height="600.133" width="753.044" x="78.9687" y="19.5392"><feFlood flood-opacity="0" result="BackgroundImageFix"/><feBlend in="SourceGraphic" in2="BackgroundImageFix" mode="normal" result="shape"/><feGaussianBlur result="effect1_foregroundBlur" stdDeviation="71.1864"/></filter><filter id="c" color-interpolation-filters="sRGB" filterUnits="userSpaceOnUse" height="542.739" width="613.83" x="287.892" y="9.54657"><feFlood flood-opacity="0" result="BackgroundImageFix"/><feBlend in="SourceGraphic" in2="BackgroundImageFix" mode="normal" result="shape"/><feGaussianBlur result="effect1_foregroundBlur" stdDeviation="71.1864"/></filter><filter id="d" color-interpolation-filters="sRGB" filterUnits="userSpaceOnUse" height="649.804" width="888.797" x=".991508" y=".508507"><feFlood flood-opacity="0" result="BackgroundImageFix"/><feBlend in="SourceGraphic" in2="BackgroundImageFix" mode="normal" result="shape"/><feGaussianBlur result="effect1_foregroundBlur" stdDeviation="60.7519"/></filter><filter id="e" color-interpolation-filters="sRGB" filterUnits="userSpaceOnUse" height="561.053" width="876.005" x="51.8103" y="60.7551"><feFlood flood-opacity="0" result="BackgroundImageFix"/><feBlend in="SourceGraphic" in2="BackgroundImageFix" mode="normal" result="shape"/><feGaussianBlur result="effect1_foregroundBlur" stdDeviation="60.7519"/></filter><filter id="f" color-interpolation-filters="sRGB" filterUnits="userSpaceOnUse" height="613.207" width="861.428" x="65.1038" y="9.46066"><feFlood flood-opacity="0" result="BackgroundImageFix"/><feBlend in="SourceGraphic" in2="BackgroundImageFix" mode="normal" result="shape"/><feGaussianBlur result="effect1_foregroundBlur" stdDeviation="60.7519"/></filter><linearGradient id="g" gradientUnits="userSpaceOnUse" x1="195.956" x2="355.852" y1="411.52" y2="79.5653"><stop offset="0" stop-color="#ef7a76"/><stop offset="1" stop-color="#bda1f8" stop-opacity="0"/></linearGradient><linearGradient id="h" gradientUnits="userSpaceOnUse" x1="162.417" x2="637.626" y1="387.928" y2="40.3453"><stop offset="0" stop-color="#c2a0fd"/><stop offset="1" stop-color="#c2a0fd"/></linearGradient><linearGradient id="i" gradientUnits="userSpaceOnUse" x1="304.321" x2="765.888" y1="225.841" y2="296.385"><stop offset="0" stop-color="#ee797a"/><stop offset="1" stop-color="#f8d45c"/></linearGradient><linearGradient id="j" gradientUnits="userSpaceOnUse" x1="318.498" x2="790.035" y1="128.846" y2="471.727"><stop offset="0" stop-color="#035bd6"/><stop offset="1" stop-color="#c2a0fd" stop-opacity="0"/></linearGradient><g filter="url(#a)" opacity=".3"><ellipse fill="#60429f" rx="322.14" ry="114.581" transform="matrix(.979351 .20217 -.245575 .969378 482.312 341.246)"/></g><g filter="url(#b)" opacity=".3"><path d="m234.769 208.363c-80.627-104.515 222.552 0 358.183 0 135.632 0 107.763 157.928 42.514 193.007s-230.577 110.788-341.226 57.491 21.157-145.983-59.471-250.498z" fill="url(#g)"/></g><g filter="url(#c)" opacity=".3"><ellipse fill="#f8d45c" rx="129.18" ry="164.394" transform="matrix(.0582919 -.9983 .999831 -.0183949 594.807 280.916)"/></g><g filter="url(#d)" opacity=".2"><path d="m363.236 160.533c143.339-16.085 300.066-85.0847 372.015 13.282 71.949 98.367 17.213 198.385-76.303 227.226-93.517 28.84-449.44 195.384-521.389 97.017-71.9484-98.367 132.161-308.685 225.677-337.525z" fill="url(#h)"/></g><g filter="url(#e)" opacity=".6"><path d="m192.018 219.139c59.093-59.911 234.104-42.992 398.773 23.092s256.64 156.308 197.547 216.219-240.488 54.907-405.158-11.177c-164.669-66.084-250.256-168.223-191.162-228.134z" fill="url(#i)"/></g><g filter="url(#f)" opacity=".4"><path d="m805.028 136.365c-51.652 7.307-167.289 61.866-313.858 54.523-187.704-9.404-310.477-100.2891-304.343-38.617 21.372 214.856 430.928 364.292 548.729 347.626s48.515-119.68 25.01-225.197c-23.504-105.517-46.05-85.969 44.462-138.335z" fill="url(#j)"/></g></svg>