<svg xmlns="http://www.w3.org/2000/svg" xmlns:xlink="http://www.w3.org/1999/xlink" fill="none" height="756" viewBox="0 0 953 756" width="953"><filter id="a" color-interpolation-filters="sRGB" filterUnits="userSpaceOnUse" height="533.407" width="838.935" x="27.7225" y="82.7817"><feFlood flood-opacity="0" result="BackgroundImageFix"/><feBlend in="SourceGraphic" in2="BackgroundImageFix" mode="normal" result="shape"/><feGaussianBlur result="effect1_foregroundBlur" stdDeviation="66.1713"/></filter><filter id="b" color-interpolation-filters="sRGB" filterUnits="userSpaceOnUse" height="681.292" width="683.944" x="24.2963" y="39.6599"><feFlood flood-opacity="0" result="BackgroundImageFix"/><feBlend in="SourceGraphic" in2="BackgroundImageFix" mode="normal" result="shape"/><feGaussianBlur result="effect1_foregroundBlur" stdDeviation="77.5368"/></filter><filter id="c" color-interpolation-filters="sRGB" filterUnits="userSpaceOnUse" height="666.127" width="765.73" x="38.003" y="5.50137"><feFlood flood-opacity="0" result="BackgroundImageFix"/><feBlend in="SourceGraphic" in2="BackgroundImageFix" mode="normal" result="shape"/><feGaussianBlur result="effect1_foregroundBlur" stdDeviation="70.9187"/></filter><filter id="d" color-interpolation-filters="sRGB" filterUnits="userSpaceOnUse" height="710.497" width="924.361" x="20.6103" y=".668777"><feFlood flood-opacity="0" result="BackgroundImageFix"/><feBlend in="SourceGraphic" in2="BackgroundImageFix" mode="normal" result="shape"/><feGaussianBlur result="effect1_foregroundBlur" stdDeviation="77.5368"/></filter><filter id="e" color-interpolation-filters="sRGB" filterUnits="userSpaceOnUse" height="556.187" width="692.818" x="168.425" y="59.3516"><feFlood flood-opacity="0" result="BackgroundImageFix"/><feBlend in="SourceGraphic" in2="BackgroundImageFix" mode="normal" result="shape"/><feGaussianBlur result="effect1_foregroundBlur" stdDeviation="60.1317"/></filter><filter id="f" color-interpolation-filters="sRGB" filterUnits="userSpaceOnUse" height="667.185" width="817.285" x="135.612" y="48.7565"><feFlood flood-opacity="0" result="BackgroundImageFix"/><feBlend in="SourceGraphic" in2="BackgroundImageFix" mode="normal" result="shape"/><feGaussianBlur result="effect1_foregroundBlur" stdDeviation="85.1397"/></filter><filter id="g" color-interpolation-filters="sRGB" filterUnits="userSpaceOnUse" height="586.778" width="762.013" x="31.9308" y="70.4154"><feFlood flood-opacity="0" result="BackgroundImageFix"/><feBlend in="SourceGraphic" in2="BackgroundImageFix" mode="normal" result="shape"/><feGaussianBlur result="effect1_foregroundBlur" stdDeviation="66.1713"/></filter><filter id="h" color-interpolation-filters="sRGB" filterUnits="userSpaceOnUse" height="507.381" width="861.932" x=".191132" y="129.789"><feFlood flood-opacity="0" result="BackgroundImageFix"/><feBlend in="SourceGraphic" in2="BackgroundImageFix" mode="normal" result="shape"/><feGaussianBlur result="effect1_foregroundBlur" stdDeviation="66.1713"/></filter><linearGradient id="i" gradientUnits="userSpaceOnUse" x1="280.994" x2="363.428" y1="489.67" y2="166.145"><stop offset="0" stop-color="#f8af6c"/><stop offset="1" stop-color="#f5dd50"/></linearGradient><linearGradient id="j" gradientUnits="userSpaceOnUse" x1="339.547" x2="688.575" y1="369.96" y2="178.257"><stop offset="0" stop-color="#ff9f4c" stop-opacity=".32"/><stop offset="1" stop-color="#804eda"/></linearGradient><linearGradient id="k" gradientUnits="userSpaceOnUse" x1="231.256" x2="687.89" y1="187.516" y2="411.942"><stop offset="0" stop-color="#fff"/><stop offset="1" stop-color="#ed4e50"/></linearGradient><g filter="url(#a)" opacity=".2"><path d="m272.587 328.641c271.428 202.489 334.062-161.674 421.884-108.062 87.823 53.612 17.547 187.735-85.708 225.876-103.254 38.14-286.111 58.343-373.934 4.731s-124.131-243.316 37.758-122.545z" fill="url(#i)"/></g><g filter="url(#b)" opacity=".2"><ellipse fill="#ffd33d" rx="230.597" ry="127.175" transform="matrix(-.630118 -.776499 .924234 -.381827 366.268 380.306)"/></g><g filter="url(#c)" opacity=".2"><path d="m409.037 199.018c89.694-77.598 257.417-69.075 252.764 34.157-3.003 66.61-72.857 261.359-153.901 294.781-44.558 18.375-121.447-107.37-163.519-106.367-118.594 2.827-168.899.419-164.246-102.813 4.653-103.233 139.208-42.159 228.902-119.758z" fill="#dd6057"/></g><g filter="url(#d)" opacity=".2"><path d="m299.845 453.173c100.392 43.923 217.088 83.518 265.179 98.679 48.091 15.16 132.481-13.19 202.639-39.911 70.159-26.722-52.959-13.346-.058-66.972s-6.138-117.623-.146-168.095-15.402-89.309-59.678-108.336c-44.276-19.028-107.982-16.762-177.708 6.32-69.727 23.082-140.037 65.18-196.131 117.434-56.094 52.253-96.507-18.625-128.268 28.26l-29.99 34.027s23.769 54.671 124.161 98.594z" fill="#ea4a5a"/></g><g filter="url(#e)" opacity=".4"><path d="m362.2 182.23c41.67-4.401 106.855 74.988 189.761 18.042 82.906-56.947 154.757 15.505 179.909 76.564 29.33 71.199-17.123 177.43-68.832 207.736-51.708 30.307-65.612-12.705-128.574-19.209-62.963-6.505-186.763-9.813-230.547-116.099-43.783-106.286 16.612-162.633 58.283-167.034z" fill="url(#j)"/></g><g filter="url(#f)" opacity=".2"><path d="m712.235 520.233c-63.313 42.753-132.174 33.609-250.764-42.79-118.59-76.398-196.275-199.756-132.962-242.509 63.313-42.754 266.222 6.105 384.812 82.504s62.228 160.041-1.086 202.795z" fill="#ffd33d"/></g><g filter="url(#g)" opacity=".2"><path d="m164.527 503.079c-6.256-44.735 104.175-137.737 241.366-215.053 137.19-77.315 249.19-109.666 255.445-64.932 6.255 44.735-99.889 143.676-237.08 220.992-137.19 77.316-253.476 103.728-259.731 58.993z" fill="#ef641b"/></g><g filter="url(#h)" opacity=".1"><path d="m132.534 338.44c92.461 4.879 455.038-73.927 597.246-76.309-15.08 123.407-46.912 247.436-139.373 242.557-92.462-4.879-163.705 2.741-269.892-95.482-106.186-98.224-115.715-21.809-187.981-70.766z" fill="url(#k)"/></g></svg>