<svg width="852" height="938" viewBox="0 0 852 938" fill="none" xmlns="http://www.w3.org/2000/svg">
<rect width="579.287" height="638" transform="translate(150 150)" fill="white"/>
<g opacity="0.1" filter="url(#filter0_f_20_86)">
<ellipse cx="335.5" cy="328.5" rx="185.5" ry="178.5" fill="url(#paint0_linear_20_86)"/>
</g>
<g opacity="0.1" filter="url(#filter1_f_20_86)">
<ellipse cx="516.5" cy="609.5" rx="185.5" ry="178.5" fill="url(#paint1_linear_20_86)"/>
</g>
<g transform="translate(150 150)" style="mix-blend-mode:overlay">
	<path fill="none" stroke="#000000" stroke-dasharray="4 8" d="M188.6 387.2l48.1-142.5h45.9l48.1 142.5h-37l-9.4-29.9H235 l-9.4 29.9H188.6z M276 331.1l-15.9-50.5H259l-15.8 50.5H276z"/>
	<path fill="none" stroke="#000000" stroke-dasharray="4 8" d="M342.3 244.7h58.9c32 0 52 20 52 49.3c0 29.6-20.4 48.9-53 48.9 h-23.4v44.3h-34.4V244.7z M393.7 315.8c15.4 0 23.7-8.6 23.7-21.8c0-13.2-8.3-21.6-23.7-21.6h-17v43.3H393.7z"/>
	<path fill="none" stroke="#000000" stroke-dasharray="4 8" d="M466.3 244.7h58.9c32 0 52 20 52 49.3c0 29.6-20.4 48.9-53 48.9 h-23.4v44.3h-34.4V244.7z M517.7 315.8c15.4 0 23.7-8.6 23.7-21.8c0-13.2-8.3-21.6-23.7-21.6h-17v43.3H517.7z"/>
</g>
<g transform="translate(150 150)" style="mix-blend-mode:overlay">
	<path fill="none" stroke="#000000" stroke-dasharray="4 8" d="M188.6 387.2l48.1-142.5h45.9l48.1 142.5h-37l-9.4-29.9H235 l-9.4 29.9H188.6z M276 331.1l-15.9-50.5H259l-15.8 50.5H276z"/>
	<path fill="none" stroke="#000000" stroke-dasharray="4 8" d="M342.3 244.7h58.9c32 0 52 20 52 49.3c0 29.6-20.4 48.9-53 48.9 h-23.4v44.3h-34.4V244.7z M393.7 315.8c15.4 0 23.7-8.6 23.7-21.8c0-13.2-8.3-21.6-23.7-21.6h-17v43.3H393.7z"/>
	<path fill="none" stroke="#000000" stroke-dasharray="4 8" d="M466.3 244.7h58.9c32 0 52 20 52 49.3c0 29.6-20.4 48.9-53 48.9 h-23.4v44.3h-34.4V244.7z M517.7 315.8c15.4 0 23.7-8.6 23.7-21.8c0-13.2-8.3-21.6-23.7-21.6h-17v43.3H517.7z"/>
</g>
<defs>
<filter id="filter0_f_20_86" x="0" y="0" width="671" height="657" filterUnits="userSpaceOnUse" color-interpolation-filters="sRGB">
<feFlood flood-opacity="0" result="BackgroundImageFix"/>
<feBlend mode="normal" in="SourceGraphic" in2="BackgroundImageFix" result="shape"/>
<feGaussianBlur stdDeviation="75" result="effect1_foregroundBlur_20_86"/>
</filter>
<filter id="filter1_f_20_86" x="181" y="281" width="671" height="657" filterUnits="userSpaceOnUse" color-interpolation-filters="sRGB">
<feFlood flood-opacity="0" result="BackgroundImageFix"/>
<feBlend mode="normal" in="SourceGraphic" in2="BackgroundImageFix" result="shape"/>
<feGaussianBlur stdDeviation="75" result="effect1_foregroundBlur_20_86"/>
</filter>
<linearGradient id="paint0_linear_20_86" x1="335.5" y1="150" x2="335.5" y2="507" gradientUnits="userSpaceOnUse">
<stop stop-color="#4EBFFF"/>
<stop offset="1" stop-color="#BD69FF"/>
</linearGradient>
<linearGradient id="paint1_linear_20_86" x1="516.5" y1="431" x2="516.5" y2="788" gradientUnits="userSpaceOnUse">
<stop stop-color="#4EBFFF"/>
<stop offset="1" stop-color="#BD69FF"/>
</linearGradient>
</defs>
</svg>