<svg width="849" height="938" viewBox="0 0 849 938" fill="none" xmlns="http://www.w3.org/2000/svg">
<rect width="604" height="638" transform="translate(150 150)" fill="black"/>
<g opacity="0.25" filter="url(#filter0_f_11_114)">
<ellipse cx="334.5" cy="328.5" rx="184.5" ry="178.5" fill="url(#paint0_linear_11_114)"/>
</g>
<g opacity="0.25" filter="url(#filter1_f_11_114)">
<ellipse cx="514.5" cy="609.5" rx="184.5" ry="178.5" fill="url(#paint1_linear_11_114)"/>
</g>
<g transform="translate(-50 0)" style="mix-blend-mode:overlay" opacity="0.8">
	<path fill="none" stroke="#FFFFFF" stroke-dasharray="4 8" d="M623.1 422c-3 3-3 7.9 0 11l25.5 25.5l-25.5 25.5c-3 3-3 7.9 0 11 s7.9 3 11 0l31-31c3-3 3-7.9 0-11l-31-31C631 418.9 626.1 418.9 623.1 422z"/>
	<path fill="none" stroke="#FFFFFF" stroke-dasharray="4 8" d="M592.8 432.9c3-3 3-7.9 0-11c-3-3-7.9-3-11 0l-31 31c-3 3-3 7.9 0 11 l31 31c3 3 7.9 3 11 0s3-7.9 0-11l-25.5-25.5L592.8 432.9z"/>
	<path fill-rule="evenodd" clip-rule="evenodd" fill="none" stroke="#FFFFFF" stroke-dasharray="4 8" d="M607.9 350 c-59.9 0-108.4 48.5-108.4 108.4c0 59.9 48.5 108.4 108.4 108.4c27.1 0 52-10 71-26.5l44.9 44.9c3 3 7.9 3 11 0c3-3 3-7.9 0-11 l-44.9-44.9c16.5-19 26.5-43.8 26.5-71C716.4 398.5 667.8 350 607.9 350z M515 458.4c0-51.3 41.6-92.9 92.9-92.9 c51.3 0 92.9 41.6 92.9 92.9c0 51.3-41.6 92.9-92.9 92.9C556.6 551.3 515 509.7 515 458.4z"/>
</g>
<g transform="translate(-50 0)" style="mix-blend-mode:overlay" opacity="0.8">
	<path fill="none" stroke="#FFFFFF" stroke-dasharray="4 8" d="M623.1 422c-3 3-3 7.9 0 11l25.5 25.5l-25.5 25.5c-3 3-3 7.9 0 11 s7.9 3 11 0l31-31c3-3 3-7.9 0-11l-31-31C631 418.9 626.1 418.9 623.1 422z"/>
	<path fill="none" stroke="#FFFFFF" stroke-dasharray="4 8" d="M592.8 432.9c3-3 3-7.9 0-11c-3-3-7.9-3-11 0l-31 31c-3 3-3 7.9 0 11 l31 31c3 3 7.9 3 11 0s3-7.9 0-11l-25.5-25.5L592.8 432.9z"/>
	<path fill-rule="evenodd" clip-rule="evenodd" fill="none" stroke="#FFFFFF" stroke-dasharray="4 8" d="M607.9 350 c-59.9 0-108.4 48.5-108.4 108.4c0 59.9 48.5 108.4 108.4 108.4c27.1 0 52-10 71-26.5l44.9 44.9c3 3 7.9 3 11 0c3-3 3-7.9 0-11 l-44.9-44.9c16.5-19 26.5-43.8 26.5-71C716.4 398.5 667.8 350 607.9 350z M515 458.4c0-51.3 41.6-92.9 92.9-92.9 c51.3 0 92.9 41.6 92.9 92.9c0 51.3-41.6 92.9-92.9 92.9C556.6 551.3 515 509.7 515 458.4z"/>
</g>

<g transform="translate(-50 0)" style="mix-blend-mode:overlay" opacity="0.8">
	<path fill="none" stroke="#FFFFFF" stroke-dasharray="4 8" d="M623.1 422c-3 3-3 7.9 0 11l25.5 25.5l-25.5 25.5c-3 3-3 7.9 0 11 s7.9 3 11 0l31-31c3-3 3-7.9 0-11l-31-31C631 418.9 626.1 418.9 623.1 422z"/>
	<path fill="none" stroke="#FFFFFF" stroke-dasharray="4 8" d="M592.8 432.9c3-3 3-7.9 0-11c-3-3-7.9-3-11 0l-31 31c-3 3-3 7.9 0 11 l31 31c3 3 7.9 3 11 0s3-7.9 0-11l-25.5-25.5L592.8 432.9z"/>
	<path fill-rule="evenodd" clip-rule="evenodd" fill="none" stroke="#FFFFFF" stroke-dasharray="4 8" d="M607.9 350 c-59.9 0-108.4 48.5-108.4 108.4c0 59.9 48.5 108.4 108.4 108.4c27.1 0 52-10 71-26.5l44.9 44.9c3 3 7.9 3 11 0c3-3 3-7.9 0-11 l-44.9-44.9c16.5-19 26.5-43.8 26.5-71C716.4 398.5 667.8 350 607.9 350z M515 458.4c0-51.3 41.6-92.9 92.9-92.9 c51.3 0 92.9 41.6 92.9 92.9c0 51.3-41.6 92.9-92.9 92.9C556.6 551.3 515 509.7 515 458.4z"/>
</g>
<g transform="translate(-50 0)" style="mix-blend-mode:overlay" opacity="0.8">
	<path fill="none" stroke="#FFFFFF" stroke-dasharray="4 8" d="M623.1 422c-3 3-3 7.9 0 11l25.5 25.5l-25.5 25.5c-3 3-3 7.9 0 11 s7.9 3 11 0l31-31c3-3 3-7.9 0-11l-31-31C631 418.9 626.1 418.9 623.1 422z"/>
	<path fill="none" stroke="#FFFFFF" stroke-dasharray="4 8" d="M592.8 432.9c3-3 3-7.9 0-11c-3-3-7.9-3-11 0l-31 31c-3 3-3 7.9 0 11 l31 31c3 3 7.9 3 11 0s3-7.9 0-11l-25.5-25.5L592.8 432.9z"/>
	<path fill-rule="evenodd" clip-rule="evenodd" fill="none" stroke="#FFFFFF" stroke-dasharray="4 8" d="M607.9 350 c-59.9 0-108.4 48.5-108.4 108.4c0 59.9 48.5 108.4 108.4 108.4c27.1 0 52-10 71-26.5l44.9 44.9c3 3 7.9 3 11 0c3-3 3-7.9 0-11 l-44.9-44.9c16.5-19 26.5-43.8 26.5-71C716.4 398.5 667.8 350 607.9 350z M515 458.4c0-51.3 41.6-92.9 92.9-92.9 c51.3 0 92.9 41.6 92.9 92.9c0 51.3-41.6 92.9-92.9 92.9C556.6 551.3 515 509.7 515 458.4z"/>
</g>


<defs>
<filter id="filter0_f_11_114" x="0" y="0" width="669" height="657" filterUnits="userSpaceOnUse" color-interpolation-filters="sRGB">
<feFlood flood-opacity="0" result="BackgroundImageFix"/>
<feBlend mode="normal" in="SourceGraphic" in2="BackgroundImageFix" result="shape"/>
<feGaussianBlur stdDeviation="75" result="effect1_foregroundBlur_11_114"/>
</filter>
<filter id="filter1_f_11_114" x="180" y="281" width="669" height="657" filterUnits="userSpaceOnUse" color-interpolation-filters="sRGB">
<feFlood flood-opacity="0" result="BackgroundImageFix"/>
<feBlend mode="normal" in="SourceGraphic" in2="BackgroundImageFix" result="shape"/>
<feGaussianBlur stdDeviation="75" result="effect1_foregroundBlur_11_114"/>
</filter>
<linearGradient id="paint0_linear_11_114" x1="334.5" y1="150" x2="334.5" y2="507" gradientUnits="userSpaceOnUse">
<stop stop-color="#FF3358"/>
<stop offset="1" stop-color="#FF4FD8"/>
</linearGradient>
<linearGradient id="paint1_linear_11_114" x1="514.5" y1="431" x2="514.5" y2="788" gradientUnits="userSpaceOnUse">
<stop stop-color="#FF3358"/>
<stop offset="1" stop-color="#FF4FD8"/>
</linearGradient>
</defs>
</svg>