<svg width="849" height="938" viewBox="0 0 849 938" fill="none" xmlns="http://www.w3.org/2000/svg">
<rect width="604" height="638" transform="translate(150 150)" fill="black"/>
<g opacity="0.25" filter="url(#filter0_f_11_114)">
<ellipse cx="334.5" cy="328.5" rx="184.5" ry="178.5" fill="url(#paint0_linear_11_114)"/>
</g>
<g opacity="0.25" filter="url(#filter1_f_11_114)">
<ellipse cx="514.5" cy="609.5" rx="184.5" ry="178.5" fill="url(#paint1_linear_11_114)"/>
</g>
<g transform="translate(150 150)" style="mix-blend-mode:overlay" opacity="0.8">
<path fill="none" stroke="#FFFFFF" stroke-dasharray="4 8" d="M62.9 387V243.5h53c43.8 0 70.9 26.9 70.9 71.7 c0 44.8-27.1 71.8-70.8 71.8H62.9z M114.6 357.4c24.2 0 37.4-11.2 37.4-42.3c0-30.9-13.2-42.1-37.9-42.1H97.5v84.4H114.6z"/>
	<path fill="none" stroke="#FFFFFF" stroke-dasharray="4 8" d="M188.4 387l48.4-143.5H283L331.4 387h-37.3l-9.5-30.1h-49.5 l-9.5 30.1H188.4z M276.4 330.5l-16-50.9h-1.1l-15.9 50.9H276.4z"/>
	<path fill="none" stroke="#FFFFFF" stroke-dasharray="4 8" d="M343.1 243.5h59.3c32.2 0 52.3 20.2 52.3 49.7 c0 29.8-20.5 49.3-53.4 49.3h-23.5V387h-34.7V243.5z M394.9 315.1c15.6 0 23.9-8.7 23.9-21.9c0-13.3-8.3-21.7-23.9-21.7h-17.1v43.7 H394.9z"/>
	<path fill="none" stroke="#FFFFFF" stroke-dasharray="4 8" d="M468 243.5h59.3c32.2 0 52.3 20.2 52.3 49.7 c0 29.8-20.5 49.3-53.4 49.3h-23.5V387H468V243.5z M519.8 315.1c15.6 0 23.9-8.7 23.9-21.9c0-13.3-8.3-21.7-23.9-21.7h-17.1v43.7 H519.8z"/>
</g>
<g transform="translate(150 150)" style="mix-blend-mode:overlay" opacity="0.8">
	<path fill="none" stroke="#FFFFFF" stroke-dasharray="4 8" d="M62.9 387V243.5h53c43.8 0 70.9 26.9 70.9 71.7 c0 44.8-27.1 71.8-70.8 71.8H62.9z M114.6 357.4c24.2 0 37.4-11.2 37.4-42.3c0-30.9-13.2-42.1-37.9-42.1H97.5v84.4H114.6z"/>
	<path fill="none" stroke="#FFFFFF" stroke-dasharray="4 8" d="M188.4 387l48.4-143.5H283L331.4 387h-37.3l-9.5-30.1h-49.5 l-9.5 30.1H188.4z M276.4 330.5l-16-50.9h-1.1l-15.9 50.9H276.4z"/>
	<path fill="none" stroke="#FFFFFF" stroke-dasharray="4 8" d="M343.1 243.5h59.3c32.2 0 52.3 20.2 52.3 49.7 c0 29.8-20.5 49.3-53.4 49.3h-23.5V387h-34.7V243.5z M394.9 315.1c15.6 0 23.9-8.7 23.9-21.9c0-13.3-8.3-21.7-23.9-21.7h-17.1v43.7 H394.9z"/>
	<path fill="none" stroke="#FFFFFF" stroke-dasharray="4 8" d="M468 243.5h59.3c32.2 0 52.3 20.2 52.3 49.7 c0 29.8-20.5 49.3-53.4 49.3h-23.5V387H468V243.5z M519.8 315.1c15.6 0 23.9-8.7 23.9-21.9c0-13.3-8.3-21.7-23.9-21.7h-17.1v43.7 H519.8z"/>
</g>
<defs>
<filter id="filter0_f_11_114" x="0" y="0" width="669" height="657" filterUnits="userSpaceOnUse" color-interpolation-filters="sRGB">
<feFlood flood-opacity="0" result="BackgroundImageFix"/>
<feBlend mode="normal" in="SourceGraphic" in2="BackgroundImageFix" result="shape"/>
<feGaussianBlur stdDeviation="75" result="effect1_foregroundBlur_11_114"/>
</filter>
<filter id="filter1_f_11_114" x="180" y="281" width="669" height="657" filterUnits="userSpaceOnUse" color-interpolation-filters="sRGB">
<feFlood flood-opacity="0" result="BackgroundImageFix"/>
<feBlend mode="normal" in="SourceGraphic" in2="BackgroundImageFix" result="shape"/>
<feGaussianBlur stdDeviation="75" result="effect1_foregroundBlur_11_114"/>
</filter>
<linearGradient id="paint0_linear_11_114" x1="334.5" y1="150" x2="334.5" y2="507" gradientUnits="userSpaceOnUse">
<stop stop-color="#FF3358"/>
<stop offset="1" stop-color="#FF4FD8"/>
</linearGradient>
<linearGradient id="paint1_linear_11_114" x1="514.5" y1="431" x2="514.5" y2="788" gradientUnits="userSpaceOnUse">
<stop stop-color="#FF3358"/>
<stop offset="1" stop-color="#FF4FD8"/>
</linearGradient>
</defs>
</svg>