<svg width="849" height="938" viewBox="0 0 849 938" fill="none" xmlns="http://www.w3.org/2000/svg">
<rect width="604" height="638" transform="translate(150 150)" fill="black"/>
<g opacity="0.25" filter="url(#filter0_f_11_114)">
<ellipse cx="334.5" cy="328.5" rx="184.5" ry="178.5" fill="url(#paint0_linear_11_114)"/>
</g>
<g opacity="0.25" filter="url(#filter1_f_11_114)">
<ellipse cx="514.5" cy="609.5" rx="184.5" ry="178.5" fill="url(#paint1_linear_11_114)"/>
</g>
<g transform="translate(-50 0)" style="mix-blend-mode:overlay" opacity="0.8">
		<line fill="none" stroke="#FFFFFF" stroke-dasharray="4 8" x1="698.3" y1="495.1" x2="600.4" y2="333.8"/>
		<polyline fill="none" stroke="#FFFFFF" stroke-dasharray="4 8" points="603.3 556.8 603.3 455.2 603.3 338.1 505.4 499.3"/>
		<polyline fill="none" stroke="#FFFFFF" stroke-dasharray="4 8" points="603.6 655.4 604 656.7 702 519.7 604 577.1 602.8 578.6 		
			"/>
		<polygon fill="none" stroke="#FFFFFF" stroke-dasharray="4 8" points="603 655.7 603 576.1 505.2 518.7"/>
		<polyline fill="none" stroke="#FFFFFF" stroke-dasharray="4 8" points="603 556.3 603 557.7 700.9 500.3 603 456.1"/>
		<path fill="none" stroke="#FFFFFF" stroke-dasharray="4 8" d="M603 456.1"/>
		<polyline fill="none" stroke="#FFFFFF" stroke-dasharray="4 8" points="603 456.1 505.2 500.3 603 557.7"/>
		<path fill="none" stroke="#FFFFFF" stroke-dasharray="4 8" d="M606.8 577.6"/>
	</g>

<g transform="translate(-50 0)" style="mix-blend-mode:overlay" opacity="0.8">
	<path fill="#FFFFFF" d="M604.8 703.3l-0.4-0.6l0.4-0.3l-0.4-0.3l2.2-3.3l0.8 0.6L604.8 703.3z M599.7 696.1l-2.3-3.3l0.8-0.6 l2.3 3.3L599.7 696.1z M612 692.9l-0.8-0.6l2.3-3.3l0.8 0.6L612 692.9z M592.8 686.3l-2.3-3.3l0.8-0.6l2.3 3.3L592.8 686.3z M618.8 683l-0.8-0.6l2.3-3.3l0.8 0.6L618.8 683z M585.8 676.5l-2.3-3.3l0.8-0.6l2.3 3.3L585.8 676.5z M625.6 673.1l-0.8-0.6 l2.3-3.3l0.8 0.6L625.6 673.1z M578.9 666.7l-2.3-3.3l0.8-0.6l2.3 3.3L578.9 666.7z M632.4 663.2l-0.8-0.6l2.3-3.3l0.8 0.6 L632.4 663.2z M572 656.9l-2.3-3.3l0.8-0.6l2.3 3.3L572 656.9z M639.3 653.4l-0.8-0.6l2.3-3.3l0.8 0.6L639.3 653.4z M565.1 647.1 l-2.3-3.3l0.8-0.6l2.3 3.3L565.1 647.1z M646.1 643.5l-0.8-0.6l2.3-3.3l0.8 0.6L646.1 643.5z M558.1 637.3l-2.3-3.3l0.8-0.6 l2.3 3.3L558.1 637.3z M652.9 633.6l-0.8-0.6l2.3-3.3l0.8 0.6L652.9 633.6z M551.2 627.6l-2.3-3.3l0.8-0.6l2.3 3.3L551.2 627.6z M659.7 623.8l-0.8-0.6l2.3-3.3l0.8 0.6L659.7 623.8z M544.3 617.8l-2.3-3.3l0.8-0.6l2.3 3.3L544.3 617.8z M666.5 613.9l-0.8-0.6 l2.3-3.3l0.8 0.6L666.5 613.9z M537.3 608l-2.3-3.3l0.8-0.6l2.3 3.3L537.3 608z M673.4 604l-0.8-0.6l2.3-3.3l0.8 0.6L673.4 604z M530.4 598.2l-2.3-3.3l0.8-0.6l2.3 3.3L530.4 598.2z M680.2 594.1l-0.8-0.6l2.3-3.3l0.8 0.6L680.2 594.1z M523.5 588.4l-2.3-3.3 l0.8-0.6l2.3 3.3L523.5 588.4z M687 584.3l-0.8-0.6l2.3-3.3l0.8 0.6L687 584.3z M516.6 578.6l-2.3-3.3l0.8-0.6l2.3 3.3L516.6 578.6 z M693.8 574.4l-0.8-0.6l2.3-3.3l0.8 0.6L693.8 574.4z M509.6 568.8l-2.3-3.3l0.8-0.6l2.3 3.3L509.6 568.8z M700.6 564.5l-0.8-0.6 l2.3-3.3l0.8 0.6L700.6 564.5z M502.7 559l-2.3-3.3l0.8-0.6l2.3 3.3L502.7 559z M707.5 554.6l-0.8-0.6l2.3-3.3l0.8 0.6L707.5 554.6 z M495.8 549.2l-2.3-3.3l0.8-0.6l2.3 3.3L495.8 549.2z M714.3 544.8l-0.8-0.6l2.3-3.3l0.8 0.6L714.3 544.8z M488.8 539.4l-2.3-3.3 l0.8-0.6l2.3 3.3L488.8 539.4z M721.1 534.9l-0.8-0.6l2.3-3.3l0.8 0.6L721.1 534.9z M481.9 529.6l-2.3-3.3l0.8-0.6l2.3 3.3 L481.9 529.6z M727.9 525l-0.8-0.6l2.3-3.3l0.8 0.6L727.9 525z M475 519.8l-2.3-3.3l0.8-0.6l2.3 3.3L475 519.8z M734.8 515.1 l-0.8-0.5l2.1-3.4l0.8 0.5L734.8 515.1z M468 510l-0.4-0.5l2.1-3.5l0.9 0.5l-1.9 3.2l-0.2-0.1L468 510z M731.9 505l-2.1-3.4 l0.8-0.5l2.1 3.4L731.9 505z M474.8 499.7l-0.9-0.5l2.1-3.4l0.9 0.5L474.8 499.7z M725.5 494.8l-2.1-3.4l0.8-0.5l2.1 3.4 L725.5 494.8z M722.5 490l-2.1-3.4l0.9-0.5l2.1 3.4L722.5 490z M481 489.4l-0.9-0.5l2.1-3.4l0.9 0.5L481 489.4z M716.2 479.7 l-2.1-3.4l0.9-0.5l2.1 3.4L716.2 479.7z M487.3 479.2l-0.8-0.5l2.1-3.4l0.8 0.5L487.3 479.2z M709.9 469.5l-2.1-3.4l0.9-0.5 l2.1 3.4L709.9 469.5z M493.7 469l-0.8-0.5l2.1-3.4l0.8 0.5L493.7 469z M703.6 459.3l-2.1-3.4l0.9-0.5l2.1 3.4L703.6 459.3z M500 458.9l-0.8-0.5l2.1-3.4l0.8 0.5L500 458.9z M697.4 449l-2.1-3.4l0.9-0.5l2.1 3.4L697.4 449z M506.4 448.7l-0.8-0.5l2.1-3.4 l0.8 0.5L506.4 448.7z M691.1 438.8l-2.1-3.4l0.9-0.5l2.1 3.4L691.1 438.8z M512.8 438.6l-0.8-0.5l2.1-3.4l0.8 0.5L512.8 438.6z M684.8 428.6l-2.1-3.4l0.9-0.5l2.1 3.4L684.8 428.6z M519.2 428.4l-0.8-0.5l2.1-3.4l0.8 0.5L519.2 428.4z M678.6 418.4l-2.1-3.4 l0.9-0.5l2.1 3.4L678.6 418.4z M525.5 418.2l-0.8-0.5l2.1-3.4l0.8 0.5L525.5 418.2z M672.3 408.1l-2.1-3.4l0.9-0.5l2.1 3.4 L672.3 408.1z M531.9 408.1l-0.8-0.5l2.1-3.4l0.8 0.5L531.9 408.1z M666 397.9l-2.1-3.4l0.9-0.5l2.1 3.4L666 397.9z M538.3 397.9 l-0.8-0.5l2.1-3.4l0.8 0.5L538.3 397.9z M544.7 387.7l-0.8-0.5l2.1-3.4l0.8 0.5L544.7 387.7z M659.7 387.7l-2.1-3.4l0.9-0.5 l2.1 3.4L659.7 387.7z M551 377.6l-0.8-0.5l2.1-3.4l0.8 0.5L551 377.6z M653.5 377.4l-2.1-3.4l0.9-0.5l2.1 3.4L653.5 377.4z M557.4 367.4l-0.8-0.5l2.1-3.4l0.8 0.5L557.4 367.4z M647.2 367.2l-2.1-3.4l0.9-0.5l2.1 3.4L647.2 367.2z M563.8 357.2l-0.8-0.5 l2.1-3.4l0.8 0.5L563.8 357.2z M640.9 357l-2.1-3.4l0.9-0.5l2.1 3.4L640.9 357z M570.2 347.1l-0.8-0.5l2.1-3.4l0.8 0.5L570.2 347.1 z M634.7 346.7l-2.1-3.4l0.9-0.5l2.1 3.4L634.7 346.7z M576.5 336.9l-0.8-0.5l2.1-3.4l0.8 0.5L576.5 336.9z M628.4 336.5l-2.1-3.4 l0.9-0.5l2.1 3.4L628.4 336.5z M582.9 326.7l-0.8-0.5l2.1-3.4l0.8 0.5L582.9 326.7z M622.1 326.3l-2.1-3.4l0.9-0.5l2.1 3.4 L622.1 326.3z M589.3 316.6l-0.8-0.5l2.1-3.4l0.8 0.5L589.3 316.6z M615.8 316l-2.1-3.4l0.9-0.5l2.1 3.4L615.8 316z M595.7 306.4 l-0.8-0.5l2.1-3.4l0.8 0.5L595.7 306.4z M609.6 305.8l-2.1-3.4l0.9-0.5l2.1 3.4L609.6 305.8z M602 296.2l-0.8-0.5l1.7-2.7l1.3 2.1 l-0.9 0.5l-0.4-0.7L602 296.2z"/>
</g>
<g transform="translate(-50 0)" style="mix-blend-mode:overlay" opacity="0.8">
	<path fill="#FFFFFF" d="M603.7 759.3l-2.3-3.3l0.8-0.6l2.3 3.3L603.7 759.3z M609.1 754.1l-0.8-0.6l2.3-3.3l0.8 0.6L609.1 754.1z M596.8 749.5l-2.3-3.3l0.8-0.6l2.3 3.3L596.8 749.5z M615.9 744.2l-0.8-0.6l2.3-3.3l0.8 0.6L615.9 744.2z M589.8 739.7l-2.3-3.3 l0.8-0.6l2.3 3.3L589.8 739.7z M622.7 734.3l-0.8-0.6l2.3-3.3l0.8 0.6L622.7 734.3z M582.9 729.9l-2.3-3.3l0.8-0.6l2.3 3.3 L582.9 729.9z M629.5 724.4l-0.8-0.6l2.3-3.3l0.8 0.6L629.5 724.4z M576 720.1l-2.3-3.3l0.8-0.6l2.3 3.3L576 720.1z M636.3 714.6 l-0.8-0.6l2.3-3.3l0.8 0.6L636.3 714.6z M569 710.3l-2.3-3.3l0.8-0.6l2.3 3.3L569 710.3z M643.2 704.7l-0.8-0.6l2.3-3.3l0.8 0.6 L643.2 704.7z M562.1 700.5l-2.3-3.3l0.8-0.6l2.3 3.3L562.1 700.5z M650 694.8l-0.8-0.6l2.3-3.3l0.8 0.6L650 694.8z M555.2 690.7 l-2.3-3.3l0.8-0.6l2.3 3.3L555.2 690.7z M656.8 685l-0.8-0.6l2.3-3.3l0.8 0.6L656.8 685z M548.2 680.9l-2.3-3.3l0.8-0.6l2.3 3.3 L548.2 680.9z M663.6 675.1l-0.8-0.6l2.3-3.3l0.8 0.6L663.6 675.1z M541.3 671.1l-2.3-3.3l0.8-0.6l2.3 3.3L541.3 671.1z M670.4 665.2l-0.8-0.6l2.3-3.3l0.8 0.6L670.4 665.2z M534.4 661.3l-2.3-3.3l0.8-0.6l2.3 3.3L534.4 661.3z M677.3 655.3l-0.8-0.6 l2.3-3.3l0.8 0.6L677.3 655.3z M527.5 651.5l-2.3-3.3l0.8-0.6l2.3 3.3L527.5 651.5z M684.1 645.5l-0.8-0.6l2.3-3.3l0.8 0.6 L684.1 645.5z M520.5 641.7l-2.3-3.3l0.8-0.6l2.3 3.3L520.5 641.7z M690.9 635.6l-0.8-0.6l2.3-3.3l0.8 0.6L690.9 635.6z M513.6 631.9l-2.3-3.3l0.8-0.6l2.3 3.3L513.6 631.9z M697.7 625.7l-0.8-0.6l2.3-3.3l0.8 0.6L697.7 625.7z M506.7 622.1l-2.3-3.3 l0.8-0.6l2.3 3.3L506.7 622.1z M704.6 615.8l-0.8-0.6l2.3-3.3l0.8 0.6L704.6 615.8z M499.7 612.4l-2.3-3.3l0.8-0.6l2.3 3.3 L499.7 612.4z M711.4 606l-0.8-0.6l2.3-3.3l0.8 0.6L711.4 606z M492.8 602.6l-2.3-3.3l0.8-0.6l2.3 3.3L492.8 602.6z M718.2 596.1 l-0.8-0.6l2.3-3.3l0.8 0.6L718.2 596.1z M485.9 592.8l-2.3-3.3l0.8-0.6l2.3 3.3L485.9 592.8z M725 586.2l-0.8-0.6l2.3-3.3l0.8 0.6 L725 586.2z M478.9 583l-2.3-3.3l0.8-0.6l2.3 3.3L478.9 583z M731.8 576.4l-0.8-0.6l2.3-3.3l0.8 0.6L731.8 576.4z M472 573.2 l-2.3-3.3l0.8-0.6l2.3 3.3L472 573.2z M738.7 566.5l-0.8-0.6l2.3-3.3l0.8 0.6L738.7 566.5z M465.1 563.4l-2.3-3.3l0.8-0.6l2.3 3.3 L465.1 563.4z M745.5 556.6l-0.8-0.6l2.3-3.3l0.8 0.6L745.5 556.6z M458.2 553.6l-2.3-3.3l0.8-0.6l2.3 3.3L458.2 553.6z M752.3 546.7l-0.8-0.6l2.3-3.3l0.8 0.6L752.3 546.7z M451.2 543.8l-2.3-3.3l0.8-0.6l2.3 3.3L451.2 543.8z M759.1 536.9l-0.8-0.6 l2.3-3.3l0.8 0.6L759.1 536.9z M444.3 534l-2.3-3.3l0.8-0.6l2.3 3.3L444.3 534z M765.9 527l-0.8-0.6l2.3-3.3l0.8 0.6L765.9 527z M437.4 524.2l-2.3-3.3l0.8-0.6l2.3 3.3L437.4 524.2z M772.7 517.1l-0.8-0.5l2.1-3.4l0.8 0.5L772.7 517.1z M430.4 514.4l-2.3-3.3 l0.8-0.6l2.3 3.3L430.4 514.4z M769.9 506.9l-2.1-3.4l0.8-0.5l2.1 3.4L769.9 506.9z M433.1 504.2l-0.9-0.5l2.1-3.4l0.9 0.5 L433.1 504.2z M763.5 496.8l-2.1-3.4l0.8-0.5l2.1 3.4L763.5 496.8z M439.3 494l-0.9-0.5l2.1-3.4l0.9 0.5L439.3 494z M757.1 486.6 l-2.7-4.4l0.9-0.5l2.7 4.4L757.1 486.6z M445.5 483.7l-0.9-0.5l2.1-3.4l0.9 0.5L445.5 483.7z M750.2 475.3l-2.1-3.4l0.9-0.5 l2.1 3.4L750.2 475.3z M451.8 473.5l-0.8-0.5l2.1-3.4l0.8 0.5L451.8 473.5z M744 465.1l-2.1-3.4l0.9-0.5l2.1 3.4L744 465.1z M458.1 463.3l-0.8-0.5l2.1-3.4l0.8 0.5L458.1 463.3z M737.7 454.9l-2.1-3.4l0.9-0.5l2.1 3.4L737.7 454.9z M464.5 453.2l-0.8-0.5 l2.1-3.4l0.8 0.5L464.5 453.2z M731.4 444.6l-2.1-3.4l0.9-0.5l2.1 3.4L731.4 444.6z M470.9 443l-0.8-0.5l2.1-3.4l0.8 0.5L470.9 443 z M725.1 434.4l-2.1-3.4l0.9-0.5l2.1 3.4L725.1 434.4z M477.3 432.8l-0.8-0.5l2.1-3.4l0.8 0.5L477.3 432.8z M718.9 424.2l-2.1-3.4 l0.9-0.5l2.1 3.4L718.9 424.2z M483.6 422.7l-0.8-0.5l2.1-3.4l0.8 0.5L483.6 422.7z M712.6 414l-2.1-3.4l0.9-0.5l2.1 3.4L712.6 414 z M490 412.5l-0.8-0.5l2.1-3.4l0.8 0.5L490 412.5z M706.3 403.7l-2.1-3.4l0.9-0.5l2.1 3.4L706.3 403.7z M496.4 402.3l-0.8-0.5 l2.1-3.4l0.8 0.5L496.4 402.3z M700.1 393.5l-2.1-3.4l0.9-0.5l2.1 3.4L700.1 393.5z M502.8 392.2l-0.8-0.5l2.1-3.4l0.8 0.5 L502.8 392.2z M693.8 383.3l-2.1-3.4l0.9-0.5l2.1 3.4L693.8 383.3z M509.1 382l-0.8-0.5l2.1-3.4l0.8 0.5L509.1 382z M687.5 373 l-2.1-3.4l0.9-0.5l2.1 3.4L687.5 373z M515.5 371.8l-0.8-0.5l2.1-3.4l0.8 0.5L515.5 371.8z M681.2 362.8l-2.1-3.4l0.9-0.5l2.1 3.4 L681.2 362.8z M521.9 361.7l-0.8-0.5l2.1-3.4l0.8 0.5L521.9 361.7z M675 352.6l-2.1-3.4l0.9-0.5l2.1 3.4L675 352.6z M528.3 351.5 l-0.8-0.5l2.1-3.4l0.8 0.5L528.3 351.5z M668.7 342.3l-2.1-3.4l0.9-0.5l2.1 3.4L668.7 342.3z M534.7 341.3l-0.8-0.5l2.1-3.4 l0.8 0.5L534.7 341.3z M662.4 332.1l-2.1-3.4l0.9-0.5l2.1 3.4L662.4 332.1z M541 331.2l-0.8-0.5l2.1-3.4l0.8 0.5L541 331.2z M656.2 321.9l-2.1-3.4l0.9-0.5l2.1 3.4L656.2 321.9z M547.4 321l-0.8-0.5l2.1-3.4l0.8 0.5L547.4 321z M649.9 311.6l-2.1-3.4 l0.9-0.5l2.1 3.4L649.9 311.6z M553.8 310.8l-0.8-0.5l2.1-3.4l0.8 0.5L553.8 310.8z M643.6 301.4l-2.1-3.4l0.9-0.5l2.1 3.4 L643.6 301.4z M560.2 300.7l-0.8-0.5l2.1-3.4l0.8 0.5L560.2 300.7z M637.3 291.2l-2.1-3.4l0.9-0.5l2.1 3.4L637.3 291.2z M566.5 290.5l-0.8-0.5l2.1-3.4l0.8 0.5L566.5 290.5z M631.1 281l-2.1-3.4l0.9-0.5l2.1 3.4L631.1 281z M572.9 280.3l-0.8-0.5 l2.1-3.4l0.8 0.5L572.9 280.3z M624.8 270.7l-2.1-3.4l0.9-0.5l2.1 3.4L624.8 270.7z M579.3 270.2l-0.8-0.5l2.1-3.4l0.8 0.5 L579.3 270.2z M618.5 260.5l-2.1-3.4l0.9-0.5l2.1 3.4L618.5 260.5z M585.7 260l-0.8-0.5l2.1-3.4l0.8 0.5L585.7 260z M612.3 250.3 l-2.1-3.4l0.9-0.5l2.1 3.4L612.3 250.3z M592 249.8l-0.8-0.5l2.1-3.4l0.8 0.5L592 249.8z M606 240l-2.1-3.4l0.9-0.5l2.1 3.4 L606 240z M598.4 239.7l-0.8-0.5l2.1-3.4l0.8 0.5L598.4 239.7z"/>
</g>
<defs>
<filter id="filter0_f_11_114" x="0" y="0" width="669" height="657" filterUnits="userSpaceOnUse" color-interpolation-filters="sRGB">
<feFlood flood-opacity="0" result="BackgroundImageFix"/>
<feBlend mode="normal" in="SourceGraphic" in2="BackgroundImageFix" result="shape"/>
<feGaussianBlur stdDeviation="75" result="effect1_foregroundBlur_11_114"/>
</filter>
<filter id="filter1_f_11_114" x="180" y="281" width="669" height="657" filterUnits="userSpaceOnUse" color-interpolation-filters="sRGB">
<feFlood flood-opacity="0" result="BackgroundImageFix"/>
<feBlend mode="normal" in="SourceGraphic" in2="BackgroundImageFix" result="shape"/>
<feGaussianBlur stdDeviation="75" result="effect1_foregroundBlur_11_114"/>
</filter>
<linearGradient id="paint0_linear_11_114" x1="334.5" y1="150" x2="334.5" y2="507" gradientUnits="userSpaceOnUse">
<stop stop-color="#FF3358"/>
<stop offset="1" stop-color="#FF4FD8"/>
</linearGradient>
<linearGradient id="paint1_linear_11_114" x1="514.5" y1="431" x2="514.5" y2="788" gradientUnits="userSpaceOnUse">
<stop stop-color="#FF3358"/>
<stop offset="1" stop-color="#FF4FD8"/>
</linearGradient>
</defs>
</svg>