<svg width="852" height="938" viewBox="0 0 852 938" fill="none" xmlns="http://www.w3.org/2000/svg">
<rect width="579.287" height="638" transform="translate(150 150)" fill="black"/>
<g opacity="0.17" filter="url(#filter0_f_11_104)">
<ellipse cx="335.5" cy="328.5" rx="185.5" ry="178.5" fill="url(#paint0_linear_11_104)"/>
</g>
<g opacity="0.17" filter="url(#filter1_f_11_104)">
<ellipse cx="516.5" cy="609.5" rx="185.5" ry="178.5" fill="url(#paint1_linear_11_104)"/>
</g>
<g style="mix-blend-mode:overlay">
<path d="M633.91 430.584L633.91 430.585C633.919 431.221 633.926 431.896 633.929 432.607L634.429 432.606C634.437 434.961 634.403 437.72 634.289 440.807L633.789 440.788C633.741 442.097 633.678 443.465 633.598 444.887L634.097 444.915C633.952 447.484 633.751 450.228 633.476 453.111L632.978 453.063C632.852 454.392 632.709 455.752 632.55 457.137L633.046 457.194C632.744 459.82 632.379 462.54 631.942 465.332L631.448 465.254C631.239 466.586 631.013 467.934 630.77 469.296L631.262 469.384C630.79 472.026 630.251 474.719 629.635 477.446L629.148 477.336C628.85 478.656 628.534 479.983 628.2 481.316L628.685 481.438C628.028 484.056 627.298 486.698 626.488 489.346L626.01 489.2C625.612 490.499 625.196 491.8 624.759 493.1L625.233 493.259C624.368 495.833 623.425 498.407 622.395 500.966L621.931 500.78C621.423 502.04 620.895 503.297 620.345 504.549L620.803 504.75C619.707 507.244 618.525 509.717 617.249 512.157L616.806 511.925C616.177 513.13 615.524 514.326 614.848 515.512L615.283 515.76C613.934 518.128 612.491 520.456 610.949 522.732L610.535 522.452C609.772 523.577 608.985 524.69 608.173 525.788L608.575 526.086C606.957 528.273 605.239 530.404 603.416 532.466L603.041 532.135C602.142 533.151 601.218 534.15 600.267 535.131L600.626 535.479C598.737 537.428 596.744 539.304 594.641 541.097L594.317 540.716C593.288 541.594 592.233 542.451 591.15 543.287L591.456 543.682C589.317 545.334 587.073 546.903 584.718 548.378L584.453 547.954C583.312 548.669 582.144 549.362 580.95 550.032L581.194 550.468C578.848 551.784 576.4 553.01 573.845 554.139L573.643 553.681C572.414 554.224 571.161 554.744 569.882 555.239L570.062 555.706C567.566 556.673 564.974 557.551 562.283 558.331L562.144 557.851C561.485 558.041 560.82 558.226 560.15 558.405C559.956 558.457 559.76 558.5 559.563 558.534L559.649 559.027C558.801 559.174 557.933 559.174 557.085 559.027L557.171 558.534C556.974 558.5 556.779 558.457 556.585 558.405C555.914 558.226 555.249 558.041 554.591 557.85L554.451 558.33C551.76 557.55 549.168 556.672 546.672 555.704L546.853 555.238C545.574 554.742 544.321 554.222 543.093 553.679L542.891 554.136C540.336 553.008 537.887 551.781 535.542 550.465L535.786 550.029C534.592 549.359 533.425 548.666 532.284 547.951L532.018 548.375C529.664 546.899 527.42 545.33 525.281 543.679L525.587 543.283C524.504 542.447 523.449 541.59 522.42 540.713L522.096 541.093C519.993 539.3 518 537.424 516.112 535.476L516.471 535.128C515.52 534.147 514.595 533.148 513.696 532.132L513.322 532.463C511.498 530.401 509.781 528.27 508.163 526.083L508.565 525.785C507.752 524.687 506.965 523.575 506.203 522.449L505.789 522.729C504.246 520.453 502.804 518.125 501.455 515.758L501.889 515.51C501.213 514.324 500.561 513.128 499.931 511.923L499.488 512.155C498.213 509.715 497.031 507.242 495.935 504.748L496.392 504.547C495.842 503.295 495.314 502.038 494.807 500.778L494.343 500.964C493.313 498.405 492.369 495.832 491.505 493.258L491.979 493.099C491.542 491.798 491.125 490.498 490.728 489.199L490.25 489.345C489.44 486.696 488.711 484.055 488.054 481.437L488.539 481.315C488.204 479.982 487.889 478.655 487.591 477.335L487.103 477.445C486.488 474.718 485.949 472.025 485.477 469.383L485.969 469.295C485.726 467.934 485.501 466.585 485.292 465.254L484.798 465.331C484.361 462.539 483.997 459.819 483.695 457.193L484.192 457.136C484.032 455.751 483.89 454.392 483.764 453.063L483.266 453.11C482.992 450.227 482.791 447.484 482.647 444.914L483.146 444.886C483.067 443.465 483.004 442.097 482.956 440.788L482.457 440.807C482.344 437.72 482.311 434.961 482.321 432.605L482.821 432.608C482.824 431.896 482.831 431.221 482.84 430.586C482.851 430.005 482.932 429.441 483.076 428.902L482.593 428.773C483.234 426.382 485.035 424.452 487.384 423.64L487.547 424.113C488.075 423.931 488.632 423.809 489.212 423.756L489.212 423.756C489.882 423.694 490.548 423.625 491.212 423.551L491.157 423.054C493.838 422.754 496.475 422.357 499.061 421.878L499.152 422.369C500.476 422.124 501.787 421.857 503.083 421.571L502.976 421.083C505.62 420.499 508.204 419.835 510.72 419.107L510.859 419.587C512.155 419.212 513.433 418.821 514.692 418.415L514.538 417.939C517.133 417.102 519.646 416.203 522.069 415.263L522.25 415.729C523.515 415.239 524.756 414.737 525.971 414.226L525.777 413.765C528.322 412.697 530.752 411.591 533.055 410.477L533.273 410.927C534.507 410.33 535.704 409.73 536.863 409.132L536.634 408.688C539.16 407.384 541.503 406.087 543.642 404.841L543.894 405.273C545.106 404.568 546.252 403.878 547.33 403.212L547.068 402.787C549.735 401.139 551.981 399.639 553.75 398.403L554.036 398.813C554.634 398.396 555.177 398.008 555.664 397.656L555.665 397.656C555.929 397.464 556.208 397.304 556.497 397.176L556.294 396.719C557.612 396.133 559.122 396.133 560.44 396.719L560.237 397.176C560.526 397.304 560.805 397.464 561.069 397.656L561.07 397.656C561.558 398.008 562.101 398.395 562.699 398.813L562.985 398.402C564.756 399.637 567.003 401.137 569.671 402.784L569.408 403.21C570.487 403.875 571.633 404.565 572.845 405.27L573.097 404.838C575.237 406.084 577.581 407.381 580.107 408.684L579.878 409.129C581.037 409.727 582.235 410.327 583.469 410.924L583.687 410.474C585.99 411.589 588.421 412.694 590.966 413.763L590.773 414.224C591.988 414.734 593.229 415.236 594.494 415.727L594.675 415.261C597.098 416.201 599.612 417.1 602.207 417.937L602.054 418.413C603.313 418.819 604.591 419.211 605.887 419.586L606.026 419.106C608.543 419.834 611.128 420.498 613.772 421.082L613.664 421.57C614.961 421.857 616.272 422.123 617.597 422.369L617.688 421.877C620.274 422.356 622.912 422.754 625.593 423.054L625.538 423.551C626.202 423.625 626.869 423.694 627.538 423.756L627.539 423.756C628.119 423.809 628.676 423.931 629.204 424.113L629.367 423.64C631.719 424.451 633.526 426.381 634.162 428.771L633.679 428.9C633.823 429.439 633.902 430.003 633.91 430.584Z" stroke="white" stroke-dasharray="4 8"/>
</g>
<g style="mix-blend-mode:overlay" opacity="0.5">
<path d="M633.91 430.584L633.91 430.585C633.919 431.221 633.926 431.896 633.929 432.607L634.429 432.606C634.437 434.961 634.403 437.72 634.289 440.807L633.789 440.788C633.741 442.097 633.678 443.465 633.598 444.887L634.097 444.915C633.952 447.484 633.751 450.228 633.476 453.111L632.978 453.063C632.852 454.392 632.709 455.752 632.55 457.137L633.046 457.194C632.744 459.82 632.379 462.54 631.942 465.332L631.448 465.254C631.239 466.586 631.013 467.934 630.77 469.296L631.262 469.384C630.79 472.026 630.251 474.719 629.635 477.446L629.148 477.336C628.85 478.656 628.534 479.983 628.2 481.316L628.685 481.438C628.028 484.056 627.298 486.698 626.488 489.346L626.01 489.2C625.612 490.499 625.196 491.8 624.759 493.1L625.233 493.259C624.368 495.833 623.425 498.407 622.395 500.966L621.931 500.78C621.423 502.04 620.895 503.297 620.345 504.549L620.803 504.75C619.707 507.244 618.525 509.717 617.249 512.157L616.806 511.925C616.177 513.13 615.524 514.326 614.848 515.512L615.283 515.76C613.934 518.128 612.491 520.456 610.949 522.732L610.535 522.452C609.772 523.577 608.985 524.69 608.173 525.788L608.575 526.086C606.957 528.273 605.239 530.404 603.416 532.466L603.041 532.135C602.142 533.151 601.218 534.15 600.267 535.131L600.626 535.479C598.737 537.428 596.744 539.304 594.641 541.097L594.317 540.716C593.288 541.594 592.233 542.451 591.15 543.287L591.456 543.682C589.317 545.334 587.073 546.903 584.718 548.378L584.453 547.954C583.312 548.669 582.144 549.362 580.95 550.032L581.194 550.468C578.848 551.784 576.4 553.01 573.845 554.139L573.643 553.681C572.414 554.224 571.161 554.744 569.882 555.239L570.062 555.706C567.566 556.673 564.974 557.551 562.283 558.331L562.144 557.851C561.485 558.041 560.82 558.226 560.15 558.405C559.956 558.457 559.76 558.5 559.563 558.534L559.649 559.027C558.801 559.174 557.933 559.174 557.085 559.027L557.171 558.534C556.974 558.5 556.779 558.457 556.585 558.405C555.914 558.226 555.249 558.041 554.591 557.85L554.451 558.33C551.76 557.55 549.168 556.672 546.672 555.704L546.853 555.238C545.574 554.742 544.321 554.222 543.093 553.679L542.891 554.136C540.336 553.008 537.887 551.781 535.542 550.465L535.786 550.029C534.592 549.359 533.425 548.666 532.284 547.951L532.018 548.375C529.664 546.899 527.42 545.33 525.281 543.679L525.587 543.283C524.504 542.447 523.449 541.59 522.42 540.713L522.096 541.093C519.993 539.3 518 537.424 516.112 535.476L516.471 535.128C515.52 534.147 514.595 533.148 513.696 532.132L513.322 532.463C511.498 530.401 509.781 528.27 508.163 526.083L508.565 525.785C507.752 524.687 506.965 523.575 506.203 522.449L505.789 522.729C504.246 520.453 502.804 518.125 501.455 515.758L501.889 515.51C501.213 514.324 500.561 513.128 499.931 511.923L499.488 512.155C498.213 509.715 497.031 507.242 495.935 504.748L496.392 504.547C495.842 503.295 495.314 502.038 494.807 500.778L494.343 500.964C493.313 498.405 492.369 495.832 491.505 493.258L491.979 493.099C491.542 491.798 491.125 490.498 490.728 489.199L490.25 489.345C489.44 486.696 488.711 484.055 488.054 481.437L488.539 481.315C488.204 479.982 487.889 478.655 487.591 477.335L487.103 477.445C486.488 474.718 485.949 472.025 485.477 469.383L485.969 469.295C485.726 467.934 485.501 466.585 485.292 465.254L484.798 465.331C484.361 462.539 483.997 459.819 483.695 457.193L484.192 457.136C484.032 455.751 483.89 454.392 483.764 453.063L483.266 453.11C482.992 450.227 482.791 447.484 482.647 444.914L483.146 444.886C483.067 443.465 483.004 442.097 482.956 440.788L482.457 440.807C482.344 437.72 482.311 434.961 482.321 432.605L482.821 432.608C482.824 431.896 482.831 431.221 482.84 430.586C482.851 430.005 482.932 429.441 483.076 428.902L482.593 428.773C483.234 426.382 485.035 424.452 487.384 423.64L487.547 424.113C488.075 423.931 488.632 423.809 489.212 423.756L489.212 423.756C489.882 423.694 490.548 423.625 491.212 423.551L491.157 423.054C493.838 422.754 496.475 422.357 499.061 421.878L499.152 422.369C500.476 422.124 501.787 421.857 503.083 421.571L502.976 421.083C505.62 420.499 508.204 419.835 510.72 419.107L510.859 419.587C512.155 419.212 513.433 418.821 514.692 418.415L514.538 417.939C517.133 417.102 519.646 416.203 522.069 415.263L522.25 415.729C523.515 415.239 524.756 414.737 525.971 414.226L525.777 413.765C528.322 412.697 530.752 411.591 533.055 410.477L533.273 410.927C534.507 410.33 535.704 409.73 536.863 409.132L536.634 408.688C539.16 407.384 541.503 406.087 543.642 404.841L543.894 405.273C545.106 404.568 546.252 403.878 547.33 403.212L547.068 402.787C549.735 401.139 551.981 399.639 553.75 398.403L554.036 398.813C554.634 398.396 555.177 398.008 555.664 397.656L555.665 397.656C555.929 397.464 556.208 397.304 556.497 397.176L556.294 396.719C557.612 396.133 559.122 396.133 560.44 396.719L560.237 397.176C560.526 397.304 560.805 397.464 561.069 397.656L561.07 397.656C561.558 398.008 562.101 398.395 562.699 398.813L562.985 398.402C564.756 399.637 567.003 401.137 569.671 402.784L569.408 403.21C570.487 403.875 571.633 404.565 572.845 405.27L573.097 404.838C575.237 406.084 577.581 407.381 580.107 408.684L579.878 409.129C581.037 409.727 582.235 410.327 583.469 410.924L583.687 410.474C585.99 411.589 588.421 412.694 590.966 413.763L590.773 414.224C591.988 414.734 593.229 415.236 594.494 415.727L594.675 415.261C597.098 416.201 599.612 417.1 602.207 417.937L602.054 418.413C603.313 418.819 604.591 419.211 605.887 419.586L606.026 419.106C608.543 419.834 611.128 420.498 613.772 421.082L613.664 421.57C614.961 421.857 616.272 422.123 617.597 422.369L617.688 421.877C620.274 422.356 622.912 422.754 625.593 423.054L625.538 423.551C626.202 423.625 626.869 423.694 627.538 423.756L627.539 423.756C628.119 423.809 628.676 423.931 629.204 424.113L629.367 423.64C631.719 424.451 633.526 426.381 634.162 428.771L633.679 428.9C633.823 429.439 633.902 430.003 633.91 430.584Z" stroke="white" stroke-dasharray="4 8"/>
</g>
<g style="mix-blend-mode:overlay" opacity="0.5">
<path d="M633.91 430.584L633.91 430.585C633.919 431.221 633.926 431.896 633.929 432.607L634.429 432.606C634.437 434.961 634.403 437.72 634.289 440.807L633.789 440.788C633.741 442.097 633.678 443.465 633.598 444.887L634.097 444.915C633.952 447.484 633.751 450.228 633.476 453.111L632.978 453.063C632.852 454.392 632.709 455.752 632.55 457.137L633.046 457.194C632.744 459.82 632.379 462.54 631.942 465.332L631.448 465.254C631.239 466.586 631.013 467.934 630.77 469.296L631.262 469.384C630.79 472.026 630.251 474.719 629.635 477.446L629.148 477.336C628.85 478.656 628.534 479.983 628.2 481.316L628.685 481.438C628.028 484.056 627.298 486.698 626.488 489.346L626.01 489.2C625.612 490.499 625.196 491.8 624.759 493.1L625.233 493.259C624.368 495.833 623.425 498.407 622.395 500.966L621.931 500.78C621.423 502.04 620.895 503.297 620.345 504.549L620.803 504.75C619.707 507.244 618.525 509.717 617.249 512.157L616.806 511.925C616.177 513.13 615.524 514.326 614.848 515.512L615.283 515.76C613.934 518.128 612.491 520.456 610.949 522.732L610.535 522.452C609.772 523.577 608.985 524.69 608.173 525.788L608.575 526.086C606.957 528.273 605.239 530.404 603.416 532.466L603.041 532.135C602.142 533.151 601.218 534.15 600.267 535.131L600.626 535.479C598.737 537.428 596.744 539.304 594.641 541.097L594.317 540.716C593.288 541.594 592.233 542.451 591.15 543.287L591.456 543.682C589.317 545.334 587.073 546.903 584.718 548.378L584.453 547.954C583.312 548.669 582.144 549.362 580.95 550.032L581.194 550.468C578.848 551.784 576.4 553.01 573.845 554.139L573.643 553.681C572.414 554.224 571.161 554.744 569.882 555.239L570.062 555.706C567.566 556.673 564.974 557.551 562.283 558.331L562.144 557.851C561.485 558.041 560.82 558.226 560.15 558.405C559.956 558.457 559.76 558.5 559.563 558.534L559.649 559.027C558.801 559.174 557.933 559.174 557.085 559.027L557.171 558.534C556.974 558.5 556.779 558.457 556.585 558.405C555.914 558.226 555.249 558.041 554.591 557.85L554.451 558.33C551.76 557.55 549.168 556.672 546.672 555.704L546.853 555.238C545.574 554.742 544.321 554.222 543.093 553.679L542.891 554.136C540.336 553.008 537.887 551.781 535.542 550.465L535.786 550.029C534.592 549.359 533.425 548.666 532.284 547.951L532.018 548.375C529.664 546.899 527.42 545.33 525.281 543.679L525.587 543.283C524.504 542.447 523.449 541.59 522.42 540.713L522.096 541.093C519.993 539.3 518 537.424 516.112 535.476L516.471 535.128C515.52 534.147 514.595 533.148 513.696 532.132L513.322 532.463C511.498 530.401 509.781 528.27 508.163 526.083L508.565 525.785C507.752 524.687 506.965 523.575 506.203 522.449L505.789 522.729C504.246 520.453 502.804 518.125 501.455 515.758L501.889 515.51C501.213 514.324 500.561 513.128 499.931 511.923L499.488 512.155C498.213 509.715 497.031 507.242 495.935 504.748L496.392 504.547C495.842 503.295 495.314 502.038 494.807 500.778L494.343 500.964C493.313 498.405 492.369 495.832 491.505 493.258L491.979 493.099C491.542 491.798 491.125 490.498 490.728 489.199L490.25 489.345C489.44 486.696 488.711 484.055 488.054 481.437L488.539 481.315C488.204 479.982 487.889 478.655 487.591 477.335L487.103 477.445C486.488 474.718 485.949 472.025 485.477 469.383L485.969 469.295C485.726 467.934 485.501 466.585 485.292 465.254L484.798 465.331C484.361 462.539 483.997 459.819 483.695 457.193L484.192 457.136C484.032 455.751 483.89 454.392 483.764 453.063L483.266 453.11C482.992 450.227 482.791 447.484 482.647 444.914L483.146 444.886C483.067 443.465 483.004 442.097 482.956 440.788L482.457 440.807C482.344 437.72 482.311 434.961 482.321 432.605L482.821 432.608C482.824 431.896 482.831 431.221 482.84 430.586C482.851 430.005 482.932 429.441 483.076 428.902L482.593 428.773C483.234 426.382 485.035 424.452 487.384 423.64L487.547 424.113C488.075 423.931 488.632 423.809 489.212 423.756L489.212 423.756C489.882 423.694 490.548 423.625 491.212 423.551L491.157 423.054C493.838 422.754 496.475 422.357 499.061 421.878L499.152 422.369C500.476 422.124 501.787 421.857 503.083 421.571L502.976 421.083C505.62 420.499 508.204 419.835 510.72 419.107L510.859 419.587C512.155 419.212 513.433 418.821 514.692 418.415L514.538 417.939C517.133 417.102 519.646 416.203 522.069 415.263L522.25 415.729C523.515 415.239 524.756 414.737 525.971 414.226L525.777 413.765C528.322 412.697 530.752 411.591 533.055 410.477L533.273 410.927C534.507 410.33 535.704 409.73 536.863 409.132L536.634 408.688C539.16 407.384 541.503 406.087 543.642 404.841L543.894 405.273C545.106 404.568 546.252 403.878 547.33 403.212L547.068 402.787C549.735 401.139 551.981 399.639 553.75 398.403L554.036 398.813C554.634 398.396 555.177 398.008 555.664 397.656L555.665 397.656C555.929 397.464 556.208 397.304 556.497 397.176L556.294 396.719C557.612 396.133 559.122 396.133 560.44 396.719L560.237 397.176C560.526 397.304 560.805 397.464 561.069 397.656L561.07 397.656C561.558 398.008 562.101 398.395 562.699 398.813L562.985 398.402C564.756 399.637 567.003 401.137 569.671 402.784L569.408 403.21C570.487 403.875 571.633 404.565 572.845 405.27L573.097 404.838C575.237 406.084 577.581 407.381 580.107 408.684L579.878 409.129C581.037 409.727 582.235 410.327 583.469 410.924L583.687 410.474C585.99 411.589 588.421 412.694 590.966 413.763L590.773 414.224C591.988 414.734 593.229 415.236 594.494 415.727L594.675 415.261C597.098 416.201 599.612 417.1 602.207 417.937L602.054 418.413C603.313 418.819 604.591 419.211 605.887 419.586L606.026 419.106C608.543 419.834 611.128 420.498 613.772 421.082L613.664 421.57C614.961 421.857 616.272 422.123 617.597 422.369L617.688 421.877C620.274 422.356 622.912 422.754 625.593 423.054L625.538 423.551C626.202 423.625 626.869 423.694 627.538 423.756L627.539 423.756C628.119 423.809 628.676 423.931 629.204 424.113L629.367 423.64C631.719 424.451 633.526 426.381 634.162 428.771L633.679 428.9C633.823 429.439 633.902 430.003 633.91 430.584Z" stroke="white" stroke-dasharray="4 8"/>
</g>
<g style="mix-blend-mode:overlay" opacity="0.8">
<path d="M681.041 403.061L681.541 403.056C681.561 405.405 681.555 408.031 681.506 410.902L681.006 410.893C680.985 412.161 680.955 413.477 680.916 414.838L681.416 414.852C681.346 417.301 681.244 419.895 681.103 422.619L680.604 422.593C680.537 423.877 680.462 425.19 680.377 426.53L680.876 426.561C680.718 429.063 680.526 431.658 680.295 434.335L679.797 434.292C679.686 435.574 679.566 436.875 679.437 438.194L679.935 438.243C679.687 440.778 679.403 443.378 679.08 446.034L678.583 445.974C678.429 447.241 678.266 448.522 678.093 449.815L678.588 449.881C678.249 452.418 677.873 455.001 677.456 457.623L676.962 457.545C676.759 458.826 676.546 460.117 676.322 461.416L676.815 461.5C676.38 464.034 675.906 466.6 675.391 469.191L674.901 469.093C674.65 470.357 674.389 471.628 674.117 472.903L674.606 473.007C674.07 475.531 673.493 478.076 672.874 480.636L672.388 480.518C672.082 481.783 671.766 483.05 671.439 484.321L671.923 484.446C671.279 486.951 670.593 489.468 669.862 491.992L669.382 491.853C669.023 493.094 668.653 494.336 668.272 495.58L668.75 495.726C667.991 498.205 667.188 500.687 666.338 503.168L665.865 503.007C665.445 504.236 665.013 505.464 664.569 506.692L665.04 506.862C664.158 509.302 663.231 511.739 662.255 514.169L661.791 513.982C661.307 515.187 660.811 516.39 660.303 517.591L660.764 517.786C659.751 520.179 658.69 522.562 657.579 524.931L657.126 524.719C656.576 525.892 656.013 527.063 655.437 528.229L655.885 528.45C654.734 530.781 653.532 533.096 652.278 535.39L651.839 535.15C651.216 536.29 650.579 537.425 649.929 538.554L650.363 538.803C649.066 541.056 647.717 543.287 646.312 545.491L645.891 545.222C645.193 546.316 644.482 547.404 643.757 548.485L644.172 548.763C642.723 550.923 641.219 553.053 639.658 555.152L639.257 554.853C638.483 555.893 637.696 556.924 636.894 557.946L637.288 558.255C635.685 560.299 634.025 562.309 632.306 564.281L631.929 563.953C631.076 564.931 630.209 565.9 629.327 566.859L629.695 567.197C627.939 569.106 626.124 570.976 624.249 572.803L623.9 572.445C622.971 573.35 622.027 574.244 621.067 575.128L621.406 575.496C619.499 577.252 617.532 578.965 615.504 580.631L615.186 580.245C614.19 581.063 613.179 581.869 612.153 582.664L612.459 583.059C610.412 584.644 608.306 586.182 606.138 587.67L605.855 587.257C604.791 587.987 603.712 588.705 602.618 589.41L602.889 589.83C600.719 591.228 598.49 592.577 596.2 593.873L595.954 593.438C594.826 594.076 593.684 594.701 592.527 595.313L592.76 595.755C590.486 596.958 588.154 598.11 585.762 599.209L585.554 598.754C584.37 599.298 583.172 599.828 581.96 600.345L582.156 600.805C579.797 601.81 577.382 602.764 574.911 603.664L574.74 603.194C573.522 603.638 572.289 604.068 571.043 604.486L571.202 604.96C568.767 605.775 566.28 606.539 563.738 607.249L563.603 606.768C562.97 606.945 562.333 607.118 561.692 607.289C561.371 607.374 561.046 607.445 560.719 607.502L560.805 607.994C559.436 608.232 558.035 608.232 556.666 607.994L556.751 607.502C556.425 607.445 556.1 607.374 555.779 607.289C555.138 607.118 554.502 606.944 553.868 606.767L553.733 607.249C551.192 606.538 548.704 605.773 546.27 604.958L546.429 604.484C545.183 604.066 543.951 603.636 542.732 603.192L542.561 603.661C540.09 602.761 537.676 601.807 535.317 600.801L535.513 600.341C534.301 599.824 533.103 599.294 531.92 598.75L531.711 599.205C529.32 598.106 526.988 596.954 524.714 595.751L524.947 595.309C523.79 594.696 522.648 594.071 521.52 593.433L521.274 593.868C518.985 592.572 516.756 591.223 514.586 589.825L514.857 589.404C513.763 588.699 512.684 587.981 511.62 587.251L511.338 587.664C509.17 586.176 507.063 584.638 505.017 583.053L505.323 582.658C504.297 581.863 503.286 581.057 502.29 580.239L501.973 580.625C499.944 578.959 497.977 577.246 496.07 575.49L496.409 575.122C495.45 574.238 494.506 573.344 493.576 572.439L493.228 572.797C491.352 570.97 489.538 569.1 487.782 567.192L488.15 566.853C487.268 565.894 486.4 564.926 485.548 563.947L485.171 564.276C483.452 562.304 481.792 560.294 480.189 558.25L480.583 557.941C479.781 556.919 478.993 555.888 478.22 554.848L477.819 555.147C476.258 553.049 474.754 550.918 473.305 548.759L473.72 548.48C472.995 547.4 472.284 546.312 471.586 545.217L471.165 545.486C469.76 543.283 468.41 541.052 467.114 538.799L467.547 538.55C466.897 537.421 466.261 536.286 465.637 535.146L465.199 535.386C463.944 533.092 462.743 530.778 461.592 528.447L462.04 528.225C461.464 527.059 460.901 525.889 460.35 524.715L459.898 524.928C458.786 522.559 457.725 520.176 456.713 517.783L457.173 517.588C456.665 516.387 456.17 515.184 455.686 513.98L455.222 514.166C454.246 511.737 453.319 509.3 452.437 506.86L452.908 506.69C452.464 505.462 452.032 504.233 451.612 503.004L451.139 503.166C450.289 500.685 449.487 498.202 448.727 495.724L449.206 495.578C448.825 494.334 448.455 493.092 448.096 491.851L447.615 491.99C446.885 489.466 446.199 486.949 445.555 484.444L446.039 484.319C445.712 483.049 445.396 481.781 445.09 480.517L444.604 480.634C443.985 478.074 443.409 475.529 442.872 473.006L443.361 472.902C443.09 471.626 442.829 470.356 442.578 469.092L442.088 469.189C441.573 466.598 441.1 464.032 440.665 461.499L441.158 461.414C440.934 460.115 440.721 458.825 440.518 457.543L440.024 457.622C439.608 455 439.232 452.417 438.893 449.88L439.389 449.813C439.216 448.521 439.053 447.24 438.899 445.973L438.403 446.033C438.08 443.377 437.797 440.777 437.549 438.242L438.047 438.193C437.918 436.875 437.798 435.574 437.688 434.291L437.19 434.334C436.96 431.657 436.768 429.062 436.611 426.561L437.11 426.529C437.025 425.189 436.95 423.876 436.884 422.592L436.385 422.618C436.245 419.895 436.144 417.3 436.075 414.851L436.574 414.837C436.536 413.477 436.507 412.161 436.486 410.893L435.986 410.901C435.939 408.031 435.934 405.405 435.955 403.056L436.455 403.061C436.461 402.412 436.468 401.784 436.478 401.178C436.495 400.216 436.63 399.282 436.87 398.39L436.387 398.26C437.423 394.41 440.331 391.303 444.125 389.998L444.288 390.471C445.162 390.17 446.085 389.969 447.044 389.882L447.045 389.882C447.692 389.822 448.338 389.758 448.982 389.691L448.93 389.194C451.513 388.925 454.072 388.6 456.603 388.224L456.677 388.718C457.962 388.527 459.24 388.323 460.511 388.107L460.427 387.614C462.992 387.177 465.528 386.689 468.031 386.155L468.135 386.645C469.405 386.374 470.667 386.092 471.921 385.798L471.807 385.312C474.342 384.718 476.841 384.081 479.302 383.404L479.435 383.886C480.689 383.541 481.933 383.187 483.166 382.823L483.025 382.343C485.531 381.604 487.994 380.826 490.411 380.017L490.57 380.491C491.804 380.077 493.027 379.656 494.238 379.227L494.071 378.755C496.54 377.88 498.958 376.974 501.321 376.045L501.504 376.511C502.717 376.033 503.917 375.55 505.101 375.062L504.91 374.599C507.343 373.596 509.713 372.571 512.016 371.533L512.222 371.989C513.414 371.452 514.589 370.911 515.745 370.368L515.532 369.915C517.932 368.788 520.252 367.65 522.487 366.515L522.713 366.961C523.885 366.365 525.034 365.77 526.158 365.177L525.924 364.735C528.297 363.483 530.561 362.24 532.711 361.021L532.957 361.456C534.107 360.804 535.224 360.158 536.306 359.522L536.053 359.091C538.428 357.696 540.64 356.344 542.676 355.06L542.943 355.483C544.086 354.762 545.174 354.063 546.206 353.389L545.932 352.97C548.402 351.356 550.544 349.889 552.332 348.626L552.621 349.034C553.179 348.64 553.703 348.266 554.191 347.913L554.191 347.913C554.635 347.592 555.105 347.324 555.592 347.108L555.389 346.651C557.516 345.709 559.955 345.709 562.082 346.651L561.879 347.108C562.366 347.324 562.836 347.592 563.28 347.913L563.28 347.913C563.769 348.266 564.293 348.64 564.852 349.033L565.14 348.625C566.93 349.887 569.074 351.354 571.543 352.966L571.27 353.385C572.302 354.059 573.391 354.758 574.534 355.479L574.801 355.056C576.838 356.339 579.051 357.691 581.426 359.086L581.173 359.517C582.256 360.153 583.373 360.799 584.523 361.451L584.77 361.016C586.92 362.235 589.185 363.478 591.558 364.729L591.324 365.172C592.449 365.765 593.597 366.36 594.769 366.956L594.996 366.51C597.231 367.646 599.551 368.783 601.952 369.911L601.74 370.363C602.896 370.906 604.071 371.447 605.263 371.985L605.469 371.529C607.772 372.567 610.143 373.592 612.576 374.596L612.386 375.058C613.57 375.546 614.77 376.03 615.983 376.507L616.166 376.042C618.53 376.971 620.948 377.877 623.418 378.752L623.251 379.224C624.462 379.653 625.685 380.075 626.92 380.488L627.078 380.014C629.496 380.824 631.96 381.601 634.466 382.341L634.324 382.821C635.558 383.185 636.802 383.54 638.056 383.884L638.189 383.402C640.651 384.079 643.151 384.717 645.686 385.31L645.572 385.797C646.826 386.091 648.088 386.373 649.359 386.644L649.463 386.155C651.967 386.688 654.502 387.176 657.068 387.613L656.984 388.106C658.255 388.323 659.534 388.527 660.819 388.718L660.893 388.223C663.425 388.6 665.984 388.925 668.567 389.194L668.516 389.691C669.16 389.758 669.805 389.822 670.452 389.882L670.453 389.882C671.413 389.969 672.337 390.17 673.211 390.471L673.374 389.998C677.172 391.303 680.09 394.409 681.119 398.258L680.636 398.387C680.875 399.279 681.007 400.214 681.02 401.176L681.02 401.177C681.029 401.783 681.036 402.411 681.041 403.061Z" stroke="white" stroke-dasharray="4 8"/>
</g>
<g style="mix-blend-mode:overlay" opacity="0.6">
<path d="M728.766 373.734L729.266 373.729C729.291 376.158 729.296 378.813 729.27 381.673L728.77 381.669C728.759 382.951 728.742 384.275 728.718 385.638L729.218 385.647C729.173 388.159 729.105 390.804 729.008 393.572L728.508 393.555C728.463 394.863 728.41 396.199 728.351 397.562L728.85 397.583C728.739 400.134 728.602 402.776 728.437 405.502L727.938 405.472C727.86 406.761 727.775 408.07 727.684 409.396L728.182 409.43C728.005 412.006 727.801 414.65 727.568 417.355L727.07 417.312C726.958 418.611 726.84 419.924 726.714 421.25L727.212 421.298C726.968 423.878 726.698 426.509 726.398 429.187L725.901 429.131C725.754 430.445 725.6 431.769 725.439 433.104L725.935 433.164C725.624 435.741 725.285 438.357 724.917 441.008L724.422 440.94C724.241 442.246 724.052 443.561 723.857 444.883L724.351 444.956C723.969 447.539 723.559 450.151 723.119 452.791L722.626 452.708C722.41 454.001 722.187 455.3 721.957 456.605L722.45 456.691C721.994 459.277 721.508 461.886 720.992 464.515L720.502 464.419C720.25 465.7 719.991 466.986 719.725 468.276L720.215 468.377C719.683 470.953 719.122 473.546 718.529 476.152L718.041 476.041C717.751 477.317 717.453 478.597 717.147 479.88L717.633 479.995C717.023 482.556 716.382 485.128 715.708 487.709L715.225 487.583C714.893 488.852 714.554 490.124 714.207 491.397L714.69 491.529C713.997 494.07 713.272 496.618 712.515 499.171L712.035 499.029C711.661 500.289 711.279 501.549 710.889 502.811L711.367 502.958C710.587 505.477 709.775 507.997 708.929 510.518L708.455 510.359C708.036 511.606 707.609 512.853 707.174 514.1L707.646 514.265C706.776 516.755 705.872 519.243 704.932 521.728L704.465 521.551C703.999 522.782 703.525 524.013 703.042 525.242L703.508 525.425C702.542 527.88 701.542 530.331 700.505 532.775L700.045 532.58C699.53 533.792 699.007 535.002 698.474 536.21L698.932 536.412C697.867 538.827 696.766 541.234 695.627 543.63L695.175 543.415C694.61 544.605 694.035 545.791 693.451 546.975L693.899 547.196C692.73 549.564 691.524 551.919 690.278 554.261L689.837 554.026C689.218 555.188 688.59 556.347 687.952 557.503L688.39 557.744C687.113 560.056 685.797 562.352 684.441 564.631L684.011 564.375C683.338 565.507 682.654 566.634 681.961 567.756L682.386 568.019C680.998 570.265 679.569 572.493 678.099 574.7L677.683 574.423C676.953 575.518 676.213 576.609 675.463 577.693L675.874 577.978C674.372 580.15 672.828 582.3 671.241 584.426L670.84 584.127C670.053 585.18 669.256 586.228 668.448 587.27L668.843 587.576C667.225 589.663 665.564 591.725 663.858 593.76L663.475 593.439C662.632 594.446 661.777 595.446 660.912 596.439L661.289 596.768C659.554 598.759 657.776 600.722 655.953 602.656L655.589 602.313C654.689 603.267 653.778 604.215 652.856 605.154L653.212 605.504C651.364 607.387 649.472 609.24 647.534 611.06L647.192 610.696C646.236 611.594 645.268 612.485 644.289 613.368L644.624 613.739C642.667 615.503 640.665 617.234 638.618 618.931L638.299 618.546C637.287 619.385 636.264 620.215 635.229 621.036L635.54 621.428C633.481 623.063 631.378 624.663 629.229 626.227L628.935 625.822C627.868 626.598 626.791 627.365 625.701 628.123L625.987 628.533C623.836 630.03 621.64 631.491 619.399 632.914L619.131 632.492C618.014 633.201 616.885 633.901 615.745 634.592L616.004 635.02C613.769 636.373 611.491 637.69 609.168 638.968L608.927 638.53C607.77 639.166 606.602 639.793 605.422 640.41L605.654 640.853C603.338 642.066 600.978 643.24 598.575 644.375L598.362 643.923C597.172 644.485 595.972 645.037 594.761 645.579L594.965 646.036C592.573 647.107 590.139 648.139 587.662 649.132L587.476 648.668C586.262 649.155 585.038 649.632 583.803 650.099L583.98 650.566C581.517 651.498 579.012 652.391 576.466 653.244L576.307 652.77C575.076 653.183 573.836 653.585 572.585 653.979L572.735 654.456C570.228 655.244 567.682 655.994 565.094 656.705L564.962 656.223C564.317 656.4 563.669 656.574 563.019 656.747C562.567 656.866 562.111 656.965 561.652 657.044L561.737 657.537C559.837 657.866 557.893 657.866 555.993 657.537L556.079 657.044C555.62 656.965 555.163 656.866 554.711 656.747C554.061 656.574 553.413 656.4 552.768 656.222L552.636 656.704C550.049 655.993 547.502 655.243 544.996 654.454L545.146 653.977C543.895 653.583 542.655 653.18 541.424 652.768L541.266 653.242C538.719 652.388 536.215 651.495 533.752 650.562L533.929 650.095C532.695 649.627 531.47 649.15 530.257 648.663L530.07 649.128C527.594 648.134 525.16 647.101 522.768 646.03L522.973 645.574C521.762 645.031 520.562 644.479 519.372 643.917L519.159 644.369C516.756 643.234 514.397 642.059 512.08 640.847L512.312 640.404C511.133 639.787 509.965 639.16 508.808 638.523L508.567 638.961C506.245 637.683 503.966 636.366 501.732 635.012L501.991 634.585C500.851 633.894 499.722 633.194 498.605 632.484L498.337 632.906C496.096 631.483 493.9 630.022 491.749 628.525L492.035 628.115C490.946 627.357 489.868 626.59 488.802 625.814L488.508 626.218C486.359 624.655 484.256 623.054 482.197 621.42L482.508 621.028C481.473 620.207 480.45 619.376 479.438 618.538L479.119 618.923C477.072 617.226 475.071 615.495 473.114 613.731L473.449 613.359C472.47 612.477 471.502 611.586 470.546 610.688L470.203 611.052C468.266 609.232 466.374 607.379 464.526 605.496L464.882 605.146C463.96 604.207 463.049 603.26 462.149 602.305L461.786 602.648C459.963 600.715 458.184 598.751 456.449 596.76L456.826 596.432C455.961 595.439 455.107 594.439 454.263 593.432L453.88 593.753C452.175 591.718 450.514 589.656 448.895 587.569L449.29 587.263C448.482 586.221 447.685 585.174 446.898 584.12L446.498 584.419C444.911 582.293 443.367 580.143 441.864 577.971L442.275 577.687C441.525 576.602 440.785 575.512 440.056 574.417L439.639 574.694C438.169 572.487 436.74 570.259 435.352 568.013L435.777 567.75C435.084 566.628 434.401 565.501 433.727 564.37L433.298 564.625C431.941 562.347 430.625 560.051 429.349 557.739L429.786 557.497C429.148 556.342 428.52 555.183 427.902 554.021L427.46 554.256C426.215 551.914 425.008 549.559 423.839 547.191L424.287 546.97C423.703 545.786 423.128 544.6 422.563 543.411L422.111 543.625C420.972 541.229 419.871 538.823 418.806 536.407L419.264 536.206C418.731 534.998 418.208 533.787 417.694 532.575L417.233 532.771C416.196 530.327 415.196 527.876 414.231 525.421L414.696 525.238C414.213 524.009 413.739 522.779 413.274 521.548L412.806 521.724C411.867 519.24 410.963 516.751 410.093 514.261L410.565 514.096C410.129 512.85 409.702 511.603 409.284 510.356L408.81 510.515C407.964 507.994 407.152 505.473 406.372 502.956L406.85 502.808C406.46 501.546 406.078 500.286 405.704 499.026L405.225 499.168C404.467 496.616 403.743 494.067 403.05 491.526L403.532 491.395C403.185 490.121 402.846 488.85 402.515 487.58L402.031 487.706C401.358 485.125 400.717 482.553 400.107 479.993L400.593 479.877C400.288 478.595 399.99 477.315 399.7 476.039L399.212 476.15C398.619 473.543 398.058 470.951 397.527 468.375L398.016 468.274C397.75 466.984 397.491 465.698 397.24 464.417L396.749 464.513C396.234 461.884 395.749 459.275 395.293 456.689L395.785 456.603C395.555 455.298 395.333 453.999 395.117 452.706L394.624 452.789C394.184 450.15 393.775 447.537 393.393 444.955L393.888 444.881C393.692 443.559 393.504 442.244 393.323 440.938L392.828 441.007C392.46 438.356 392.122 435.74 391.811 433.163L392.308 433.103C392.146 431.768 391.993 430.443 391.846 429.13L391.349 429.185C391.05 426.508 390.78 423.877 390.536 421.296L391.034 421.249C390.909 419.923 390.791 418.609 390.679 417.31L390.181 417.353C389.949 414.648 389.746 412.005 389.569 409.429L390.068 409.395C389.977 408.069 389.893 406.76 389.815 405.471L389.316 405.501C389.151 402.775 389.016 400.133 388.905 397.583L389.405 397.561C389.346 396.199 389.294 394.863 389.248 393.554L388.748 393.572C388.652 390.804 388.585 388.158 388.542 385.646L389.042 385.638C389.018 384.275 389.002 382.951 388.991 381.668L388.491 381.673C388.467 378.813 388.474 376.158 388.5 373.728L389 373.734C389.006 373.086 389.015 372.455 389.024 371.84C389.036 371.173 389.089 370.516 389.18 369.87L388.685 369.8C389.075 367.04 390.15 364.489 391.741 362.329L392.144 362.626C392.925 361.565 393.835 360.601 394.852 359.756L394.533 359.372C396.587 357.667 399.065 356.436 401.802 355.855L401.906 356.344C402.544 356.209 403.197 356.11 403.863 356.049L403.864 356.049C404.553 355.986 405.242 355.919 405.929 355.85L405.879 355.352C408.632 355.074 411.366 354.75 414.078 354.383L414.145 354.878C415.514 354.693 416.878 354.497 418.236 354.29L418.161 353.796C420.899 353.38 423.614 352.92 426.304 352.422L426.396 352.914C427.754 352.662 429.105 352.401 430.451 352.13L430.352 351.64C433.07 351.092 435.761 350.505 438.424 349.883L438.538 350.37C439.883 350.056 441.22 349.733 442.55 349.401L442.429 348.916C445.123 348.244 447.786 347.537 450.417 346.799L450.552 347.28C451.882 346.907 453.204 346.526 454.517 346.137L454.375 345.658C457.041 344.869 459.673 344.049 462.267 343.202L462.422 343.677C463.736 343.248 465.041 342.812 466.336 342.37L466.174 341.897C468.811 340.997 471.407 340.07 473.96 339.122L474.134 339.591C475.432 339.109 476.719 338.621 477.995 338.128L477.815 337.662C480.419 336.657 482.976 335.63 485.484 334.588L485.676 335.05C486.958 334.517 488.227 333.98 489.483 333.44L489.286 332.98C491.855 331.875 494.368 330.755 496.823 329.627L497.032 330.082C498.298 329.5 499.55 328.915 500.785 328.33L500.57 327.878C503.11 326.674 505.583 325.463 507.986 324.253L508.211 324.7C509.454 324.073 510.679 323.447 511.884 322.823L511.654 322.379C514.169 321.075 516.601 319.776 518.944 318.49L519.185 318.929C520.415 318.254 521.62 317.583 522.801 316.918L522.556 316.482C525.051 315.075 527.435 313.691 529.702 312.341L529.958 312.771C531.172 312.048 532.352 311.336 533.498 310.635L533.237 310.209C535.728 308.685 538.056 307.217 540.215 305.823L540.486 306.243C541.695 305.462 542.851 304.704 543.951 303.973L543.675 303.556C546.254 301.842 548.53 300.274 550.483 298.894L550.772 299.302C551.359 298.887 551.917 298.49 552.445 298.11L552.445 298.11C553.073 297.658 553.736 297.281 554.425 296.977L554.223 296.52C557.174 295.219 560.556 295.219 563.507 296.52L563.305 296.977C563.994 297.281 564.658 297.658 565.285 298.11L565.286 298.11C565.814 298.49 566.373 298.887 566.96 299.301L567.248 298.893C569.203 300.271 571.481 301.839 574.061 303.552L573.784 303.968C574.886 304.7 576.042 305.457 577.252 306.238L577.523 305.818C579.682 307.212 582.012 308.679 584.503 310.202L584.243 310.629C585.389 311.33 586.569 312.042 587.783 312.764L588.039 312.335C590.307 313.684 592.692 315.068 595.188 316.475L594.942 316.911C596.123 317.576 597.329 318.247 598.56 318.922L598.8 318.483C601.144 319.769 603.576 321.068 606.092 322.372L605.862 322.815C607.067 323.44 608.292 324.067 609.536 324.693L609.761 324.246C612.164 325.456 614.638 326.667 617.178 327.872L616.964 328.323C618.199 328.909 619.451 329.493 620.717 330.075L620.926 329.621C623.382 330.749 625.896 331.869 628.465 332.975L628.267 333.434C629.524 333.974 630.793 334.511 632.076 335.044L632.268 334.583C634.776 335.625 637.333 336.652 639.938 337.657L639.758 338.124C641.034 338.616 642.321 339.104 643.62 339.586L643.794 339.118C646.348 340.066 648.944 340.993 651.581 341.893L651.419 342.366C652.715 342.809 654.02 343.245 655.334 343.674L655.489 343.198C658.084 344.046 660.716 344.866 663.383 345.655L663.241 346.135C664.554 346.523 665.876 346.905 667.206 347.278L667.342 346.797C669.973 347.535 672.637 348.242 675.331 348.914L675.21 349.399C676.54 349.731 677.878 350.054 679.223 350.368L679.337 349.882C682 350.504 684.692 351.091 687.41 351.638L687.312 352.129C688.657 352.4 690.009 352.661 691.368 352.913L691.459 352.421C694.149 352.92 696.865 353.379 699.604 353.796L699.529 354.29C700.887 354.497 702.251 354.693 703.621 354.878L703.688 354.383C706.4 354.75 709.134 355.074 711.889 355.352L711.838 355.85C712.526 355.919 713.214 355.986 713.904 356.049L713.905 356.049C714.57 356.11 715.224 356.209 715.862 356.344L715.966 355.855C718.703 356.436 721.184 357.665 723.241 359.368L722.922 359.753C723.942 360.597 724.853 361.561 725.636 362.621L726.038 362.324C727.633 364.485 728.708 367.037 729.09 369.799L728.594 369.867C728.684 370.513 728.734 371.171 728.743 371.839L728.743 371.839C728.752 372.454 728.76 373.086 728.766 373.734Z" stroke="white" stroke-dasharray="4 8"/>
</g>
<g style="mix-blend-mode:overlay" opacity="0.8">
<path d="M681.041 403.061L681.541 403.056C681.561 405.405 681.555 408.031 681.506 410.902L681.006 410.893C680.985 412.161 680.955 413.477 680.916 414.838L681.416 414.852C681.346 417.301 681.244 419.895 681.103 422.619L680.604 422.593C680.537 423.877 680.462 425.19 680.377 426.53L680.876 426.561C680.718 429.063 680.526 431.658 680.295 434.335L679.797 434.292C679.686 435.574 679.566 436.875 679.437 438.194L679.935 438.243C679.687 440.778 679.403 443.378 679.08 446.034L678.583 445.974C678.429 447.241 678.266 448.522 678.093 449.815L678.588 449.881C678.249 452.418 677.873 455.001 677.456 457.623L676.962 457.545C676.759 458.826 676.546 460.117 676.322 461.416L676.815 461.5C676.38 464.034 675.906 466.6 675.391 469.191L674.901 469.093C674.65 470.357 674.389 471.628 674.117 472.903L674.606 473.007C674.07 475.531 673.493 478.076 672.874 480.636L672.388 480.518C672.082 481.783 671.766 483.05 671.439 484.321L671.923 484.446C671.279 486.951 670.593 489.468 669.862 491.992L669.382 491.853C669.023 493.094 668.653 494.336 668.272 495.58L668.75 495.726C667.991 498.205 667.188 500.687 666.338 503.168L665.865 503.007C665.445 504.236 665.013 505.464 664.569 506.692L665.04 506.862C664.158 509.302 663.231 511.739 662.255 514.169L661.791 513.982C661.307 515.187 660.811 516.39 660.303 517.591L660.764 517.786C659.751 520.179 658.69 522.562 657.579 524.931L657.126 524.719C656.576 525.892 656.013 527.063 655.437 528.229L655.885 528.45C654.734 530.781 653.532 533.096 652.278 535.39L651.839 535.15C651.216 536.29 650.579 537.425 649.929 538.554L650.363 538.803C649.066 541.056 647.717 543.287 646.312 545.491L645.891 545.222C645.193 546.316 644.482 547.404 643.757 548.485L644.172 548.763C642.723 550.923 641.219 553.053 639.658 555.152L639.257 554.853C638.483 555.893 637.696 556.924 636.894 557.946L637.288 558.255C635.685 560.299 634.025 562.309 632.306 564.281L631.929 563.953C631.076 564.931 630.209 565.9 629.327 566.859L629.695 567.197C627.939 569.106 626.124 570.976 624.249 572.803L623.9 572.445C622.971 573.35 622.027 574.244 621.067 575.128L621.406 575.496C619.499 577.252 617.532 578.965 615.504 580.631L615.186 580.245C614.19 581.063 613.179 581.869 612.153 582.664L612.459 583.059C610.412 584.644 608.306 586.182 606.138 587.67L605.855 587.257C604.791 587.987 603.712 588.705 602.618 589.41L602.889 589.83C600.719 591.228 598.49 592.577 596.2 593.873L595.954 593.438C594.826 594.076 593.684 594.701 592.527 595.313L592.76 595.755C590.486 596.958 588.154 598.11 585.762 599.209L585.554 598.754C584.37 599.298 583.172 599.828 581.96 600.345L582.156 600.805C579.797 601.81 577.382 602.764 574.911 603.664L574.74 603.194C573.522 603.638 572.289 604.068 571.043 604.486L571.202 604.96C568.767 605.775 566.28 606.539 563.738 607.249L563.603 606.768C562.97 606.945 562.333 607.118 561.692 607.289C561.371 607.374 561.046 607.445 560.719 607.502L560.805 607.994C559.436 608.232 558.035 608.232 556.666 607.994L556.751 607.502C556.425 607.445 556.1 607.374 555.779 607.289C555.138 607.118 554.502 606.944 553.868 606.767L553.733 607.249C551.192 606.538 548.704 605.773 546.27 604.958L546.429 604.484C545.183 604.066 543.951 603.636 542.732 603.192L542.561 603.661C540.09 602.761 537.676 601.807 535.317 600.801L535.513 600.341C534.301 599.824 533.103 599.294 531.92 598.75L531.711 599.205C529.32 598.106 526.988 596.954 524.714 595.751L524.947 595.309C523.79 594.696 522.648 594.071 521.52 593.433L521.274 593.868C518.985 592.572 516.756 591.223 514.586 589.825L514.857 589.404C513.763 588.699 512.684 587.981 511.62 587.251L511.338 587.664C509.17 586.176 507.063 584.638 505.017 583.053L505.323 582.658C504.297 581.863 503.286 581.057 502.29 580.239L501.973 580.625C499.944 578.959 497.977 577.246 496.07 575.49L496.409 575.122C495.45 574.238 494.506 573.344 493.576 572.439L493.228 572.797C491.352 570.97 489.538 569.1 487.782 567.192L488.15 566.853C487.268 565.894 486.4 564.926 485.548 563.947L485.171 564.276C483.452 562.304 481.792 560.294 480.189 558.25L480.583 557.941C479.781 556.919 478.993 555.888 478.22 554.848L477.819 555.147C476.258 553.049 474.754 550.918 473.305 548.759L473.72 548.48C472.995 547.4 472.284 546.312 471.586 545.217L471.165 545.486C469.76 543.283 468.41 541.052 467.114 538.799L467.547 538.55C466.897 537.421 466.261 536.286 465.637 535.146L465.199 535.386C463.944 533.092 462.743 530.778 461.592 528.447L462.04 528.225C461.464 527.059 460.901 525.889 460.35 524.715L459.898 524.928C458.786 522.559 457.725 520.176 456.713 517.783L457.173 517.588C456.665 516.387 456.17 515.184 455.686 513.98L455.222 514.166C454.246 511.737 453.319 509.3 452.437 506.86L452.908 506.69C452.464 505.462 452.032 504.233 451.612 503.004L451.139 503.166C450.289 500.685 449.487 498.202 448.727 495.724L449.206 495.578C448.825 494.334 448.455 493.092 448.096 491.851L447.615 491.99C446.885 489.466 446.199 486.949 445.555 484.444L446.039 484.319C445.712 483.049 445.396 481.781 445.09 480.517L444.604 480.634C443.985 478.074 443.409 475.529 442.872 473.006L443.361 472.902C443.09 471.626 442.829 470.356 442.578 469.092L442.088 469.189C441.573 466.598 441.1 464.032 440.665 461.499L441.158 461.414C440.934 460.115 440.721 458.825 440.518 457.543L440.024 457.622C439.608 455 439.232 452.417 438.893 449.88L439.389 449.813C439.216 448.521 439.053 447.24 438.899 445.973L438.403 446.033C438.08 443.377 437.797 440.777 437.549 438.242L438.047 438.193C437.918 436.875 437.798 435.574 437.688 434.291L437.19 434.334C436.96 431.657 436.768 429.062 436.611 426.561L437.11 426.529C437.025 425.189 436.95 423.876 436.884 422.592L436.385 422.618C436.245 419.895 436.144 417.3 436.075 414.851L436.574 414.837C436.536 413.477 436.507 412.161 436.486 410.893L435.986 410.901C435.939 408.031 435.934 405.405 435.955 403.056L436.455 403.061C436.461 402.412 436.468 401.784 436.478 401.178C436.495 400.216 436.63 399.282 436.87 398.39L436.387 398.26C437.423 394.41 440.331 391.303 444.125 389.998L444.288 390.471C445.162 390.17 446.085 389.969 447.044 389.882L447.045 389.882C447.692 389.822 448.338 389.758 448.982 389.691L448.93 389.194C451.513 388.925 454.072 388.6 456.603 388.224L456.677 388.718C457.962 388.527 459.24 388.323 460.511 388.107L460.427 387.614C462.992 387.177 465.528 386.689 468.031 386.155L468.135 386.645C469.405 386.374 470.667 386.092 471.921 385.798L471.807 385.312C474.342 384.718 476.841 384.081 479.302 383.404L479.435 383.886C480.689 383.541 481.933 383.187 483.166 382.823L483.025 382.343C485.531 381.604 487.994 380.826 490.411 380.017L490.57 380.491C491.804 380.077 493.027 379.656 494.238 379.227L494.071 378.755C496.54 377.88 498.958 376.974 501.321 376.045L501.504 376.511C502.717 376.033 503.917 375.55 505.101 375.062L504.91 374.599C507.343 373.596 509.713 372.571 512.016 371.533L512.222 371.989C513.414 371.452 514.589 370.911 515.745 370.368L515.532 369.915C517.932 368.788 520.252 367.65 522.487 366.515L522.713 366.961C523.885 366.365 525.034 365.77 526.158 365.177L525.924 364.735C528.297 363.483 530.561 362.24 532.711 361.021L532.957 361.456C534.107 360.804 535.224 360.158 536.306 359.522L536.053 359.091C538.428 357.696 540.64 356.344 542.676 355.06L542.943 355.483C544.086 354.762 545.174 354.063 546.206 353.389L545.932 352.97C548.402 351.356 550.544 349.889 552.332 348.626L552.621 349.034C553.179 348.64 553.703 348.266 554.191 347.913L554.191 347.913C554.635 347.592 555.105 347.324 555.592 347.108L555.389 346.651C557.516 345.709 559.955 345.709 562.082 346.651L561.879 347.108C562.366 347.324 562.836 347.592 563.28 347.913L563.28 347.913C563.769 348.266 564.293 348.64 564.852 349.033L565.14 348.625C566.93 349.887 569.074 351.354 571.543 352.966L571.27 353.385C572.302 354.059 573.391 354.758 574.534 355.479L574.801 355.056C576.838 356.339 579.051 357.691 581.426 359.086L581.173 359.517C582.256 360.153 583.373 360.799 584.523 361.451L584.77 361.016C586.92 362.235 589.185 363.478 591.558 364.729L591.324 365.172C592.449 365.765 593.597 366.36 594.769 366.956L594.996 366.51C597.231 367.646 599.551 368.783 601.952 369.911L601.74 370.363C602.896 370.906 604.071 371.447 605.263 371.985L605.469 371.529C607.772 372.567 610.143 373.592 612.576 374.596L612.386 375.058C613.57 375.546 614.77 376.03 615.983 376.507L616.166 376.042C618.53 376.971 620.948 377.877 623.418 378.752L623.251 379.224C624.462 379.653 625.685 380.075 626.92 380.488L627.078 380.014C629.496 380.824 631.96 381.601 634.466 382.341L634.324 382.821C635.558 383.185 636.802 383.54 638.056 383.884L638.189 383.402C640.651 384.079 643.151 384.717 645.686 385.31L645.572 385.797C646.826 386.091 648.088 386.373 649.359 386.644L649.463 386.155C651.967 386.688 654.502 387.176 657.068 387.613L656.984 388.106C658.255 388.323 659.534 388.527 660.819 388.718L660.893 388.223C663.425 388.6 665.984 388.925 668.567 389.194L668.516 389.691C669.16 389.758 669.805 389.822 670.452 389.882L670.453 389.882C671.413 389.969 672.337 390.17 673.211 390.471L673.374 389.998C677.172 391.303 680.09 394.409 681.119 398.258L680.636 398.387C680.875 399.279 681.007 400.214 681.02 401.176L681.02 401.177C681.029 401.783 681.036 402.411 681.041 403.061Z" stroke="white" stroke-dasharray="4 8"/>
</g>
<g style="mix-blend-mode:overlay" opacity="0.6">
<path d="M728.766 373.734L729.266 373.729C729.291 376.158 729.296 378.813 729.27 381.673L728.77 381.669C728.759 382.951 728.742 384.275 728.718 385.638L729.218 385.647C729.173 388.159 729.105 390.804 729.008 393.572L728.508 393.555C728.463 394.863 728.41 396.199 728.351 397.562L728.85 397.583C728.739 400.134 728.602 402.776 728.437 405.502L727.938 405.472C727.86 406.761 727.775 408.07 727.684 409.396L728.182 409.43C728.005 412.006 727.801 414.65 727.568 417.355L727.07 417.312C726.958 418.611 726.84 419.924 726.714 421.25L727.212 421.298C726.968 423.878 726.698 426.509 726.398 429.187L725.901 429.131C725.754 430.445 725.6 431.769 725.439 433.104L725.935 433.164C725.624 435.741 725.285 438.357 724.917 441.008L724.422 440.94C724.241 442.246 724.052 443.561 723.857 444.883L724.351 444.956C723.969 447.539 723.559 450.151 723.119 452.791L722.626 452.708C722.41 454.001 722.187 455.3 721.957 456.605L722.45 456.691C721.994 459.277 721.508 461.886 720.992 464.515L720.502 464.419C720.25 465.7 719.991 466.986 719.725 468.276L720.215 468.377C719.683 470.953 719.122 473.546 718.529 476.152L718.041 476.041C717.751 477.317 717.453 478.597 717.147 479.88L717.633 479.995C717.023 482.556 716.382 485.128 715.708 487.709L715.225 487.583C714.893 488.852 714.554 490.124 714.207 491.397L714.69 491.529C713.997 494.07 713.272 496.618 712.515 499.171L712.035 499.029C711.661 500.289 711.279 501.549 710.889 502.811L711.367 502.958C710.587 505.477 709.775 507.997 708.929 510.518L708.455 510.359C708.036 511.606 707.609 512.853 707.174 514.1L707.646 514.265C706.776 516.755 705.872 519.243 704.932 521.728L704.465 521.551C703.999 522.782 703.525 524.013 703.042 525.242L703.508 525.425C702.542 527.88 701.542 530.331 700.505 532.775L700.045 532.58C699.53 533.792 699.007 535.002 698.474 536.21L698.932 536.412C697.867 538.827 696.766 541.234 695.627 543.63L695.175 543.415C694.61 544.605 694.035 545.791 693.451 546.975L693.899 547.196C692.73 549.564 691.524 551.919 690.278 554.261L689.837 554.026C689.218 555.188 688.59 556.347 687.952 557.503L688.39 557.744C687.113 560.056 685.797 562.352 684.441 564.631L684.011 564.375C683.338 565.507 682.654 566.634 681.961 567.756L682.386 568.019C680.998 570.265 679.569 572.493 678.099 574.7L677.683 574.423C676.953 575.518 676.213 576.609 675.463 577.693L675.874 577.978C674.372 580.15 672.828 582.3 671.241 584.426L670.84 584.127C670.053 585.18 669.256 586.228 668.448 587.27L668.843 587.576C667.225 589.663 665.564 591.725 663.858 593.76L663.475 593.439C662.632 594.446 661.777 595.446 660.912 596.439L661.289 596.768C659.554 598.759 657.776 600.722 655.953 602.656L655.589 602.313C654.689 603.267 653.778 604.215 652.856 605.154L653.212 605.504C651.364 607.387 649.472 609.24 647.534 611.06L647.192 610.696C646.236 611.594 645.268 612.485 644.289 613.368L644.624 613.739C642.667 615.503 640.665 617.234 638.618 618.931L638.299 618.546C637.287 619.385 636.264 620.215 635.229 621.036L635.54 621.428C633.481 623.063 631.378 624.663 629.229 626.227L628.935 625.822C627.868 626.598 626.791 627.365 625.701 628.123L625.987 628.533C623.836 630.03 621.64 631.491 619.399 632.914L619.131 632.492C618.014 633.201 616.885 633.901 615.745 634.592L616.004 635.02C613.769 636.373 611.491 637.69 609.168 638.968L608.927 638.53C607.77 639.166 606.602 639.793 605.422 640.41L605.654 640.853C603.338 642.066 600.978 643.24 598.575 644.375L598.362 643.923C597.172 644.485 595.972 645.037 594.761 645.579L594.965 646.036C592.573 647.107 590.139 648.139 587.662 649.132L587.476 648.668C586.262 649.155 585.038 649.632 583.803 650.099L583.98 650.566C581.517 651.498 579.012 652.391 576.466 653.244L576.307 652.77C575.076 653.183 573.836 653.585 572.585 653.979L572.735 654.456C570.228 655.244 567.682 655.994 565.094 656.705L564.962 656.223C564.317 656.4 563.669 656.574 563.019 656.747C562.567 656.866 562.111 656.965 561.652 657.044L561.737 657.537C559.837 657.866 557.893 657.866 555.993 657.537L556.079 657.044C555.62 656.965 555.163 656.866 554.711 656.747C554.061 656.574 553.413 656.4 552.768 656.222L552.636 656.704C550.049 655.993 547.502 655.243 544.996 654.454L545.146 653.977C543.895 653.583 542.655 653.18 541.424 652.768L541.266 653.242C538.719 652.388 536.215 651.495 533.752 650.562L533.929 650.095C532.695 649.627 531.47 649.15 530.257 648.663L530.07 649.128C527.594 648.134 525.16 647.101 522.768 646.03L522.973 645.574C521.762 645.031 520.562 644.479 519.372 643.917L519.159 644.369C516.756 643.234 514.397 642.059 512.08 640.847L512.312 640.404C511.133 639.787 509.965 639.16 508.808 638.523L508.567 638.961C506.245 637.683 503.966 636.366 501.732 635.012L501.991 634.585C500.851 633.894 499.722 633.194 498.605 632.484L498.337 632.906C496.096 631.483 493.9 630.022 491.749 628.525L492.035 628.115C490.946 627.357 489.868 626.59 488.802 625.814L488.508 626.218C486.359 624.655 484.256 623.054 482.197 621.42L482.508 621.028C481.473 620.207 480.45 619.376 479.438 618.538L479.119 618.923C477.072 617.226 475.071 615.495 473.114 613.731L473.449 613.359C472.47 612.477 471.502 611.586 470.546 610.688L470.203 611.052C468.266 609.232 466.374 607.379 464.526 605.496L464.882 605.146C463.96 604.207 463.049 603.26 462.149 602.305L461.786 602.648C459.963 600.715 458.184 598.751 456.449 596.76L456.826 596.432C455.961 595.439 455.107 594.439 454.263 593.432L453.88 593.753C452.175 591.718 450.514 589.656 448.895 587.569L449.29 587.263C448.482 586.221 447.685 585.174 446.898 584.12L446.498 584.419C444.911 582.293 443.367 580.143 441.864 577.971L442.275 577.687C441.525 576.602 440.785 575.512 440.056 574.417L439.639 574.694C438.169 572.487 436.74 570.259 435.352 568.013L435.777 567.75C435.084 566.628 434.401 565.501 433.727 564.37L433.298 564.625C431.941 562.347 430.625 560.051 429.349 557.739L429.786 557.497C429.148 556.342 428.52 555.183 427.902 554.021L427.46 554.256C426.215 551.914 425.008 549.559 423.839 547.191L424.287 546.97C423.703 545.786 423.128 544.6 422.563 543.411L422.111 543.625C420.972 541.229 419.871 538.823 418.806 536.407L419.264 536.206C418.731 534.998 418.208 533.787 417.694 532.575L417.233 532.771C416.196 530.327 415.196 527.876 414.231 525.421L414.696 525.238C414.213 524.009 413.739 522.779 413.274 521.548L412.806 521.724C411.867 519.24 410.963 516.751 410.093 514.261L410.565 514.096C410.129 512.85 409.702 511.603 409.284 510.356L408.81 510.515C407.964 507.994 407.152 505.473 406.372 502.956L406.85 502.808C406.46 501.546 406.078 500.286 405.704 499.026L405.225 499.168C404.467 496.616 403.743 494.067 403.05 491.526L403.532 491.395C403.185 490.121 402.846 488.85 402.515 487.58L402.031 487.706C401.358 485.125 400.717 482.553 400.107 479.993L400.593 479.877C400.288 478.595 399.99 477.315 399.7 476.039L399.212 476.15C398.619 473.543 398.058 470.951 397.527 468.375L398.016 468.274C397.75 466.984 397.491 465.698 397.24 464.417L396.749 464.513C396.234 461.884 395.749 459.275 395.293 456.689L395.785 456.603C395.555 455.298 395.333 453.999 395.117 452.706L394.624 452.789C394.184 450.15 393.775 447.537 393.393 444.955L393.888 444.881C393.692 443.559 393.504 442.244 393.323 440.938L392.828 441.007C392.46 438.356 392.122 435.74 391.811 433.163L392.308 433.103C392.146 431.768 391.993 430.443 391.846 429.13L391.349 429.185C391.05 426.508 390.78 423.877 390.536 421.296L391.034 421.249C390.909 419.923 390.791 418.609 390.679 417.31L390.181 417.353C389.949 414.648 389.746 412.005 389.569 409.429L390.068 409.395C389.977 408.069 389.893 406.76 389.815 405.471L389.316 405.501C389.151 402.775 389.016 400.133 388.905 397.583L389.405 397.561C389.346 396.199 389.294 394.863 389.248 393.554L388.748 393.572C388.652 390.804 388.585 388.158 388.542 385.646L389.042 385.638C389.018 384.275 389.002 382.951 388.991 381.668L388.491 381.673C388.467 378.813 388.474 376.158 388.5 373.728L389 373.734C389.006 373.086 389.015 372.455 389.024 371.84C389.036 371.173 389.089 370.516 389.18 369.87L388.685 369.8C389.075 367.04 390.15 364.489 391.741 362.329L392.144 362.626C392.925 361.565 393.835 360.601 394.852 359.756L394.533 359.372C396.587 357.667 399.065 356.436 401.802 355.855L401.906 356.344C402.544 356.209 403.197 356.11 403.863 356.049L403.864 356.049C404.553 355.986 405.242 355.919 405.929 355.85L405.879 355.352C408.632 355.074 411.366 354.75 414.078 354.383L414.145 354.878C415.514 354.693 416.878 354.497 418.236 354.29L418.161 353.796C420.899 353.38 423.614 352.92 426.304 352.422L426.396 352.914C427.754 352.662 429.105 352.401 430.451 352.13L430.352 351.64C433.07 351.092 435.761 350.505 438.424 349.883L438.538 350.37C439.883 350.056 441.22 349.733 442.55 349.401L442.429 348.916C445.123 348.244 447.786 347.537 450.417 346.799L450.552 347.28C451.882 346.907 453.204 346.526 454.517 346.137L454.375 345.658C457.041 344.869 459.673 344.049 462.267 343.202L462.422 343.677C463.736 343.248 465.041 342.812 466.336 342.37L466.174 341.897C468.811 340.997 471.407 340.07 473.96 339.122L474.134 339.591C475.432 339.109 476.719 338.621 477.995 338.128L477.815 337.662C480.419 336.657 482.976 335.63 485.484 334.588L485.676 335.05C486.958 334.517 488.227 333.98 489.483 333.44L489.286 332.98C491.855 331.875 494.368 330.755 496.823 329.627L497.032 330.082C498.298 329.5 499.55 328.915 500.785 328.33L500.57 327.878C503.11 326.674 505.583 325.463 507.986 324.253L508.211 324.7C509.454 324.073 510.679 323.447 511.884 322.823L511.654 322.379C514.169 321.075 516.601 319.776 518.944 318.49L519.185 318.929C520.415 318.254 521.62 317.583 522.801 316.918L522.556 316.482C525.051 315.075 527.435 313.691 529.702 312.341L529.958 312.771C531.172 312.048 532.352 311.336 533.498 310.635L533.237 310.209C535.728 308.685 538.056 307.217 540.215 305.823L540.486 306.243C541.695 305.462 542.851 304.704 543.951 303.973L543.675 303.556C546.254 301.842 548.53 300.274 550.483 298.894L550.772 299.302C551.359 298.887 551.917 298.49 552.445 298.11L552.445 298.11C553.073 297.658 553.736 297.281 554.425 296.977L554.223 296.52C557.174 295.219 560.556 295.219 563.507 296.52L563.305 296.977C563.994 297.281 564.658 297.658 565.285 298.11L565.286 298.11C565.814 298.49 566.373 298.887 566.96 299.301L567.248 298.893C569.203 300.271 571.481 301.839 574.061 303.552L573.784 303.968C574.886 304.7 576.042 305.457 577.252 306.238L577.523 305.818C579.682 307.212 582.012 308.679 584.503 310.202L584.243 310.629C585.389 311.33 586.569 312.042 587.783 312.764L588.039 312.335C590.307 313.684 592.692 315.068 595.188 316.475L594.942 316.911C596.123 317.576 597.329 318.247 598.56 318.922L598.8 318.483C601.144 319.769 603.576 321.068 606.092 322.372L605.862 322.815C607.067 323.44 608.292 324.067 609.536 324.693L609.761 324.246C612.164 325.456 614.638 326.667 617.178 327.872L616.964 328.323C618.199 328.909 619.451 329.493 620.717 330.075L620.926 329.621C623.382 330.749 625.896 331.869 628.465 332.975L628.267 333.434C629.524 333.974 630.793 334.511 632.076 335.044L632.268 334.583C634.776 335.625 637.333 336.652 639.938 337.657L639.758 338.124C641.034 338.616 642.321 339.104 643.62 339.586L643.794 339.118C646.348 340.066 648.944 340.993 651.581 341.893L651.419 342.366C652.715 342.809 654.02 343.245 655.334 343.674L655.489 343.198C658.084 344.046 660.716 344.866 663.383 345.655L663.241 346.135C664.554 346.523 665.876 346.905 667.206 347.278L667.342 346.797C669.973 347.535 672.637 348.242 675.331 348.914L675.21 349.399C676.54 349.731 677.878 350.054 679.223 350.368L679.337 349.882C682 350.504 684.692 351.091 687.41 351.638L687.312 352.129C688.657 352.4 690.009 352.661 691.368 352.913L691.459 352.421C694.149 352.92 696.865 353.379 699.604 353.796L699.529 354.29C700.887 354.497 702.251 354.693 703.621 354.878L703.688 354.383C706.4 354.75 709.134 355.074 711.889 355.352L711.838 355.85C712.526 355.919 713.214 355.986 713.904 356.049L713.905 356.049C714.57 356.11 715.224 356.209 715.862 356.344L715.966 355.855C718.703 356.436 721.184 357.665 723.241 359.368L722.922 359.753C723.942 360.597 724.853 361.561 725.636 362.621L726.038 362.324C727.633 364.485 728.708 367.037 729.09 369.799L728.594 369.867C728.684 370.513 728.734 371.171 728.743 371.839L728.743 371.839C728.752 372.454 728.76 373.086 728.766 373.734Z" stroke="white" stroke-dasharray="4 8"/>
</g>
<defs>
<filter id="filter0_f_11_104" x="0" y="0" width="671" height="657" filterUnits="userSpaceOnUse" color-interpolation-filters="sRGB">
<feFlood flood-opacity="0" result="BackgroundImageFix"/>
<feBlend mode="normal" in="SourceGraphic" in2="BackgroundImageFix" result="shape"/>
<feGaussianBlur stdDeviation="75" result="effect1_foregroundBlur_11_104"/>
</filter>
<filter id="filter1_f_11_104" x="181" y="281" width="671" height="657" filterUnits="userSpaceOnUse" color-interpolation-filters="sRGB">
<feFlood flood-opacity="0" result="BackgroundImageFix"/>
<feBlend mode="normal" in="SourceGraphic" in2="BackgroundImageFix" result="shape"/>
<feGaussianBlur stdDeviation="75" result="effect1_foregroundBlur_11_104"/>
</filter>
<linearGradient id="paint0_linear_11_104" x1="335.5" y1="150" x2="335.5" y2="507" gradientUnits="userSpaceOnUse">
<stop stop-color="#4EBFFF"/>
<stop offset="1" stop-color="#BD69FF"/>
</linearGradient>
<linearGradient id="paint1_linear_11_104" x1="516.5" y1="431" x2="516.5" y2="788" gradientUnits="userSpaceOnUse">
<stop stop-color="#4EBFFF"/>
<stop offset="1" stop-color="#BD69FF"/>
</linearGradient>
</defs>
</svg>
