<svg width="849" height="938" viewBox="0 0 849 938" fill="none" xmlns="http://www.w3.org/2000/svg">
<rect width="604" height="638" transform="translate(150 150)" fill="black"/>
<g opacity="0.25" filter="url(#filter0_f_11_114)">
<ellipse cx="334.5" cy="328.5" rx="184.5" ry="178.5" fill="url(#paint0_linear_11_114)"/>
</g>
<g opacity="0.25" filter="url(#filter1_f_11_114)">
<ellipse cx="514.5" cy="609.5" rx="184.5" ry="178.5" fill="url(#paint1_linear_11_114)"/>
</g>
<g transform="translate(150 150)" style="mix-blend-mode:overlay" opacity="0.8">
	<path fill="none" stroke="#FFFFFF" stroke-dasharray="4 8" d="M249.7 272.7c-13.5 0-20.2 5.7-20.3 13.5c-0.3 8.6 8 12.9 21 15.7 l12.3 2.8c28.3 6.2 43.9 20.3 44 43.2c-0.1 27.3-21.3 43.5-57.1 43.5c-36.1 0-59.5-16.1-59.9-49.7H223c0.8 13.8 10.9 21 26.2 21 c14 0 22.2-6.1 22.3-14.9c-0.1-8.1-7.2-12.3-23-16l-15-3.5c-24.8-5.7-40.1-18-40.1-39.8c-0.2-26.7 23.4-44.6 56.3-44.6 c33.4 0 54.8 18.2 55.1 45h-33.3C270.6 278.8 263.2 272.7 249.7 272.7z"/>
	<path fill="none" stroke="#FFFFFF" stroke-dasharray="4 8" d="M320.6 246h100.2v28.2h-65.5v29.5h60.3v28.3h-60.3v29.5h65.5v28.2 H320.6V246z"/>
	<path fill="none" stroke="#FFFFFF" stroke-dasharray="4 8" d="M505.8 391.6c-38.7 0-68.5-26.5-68.5-73.8 c0-47.5 29.8-73.8 68.5-73.8c38.6 0 68.6 26.3 68.6 73.8S544.4 391.6 505.8 391.6z M505.8 274.4c-20.7 0-33.1 15.2-33.1 43.4 c0 28.1 12.4 43.4 33.1 43.4c20.8 0 33.1-15.2 33.1-43.4C538.9 289.7 526.6 274.4 505.8 274.4z"/>
</g>
<g transform="translate(150 150)" style="mix-blend-mode:overlay" opacity="0.8">
	<path fill="none" stroke="#FFFFFF" stroke-dasharray="4 8" d="M249.5 272.9c-13.5 0-20.2 5.7-20.3 13.5c-0.3 8.6 8 12.9 21 15.7 l12.3 2.8c28.3 6.2 43.9 20.3 44 43.2c-0.1 27.3-21.3 43.5-57.1 43.5c-36.1 0-59.5-16.1-59.9-49.7h33.3c0.8 13.8 10.9 21 26.2 21 c14 0 22.2-6.1 22.3-14.9c-0.1-8.1-7.2-12.3-23-16l-15-3.5c-24.8-5.7-40.1-18-40.1-39.8c-0.2-26.7 23.4-44.6 56.3-44.6 c33.4 0 54.8 18.2 55.1 45h-33.3C270.5 279 263.1 272.9 249.5 272.9z"/>
	<path fill="none" stroke="#FFFFFF" stroke-dasharray="4 8" d="M320.5 246.1h100.2v28.2h-65.5v29.5h60.3v28.3h-60.3v29.5h65.5v28.2 H320.5V246.1z"/>
	<path fill="none" stroke="#FFFFFF" stroke-dasharray="4 8" d="M505.7 391.8c-38.7 0-68.5-26.5-68.5-73.8 c0-47.5 29.8-73.8 68.5-73.8c38.6 0 68.6 26.3 68.6 73.8S544.3 391.8 505.7 391.8z M505.7 274.6c-20.7 0-33.1 15.2-33.1 43.4 c0 28.1 12.4 43.4 33.1 43.4c20.8 0 33.1-15.2 33.1-43.4C538.8 289.8 526.5 274.6 505.7 274.6z"/>
</g>
<defs>
<filter id="filter0_f_11_114" x="0" y="0" width="669" height="657" filterUnits="userSpaceOnUse" color-interpolation-filters="sRGB">
<feFlood flood-opacity="0" result="BackgroundImageFix"/>
<feBlend mode="normal" in="SourceGraphic" in2="BackgroundImageFix" result="shape"/>
<feGaussianBlur stdDeviation="75" result="effect1_foregroundBlur_11_114"/>
</filter>
<filter id="filter1_f_11_114" x="180" y="281" width="669" height="657" filterUnits="userSpaceOnUse" color-interpolation-filters="sRGB">
<feFlood flood-opacity="0" result="BackgroundImageFix"/>
<feBlend mode="normal" in="SourceGraphic" in2="BackgroundImageFix" result="shape"/>
<feGaussianBlur stdDeviation="75" result="effect1_foregroundBlur_11_114"/>
</filter>
<linearGradient id="paint0_linear_11_114" x1="334.5" y1="150" x2="334.5" y2="507" gradientUnits="userSpaceOnUse">
<stop stop-color="#FF3358"/>
<stop offset="1" stop-color="#FF4FD8"/>
</linearGradient>
<linearGradient id="paint1_linear_11_114" x1="514.5" y1="431" x2="514.5" y2="788" gradientUnits="userSpaceOnUse">
<stop stop-color="#FF3358"/>
<stop offset="1" stop-color="#FF4FD8"/>
</linearGradient>
</defs>
</svg>
