<svg width="852" height="938" viewBox="0 0 852 938" fill="none" xmlns="http://www.w3.org/2000/svg">
<rect width="579.287" height="638" transform="translate(150 150)" fill="white"/>
<g opacity="0.15" filter="url(#filter0_f_20_86)">
<ellipse cx="335.5" cy="328.5" rx="185.5" ry="178.5" fill="url(#paint0_linear_20_86)"/>
</g>
<g opacity="0.15" filter="url(#filter1_f_20_86)">
<ellipse cx="516.5" cy="609.5" rx="185.5" ry="178.5" fill="url(#paint1_linear_20_86)"/>
</g>
<g transform="translate(-25 0)"  opacity="0.15">
			<path fill="none" stroke="#000000" stroke-dasharray="3.9868 7.9737" d="M597.4 335.1c6.7-4.3 15.4-4.3 22.1 0l98.9 62.7 c12.8 8.1 12.8 26.8 0 34.9l-98.9 62.7c-6.7 4.3-15.4 4.3-22.1 0l-98.9-62.7c-12.8-8.1-12.8-26.8 0-34.9L597.4 335.1L597.4 335.1 z"/>
			<path fill="none" stroke="#000000" stroke-dasharray="3.9582 7.9163" d="M610 350c-1-0.6-2.2-0.6-3.2 0L508 412.7 c-1.8 1.2-1.8 3.8 0 5l98.9 62.7c1 0.6 2.2 0.6 3.2 0l98.9-62.7c1.8-1.2 1.8-3.8 0-5L610 350L610 350z"/>
		</g>

	<g  transform="translate(-25 0)"  opacity="0.15">
		<path fill="none" stroke="#000000" stroke-dasharray="3.9665 7.9331" d="M488.9 463.3c2.6-4.1 8.1-5.3 12.2-2.7l105.7 67.1 c1 0.6 2.2 0.6 3.2 0l105.7-67.1c4.1-2.6 9.6-1.4 12.2 2.7c2.6 4.1 1.4 9.6-2.7 12.2l-105.7 67.1c-6.7 4.3-15.4 4.3-22.1 0 l-105.7-67.1C487.5 472.8 486.3 467.4 488.9 463.3C488.9 463.3 486.3 467.4 488.9 463.3z"/>
	</g>
	<g  transform="translate(-25 0)" opacity="0.15">
		<path fill="none" stroke="#000000" stroke-dasharray="3.9665 7.9331" d="M488.9 510.4c2.6-4.1 8.1-5.3 12.2-2.7l105.7 67.1
			c1 0.6 2.2 0.6 3.2 0l105.7-67.1c4.1-2.6 9.6-1.4 12.2 2.7c2.6 4.1 1.4 9.6-2.7 12.2l-105.7 67.1c-6.7 4.3-15.4 4.3-22.1 0 l-105.7-67.1C487.5 520 486.3 514.6 488.9 510.4C488.9 510.4 486.3 514.6 488.9 510.4z"/>
	</g>


		<g  transform="translate(-25 0)"  opacity="0.15">
			<path fill="none" stroke="#000000" stroke-dasharray="3.9868 7.9737" d="M597.4 335.1c6.7-4.3 15.4-4.3 22.1 0l98.9 62.7 c12.8 8.1 12.8 26.8 0 34.9l-98.9 62.7c-6.7 4.3-15.4 4.3-22.1 0l-98.9-62.7c-12.8-8.1-12.8-26.8 0-34.9L597.4 335.1L597.4 335.1 z"/>
			<path fill="none" stroke="#000000" stroke-dasharray="3.9582 7.9163" d="M610 350c-1-0.6-2.2-0.6-3.2 0L508 412.7 c-1.8 1.2-1.8 3.8 0 5l98.9 62.7c1 0.6 2.2 0.6 3.2 0l98.9-62.7c1.8-1.2 1.8-3.8 0-5L610 350L610 350z"/>
		</g>

	<g  transform="translate(-25 0)"  opacity="0.15">
		<path fill="none" stroke="#000000" stroke-dasharray="3.9665 7.9331" d="M488.9 463.3c2.6-4.1 8.1-5.3 12.2-2.7l105.7 67.1 c1 0.6 2.2 0.6 3.2 0l105.7-67.1c4.1-2.6 9.6-1.4 12.2 2.7c2.6 4.1 1.4 9.6-2.7 12.2l-105.7 67.1c-6.7 4.3-15.4 4.3-22.1 0 l-105.7-67.1C487.5 472.8 486.3 467.4 488.9 463.3C488.9 463.3 486.3 467.4 488.9 463.3z"/>
	</g>
	<g  transform="translate(-25 0)"  opacity="0.15">
		<path fill="none" stroke="#000000" stroke-dasharray="3.9665 7.9331" d="M488.9 510.4c2.6-4.1 8.1-5.3 12.2-2.7l105.7 67.1 c1 0.6 2.2 0.6 3.2 0l105.7-67.1c4.1-2.6 9.6-1.4 12.2 2.7c2.6 4.1 1.4 9.6-2.7 12.2l-105.7 67.1c-6.7 4.3-15.4 4.3-22.1 0 l-105.7-67.1C487.5 520 486.3 514.6 488.9 510.4C488.9 510.4 486.3 514.6 488.9 510.4z"/>
	</g>

<defs>
<filter id="filter0_f_20_86" x="0" y="0" width="671" height="657" filterUnits="userSpaceOnUse" color-interpolation-filters="sRGB">
<feFlood flood-opacity="0" result="BackgroundImageFix"/>
<feBlend mode="normal" in="SourceGraphic" in2="BackgroundImageFix" result="shape"/>
<feGaussianBlur stdDeviation="75" result="effect1_foregroundBlur_20_86"/>
</filter>
<filter id="filter1_f_20_86" x="181" y="281" width="671" height="657" filterUnits="userSpaceOnUse" color-interpolation-filters="sRGB">
<feFlood flood-opacity="0" result="BackgroundImageFix"/>
<feBlend mode="normal" in="SourceGraphic" in2="BackgroundImageFix" result="shape"/>
<feGaussianBlur stdDeviation="75" result="effect1_foregroundBlur_20_86"/>
</filter>
<linearGradient id="paint0_linear_20_86" x1="335.5" y1="150" x2="335.5" y2="507" gradientUnits="userSpaceOnUse">
<stop stop-color="#4EBFFF"/>
<stop offset="1" stop-color="#BD69FF"/>
</linearGradient>
<linearGradient id="paint1_linear_20_86" x1="516.5" y1="431" x2="516.5" y2="788" gradientUnits="userSpaceOnUse">
<stop stop-color="#4EBFFF"/>
<stop offset="1" stop-color="#BD69FF"/>
</linearGradient>
</defs>
</svg>
