<svg width="849" height="938" viewBox="0 0 849 938" fill="none" xmlns="http://www.w3.org/2000/svg">
<rect width="604" height="638" transform="translate(150 150)" fill="black"/>
<g opacity="0.25" filter="url(#filter0_f_11_114)">
<ellipse cx="334.5" cy="328.5" rx="184.5" ry="178.5" fill="url(#paint0_linear_11_114)"/>
</g>
<g opacity="0.25" filter="url(#filter1_f_11_114)">
<ellipse cx="514.5" cy="609.5" rx="184.5" ry="178.5" fill="url(#paint1_linear_11_114)"/>
</g>
<g transform="translate(100 150)" style="mix-blend-mode:overlay" opacity="0.8">
	<path fill="none" stroke="#FFFFFF" stroke-dasharray="4 8" d="M132.5 244.7h38.1l21.5 93.4h1.2l24.6-93.4h31.1l24.6 93.6h1.2 l21.6-93.6h38l-41.4 142.6h-33.2l-25.7-86.5h-1.1l-25.7 86.5H174L132.5 244.7z"/>
	<path fill="none" stroke="#FFFFFF" stroke-dasharray="4 8" d="M344.8 244.7h99.4v28h-65V302h59.9V330h-59.9v29.3h65v28h-99.4V244.7 z"/>
	<path fill="none" stroke="#FFFFFF" stroke-dasharray="4 8" d="M462.1 244.7h59.5c32 0 48.6 14.6 48.6 36.1 c0 16.3-11 27.6-26.7 30.9v1.4c17.3 0.8 32.2 13.7 32.2 34.3c0 23-18.1 39.9-49.6 39.9h-64V244.7z M515.6 303.4 c11.3 0 19.4-5.8 19.4-15.9c0-9.5-7.3-15.4-18.8-15.4h-19.6v31.3H515.6z M517.8 359.5c14.9 0 21.9-6 21.9-16.1 c0-10.9-8.1-17.9-21.2-17.9h-21.9v34H517.8z"/>
</g>
<g transform="translate(100 150)" style="mix-blend-mode:overlay" opacity="0.8">
	<path fill="none" stroke="#FFFFFF" stroke-dasharray="4 8" d="M132.5 244.7h38.1l21.5 93.4h1.2l24.6-93.4h31.1l24.6 93.6h1.2 l21.6-93.6h38l-41.4 142.6h-33.2l-25.7-86.5h-1.1l-25.7 86.5H174L132.5 244.7z"/>
	<path fill="none" stroke="#FFFFFF" stroke-dasharray="4 8" d="M344.8 244.7h99.4v28h-65V302h59.9V330h-59.9v29.3h65v28h-99.4V244.7 z"/>
	<path fill="none" stroke="#FFFFFF" stroke-dasharray="4 8" d="M462.1 244.7h59.5c32 0 48.6 14.6 48.6 36.1 c0 16.3-11 27.6-26.7 30.9v1.4c17.3 0.8 32.2 13.7 32.2 34.3c0 23-18.1 39.9-49.6 39.9h-64V244.7z M515.6 303.4 c11.3 0 19.4-5.8 19.4-15.9c0-9.5-7.3-15.4-18.8-15.4h-19.6v31.3H515.6z M517.8 359.5c14.9 0 21.9-6 21.9-16.1 c0-10.9-8.1-17.9-21.2-17.9h-21.9v34H517.8z"/>
</g>
<defs>
<filter id="filter0_f_11_114" x="0" y="0" width="669" height="657" filterUnits="userSpaceOnUse" color-interpolation-filters="sRGB">
<feFlood flood-opacity="0" result="BackgroundImageFix"/>
<feBlend mode="normal" in="SourceGraphic" in2="BackgroundImageFix" result="shape"/>
<feGaussianBlur stdDeviation="75" result="effect1_foregroundBlur_11_114"/>
</filter>
<filter id="filter1_f_11_114" x="180" y="281" width="669" height="657" filterUnits="userSpaceOnUse" color-interpolation-filters="sRGB">
<feFlood flood-opacity="0" result="BackgroundImageFix"/>
<feBlend mode="normal" in="SourceGraphic" in2="BackgroundImageFix" result="shape"/>
<feGaussianBlur stdDeviation="75" result="effect1_foregroundBlur_11_114"/>
</filter>
<linearGradient id="paint0_linear_11_114" x1="334.5" y1="150" x2="334.5" y2="507" gradientUnits="userSpaceOnUse">
<stop stop-color="#FF3358"/>
<stop offset="1" stop-color="#FF4FD8"/>
</linearGradient>
<linearGradient id="paint1_linear_11_114" x1="514.5" y1="431" x2="514.5" y2="788" gradientUnits="userSpaceOnUse">
<stop stop-color="#FF3358"/>
<stop offset="1" stop-color="#FF4FD8"/>
</linearGradient>
</defs>
</svg>
