<svg xmlns="http://www.w3.org/2000/svg" viewBox="0 0 72 59.75" class="d-block mx-auto mb-5" width="100"><path d="m40.1 13.75h-9a1 1 0 0 1 0-2h9a1 1 0 0 1 0 2zm9.2 6h-18.2a1 1 0 0 1 0-2h18.2a1 1 0 1 1 0 2zm10-6h-13.2a1 1 0 0 1 0-2h13.2a1 1 0 1 1 0 2zm0 6h-4a1 1 0 0 1 0-2h4a1 1 0 1 1 0 2z" fill="#2088ff"></path><path d="m68.6 31.6h-38.7a1 1 0 0 1 0-2h38.7a1.44 1.44 0 0 0 1.4-1.4v-24.8a1.44 1.44 0 0 0 -1.4-1.4h-65.2a1.44 1.44 0 0 0 -1.4 1.4v24.8a1.44 1.44 0 0 0 1.4 1.4h6.5a1 1 0 1 1 0 2h-6.5a3.44 3.44 0 0 1 -3.4-3.4v-24.8a3.44 3.44 0 0 1 3.4-3.4h65.2a3.45 3.45 0 0 1 3.4 3.4v24.8a3.45 3.45 0 0 1 -3.4 3.4z" fill="#79b8ff"></path><g fill="#2088ff"><path d="m20.5 16.75h-9.3a1 1 0 0 1 0-2h9.3a1 1 0 0 1 0 2z"></path><path d="m15.8 21.4a1 1 0 0 1 -1-1v-9.2a1 1 0 1 1 2 0v9.2a1 1 0 0 1 -1 1zm33.9 38.35h-27.4a7.41 7.41 0 0 1 -7.4-7.4v-22.75a4.06 4.06 0 0 1 2.66-3.85 4.12 4.12 0 0 1 4.59 1.19 15.46 15.46 0 0 1 2.25 4.38c1.37 3.53 2.6 6.58 10.26 6.58h15.14a7.41 7.41 0 0 1 7.4 7.4v7.1a7.51 7.51 0 0 1 -7.5 7.35zm-30.7-32.25a2.24 2.24 0 0 0 -.78.14 2.05 2.05 0 0 0 -1.36 2v22.8a5.47 5.47 0 0 0 5.4 5.31h27.44a5.52 5.52 0 0 0 5.5-5.43v-7a5.47 5.47 0 0 0 -5.4-5.4h-15.1c-9.07-.02-10.7-4.19-12.13-7.92a13.78 13.78 0 0 0 -2-3.81 2.06 2.06 0 0 0 -1.57-.69z"></path><circle cx="27.8" cy="48.4" r="1.7"></circle><circle cx="36.1" cy="48.4" r="1.7"></circle><circle cx="44.3" cy="48.4" r="1.7"></circle></g></svg>