
<!-- Generator: Adobe Illustrator 26.3.1, SVG Export Plug-In . SVG Version: 6.00 Build 0)  -->
<svg  xmlns="http://www.w3.org/2000/svg" xmlns:xlink="http://www.w3.org/1999/xlink" x="0px" y="0px"
	 width="480" height="320" viewBox="0 0 488 312" style="enable-background:new 0 0 488 312;" xml:space="preserve">
<style type="text/css">
	.st0{fill-opacity:0.8;stroke:#333333;}
	.st1{fill:#0070F3;}
	.st2{fill:#333333;}
	.st3{fill:#4C2889;}
	.st4{fill:#F81CE5;}
	.st5{fill:#999999;}
	.st6{fill:#666666;}
	.st7{fill:#111111;stroke:#333333;}
	.st8{fill:#444444;}
	.st9{fill:none;stroke:#333333;stroke-width:0.4108;}
	.st10{fill:#FF6059;stroke:#E14640;stroke-width:0.5;}
	.st11{fill:#FFBD2E;stroke:#DFA023;stroke-width:0.5;}
	.st12{fill:#28CA42;stroke:#1DAC2C;stroke-width:0.5;}
</style>
<path class="st0" d="M12,0.5h464c6.4,0,11.5,5.1,11.5,11.5v288c0,6.4-5.1,11.5-11.5,11.5H12c-6.4,0-11.5-5.1-11.5-11.5V12
	C0.5,5.6,5.6,0.5,12,0.5z"/>
<path class="st1" d="M26,83.9c0-2.2,1.8-4,4-4h18c2.2,0,4,1.8,4,4l0,0c0,2.2-1.8,4-4,4H30C27.8,87.9,26,86.1,26,83.9L26,83.9z"/>
<path class="st2" d="M30,80.3h18v-0.8H30V80.3z M48,87.4H30v0.8h18V87.4z M30,87.4c-2,0-3.6-1.6-3.6-3.6h-0.8c0,2.4,2,4.4,4.4,4.4
	V87.4z M51.6,83.9c0,2-1.6,3.6-3.6,3.6v0.8c2.4,0,4.4-2,4.4-4.4H51.6z M48,80.3c2,0,3.6,1.6,3.6,3.6h0.8c0-2.4-2-4.4-4.4-4.4V80.3z
	 M30,79.4c-2.4,0-4.4,2-4.4,4.4h0.8c0-2,1.6-3.6,3.6-3.6V79.4z"/>
<path class="st3" d="M26,97.9c0-2.2,1.8-4,4-4h12c2.2,0,4,1.8,4,4l0,0c0,2.2-1.8,4-4,4H30C27.8,101.9,26,100.1,26,97.9L26,97.9z"/>
<path class="st2" d="M30,94.3h12v-0.8H30V94.3z M42,101.4H30v0.8h12V101.4z M30,101.4c-2,0-3.6-1.6-3.6-3.6h-0.8
	c0,2.4,2,4.4,4.4,4.4V101.4z M45.6,97.9c0,2-1.6,3.6-3.6,3.6v0.8c2.4,0,4.4-2,4.4-4.4H45.6z M42,94.3c2,0,3.6,1.6,3.6,3.6h0.8
	c0-2.4-2-4.4-4.4-4.4V94.3z M30,93.4c-2.4,0-4.4,2-4.4,4.4h0.8c0-2,1.6-3.6,3.6-3.6V93.4z"/>
<path class="st4" d="M52,97.9c0-2.2,1.8-4,4-4h32c2.2,0,4,1.8,4,4l0,0c0,2.2-1.8,4-4,4H56C53.8,101.9,52,100.1,52,97.9L52,97.9z"/>
<path class="st2" d="M56,94.3h32v-0.8H56V94.3z M88,101.4H56v0.8h32V101.4z M56,101.4c-2,0-3.6-1.6-3.6-3.6h-0.8
	c0,2.4,2,4.4,4.4,4.4V101.4z M91.6,97.9c0,2-1.6,3.6-3.6,3.6v0.8c2.4,0,4.4-2,4.4-4.4H91.6z M88,94.3c2,0,3.6,1.6,3.6,3.6h0.8
	c0-2.4-2-4.4-4.4-4.4V94.3z M56,93.4c-2.4,0-4.4,2-4.4,4.4h0.8c0-2,1.6-3.6,3.6-3.6V93.4z"/>
<path class="st4" d="M98,97.9c0-2.2,1.8-4,4-4h12c2.2,0,4,1.8,4,4l0,0c0,2.2-1.8,4-4,4h-12C99.8,101.9,98,100.1,98,97.9L98,97.9z"/>
<path class="st2" d="M102,94.3h12v-0.8h-12V94.3z M114,101.4h-12v0.8h12V101.4z M102,101.4c-2,0-3.6-1.6-3.6-3.6h-0.8
	c0,2.4,2,4.4,4.4,4.4V101.4z M117.6,97.9c0,2-1.6,3.6-3.6,3.6v0.8c2.4,0,4.4-2,4.4-4.4H117.6z M114,94.3c2,0,3.6,1.6,3.6,3.6h0.8
	c0-2.4-2-4.4-4.4-4.4V94.3z M102,93.4c-2.4,0-4.4,2-4.4,4.4h0.8c0-2,1.6-3.6,3.6-3.6V93.4z"/>
<path class="st2" d="M12,69.9c0-2.2,1.8-4,4-4l0,0c2.2,0,4,1.8,4,4l0,0c0,2.2-1.8,4-4,4l0,0C13.8,73.9,12,72.1,12,69.9L12,69.9z"/>
<path class="st2" d="M16,73.4c-2,0-3.6-1.6-3.6-3.6h-0.8c0,2.4,2,4.4,4.4,4.4V73.4z M19.6,69.9c0,2-1.6,3.6-3.6,3.6v0.8
	c2.4,0,4.4-2,4.4-4.4H19.6z M16,66.3c2,0,3.6,1.6,3.6,3.6h0.8c0-2.4-2-4.4-4.4-4.4V66.3z M16,65.4c-2.4,0-4.4,2-4.4,4.4h0.8
	c0-2,1.6-3.6,3.6-3.6V65.4z"/>
<path class="st1" d="M26,69.9c0-2.2,1.8-4,4-4h32c2.2,0,4,1.8,4,4l0,0c0,2.2-1.8,4-4,4H30C27.8,73.9,26,72.1,26,69.9L26,69.9z"/>
<path class="st2" d="M30,66.3h32v-0.8H30V66.3z M62,73.4H30v0.8h32V73.4z M30,73.4c-2,0-3.6-1.6-3.6-3.6h-0.8c0,2.4,2,4.4,4.4,4.4
	V73.4z M65.6,69.9c0,2-1.6,3.6-3.6,3.6v0.8c2.4,0,4.4-2,4.4-4.4H65.6z M62,66.3c2,0,3.6,1.6,3.6,3.6h0.8c0-2.4-2-4.4-4.4-4.4V66.3z
	 M30,65.4c-2.4,0-4.4,2-4.4,4.4h0.8c0-2,1.6-3.6,3.6-3.6V65.4z"/>
<path class="st4" d="M72,69.9c0-2.2,1.8-4,4-4h12c2.2,0,4,1.8,4,4l0,0c0,2.2-1.8,4-4,4H76C73.8,73.9,72,72.1,72,69.9L72,69.9z"/>
<path class="st2" d="M76,66.3h12v-0.8H76V66.3z M88,73.4H76v0.8h12V73.4z M76,73.4c-2,0-3.6-1.6-3.6-3.6h-0.8c0,2.4,2,4.4,4.4,4.4
	V73.4z M91.6,69.9c0,2-1.6,3.6-3.6,3.6v0.8c2.4,0,4.4-2,4.4-4.4H91.6z M88,66.3c2,0,3.6,1.6,3.6,3.6h0.8c0-2.4-2-4.4-4.4-4.4V66.3z
	 M76,65.4c-2.4,0-4.4,2-4.4,4.4h0.8c0-2,1.6-3.6,3.6-3.6V65.4z"/>
<path class="st2" d="M12,83.9c0-2.2,1.8-4,4-4l0,0c2.2,0,4,1.8,4,4l0,0c0,2.2-1.8,4-4,4l0,0C13.8,87.9,12,86.1,12,83.9L12,83.9z"/>
<path class="st2" d="M16,87.4c-2,0-3.6-1.6-3.6-3.6h-0.8c0,2.4,2,4.4,4.4,4.4V87.4z M19.6,83.9c0,2-1.6,3.6-3.6,3.6v0.8
	c2.4,0,4.4-2,4.4-4.4H19.6z M16,80.3c2,0,3.6,1.6,3.6,3.6h0.8c0-2.4-2-4.4-4.4-4.4V80.3z M16,79.4c-2.4,0-4.4,2-4.4,4.4h0.8
	c0-2,1.6-3.6,3.6-3.6V79.4z"/>
<path class="st2" d="M12,97.9c0-2.2,1.8-4,4-4l0,0c2.2,0,4,1.8,4,4l0,0c0,2.2-1.8,4-4,4l0,0C13.8,101.9,12,100.1,12,97.9L12,97.9z"
	/>
<path class="st2" d="M16,101.4c-2,0-3.6-1.6-3.6-3.6h-0.8c0,2.4,2,4.4,4.4,4.4V101.4z M19.6,97.9c0,2-1.6,3.6-3.6,3.6v0.8
	c2.4,0,4.4-2,4.4-4.4H19.6z M16,94.3c2,0,3.6,1.6,3.6,3.6h0.8c0-2.4-2-4.4-4.4-4.4V94.3z M16,93.4c-2.4,0-4.4,2-4.4,4.4h0.8
	c0-2,1.6-3.6,3.6-3.6V93.4z"/>
<path class="st2" d="M12,111.9c0-2.2,1.8-4,4-4l0,0c2.2,0,4,1.8,4,4l0,0c0,2.2-1.8,4-4,4l0,0C13.8,115.9,12,114.1,12,111.9L12,111.9
	z"/>
<path class="st2" d="M16,115.4c-2,0-3.6-1.6-3.6-3.6h-0.8c0,2.4,2,4.4,4.4,4.4V115.4z M19.6,111.9c0,2-1.6,3.6-3.6,3.6v0.8
	c2.4,0,4.4-2,4.4-4.4H19.6z M16,108.3c2,0,3.6,1.6,3.6,3.6h0.8c0-2.4-2-4.4-4.4-4.4V108.3z M16,107.4c-2.4,0-4.4,2-4.4,4.4h0.8
	c0-2,1.6-3.6,3.6-3.6V107.4z"/>
<path class="st5" d="M12,125.9c0-2.2,1.8-4,4-4l0,0c2.2,0,4,1.8,4,4l0,0c0,2.2-1.8,4-4,4l0,0C13.8,129.9,12,128.1,12,125.9L12,125.9
	z"/>
<path class="st2" d="M16,129.4c-2,0-3.6-1.6-3.6-3.6h-0.8c0,2.4,2,4.4,4.4,4.4V129.4z M19.6,125.9c0,2-1.6,3.6-3.6,3.6v0.8
	c2.4,0,4.4-2,4.4-4.4H19.6z M16,122.3c2,0,3.6,1.6,3.6,3.6h0.8c0-2.4-2-4.4-4.4-4.4V122.3z M16,121.4c-2.4,0-4.4,2-4.4,4.4h0.8
	c0-2,1.6-3.6,3.6-3.6V121.4z"/>
<path class="st2" d="M12,139.9c0-2.2,1.8-4,4-4l0,0c2.2,0,4,1.8,4,4l0,0c0,2.2-1.8,4-4,4l0,0C13.8,143.9,12,142.1,12,139.9L12,139.9
	z"/>
<path class="st2" d="M16,143.4c-2,0-3.6-1.6-3.6-3.6h-0.8c0,2.4,2,4.4,4.4,4.4V143.4z M19.6,139.9c0,2-1.6,3.6-3.6,3.6v0.8
	c2.4,0,4.4-2,4.4-4.4H19.6z M16,136.3c2,0,3.6,1.6,3.6,3.6h0.8c0-2.4-2-4.4-4.4-4.4V136.3z M16,135.4c-2.4,0-4.4,2-4.4,4.4h0.8
	c0-2,1.6-3.6,3.6-3.6V135.4z"/>
<path class="st2" d="M12,153.9c0-2.2,1.8-4,4-4l0,0c2.2,0,4,1.8,4,4l0,0c0,2.2-1.8,4-4,4l0,0C13.8,157.9,12,156.1,12,153.9L12,153.9
	z"/>
<path class="st2" d="M16,157.4c-2,0-3.6-1.6-3.6-3.6h-0.8c0,2.4,2,4.4,4.4,4.4V157.4z M19.6,153.9c0,2-1.6,3.6-3.6,3.6v0.8
	c2.4,0,4.4-2,4.4-4.4H19.6z M16,150.3c2,0,3.6,1.6,3.6,3.6h0.8c0-2.4-2-4.4-4.4-4.4V150.3z M16,149.4c-2.4,0-4.4,2-4.4,4.4h0.8
	c0-2,1.6-3.6,3.6-3.6V149.4z"/>
<path class="st2" d="M12,167.9c0-2.2,1.8-4,4-4l0,0c2.2,0,4,1.8,4,4l0,0c0,2.2-1.8,4-4,4l0,0C13.8,171.9,12,170.1,12,167.9L12,167.9
	z"/>
<path class="st2" d="M16,171.4c-2,0-3.6-1.6-3.6-3.6h-0.8c0,2.4,2,4.4,4.4,4.4V171.4z M19.6,167.9c0,2-1.6,3.6-3.6,3.6v0.8
	c2.4,0,4.4-2,4.4-4.4H19.6z M16,164.3c2,0,3.6,1.6,3.6,3.6h0.8c0-2.4-2-4.4-4.4-4.4V164.3z M16,163.4c-2.4,0-4.4,2-4.4,4.4h0.8
	c0-2,1.6-3.6,3.6-3.6V163.4z"/>
<path class="st1" d="M26,111.9c0-2.2,1.8-4,4-4h32c2.2,0,4,1.8,4,4l0,0c0,2.2-1.8,4-4,4H30C27.8,115.9,26,114.1,26,111.9L26,111.9z"
	/>
<path class="st2" d="M30,108.3h32v-0.8H30V108.3z M62,115.4H30v0.8h32V115.4z M30,115.4c-2,0-3.6-1.6-3.6-3.6h-0.8
	c0,2.4,2,4.4,4.4,4.4V115.4z M65.6,111.9c0,2-1.6,3.6-3.6,3.6v0.8c2.4,0,4.4-2,4.4-4.4H65.6z M62,108.3c2,0,3.6,1.6,3.6,3.6h0.8
	c0-2.4-2-4.4-4.4-4.4V108.3z M30,107.4c-2.4,0-4.4,2-4.4,4.4h0.8c0-2,1.6-3.6,3.6-3.6V107.4z"/>
<path class="st1" d="M26,125.9c0-2.2,1.8-4,4-4h44c2.2,0,4,1.8,4,4l0,0c0,2.2-1.8,4-4,4H30C27.8,129.9,26,128.1,26,125.9L26,125.9z"
	/>
<path class="st2" d="M30,122.3h44v-0.8H30V122.3z M74,129.4H30v0.8h44V129.4z M30,129.4c-2,0-3.6-1.6-3.6-3.6h-0.8
	c0,2.4,2,4.4,4.4,4.4V129.4z M77.6,125.9c0,2-1.6,3.6-3.6,3.6v0.8c2.4,0,4.4-2,4.4-4.4H77.6z M74,122.3c2,0,3.6,1.6,3.6,3.6h0.8
	c0-2.4-2-4.4-4.4-4.4V122.3z M30,121.4c-2.4,0-4.4,2-4.4,4.4h0.8c0-2,1.6-3.6,3.6-3.6V121.4z"/>
<path class="st3" d="M26,139.9c0-2.2,1.8-4,4-4h18c2.2,0,4,1.8,4,4l0,0c0,2.2-1.8,4-4,4H30C27.8,143.9,26,142.1,26,139.9L26,139.9z"
	/>
<path class="st2" d="M30,136.3h18v-0.8H30V136.3z M48,143.4H30v0.8h18V143.4z M30,143.4c-2,0-3.6-1.6-3.6-3.6h-0.8
	c0,2.4,2,4.4,4.4,4.4V143.4z M51.6,139.9c0,2-1.6,3.6-3.6,3.6v0.8c2.4,0,4.4-2,4.4-4.4H51.6z M48,136.3c2,0,3.6,1.6,3.6,3.6h0.8
	c0-2.4-2-4.4-4.4-4.4V136.3z M30,135.4c-2.4,0-4.4,2-4.4,4.4h0.8c0-2,1.6-3.6,3.6-3.6V135.4z"/>
<path class="st1" d="M26,153.9c0-2.2,1.8-4,4-4h12c2.2,0,4,1.8,4,4l0,0c0,2.2-1.8,4-4,4H30C27.8,157.9,26,156.1,26,153.9L26,153.9z"
	/>
<path class="st2" d="M30,150.3h12v-0.8H30V150.3z M42,157.4H30v0.8h12V157.4z M30,157.4c-2,0-3.6-1.6-3.6-3.6h-0.8
	c0,2.4,2,4.4,4.4,4.4V157.4z M45.6,153.9c0,2-1.6,3.6-3.6,3.6v0.8c2.4,0,4.4-2,4.4-4.4H45.6z M42,150.3c2,0,3.6,1.6,3.6,3.6h0.8
	c0-2.4-2-4.4-4.4-4.4V150.3z M30,149.4c-2.4,0-4.4,2-4.4,4.4h0.8c0-2,1.6-3.6,3.6-3.6V149.4z"/>
<path class="st1" d="M52,153.9c0-2.2,1.8-4,4-4h32c2.2,0,4,1.8,4,4l0,0c0,2.2-1.8,4-4,4H56C53.8,157.9,52,156.1,52,153.9L52,153.9z"
	/>
<path class="st2" d="M56,150.3h32v-0.8H56V150.3z M88,157.4H56v0.8h32V157.4z M56,157.4c-2,0-3.6-1.6-3.6-3.6h-0.8
	c0,2.4,2,4.4,4.4,4.4V157.4z M91.6,153.9c0,2-1.6,3.6-3.6,3.6v0.8c2.4,0,4.4-2,4.4-4.4H91.6z M88,150.3c2,0,3.6,1.6,3.6,3.6h0.8
	c0-2.4-2-4.4-4.4-4.4V150.3z M56,149.4c-2.4,0-4.4,2-4.4,4.4h0.8c0-2,1.6-3.6,3.6-3.6V149.4z"/>
<path class="st3" d="M58,139.9c0-2.2,1.8-4,4-4h12c2.2,0,4,1.8,4,4l0,0c0,2.2-1.8,4-4,4H62C59.8,143.9,58,142.1,58,139.9L58,139.9z"
	/>
<path class="st2" d="M62,136.3h12v-0.8H62V136.3z M74,143.4H62v0.8h12V143.4z M62,143.4c-2,0-3.6-1.6-3.6-3.6h-0.8
	c0,2.4,2,4.4,4.4,4.4V143.4z M77.6,139.9c0,2-1.6,3.6-3.6,3.6v0.8c2.4,0,4.4-2,4.4-4.4H77.6z M74,136.3c2,0,3.6,1.6,3.6,3.6h0.8
	c0-2.4-2-4.4-4.4-4.4V136.3z M62,135.4c-2.4,0-4.4,2-4.4,4.4h0.8c0-2,1.6-3.6,3.6-3.6V135.4z"/>
<path class="st3" d="M26,167.9c0-2.2,1.8-4,4-4h32c2.2,0,4,1.8,4,4l0,0c0,2.2-1.8,4-4,4H30C27.8,171.9,26,170.1,26,167.9L26,167.9z"
	/>
<path class="st2" d="M30,164.3h32v-0.8H30V164.3z M62,171.4H30v0.8h32V171.4z M30,171.4c-2,0-3.6-1.6-3.6-3.6h-0.8
	c0,2.4,2,4.4,4.4,4.4V171.4z M65.6,167.9c0,2-1.6,3.6-3.6,3.6v0.8c2.4,0,4.4-2,4.4-4.4H65.6z M62,164.3c2,0,3.6,1.6,3.6,3.6h0.8
	c0-2.4-2-4.4-4.4-4.4V164.3z M30,163.4c-2.4,0-4.4,2-4.4,4.4h0.8c0-2,1.6-3.6,3.6-3.6V163.4z"/>
<path class="st1" d="M72,167.9c0-2.2,1.8-4,4-4h18c2.2,0,4,1.8,4,4l0,0c0,2.2-1.8,4-4,4H76C73.8,171.9,72,170.1,72,167.9L72,167.9z"
	/>
<path class="st2" d="M76,164.3h18v-0.8H76V164.3z M94,171.4H76v0.8h18V171.4z M76,171.4c-2,0-3.6-1.6-3.6-3.6h-0.8
	c0,2.4,2,4.4,4.4,4.4V171.4z M97.6,167.9c0,2-1.6,3.6-3.6,3.6v0.8c2.4,0,4.4-2,4.4-4.4H97.6z M94,164.3c2,0,3.6,1.6,3.6,3.6h0.8
	c0-2.4-2-4.4-4.4-4.4V164.3z M76,163.4c-2.4,0-4.4,2-4.4,4.4h0.8c0-2,1.6-3.6,3.6-3.6V163.4z"/>
<path class="st4" d="M58,83.9c0-2.2,1.8-4,4-4h44c2.2,0,4,1.8,4,4l0,0c0,2.2-1.8,4-4,4H62C59.8,87.9,58,86.1,58,83.9L58,83.9z"/>
<path class="st2" d="M62,80.3h44v-0.8H62V80.3z M106,87.4H62v0.8h44V87.4z M62,87.4c-2,0-3.6-1.6-3.6-3.6h-0.8c0,2.4,2,4.4,4.4,4.4
	V87.4z M109.6,83.9c0,2-1.6,3.6-3.6,3.6v0.8c2.4,0,4.4-2,4.4-4.4H109.6z M106,80.3c2,0,3.6,1.6,3.6,3.6h0.8c0-2.4-2-4.4-4.4-4.4
	V80.3z M62,79.4c-2.4,0-4.4,2-4.4,4.4h0.8c0-2,1.6-3.6,3.6-3.6V79.4z"/>
<path class="st1" d="M72,111.9c0-2.2,1.8-4,4-4h18c2.2,0,4,1.8,4,4l0,0c0,2.2-1.8,4-4,4H76C73.8,115.9,72,114.1,72,111.9L72,111.9z"
	/>
<path class="st2" d="M76,108.3h18v-0.8H76V108.3z M94,115.4H76v0.8h18V115.4z M76,115.4c-2,0-3.6-1.6-3.6-3.6h-0.8
	c0,2.4,2,4.4,4.4,4.4V115.4z M97.6,111.9c0,2-1.6,3.6-3.6,3.6v0.8c2.4,0,4.4-2,4.4-4.4H97.6z M94,108.3c2,0,3.6,1.6,3.6,3.6h0.8
	c0-2.4-2-4.4-4.4-4.4V108.3z M76,107.4c-2.4,0-4.4,2-4.4,4.4h0.8c0-2,1.6-3.6,3.6-3.6V107.4z"/>
<path class="st6" d="M12.1,48c0-2.2,1.8-4,4-4h44c2.2,0,4,1.8,4,4l0,0c0,2.2-1.8,4-4,4h-44C13.9,52,12.1,50.2,12.1,48L12.1,48z"/>
<path class="st2" d="M16.1,44.4h44v-0.8h-44V44.4z M60.1,51.6h-44v0.8h44V51.6z M16.1,51.6c-2,0-3.6-1.6-3.6-3.6h-0.8
	c0,2.4,2,4.4,4.4,4.4V51.6z M63.7,48c0,2-1.6,3.6-3.6,3.6v0.8c2.4,0,4.4-2,4.4-4.4H63.7z M60.1,44.4c2,0,3.6,1.6,3.6,3.6h0.8
	c0-2.4-2-4.4-4.4-4.4V44.4z M16.1,43.6c-2.4,0-4.4,2-4.4,4.4h0.8c0-2,1.6-3.6,3.6-3.6V43.6z"/>
<path class="st0" d="M0.5,12C0.5,5.6,5.6,0.5,12,0.5h464c6.4,0,11.5,5.1,11.5,11.5v15.5H0.5V12z"/>
<path class="st2" d="M113,10c0-2.2,1.8-4,4-4h254c2.2,0,4,1.8,4,4v8.4c0,2.2-1.8,4-4,4H117c-2.2,0-4-1.8-4-4V10z"/>
<path class="st2" d="M117,6.4h254V5.6H117V6.4z M374.6,10v8.4h0.8V10H374.6z M371,22H117v0.8h254V22z M113.4,18.4V10h-0.8v8.4H113.4
	z M117,22c-2,0-3.6-1.6-3.6-3.6h-0.8c0,2.4,2,4.4,4.4,4.4V22z M374.6,18.4c0,2-1.6,3.6-3.6,3.6v0.8c2.4,0,4.4-2,4.4-4.4H374.6z
	 M371,6.4c2,0,3.6,1.6,3.6,3.6h0.8c0-2.4-2-4.4-4.4-4.4V6.4z M117,5.6c-2.4,0-4.4,2-4.4,4.4h0.8c0-2,1.6-3.6,3.6-3.6V5.6z"/>
<path class="st7" d="M168.5,27.5h319V300c0,6.4-5.1,11.5-11.5,11.5H168.5V27.5z"/>
<path class="st8" d="M293,126c0-4.4,3.6-8,8-8h156c4.4,0,8,3.6,8,8v24c0,4.4-3.6,8-8,8H301c-4.4,0-8-3.6-8-8V126z"/>
<path class="st2" d="M301,119h156v-2H301V119z M464,126v24h2v-24H464z M457,157H301v2h156V157z M294,150v-24h-2v24H294z M301,157
	c-3.9,0-7-3.1-7-7h-2c0,5,4,9,9,9V157z M464,150c0,3.9-3.1,7-7,7v2c5,0,9-4,9-9H464z M457,119c3.9,0,7,3.1,7,7h2c0-5-4-9-9-9V119z
	 M301,117c-5,0-9,4-9,9h2c0-3.9,3.1-7,7-7V117z"/>
<path class="st8" d="M293,200c0-4.4,3.6-8,8-8h156c4.4,0,8,3.6,8,8v24c0,4.4-3.6,8-8,8H301c-4.4,0-8-3.6-8-8V200z"/>
<path class="st2" d="M301,193h156v-2H301V193z M464,200v24h2v-24H464z M457,231H301v2h156V231z M294,224v-24h-2v24H294z M301,231
	c-3.9,0-7-3.1-7-7h-2c0,5,4,9,9,9V231z M464,224c0,3.9-3.1,7-7,7v2c5,0,9-4,9-9H464z M457,193c3.9,0,7,3.1,7,7h2c0-5-4-9-9-9V193z
	 M301,191c-5,0-9,4-9,9h2c0-3.9,3.1-7,7-7V191z"/>
<path class="st5" d="M293,104c0-2.2,1.8-4,4-4h74c2.2,0,4,1.8,4,4l0,0c0,2.2-1.8,4-4,4h-74C294.8,108,293,106.2,293,104L293,104z"/>
<path class="st2" d="M297,100.4h74v-0.8h-74V100.4z M371,107.6h-74v0.8h74V107.6z M297,107.6c-2,0-3.6-1.6-3.6-3.6h-0.8
	c0,2.4,2,4.4,4.4,4.4V107.6z M374.6,104c0,2-1.6,3.6-3.6,3.6v0.8c2.4,0,4.4-2,4.4-4.4H374.6z M371,100.4c2,0,3.6,1.6,3.6,3.6h0.8
	c0-2.4-2-4.4-4.4-4.4V100.4z M297,99.6c-2.4,0-4.4,2-4.4,4.4h0.8c0-2,1.6-3.6,3.6-3.6V99.6z"/>
<path class="st5" d="M293,178c0-2.2,1.8-4,4-4h74c2.2,0,4,1.8,4,4l0,0c0,2.2-1.8,4-4,4h-74C294.8,182,293,180.2,293,178L293,178z"/>
<path class="st2" d="M297,174.4h74v-0.8h-74V174.4z M371,181.6h-74v0.8h74V181.6z M297,181.6c-2,0-3.6-1.6-3.6-3.6h-0.8
	c0,2.4,2,4.4,4.4,4.4V181.6z M374.6,178c0,2-1.6,3.6-3.6,3.6v0.8c2.4,0,4.4-2,4.4-4.4H374.6z M371,174.4c2,0,3.6,1.6,3.6,3.6h0.8
	c0-2.4-2-4.4-4.4-4.4V174.4z M297,173.6c-2.4,0-4.4,2-4.4,4.4h0.8c0-2,1.6-3.6,3.6-3.6V173.6z"/>
<path class="st2" d="M301,244.2h56c4.3,0,7.8,3.5,7.8,7.8v0c0,4.3-3.5,7.8-7.8,7.8h-56c-4.3,0-7.8-3.5-7.8-7.8v0
	C293.2,247.7,296.7,244.2,301,244.2z"/>
<path class="st5" d="M297,252c0-2.2,1.8-4,4-4h56c2.2,0,4,1.8,4,4l0,0c0,2.2-1.8,4-4,4h-56C298.8,256,297,254.2,297,252L297,252z"/>
<path class="st9" d="M301,244.2h56c4.3,0,7.8,3.5,7.8,7.8v0c0,4.3-3.5,7.8-7.8,7.8h-56c-4.3,0-7.8-3.5-7.8-7.8v0
	C293.2,247.7,296.7,244.2,301,244.2z"/>
<path class="st10" d="M19.8,14c0,2.1-1.7,3.8-3.8,3.8s-3.8-1.7-3.8-3.8s1.7-3.8,3.8-3.8S19.8,11.9,19.8,14z"/>
<path class="st11" d="M31.8,14c0,2.1-1.7,3.8-3.8,3.8s-3.8-1.7-3.8-3.8s1.7-3.8,3.8-3.8S31.8,11.9,31.8,14z"/>
<path class="st12" d="M43.8,14c0,2.1-1.7,3.8-3.8,3.8s-3.8-1.7-3.8-3.8s1.7-3.8,3.8-3.8S43.8,11.9,43.8,14z"/>
<path class="st6" d="M412,63c0-2.2,1.8-4,4-4h44c2.2,0,4,1.8,4,4l0,0c0,2.2-1.8,4-4,4h-44C413.8,67,412,65.2,412,63L412,63z"/>
<path class="st2" d="M416,59.4h44v-0.8h-44V59.4z M460,66.6h-44v0.8h44V66.6z M416,66.6c-2,0-3.6-1.6-3.6-3.6h-0.8
	c0,2.4,2,4.4,4.4,4.4V66.6z M463.6,63c0,2-1.6,3.6-3.6,3.6v0.8c2.4,0,4.4-2,4.4-4.4H463.6z M460,59.4c2,0,3.6,1.6,3.6,3.6h0.8
	c0-2.4-2-4.4-4.4-4.4V59.4z M416,58.6c-2.4,0-4.4,2-4.4,4.4h0.8c0-2,1.6-3.6,3.6-3.6V58.6z"/>
<path class="st6" d="M348,63c0-2.2,1.8-4,4-4h44c2.2,0,4,1.8,4,4l0,0c0,2.2-1.8,4-4,4h-44C349.8,67,348,65.2,348,63L348,63z"/>
<path class="st2" d="M352,59.4h44v-0.8h-44V59.4z M396,66.6h-44v0.8h44V66.6z M352,66.6c-2,0-3.6-1.6-3.6-3.6h-0.8
	c0,2.4,2,4.4,4.4,4.4V66.6z M399.6,63c0,2-1.6,3.6-3.6,3.6v0.8c2.4,0,4.4-2,4.4-4.4H399.6z M396,59.4c2,0,3.6,1.6,3.6,3.6h0.8
	c0-2.4-2-4.4-4.4-4.4V59.4z M352,58.6c-2.4,0-4.4,2-4.4,4.4h0.8c0-2,1.6-3.6,3.6-3.6V58.6z"/>
<path class="st1" d="M284,63c0-2.2,1.8-4,4-4h44c2.2,0,4,1.8,4,4l0,0c0,2.2-1.8,4-4,4h-44C285.8,67,284,65.2,284,63L284,63z"/>
<path class="st2" d="M288,59.4h44v-0.8h-44V59.4z M332,66.6h-44v0.8h44V66.6z M288,66.6c-2,0-3.6-1.6-3.6-3.6h-0.8
	c0,2.4,2,4.4,4.4,4.4V66.6z M335.6,63c0,2-1.6,3.6-3.6,3.6v0.8c2.4,0,4.4-2,4.4-4.4H335.6z M332,59.4c2,0,3.6,1.6,3.6,3.6h0.8
	c0-2.4-2-4.4-4.4-4.4V59.4z M288,58.6c-2.4,0-4.4,2-4.4,4.4h0.8c0-2,1.6-3.6,3.6-3.6V58.6z"/>
<path class="st6" d="M198.8,63c0-7.2,5.8-13,13-13l0,0c7.2,0,13,5.8,13,13l0,0c0,7.2-5.8,13-13,13l0,0C204.6,76,198.8,70.2,198.8,63
	L198.8,63z"/>
<path class="st2" d="M211.8,75.6c-7,0-12.6-5.6-12.6-12.6h-0.8c0,7.4,6,13.4,13.4,13.4V75.6z M224.4,63c0,7-5.6,12.6-12.6,12.6v0.8
	c7.4,0,13.4-6,13.4-13.4H224.4z M211.8,50.4c7,0,12.6,5.6,12.6,12.6h0.8c0-7.4-6-13.4-13.4-13.4V50.4z M211.8,49.6
	c-7.4,0-13.4,6-13.4,13.4h0.8c0-7,5.6-12.6,12.6-12.6V49.6z"/>
<path class="st2" d="M199,104c0-2.2,1.8-4,4-4h32c2.2,0,4,1.8,4,4l0,0c0,2.2-1.8,4-4,4h-32C200.8,108,199,106.2,199,104L199,104z"/>
<path class="st2" d="M203,100.4h32v-0.8h-32V100.4z M235,107.6h-32v0.8h32V107.6z M203,107.6c-2,0-3.6-1.6-3.6-3.6h-0.8
	c0,2.4,2,4.4,4.4,4.4V107.6z M238.6,104c0,2-1.6,3.6-3.6,3.6v0.8c2.4,0,4.4-2,4.4-4.4H238.6z M235,100.4c2,0,3.6,1.6,3.6,3.6h0.8
	c0-2.4-2-4.4-4.4-4.4V100.4z M203,99.6c-2.4,0-4.4,2-4.4,4.4h0.8c0-2,1.6-3.6,3.6-3.6V99.6z"/>
<path class="st2" d="M199,118c0-2.2,1.8-4,4-4h18c2.2,0,4,1.8,4,4l0,0c0,2.2-1.8,4-4,4h-18C200.8,122,199,120.2,199,118L199,118z"/>
<path class="st2" d="M203,114.4h18v-0.8h-18V114.4z M221,121.6h-18v0.8h18V121.6z M203,121.6c-2,0-3.6-1.6-3.6-3.6h-0.8
	c0,2.4,2,4.4,4.4,4.4V121.6z M224.6,118c0,2-1.6,3.6-3.6,3.6v0.8c2.4,0,4.4-2,4.4-4.4H224.6z M221,114.4c2,0,3.6,1.6,3.6,3.6h0.8
	c0-2.4-2-4.4-4.4-4.4V114.4z M203,113.6c-2.4,0-4.4,2-4.4,4.4h0.8c0-2,1.6-3.6,3.6-3.6V113.6z"/>
<path class="st2" d="M199,132c0-2.2,1.8-4,4-4h12c2.2,0,4,1.8,4,4l0,0c0,2.2-1.8,4-4,4h-12C200.8,136,199,134.2,199,132L199,132z"/>
<path class="st2" d="M203,128.4h12v-0.8h-12V128.4z M215,135.6h-12v0.8h12V135.6z M203,135.6c-2,0-3.6-1.6-3.6-3.6h-0.8
	c0,2.4,2,4.4,4.4,4.4V135.6z M218.6,132c0,2-1.6,3.6-3.6,3.6v0.8c2.4,0,4.4-2,4.4-4.4H218.6z M215,128.4c2,0,3.6,1.6,3.6,3.6h0.8
	c0-2.4-2-4.4-4.4-4.4V128.4z M203,127.6c-2.4,0-4.4,2-4.4,4.4h0.8c0-2,1.6-3.6,3.6-3.6V127.6z"/>
<path class="st2" d="M225,132c0-2.2,1.8-4,4-4h32c2.2,0,4,1.8,4,4l0,0c0,2.2-1.8,4-4,4h-32C226.8,136,225,134.2,225,132L225,132z"/>
<path class="st2" d="M229,128.4h32v-0.8h-32V128.4z M261,135.6h-32v0.8h32V135.6z M229,135.6c-2,0-3.6-1.6-3.6-3.6h-0.8
	c0,2.4,2,4.4,4.4,4.4V135.6z M264.6,132c0,2-1.6,3.6-3.6,3.6v0.8c2.4,0,4.4-2,4.4-4.4H264.6z M261,128.4c2,0,3.6,1.6,3.6,3.6h0.8
	c0-2.4-2-4.4-4.4-4.4V128.4z M229,127.6c-2.4,0-4.4,2-4.4,4.4h0.8c0-2,1.6-3.6,3.6-3.6V127.6z"/>
<path class="st2" d="M231,118c0-2.2,1.8-4,4-4h12c2.2,0,4,1.8,4,4l0,0c0,2.2-1.8,4-4,4h-12C232.8,122,231,120.2,231,118L231,118z"/>
<path class="st2" d="M235,114.4h12v-0.8h-12V114.4z M247,121.6h-12v0.8h12V121.6z M235,121.6c-2,0-3.6-1.6-3.6-3.6h-0.8
	c0,2.4,2,4.4,4.4,4.4V121.6z M250.6,118c0,2-1.6,3.6-3.6,3.6v0.8c2.4,0,4.4-2,4.4-4.4H250.6z M247,114.4c2,0,3.6,1.6,3.6,3.6h0.8
	c0-2.4-2-4.4-4.4-4.4V114.4z M235,113.6c-2.4,0-4.4,2-4.4,4.4h0.8c0-2,1.6-3.6,3.6-3.6V113.6z"/>
<path class="st2" d="M199,146c0-2.2,1.8-4,4-4h32c2.2,0,4,1.8,4,4l0,0c0,2.2-1.8,4-4,4h-32C200.8,150,199,148.2,199,146L199,146z"/>
<path class="st2" d="M203,142.4h32v-0.8h-32V142.4z M235,149.6h-32v0.8h32V149.6z M203,149.6c-2,0-3.6-1.6-3.6-3.6h-0.8
	c0,2.4,2,4.4,4.4,4.4V149.6z M238.6,146c0,2-1.6,3.6-3.6,3.6v0.8c2.4,0,4.4-2,4.4-4.4H238.6z M235,142.4c2,0,3.6,1.6,3.6,3.6h0.8
	c0-2.4-2-4.4-4.4-4.4V142.4z M203,141.6c-2.4,0-4.4,2-4.4,4.4h0.8c0-2,1.6-3.6,3.6-3.6V141.6z"/>
<path class="st2" d="M199,160c0-2.2,1.8-4,4-4h44c2.2,0,4,1.8,4,4l0,0c0,2.2-1.8,4-4,4h-44C200.8,164,199,162.2,199,160L199,160z"/>
<path class="st2" d="M203,156.4h44v-0.8h-44V156.4z M247,163.6h-44v0.8h44V163.6z M203,163.6c-2,0-3.6-1.6-3.6-3.6h-0.8
	c0,2.4,2,4.4,4.4,4.4V163.6z M250.6,160c0,2-1.6,3.6-3.6,3.6v0.8c2.4,0,4.4-2,4.4-4.4H250.6z M247,156.4c2,0,3.6,1.6,3.6,3.6h0.8
	c0-2.4-2-4.4-4.4-4.4V156.4z M203,155.6c-2.4,0-4.4,2-4.4,4.4h0.8c0-2,1.6-3.6,3.6-3.6V155.6z"/>
<path class="st2" d="M245,146c0-2.2,1.8-4,4-4h18c2.2,0,4,1.8,4,4l0,0c0,2.2-1.8,4-4,4h-18C246.8,150,245,148.2,245,146L245,146z"/>
<path class="st2" d="M249,142.4h18v-0.8h-18V142.4z M267,149.6h-18v0.8h18V149.6z M249,149.6c-2,0-3.6-1.6-3.6-3.6h-0.8
	c0,2.4,2,4.4,4.4,4.4V149.6z M270.6,146c0,2-1.6,3.6-3.6,3.6v0.8c2.4,0,4.4-2,4.4-4.4H270.6z M267,142.4c2,0,3.6,1.6,3.6,3.6h0.8
	c0-2.4-2-4.4-4.4-4.4V142.4z M249,141.6c-2.4,0-4.4,2-4.4,4.4h0.8c0-2,1.6-3.6,3.6-3.6V141.6z"/>
</svg>
