<?xml version="1.0" encoding="utf-8"?>
<!-- Generator: Adobe Illustrator 26.3.1, SVG Export Plug-In . SVG Version: 6.00 Build 0)  -->
<svg version="1.1" id="Layer_1" xmlns="http://www.w3.org/2000/svg" xmlns:xlink="http://www.w3.org/1999/xlink" x="0px" y="0px"
	 viewBox="0 0 258 64" style="enable-background:new 0 0 258 64;" xml:space="preserve">
<style type="text/css">
	.st0{fill:#FFFFFF;}
	.st1{fill-rule:evenodd;clip-rule:evenodd;fill:#FFFFFF;}
	.st2{fill:none;stroke:#FFFFFF;stroke-width:1.5;stroke-linecap:round;stroke-linejoin:round;}
	.st3{fill:#FFFFFF;stroke:#000000;stroke-miterlimit:10;}
</style>
<path class="st0" d="M113.7,16h28.2v5.2h-11.2v27.4h-5.6V21.2h-11.4C113.7,21.2,113.7,16,113.7,16z M67.3,16v5.2H44.7v8.4h18.2v5.2
	H44.7v8.6h22.6v5.2H39.1V21.2h0V16C39.1,16,67.3,16,67.3,16z M81.4,16h-7.3l26.2,32.6h7.3L94.5,32.3l13.1-16.3l-7.3,0l-9.4,11.7
	L81.4,16L81.4,16z M88.9,39.3l-3.7-4.6L74,48.7h7.3L88.9,39.3z"/>
<path class="st1" d="M39.3,48.6L13,16H6v32.6h5.6V23l20.6,25.7H39.3z"/>
<path class="st0" d="M143.2,48.4c-0.4,0-0.8-0.1-1.1-0.4c-0.3-0.3-0.4-0.6-0.4-1c0-0.4,0.1-0.7,0.4-1c0.3-0.3,0.7-0.4,1.1-0.4
	c0.4,0,0.7,0.1,1,0.4c0.3,0.3,0.4,0.6,0.4,1c0,0.3-0.1,0.5-0.2,0.7c-0.1,0.2-0.3,0.4-0.5,0.5C143.7,48.4,143.4,48.4,143.2,48.4
	L143.2,48.4z M152.7,34.7h2.5v9.6c0,0.9-0.2,1.6-0.6,2.3c-0.4,0.6-0.9,1.1-1.6,1.5c-0.7,0.3-1.4,0.5-2.3,0.5c-0.8,0-1.5-0.1-2.2-0.4
	c-0.6-0.3-1.2-0.7-1.5-1.3c-0.4-0.6-0.6-1.3-0.6-2.1h2.5c0,0.4,0.1,0.7,0.2,1c0.2,0.3,0.4,0.5,0.7,0.6c0.3,0.1,0.6,0.2,1,0.2
	c0.4,0,0.7-0.1,1-0.2c0.3-0.2,0.5-0.4,0.6-0.7c0.1-0.3,0.2-0.7,0.2-1.2L152.7,34.7L152.7,34.7z M165.4,38.4c-0.1-0.6-0.3-1-0.8-1.4
	c-0.5-0.3-1.1-0.5-1.8-0.5c-0.5,0-1,0.1-1.3,0.2c-0.4,0.2-0.7,0.4-0.9,0.6c-0.2,0.3-0.3,0.6-0.3,0.9c0,0.3,0.1,0.5,0.2,0.7
	c0.1,0.2,0.3,0.4,0.5,0.5c0.2,0.1,0.5,0.3,0.8,0.4c0.3,0.1,0.6,0.2,0.8,0.2l1.3,0.3c0.5,0.1,1,0.3,1.5,0.5c0.5,0.2,0.9,0.5,1.3,0.8
	s0.7,0.7,0.9,1.1c0.2,0.4,0.3,1,0.3,1.5c0,0.8-0.2,1.5-0.6,2.1c-0.4,0.6-1,1.1-1.8,1.4c-0.8,0.3-1.7,0.5-2.8,0.5
	c-1.1,0-2-0.2-2.8-0.5c-0.8-0.3-1.4-0.8-1.8-1.4c-0.4-0.6-0.7-1.4-0.7-2.3h2.5c0,0.5,0.2,0.9,0.4,1.2c0.3,0.3,0.6,0.5,1,0.7
	c0.4,0.2,0.9,0.2,1.4,0.2c0.5,0,1-0.1,1.4-0.2c0.4-0.2,0.7-0.4,1-0.7c0.2-0.3,0.4-0.6,0.4-1c0-0.4-0.1-0.7-0.3-0.9
	c-0.2-0.2-0.5-0.4-0.9-0.6c-0.4-0.2-0.9-0.3-1.3-0.4l-1.6-0.4c-1.1-0.3-2-0.7-2.7-1.3c-0.7-0.6-1-1.4-1-2.3c0-0.8,0.2-1.5,0.7-2.1
	c0.4-0.6,1-1.1,1.8-1.4c0.8-0.3,1.6-0.5,2.6-0.5c1,0,1.8,0.2,2.6,0.5c0.7,0.3,1.3,0.8,1.7,1.4c0.4,0.6,0.6,1.3,0.7,2L165.4,38.4
	L165.4,38.4z"/>
<path class="st2" d="M191.2,25.3v14 M184.2,32.3h14"/>
<rect x="-153" y="-59" class="st3" width="3" height="0"/>
<g>
	<path class="st1" d="M232.5,15.9l14,8.1v16.2l-14,8.1l-14-8.1V24L232.5,15.9z M220.1,24.9v11.9l10.3-17.8L220.1,24.9z M232.5,18.4
		l-11.8,20.5h23.7L232.5,18.4z M242.8,40.4h-20.6l10.3,5.9L242.8,40.4z M244.9,36.7l-10.3-17.8l10.3,5.9V36.7z"/>
	<circle class="st0" cx="232.5" cy="16.8" r="3.3"/>
	<circle class="st0" cx="245.7" cy="24.4" r="3.3"/>
	<circle class="st0" cx="245.7" cy="39.7" r="3.3"/>
	<circle class="st0" cx="232.5" cy="47.3" r="3.3"/>
	<circle class="st0" cx="219.3" cy="39.7" r="3.3"/>
	<circle class="st0" cx="219.3" cy="24.4" r="3.3"/>
</g>
</svg>
