<svg aria-labelledby="refresh-badge-title" fill="none" height="104" role="img" viewBox="0 0 347 104" width="347" xmlns="http://www.w3.org/2000/svg"><title id="refresh-badge-title">A line chart with one line. Most is greyed out, but one bright green section has a reticle over it and is labeled +20%.</title><mask height="192" id="mask0_1569_6349" maskUnits="userSpaceOnUse" width="308" x="20" y="-18"><ellipse cx="174" cy="78" fill="url(#paint0_radial_1569_6349)" rx="154" ry="96"></ellipse></mask><g mask="url(#mask0_1569_6349)"><path d="M-329 42.3292L-328.14 47.261C-327.634 50.1603 -323.523 50.2997 -322.822 47.4414V47.4414V47.4414C-322.121 44.4721 -317.859 44.5795 -317.307 47.5805L-316.706 50.8556C-316.665 51.0759 -316.6 51.2909 -316.512 51.4968L-314.241 56.7881C-313.835 57.7344 -312.855 58.3011 -311.832 58.1812V58.1812C-310.99 58.0826 -310.268 57.5339 -309.948 56.749L-307.378 50.4471L-304.353 39.9104C-304.311 39.7633 -304.257 39.6197 -304.193 39.4807L-302.216 35.1996C-301.664 34.0024 -300.222 33.511 -299.053 34.1212V34.1212C-298.456 34.433 -298.025 34.9903 -297.873 35.6468L-295.242 47.0169C-295.1 47.6315 -294.767 48.1856 -294.292 48.6005L-292.225 50.4055C-292.032 50.5738 -291.861 50.7661 -291.717 50.9777L-289.244 54.6126C-288.982 54.998 -288.634 55.317 -288.227 55.5442L-286.759 56.3638C-286.141 56.7091 -285.384 56.69 -284.784 56.3141V56.3141C-283.711 55.6422 -282.293 56.1609 -281.906 57.3663L-279.579 64.6307L-276.818 71.0206C-276.604 71.5175 -276.259 71.9471 -275.82 72.2638L-273.582 73.8782C-273.462 73.9646 -273.336 74.0421 -273.204 74.11L-271.384 75.0514C-270.696 75.4069 -270.173 76.0141 -269.923 76.7463L-269.776 77.1776C-268.884 79.7881 -265.238 79.9122 -264.17 77.3684L-264.135 77.2845L-261.046 69.3507L-259.817 64.643C-259.344 62.8291 -256.753 62.8733 -256.342 64.7024V64.7024C-255.94 66.4904 -253.429 66.5885 -252.889 64.8372L-251.967 61.8507C-251.845 61.4529 -251.62 61.0942 -251.315 60.8105L-250.71 60.2479C-249.752 59.3554 -248.193 59.7288 -247.743 60.9588V60.9588C-247.115 62.6746 -244.637 62.5136 -244.236 60.7311L-243.924 59.3429C-243.512 57.5092 -240.962 57.3473 -240.321 59.1141V59.1141C-239.881 60.3258 -238.381 60.7464 -237.375 59.9399L-236.336 59.1061L-233.831 56.5011C-233.449 56.1037 -233.184 55.6087 -233.065 55.0704L-230.27 42.449C-230.196 42.1147 -230.063 41.7962 -229.878 41.5084L-229.32 40.6427C-228.337 39.1186 -226.064 39.2645 -225.284 40.9018L-224.781 41.9586C-224.378 42.805 -223.28 43.0363 -222.57 42.4245V42.4245C-221.785 41.7486 -220.565 42.1119 -220.277 43.1069L-217.908 51.3067C-217.838 51.5478 -217.739 51.7792 -217.611 51.9954L-215.072 56.3108C-214.837 56.711 -214.512 57.051 -214.123 57.3042L-212.364 58.4485C-211.882 58.762 -211.5 59.2073 -211.264 59.7315L-208.537 65.788L-205.584 70.8846C-205.494 71.0413 -205.417 71.206 -205.356 71.3766L-202.482 79.4002C-202.4 79.6276 -202.292 79.8442 -202.158 80.0456L-199.931 83.4064C-199.507 84.0469 -198.853 84.5002 -198.104 84.6727L-197.789 84.7454C-196.796 84.974 -196.006 85.722 -195.723 86.7001V86.7001C-194.945 89.3829 -191.153 89.4086 -190.34 86.7365L-190.004 85.6319L-189.895 85.3761C-188.847 82.9008 -185.299 83.0219 -184.421 85.5629L-184.322 85.8495C-184.019 86.7294 -183.242 87.3605 -182.318 87.4776V87.4776C-181.357 87.5996 -180.415 87.1429 -179.915 86.3131L-178.272 83.5836C-177.872 82.9197 -177.231 82.4363 -176.483 82.2346L-174.56 81.7163L-171.912 80.9074C-171.62 80.8183 -171.316 80.7742 -171.01 80.7767L-170.034 80.7848C-169.006 80.7933 -168.045 80.2744 -167.487 79.4097L-166.836 78.3979C-165.991 77.0862 -164.23 76.7296 -162.941 77.6088V77.6088C-162.462 77.9355 -161.893 78.1039 -161.313 78.0903L-160.868 78.0799C-159.786 78.0545 -158.801 77.4477 -158.291 76.4922L-157.062 74.1873C-156.446 73.0317 -155.152 72.4093 -153.864 72.6497L-153.355 72.7448C-153.079 72.7965 -152.811 72.8868 -152.559 73.013L-149.849 74.3742L-147.498 75.7463C-147.016 76.0273 -146.465 76.1685 -145.908 76.1539L-145.005 76.1304C-144.156 76.1083 -143.338 76.447 -142.753 77.0626L-141.291 78.6008C-140.832 79.0834 -140.226 79.3997 -139.568 79.4998L-138.39 79.679C-137.806 79.768 -137.261 80.0276 -136.824 80.4253L-134.405 82.624L-131.644 84.6365C-131.427 84.7948 -131.232 84.9816 -131.064 85.1918L-128.493 88.4197C-128.317 88.6404 -128.173 88.8848 -128.066 89.1457L-125.514 95.3377C-125.27 95.9281 -124.845 96.4254 -124.299 96.7573L-122.881 97.6201C-122.341 97.9489 -121.919 98.4401 -121.674 99.0235L-121.514 99.4044C-120.519 101.781 -117.188 101.879 -116.054 99.5654L-115.982 99.4179C-115.909 99.27 -115.849 99.1164 -115.802 98.9587L-114.701 95.2851C-114.08 93.2144 -111.186 93.1122 -110.421 95.1341V95.1341C-110.009 96.2224 -108.838 96.8204 -107.715 96.5161L-106.606 96.2156L-103.517 94.9876L-100.429 93.4459L-97.3398 91.38L-95.2623 90.3616C-94.6103 90.042 -93.8645 89.9697 -93.1633 90.1581L-91.8981 90.4981C-91.4151 90.6278 -90.9074 90.6348 -90.421 90.5184L-89.0836 90.1981C-88.4292 90.0414 -87.8464 89.6693 -87.429 89.1415L-85.8736 87.1745C-85.3113 86.4636 -84.4578 86.045 -83.5515 86.0356L-83.0031 86.0299C-82.2884 86.0225 -81.5999 85.7602 -81.0614 85.2902L-79.0208 83.5092C-78.8786 83.385 -78.7249 83.2746 -78.5619 83.1793L-77.6756 82.6612C-76.5174 81.9843 -75.0506 82.1585 -74.0832 83.088L-73.1336 84.0004C-72.8019 84.3191 -72.4013 84.5573 -71.9629 84.6965L-69.7496 85.3992C-69.6104 85.4434 -69.4746 85.4977 -69.3433 85.5617L-67.669 86.3775C-66.8951 86.7546 -65.9964 86.7811 -65.2017 86.4502L-65.0902 86.4038C-64.0423 85.9674 -62.8353 86.1975 -62.0214 86.9887L-61.4194 87.5739C-60.7607 88.2143 -59.7331 88.2778 -59.0005 87.7235V87.7235C-58.0625 87.0137 -56.7096 87.3418 -56.201 88.4024L-54.4252 92.105C-54.2095 92.5548 -53.885 92.9437 -53.4811 93.2365L-52.5575 93.9062C-51.6123 94.5914 -50.3555 94.6661 -49.3358 94.0977L-48.4705 93.6153C-48.1068 93.4125 -47.7048 93.2877 -47.2902 93.2488L-46.4772 93.1724C-45.4519 93.0762 -44.5477 92.4607 -44.082 91.5423L-41.9613 87.3599C-41.8156 87.0725 -41.7171 86.7635 -41.6697 86.4447L-40.2065 76.6115C-39.9326 74.7707 -37.2828 74.7569 -36.9897 76.5947V76.5947C-36.7039 78.3867 -34.1429 78.4372 -33.7868 76.6578L-32.6488 70.9726C-32.5359 70.4085 -32.2438 69.8959 -31.816 69.5113L-30.0295 67.9052C-29.6092 67.5272 -29.3041 67.0382 -29.1496 66.4944L-26.3786 56.7448C-26.3245 56.5546 -26.2518 56.3702 -26.1615 56.1943L-25.4487 54.8068C-24.4244 52.8125 -21.6543 52.6055 -20.3449 54.4254L-20.1197 54.7384L-19.4755 55.5633C-18.2498 57.133 -15.8629 57.0945 -14.6884 55.4862L-13.9421 54.4643L-11.2692 51.3251C-10.995 51.0031 -10.792 50.6267 -10.6735 50.2207L-9.59264 46.5167C-9.06175 44.6975 -6.48296 44.7021 -5.95851 46.5231L-5.81339 47.027C-5.39738 48.4716 -3.43779 48.6823 -2.72424 47.3591V47.3591C-2.17146 46.3341 -0.768122 46.1702 0.00603956 47.0402L1.50192 48.7213L4.5907 52.7746L6.54265 56.2063C7.18538 57.3363 8.5867 57.7854 9.76651 57.2395V57.2395C10.4047 56.9442 11.1377 56.9313 11.7859 57.2038L13.0098 57.7184C13.562 57.9506 14.0321 58.3428 14.3594 58.8445L15.6251 60.7842C16.3961 61.9658 17.8863 62.4505 19.2049 61.9486L20.0347 61.6326L20.9324 61.3432C22.2248 60.9265 23.636 61.4299 24.3729 62.5705L25.842 64.8443C26.0858 65.2217 26.2417 65.649 26.2983 66.0946L27.2287 73.4272C27.5557 76.004 31.2774 76.0352 31.6476 73.4643L31.7337 72.8666C31.9808 71.1504 34.1637 70.5663 35.2348 71.9298V71.9298C35.3958 72.1348 35.5146 72.3698 35.5843 72.621L37.882 80.9105C38.2363 82.1888 39.673 82.8218 40.8555 82.2207V82.2207C41.3669 81.9606 41.7496 81.5026 41.9145 80.953L44.6713 71.7655C44.7205 71.6016 44.7836 71.4422 44.8599 71.2891L47.6993 65.5944C47.7889 65.4147 47.8962 65.2445 48.0198 65.0863L49.7869 62.8239C50.4835 61.9321 51.6227 61.5081 52.7329 61.7276L53.3355 61.8467C53.7805 61.9347 54.1997 62.1224 54.5616 62.3957L55.4886 63.0957C56.463 63.8315 57.7861 63.9034 58.8345 63.2774L59.6053 62.8171C59.9897 62.5876 60.3177 62.2751 60.5656 61.9023L63.278 57.8227L65.235 54.1906C65.8975 52.9611 67.3209 52.3514 68.668 52.7201L68.8995 52.7834C69.2669 52.884 69.65 52.9137 70.0285 52.8708L71.5637 52.6972C72.2007 52.6251 72.8441 52.759 73.3995 53.0793L75.2597 54.1519C75.5074 54.2947 75.7334 54.4723 75.9309 54.6791L78.7221 57.6023L80.6932 59.4614C81.3901 60.1186 82.3726 60.3777 83.3029 60.1498V60.1498C84.2898 59.9079 85.3306 60.2149 86.0282 60.9537L87.3644 62.3687C87.7713 62.7996 88.0415 63.3413 88.1408 63.9256L89.6893 73.0351C90.0338 75.0612 92.876 75.2386 93.4697 73.2711V73.2711C93.8279 72.0842 95.19 71.5306 96.2746 72.1312L96.4714 72.2402C96.9724 72.5175 97.3403 72.9852 97.4921 73.5374L99.8041 81.9503C100.1 83.0287 101.224 83.654 102.297 83.3375V83.3375C102.997 83.1308 103.529 82.5586 103.684 81.845L104.25 79.2387C104.846 76.4984 108.707 76.3697 109.483 79.0643V79.0643C109.567 79.356 109.7 79.6314 109.875 79.879L111.253 81.8212C112.079 82.9849 113.642 83.3511 114.899 82.6752V82.6752C115.474 82.366 115.924 81.8675 116.173 81.2642L118.876 74.716L121.965 67.6626L124.788 62.6455C124.964 62.3326 125.195 62.0538 125.469 61.8224L127.956 59.727C128.08 59.6222 128.196 59.5074 128.302 59.3838L130.111 57.2708C130.794 56.4722 131.879 56.1433 132.891 56.428V56.428C133.781 56.6784 134.737 56.4557 135.425 55.8378L137.054 54.3745C137.289 54.1631 137.49 53.9158 137.648 53.6418L140.364 48.9329C140.453 48.7785 140.556 48.6324 140.671 48.4963L143.587 45.0433" opacity="0.2" stroke="white" stroke-width="1.5"></path></g><path d="M174 96C198.301 96 218 76.3005 218 52C218 27.6995 198.301 8 174 8C149.699 8 130 27.6995 130 52C130 76.3005 149.699 96 174 96Z" fill="black"></path><path d="M174 96.5C198.577 96.5 218.5 76.5767 218.5 52C218.5 27.4233 198.577 7.5 174 7.5C149.423 7.5 129.5 27.4233 129.5 52C129.5 76.5767 149.423 96.5 174 96.5Z" stroke="url(#paint1_linear_1569_6349)" stroke-opacity="0.5"></path><path d="M174 86C192.778 86 208 70.7777 208 52C208 33.2223 192.778 18 174 18C155.222 18 140 33.2223 140 52C140 70.7777 155.222 86 174 86Z" stroke="white" stroke-opacity="0.1" stroke-width="2"></path><path d="M174 18C192.778 18 208 33.2223 208 52C208 70.7777 192.778 86 174 86C155.222 86 140 70.7777 140 52C140 40.574 145.636 30.4644 154.28 24.2998" stroke="url(#paint2_linear_1569_6349)" stroke-linecap="round" stroke-linejoin="round" stroke-width="2"></path><rect fill="black" height="22" rx="6.65394" width="42" x="182.445" y="7.3335"></rect><rect fill="url(#paint3_linear_1569_6349)" fill-opacity="0.8" height="22" rx="6.65394" width="42" x="182.445" y="7.3335"></rect><rect fill="#12FFAC" height="22" rx="6.65394" width="42" x="182.445" y="7.3335"></rect><path d="M190.917 20.6415V18.8175H189.117V17.4495H190.917V15.6255H192.333V17.4495H194.133V18.8175H192.333V20.6415H190.917ZM195.73 22.3335V21.3255C195.73 20.7415 195.826 20.2575 196.018 19.8735C196.21 19.4815 196.486 19.1615 196.846 18.9135C197.214 18.6575 197.662 18.4495 198.19 18.2895L198.994 18.0375C199.29 17.9415 199.538 17.8255 199.738 17.6895C199.938 17.5455 200.09 17.3735 200.194 17.1735C200.306 16.9735 200.362 16.7455 200.362 16.4895V16.4415C200.362 16.0415 200.226 15.7255 199.954 15.4935C199.682 15.2535 199.31 15.1335 198.838 15.1335C198.374 15.1335 197.998 15.2615 197.71 15.5175C197.43 15.7655 197.29 16.1255 197.29 16.5975V16.8135H195.754V16.6215C195.754 16.0135 195.89 15.4975 196.162 15.0735C196.434 14.6495 196.802 14.3255 197.266 14.1015C197.738 13.8775 198.262 13.7655 198.838 13.7655C199.414 13.7655 199.934 13.8775 200.398 14.1015C200.862 14.3175 201.226 14.6255 201.49 15.0255C201.762 15.4175 201.898 15.8815 201.898 16.4175V16.5375C201.898 17.0735 201.786 17.5295 201.562 17.9055C201.346 18.2735 201.05 18.5775 200.674 18.8175C200.298 19.0495 199.87 19.2415 199.39 19.3935L198.622 19.6335C198.278 19.7375 198.01 19.8535 197.818 19.9815C197.626 20.1015 197.49 20.2375 197.41 20.3895C197.338 20.5335 197.302 20.7095 197.302 20.9175V20.9655H201.826V22.3335H195.73ZM206.119 22.5015C205.127 22.5015 204.331 22.2295 203.731 21.6855C203.131 21.1335 202.831 20.3015 202.831 19.1895V17.0775C202.831 15.9975 203.131 15.1775 203.731 14.6175C204.331 14.0495 205.127 13.7655 206.119 13.7655C207.119 13.7655 207.915 14.0495 208.507 14.6175C209.107 15.1775 209.407 15.9975 209.407 17.0775V19.1895C209.407 20.3015 209.107 21.1335 208.507 21.6855C207.915 22.2295 207.119 22.5015 206.119 22.5015ZM206.119 21.1335C206.719 21.1335 207.159 20.9695 207.439 20.6415C207.727 20.3135 207.871 19.8455 207.871 19.2375V17.0055C207.871 16.3895 207.711 15.9255 207.391 15.6135C207.079 15.2935 206.655 15.1335 206.119 15.1335C205.567 15.1335 205.135 15.2975 204.823 15.6255C204.519 15.9535 204.367 16.4135 204.367 17.0055V19.2375C204.367 19.8695 204.511 20.3455 204.799 20.6655C205.095 20.9775 205.535 21.1335 206.119 21.1335ZM211.668 22.4895L210.756 21.7575L217.212 13.7775L218.124 14.5095L211.668 22.4895ZM216.732 22.4535C216.124 22.4535 215.648 22.2935 215.304 21.9735C214.96 21.6455 214.788 21.2015 214.788 20.6415V20.5575C214.788 19.9895 214.96 19.5455 215.304 19.2255C215.648 18.8975 216.124 18.7335 216.732 18.7335C217.324 18.7335 217.796 18.8975 218.148 19.2255C218.5 19.5455 218.676 19.9895 218.676 20.5575V20.6415C218.676 21.2015 218.504 21.6455 218.16 21.9735C217.816 22.2935 217.34 22.4535 216.732 22.4535ZM216.732 21.4695C216.964 21.4695 217.144 21.3975 217.272 21.2535C217.408 21.1095 217.476 20.9215 217.476 20.6895V20.4975C217.476 20.2655 217.408 20.0775 217.272 19.9335C217.144 19.7895 216.964 19.7175 216.732 19.7175C216.5 19.7175 216.316 19.7895 216.18 19.9335C216.052 20.0775 215.988 20.2655 215.988 20.4975V20.6895C215.988 20.9215 216.052 21.1095 216.18 21.2535C216.316 21.3975 216.5 21.4695 216.732 21.4695ZM212.148 17.5335C211.54 17.5335 211.064 17.3735 210.72 17.0535C210.376 16.7255 210.204 16.2815 210.204 15.7215V15.6375C210.204 15.0695 210.376 14.6255 210.72 14.3055C211.064 13.9775 211.54 13.8135 212.148 13.8135C212.74 13.8135 213.212 13.9775 213.564 14.3055C213.916 14.6255 214.092 15.0695 214.092 15.6375V15.7215C214.092 16.2815 213.92 16.7255 213.576 17.0535C213.232 17.3735 212.756 17.5335 212.148 17.5335ZM212.148 16.5495C212.38 16.5495 212.56 16.4775 212.688 16.3335C212.824 16.1895 212.892 16.0015 212.892 15.7695V15.5775C212.892 15.3455 212.824 15.1575 212.688 15.0135C212.56 14.8695 212.38 14.7975 212.148 14.7975C211.916 14.7975 211.732 14.8695 211.596 15.0135C211.468 15.1575 211.404 15.3455 211.404 15.5775V15.7695C211.404 16.0015 211.468 16.1895 211.596 16.3335C211.732 16.4775 211.916 16.5495 212.148 16.5495Z" fill="black"></path><rect height="22" rx="6.65394" stroke="black" stroke-width="2" width="42" x="182.445" y="7.3335"></rect><path d="M146.5 58.7161L147.132 57.2927C147.688 56.0409 149.197 55.5346 150.395 56.1981V56.1981C150.945 56.5024 151.349 57.0155 151.515 57.6213L153.804 65.9503C154.1 67.0287 155.224 67.654 156.297 67.3375V67.3375C156.997 67.1308 157.529 66.5586 157.684 65.8451L158.25 63.2387C158.846 60.4984 162.707 60.3698 163.483 63.0643V63.0643C163.567 63.356 163.7 63.6314 163.875 63.879L165.253 65.8212C166.079 66.9849 167.642 67.3511 168.899 66.6752V66.6752C169.474 66.366 169.924 65.8675 170.173 65.2643L172.876 58.7161L175.965 51.6626L178.788 46.6456C178.964 46.3326 179.195 46.0538 179.469 45.8224L181.956 43.727C182.08 43.6222 182.196 43.5074 182.302 43.3838L184.111 41.2708C184.794 40.4723 185.879 40.1434 186.891 40.428V40.428C187.781 40.6784 188.737 40.4557 189.425 39.8379L191.054 38.3745C191.289 38.1631 191.49 37.9159 191.648 37.6419L194.498 32.7009" stroke="#12FFAC" stroke-linecap="round" stroke-linejoin="round" stroke-width="2"></path><defs><radialGradient cx="0" cy="0" gradientTransform="translate(174 78) rotate(90) scale(96 154)" gradientUnits="userSpaceOnUse" id="paint0_radial_1569_6349" r="1"><stop offset="0.463542" stop-color="#D9D9D9"></stop><stop offset="1" stop-color="#D9D9D9" stop-opacity="0"></stop></radialGradient><linearGradient gradientUnits="userSpaceOnUse" id="paint1_linear_1569_6349" x1="125.243" x2="262.204" y1="0.666663" y2="58.6175"><stop stop-color="white" stop-opacity="0.2"></stop><stop offset="0.125" stop-color="white" stop-opacity="0.4"></stop><stop offset="0.347973" stop-color="white"></stop><stop offset="0.567708" stop-color="white" stop-opacity="0.4"></stop><stop offset="1" stop-color="white" stop-opacity="0"></stop></linearGradient><linearGradient gradientUnits="userSpaceOnUse" id="paint2_linear_1569_6349" x1="136.324" x2="242.158" y1="12.3333" y2="57.1135"><stop stop-color="white" stop-opacity="0.2"></stop><stop offset="0.125" stop-color="white" stop-opacity="0.4"></stop><stop offset="0.347973" stop-color="white"></stop><stop offset="0.567708" stop-color="white" stop-opacity="0.4"></stop><stop offset="1" stop-color="white" stop-opacity="0"></stop></linearGradient><linearGradient gradientUnits="userSpaceOnUse" id="paint3_linear_1569_6349" x1="181.283" x2="224.054" y1="6.66683" y2="42.8614"><stop stop-color="white" stop-opacity="0.63"></stop><stop offset="0.125" stop-color="white"></stop><stop offset="0.347973" stop-color="white"></stop><stop offset="0.567708" stop-color="white" stop-opacity="0.72"></stop><stop offset="1" stop-color="white" stop-opacity="0.43"></stop></linearGradient></defs></svg>