<?xml version="1.0" encoding="utf-8"?>
<!-- Generator: Adobe Illustrator 26.3.1, SVG Export Plug-In . SVG Version: 6.00 Build 0)  -->
<svg version="1.1" id="Layer_1" xmlns="http://www.w3.org/2000/svg" xmlns:xlink="http://www.w3.org/1999/xlink" x="0px" y="0px"
	 width="480" height="320" viewBox="0 0 489 313" style="enable-background:new 0 0 489 313;" xml:space="preserve">
<style type="text/css">
	.st0{clip-path:url(#SVGID_00000120516952016110675610000015622940514521776059_);}
	.st1{clip-path:url(#SVGID_00000044872905499932272520000000671100496362010784_);}
	.st2{opacity:0.8;clip-path:url(#SVGID_00000018942228756553209410000012210334466292077477_);}
	.st3{clip-path:url(#SVGID_00000116202070320735076110000001422083319903610264_);}
	.st4{clip-path:url(#SVGID_00000018942228756553209410000012210334466292077477_);fill:none;stroke:#333333;}
	.st5{clip-path:url(#SVGID_00000080926302163443860390000012325318190469615777_);}
	.st6{clip-path:url(#SVGID_00000124154922547497192580000000638250603698304930_);}
	.st7{opacity:0.8;clip-path:url(#SVGID_00000119118906282550430650000013697590491793911433_);}
	.st8{clip-path:url(#SVGID_00000001633537128038347290000000327374205934849962_);}
	.st9{clip-path:url(#SVGID_00000119118906282550430650000013697590491793911433_);fill:none;stroke:#333333;}
	.st10{clip-path:url(#SVGID_00000119118906282550430650000013697590491793911433_);fill:#333333;}
	.st11{clip-path:url(#SVGID_00000119118906282550430650000013697590491793911433_);fill:#F1605B;}
	.st12{clip-path:url(#SVGID_00000119118906282550430650000013697590491793911433_);fill:none;stroke:#E04640;stroke-width:0.5;}
	.st13{clip-path:url(#SVGID_00000119118906282550430650000013697590491793911433_);fill:#FEBC2D;}
	.st14{clip-path:url(#SVGID_00000119118906282550430650000013697590491793911433_);fill:none;stroke:#DFA026;stroke-width:0.5;}
	.st15{clip-path:url(#SVGID_00000119118906282550430650000013697590491793911433_);fill:#4CB748;}
	.st16{clip-path:url(#SVGID_00000119118906282550430650000013697590491793911433_);fill:none;stroke:#23AC4A;stroke-width:0.5;}
	.st17{opacity:0.8;fill:#333333;enable-background:new    ;}
	.st18{opacity:0.8;fill:#454545;enable-background:new    ;}
	.st19{opacity:0.8;fill:#3E7ABE;enable-background:new    ;}
	.st20{opacity:0.8;enable-background:new    ;}
	.st21{opacity:0.8;fill:#CE374A;enable-background:new    ;}
	.st22{fill:none;stroke:#414042;stroke-width:2;stroke-miterlimit:10;}
	.st23{fill:#050606;stroke:#414042;stroke-width:2;stroke-linecap:round;stroke-miterlimit:10;}
	.st24{opacity:0.8;fill:#2484C6;enable-background:new    ;}
	.st25{opacity:0.8;fill:#414243;enable-background:new    ;}
	.st26{opacity:0.4;fill:#050606;}
	.st27{fill:#416EB6;}
	.st28{fill:#4D2E88;}
	.st29{fill:#C0509D;}
	.st30{fill:#989898;}
	.st31{fill:#FFFFFF;}
	.st32{opacity:0.8;fill:#FAA819;stroke:#FAA819;stroke-linecap:round;stroke-linejoin:round;enable-background:new    ;}
	.st33{fill:#F4C581;}
	.st34{fill:#1C8F45;}
	.st35{fill:none;stroke:#FFFFFF;stroke-width:0.6;stroke-miterlimit:10;}
	.st36{opacity:0.32;}
	.st37{fill:#FFFFFF;stroke:#000000;stroke-width:0.3;stroke-miterlimit:10;}
	.st38{fill:#E0E0DF;stroke:#DDDDDD;stroke-width:0.3;stroke-miterlimit:10;}
	.st39{fill:#E0E0DF;stroke:#E0E0DF;stroke-width:0.3;stroke-miterlimit:10;}
	.st40{fill:#737374;}
	.st41{font-family:'ArialMT';}
	.st42{font-size:4.5452px;}
	.st43{font-size:2.8924px;}
	.st44{clip-path:url(#SVGID_00000132795209896745043240000008121119717525343395_);}
	.st45{clip-path:url(#SVGID_00000080194006372194148460000001935405864020199558_);fill:#666766;}
	.st46{clip-path:url(#SVGID_00000080194006372194148460000001935405864020199558_);fill:#333333;}
	.st47{opacity:0.8;fill:#333333;stroke:#333333;stroke-linecap:round;stroke-linejoin:round;enable-background:new    ;}
	.st48{clip-path:url(#SVGID_00000023978642371679846470000017157546257452541112_);}
	.st49{clip-path:url(#SVGID_00000153692385712131152020000013325209155137095846_);fill:#333333;}
	.st50{clip-path:url(#SVGID_00000153692385712131152020000013325209155137095846_);fill:#3F6EB6;}
	.st51{clip-path:url(#SVGID_00000153692385712131152020000013325209155137095846_);fill:#999999;}
</style>
<g id="Artwork_1_00000091008736986540312460000008215230138453489284_">
	<g>
		<defs>
			<rect id="SVGID_1_" y="0" width="488" height="312"/>
		</defs>
		<clipPath id="SVGID_00000036971704276339673550000004445803836782824333_">
			<use xlink:href="#SVGID_1_"  style="overflow:visible;"/>
		</clipPath>
		<g style="clip-path:url(#SVGID_00000036971704276339673550000004445803836782824333_);">
			<defs>
				<rect id="SVGID_00000127019086601738821820000005717856102919452564_" y="0" width="488" height="312"/>
			</defs>
			<clipPath id="SVGID_00000057120378329711854480000007157216787272635523_">
				<use xlink:href="#SVGID_00000127019086601738821820000005717856102919452564_"  style="overflow:visible;"/>
			</clipPath>
			<g style="clip-path:url(#SVGID_00000057120378329711854480000007157216787272635523_);">
				<defs>
					<rect id="SVGID_00000133511047264183645560000006056328559847256474_" y="0" width="488" height="312"/>
				</defs>
				<clipPath id="SVGID_00000131340531168680840250000005823090851365231025_">
					<use xlink:href="#SVGID_00000133511047264183645560000006056328559847256474_"  style="overflow:visible;"/>
				</clipPath>
				<g style="opacity:0.8;clip-path:url(#SVGID_00000131340531168680840250000005823090851365231025_);">
					<g>
						<defs>
							<rect id="SVGID_00000067194748157406086320000017487227227409059238_" x="0.5" y="0.5" width="487" height="311"/>
						</defs>
						<clipPath id="SVGID_00000052804218805389491340000016301844592304132276_">
							<use xlink:href="#SVGID_00000067194748157406086320000017487227227409059238_"  style="overflow:visible;"/>
						</clipPath>
						<path style="clip-path:url(#SVGID_00000052804218805389491340000016301844592304132276_);" d="M12,0.5h464
							c6.4,0,11.5,5.1,11.5,11.5v288c0,6.4-5.1,11.5-11.5,11.5H12c-6.4,0-11.5-5.1-11.5-11.5V12C0.5,5.6,5.6,0.5,12,0.5"/>
					</g>
				</g>
				<path style="clip-path:url(#SVGID_00000131340531168680840250000005823090851365231025_);fill:none;stroke:#333333;" d="M12,0.5
					h464c6.4,0,11.5,5.1,11.5,11.5v288c0,6.4-5.1,11.5-11.5,11.5H12c-6.4,0-11.5-5.1-11.5-11.5V12C0.5,5.6,5.6,0.5,12,0.5z"/>
			</g>
		</g>
	</g>
</g>
<g id="Artwork_2_00000170977239601553196410000018391727854833844912_">
	<g>
		<defs>
			<rect id="SVGID_00000181809382170693688070000014069874889610622885_" y="0" width="488" height="28"/>
		</defs>
		<clipPath id="SVGID_00000080183722442602482640000016818804733604913079_">
			<use xlink:href="#SVGID_00000181809382170693688070000014069874889610622885_"  style="overflow:visible;"/>
		</clipPath>
		<g style="clip-path:url(#SVGID_00000080183722442602482640000016818804733604913079_);">
			<defs>
				<rect id="SVGID_00000105399529081232478300000006754831312382273177_" y="0" width="488" height="28"/>
			</defs>
			<clipPath id="SVGID_00000117659128984892743590000009040418569906516661_">
				<use xlink:href="#SVGID_00000105399529081232478300000006754831312382273177_"  style="overflow:visible;"/>
			</clipPath>
			<g style="clip-path:url(#SVGID_00000117659128984892743590000009040418569906516661_);">
				<defs>
					<rect id="SVGID_00000140715629402780459600000015315663723915284380_" y="0" width="488" height="28"/>
				</defs>
				<clipPath id="SVGID_00000181068015122483656980000014033371424402599575_">
					<use xlink:href="#SVGID_00000140715629402780459600000015315663723915284380_"  style="overflow:visible;"/>
				</clipPath>
				<g style="opacity:0.8;clip-path:url(#SVGID_00000181068015122483656980000014033371424402599575_);">
					<g>
						<defs>
							<rect id="SVGID_00000036218322597224562880000012686078921717712514_" x="0.5" y="0.5" width="487" height="27"/>
						</defs>
						<clipPath id="SVGID_00000108288322248106383480000003161250503032710332_">
							<use xlink:href="#SVGID_00000036218322597224562880000012686078921717712514_"  style="overflow:visible;"/>
						</clipPath>
						<path style="clip-path:url(#SVGID_00000108288322248106383480000003161250503032710332_);" d="M0.5,12C0.5,5.6,5.6,0.5,12,0.5
							h464c6.4,0,11.5,5.1,11.5,11.5v15.5H0.5V12z"/>
					</g>
				</g>
				<path style="clip-path:url(#SVGID_00000181068015122483656980000014033371424402599575_);fill:none;stroke:#333333;" d="M0.5,12
					C0.5,5.6,5.6,0.5,12,0.5h464c6.4,0,11.5,5.1,11.5,11.5v15.5H0.5V12z"/>
				<path style="clip-path:url(#SVGID_00000181068015122483656980000014033371424402599575_);fill:#333333;" d="M113,10
					c0-2.2,1.8-4,4-4h254c2.2,0,4,1.8,4,4v8.4c0,2.2-1.8,4-4,4H117c-2.2,0-4-1.8-4-4V10z"/>
				<path style="clip-path:url(#SVGID_00000181068015122483656980000014033371424402599575_);fill:#F1605B;" d="M19.8,14
					c0,2.1-1.7,3.8-3.8,3.8s-3.8-1.7-3.8-3.8s1.7-3.8,3.8-3.8S19.8,11.9,19.8,14"/>
				
					<circle style="clip-path:url(#SVGID_00000181068015122483656980000014033371424402599575_);fill:none;stroke:#E04640;stroke-width:0.5;" cx="16" cy="14" r="3.8"/>
				<path style="clip-path:url(#SVGID_00000181068015122483656980000014033371424402599575_);fill:#FEBC2D;" d="M31.8,14
					c0,2.1-1.7,3.8-3.8,3.8s-3.8-1.7-3.8-3.8s1.7-3.8,3.8-3.8S31.8,11.9,31.8,14"/>
				
					<circle style="clip-path:url(#SVGID_00000181068015122483656980000014033371424402599575_);fill:none;stroke:#DFA026;stroke-width:0.5;" cx="28" cy="14" r="3.8"/>
				<path style="clip-path:url(#SVGID_00000181068015122483656980000014033371424402599575_);fill:#4CB748;" d="M43.8,14
					c0,2.1-1.7,3.8-3.8,3.8c-2.1,0-3.8-1.7-3.8-3.8s1.7-3.8,3.8-3.8C42.1,10.2,43.8,11.9,43.8,14"/>
				
					<circle style="clip-path:url(#SVGID_00000181068015122483656980000014033371424402599575_);fill:none;stroke:#23AC4A;stroke-width:0.5;" cx="40" cy="14" r="3.8"/>
			</g>
		</g>
	</g>
</g>
<path class="st17" d="M18.2,47h74.6c2.9,0,5.2,2.3,5.2,5.2v233.6c0,2.9-2.3,5.2-5.2,5.2H18.2c-2.9,0-5.2-2.3-5.2-5.2V52.2
	C13,49.3,15.3,47,18.2,47z"/>
<path class="st17" d="M341,44H465c4.4,0,8,4.9,8,11v228c0,6.1-3.6,11-8,11H341c-4.4,0-8-4.9-8-11V55C333,48.9,336.6,44,341,44z"/>
<g>
	<path class="st18" d="M347.3,81.1h117.4c1.3,0,2.3,1.7,2.3,3.9l0,0c0,2.2-1,3.9-2.3,3.9H347.3c-1.3,0-2.3-1.7-2.3-3.9l0,0
		C345,82.8,346,81.1,347.3,81.1z"/>
	<g>
		<circle class="st19" cx="365.9" cy="84.4" r="6.4"/>
	</g>
	<g class="st20">
		<circle class="st21" cx="460.3" cy="85" r="6.4"/>
	</g>
</g>
<path class="st22" d="M428.9,70h-77.7c-3.4,0-6.1-2.7-6.1-6.1v-0.7c0-3.4,2.7-6.1,6.1-6.1h77.7c3.4,0,6.1,2.7,6.1,6.1v0.7
	C435,67.3,432.3,70,428.9,70z"/>
<path class="st19" d="M428.1,69h-76.3c-3,0-5.5-2.5-5.5-5.5v0c0-3,2.5-5.5,5.5-5.5h76.3c3,0,5.5,2.5,5.5,5.5v0
	C433.6,66.5,431.2,69,428.1,69z"/>
<g>
	<line class="st23" x1="441" y1="62" x2="445.5" y2="65.4"/>
	<line class="st23" x1="450" y1="62" x2="445.5" y2="65.4"/>
</g>
<circle class="st24" cx="404.9" cy="282.2" r="4"/>
<circle class="st25" cx="380.9" cy="282.2" r="4"/>
<circle class="st24" cx="428.9" cy="282.2" r="4"/>
<path class="st26" d="M460.1,194H347.9c-2.7,0-4.9-2.2-4.9-4.9v-57.1c0-2.7,2.2-4.9,4.9-4.9h112.1c2.7,0,4.9,2.2,4.9,4.9v57.1
	C465,191.8,462.8,194,460.1,194z"/>
<g>
	<path class="st27" d="M354.8,152.6c0-2.2,1.8-4,4-4h18c2.2,0,4,1.8,4,4l0,0c0,2.2-1.8,4-4,4h-18
		C356.6,156.6,354.8,154.8,354.8,152.6L354.8,152.6z"/>
	<path class="st28" d="M357.2,165.6c0-2.2,1.8-4,4-4h12c2.2,0,4,1.8,4,4l0,0c0,2.2-1.8,4-4,4h-12C359,169.6,357.2,167.9,357.2,165.6
		L357.2,165.6z"/>
	<path class="st29" d="M380.8,166.6c0-2.2,1.8-4,4-4h32c2.2,0,4,1.8,4,4l0,0c0,2.2-1.8,4-4,4h-32
		C382.6,170.6,380.8,168.8,380.8,166.6L380.8,166.6z"/>
	<path class="st29" d="M426.8,166.6c0-2.2,1.8-4,4-4h12c2.2,0,4,1.8,4,4l0,0c0,2.2-1.8,4-4,4h-12
		C428.6,170.6,426.8,168.8,426.8,166.6L426.8,166.6z"/>
	<path class="st29" d="M400.8,138.6c0-2.2,1.8-4,4-4h12c2.2,0,4,1.8,4,4l0,0c0,2.2-1.8,4-4,4h-12
		C402.6,142.6,400.8,140.8,400.8,138.6L400.8,138.6z"/>
	<path class="st27" d="M354.8,180.6c0-2.2,1.8-4,4-4h32c2.2,0,4,1.8,4,4l0,0c0,2.2-1.8,4-4,4h-32
		C356.6,184.6,354.8,182.8,354.8,180.6L354.8,180.6z"/>
	<path class="st29" d="M386.8,152.6c0-2.2,1.8-4,4-4h44c2.2,0,4,1.8,4,4l0,0c0,2.2-1.8,4-4,4h-44
		C388.6,156.6,386.8,154.8,386.8,152.6L386.8,152.6z"/>
	<path class="st27" d="M400.8,180.6c0-2.2,1.8-4,4-4h18c2.2,0,4,1.8,4,4l0,0c0,2.2-1.8,4-4,4h-18
		C402.6,184.6,400.8,182.8,400.8,180.6L400.8,180.6z"/>
	<path class="st27" d="M355.4,137.8c0-2.2,1.8-4,4-4h32c2.2,0,4,1.8,4,4l0,0c0,2.2-1.8,4-4,4h-32C357.2,141.8,355.4,140,355.4,137.8
		L355.4,137.8z"/>
	<path class="st30" d="M427.8,137.8c0-2.2,1.8-4,4-4l0,0c2.2,0,4,1.8,4,4l0,0c0,2.2-1.8,4-4,4l0,0
		C429.6,141.8,427.8,140,427.8,137.8L427.8,137.8z"/>
	<path class="st30" d="M432.1,180.1c0-2.2,1.8-4,4-4l0,0c2.2,0,4,1.8,4,4l0,0c0,2.2-1.8,4-4,4l0,0
		C433.9,184.1,432.1,182.4,432.1,180.1L432.1,180.1z"/>
</g>
<path class="st26" d="M460.3,266.1H348.2c-2.7,0-4.9-2.2-4.9-4.9v-57.1c0-2.7,2.2-4.9,4.9-4.9h112.1c2.7,0,4.9,2.2,4.9,4.9v57.1
	C465.2,263.9,463,266.1,460.3,266.1z"/>
<g>
	<path class="st27" d="M355.1,224.8c0-2.2,1.8-4,4-4h18c2.2,0,4,1.8,4,4l0,0c0,2.2-1.8,4-4,4h-18C356.9,228.8,355.1,227,355.1,224.8
		L355.1,224.8z"/>
	<path class="st28" d="M357.5,237.8c0-2.2,1.8-4,4-4h12c2.2,0,4,1.8,4,4l0,0c0,2.2-1.8,4-4,4h-12
		C359.3,241.8,357.5,240.1,357.5,237.8L357.5,237.8z"/>
	<path class="st29" d="M381.1,238.8c0-2.2,1.8-4,4-4h32c2.2,0,4,1.8,4,4l0,0c0,2.2-1.8,4-4,4h-32C382.9,242.8,381.1,241,381.1,238.8
		L381.1,238.8z"/>
	<path class="st29" d="M427.1,238.8c0-2.2,1.8-4,4-4h12c2.2,0,4,1.8,4,4l0,0c0,2.2-1.8,4-4,4h-12C428.9,242.8,427.1,241,427.1,238.8
		L427.1,238.8z"/>
	<path class="st29" d="M401.1,210.8c0-2.2,1.8-4,4-4h12c2.2,0,4,1.8,4,4l0,0c0,2.2-1.8,4-4,4h-12C402.9,214.8,401.1,213,401.1,210.8
		L401.1,210.8z"/>
	<path class="st27" d="M355.1,252.8c0-2.2,1.8-4,4-4h32c2.2,0,4,1.8,4,4l0,0c0,2.2-1.8,4-4,4h-32C356.9,256.8,355.1,255,355.1,252.8
		L355.1,252.8z"/>
	<path class="st29" d="M387.1,224.8c0-2.2,1.8-4,4-4h44c2.2,0,4,1.8,4,4l0,0c0,2.2-1.8,4-4,4h-44C388.9,228.8,387.1,227,387.1,224.8
		L387.1,224.8z"/>
	<path class="st27" d="M401.1,252.8c0-2.2,1.8-4,4-4h18c2.2,0,4,1.8,4,4l0,0c0,2.2-1.8,4-4,4h-18C402.9,256.8,401.1,255,401.1,252.8
		L401.1,252.8z"/>
	<path class="st27" d="M355.7,210c0-2.2,1.8-4,4-4h32c2.2,0,4,1.8,4,4l0,0c0,2.2-1.8,4-4,4h-32C357.5,214,355.7,212.2,355.7,210
		L355.7,210z"/>
	<path class="st30" d="M428.1,210c0-2.2,1.8-4,4-4l0,0c2.2,0,4,1.8,4,4l0,0c0,2.2-1.8,4-4,4l0,0C429.9,214,428.1,212.2,428.1,210
		L428.1,210z"/>
	<path class="st30" d="M432.4,252.3c0-2.2,1.8-4,4-4l0,0c2.2,0,4,1.8,4,4l0,0c0,2.2-1.8,4-4,4l0,0
		C434.2,256.3,432.4,254.6,432.4,252.3L432.4,252.3z"/>
</g>
<path class="st18" d="M345.1,107.1c0-6.7,5.4-12.1,12.1-12.1h28.8c6.7,0,12.1,5.4,12.1,12.1v0.6c0,6.7-5.4,12.1-12.1,12.1h-28.8
	c-6.7,0-12.1-5.4-12.1-12.1V107.1z"/>
<path class="st31" d="M362,113.5h0.8v-1.1c2.1-0.1,3.3-1.4,3.3-2.9c0-1.9-1.8-2.5-2.9-2.8l-0.4-0.1v-3.6c1.1,0.1,1.9,0.7,2,1.6h1.2
	c-0.1-1.5-1.3-2.6-3.2-2.7v-1.2H362v1.2c-1.7,0.2-3,1.3-3,2.8c0,1.4,1,2.2,2.6,2.7l0.4,0.1v3.8c-1.1-0.1-1.9-0.7-2-1.7h-1.3
	c0.1,1.6,1.3,2.7,3.3,2.8V113.5z M362.9,111.2v-3.6l0,0c1.1,0.3,2.1,0.7,2.1,1.7C365,110.4,364.1,111.1,362.9,111.2z M362,106.2
	c-0.8-0.2-1.8-0.6-1.8-1.7c0-0.9,0.7-1.5,1.8-1.7V106.2z"/>
<path class="st31" d="M371.1,113.5h0.8v-1.1c2.1-0.1,3.3-1.4,3.3-2.9c0-1.9-1.8-2.5-2.9-2.8l-0.4-0.1v-3.6c1.1,0.1,1.9,0.7,2,1.6
	h1.2c-0.1-1.5-1.3-2.6-3.2-2.7v-1.2h-0.8v1.2c-1.7,0.2-3,1.3-3,2.8c0,1.4,1,2.2,2.6,2.7l0.4,0.1v3.8c-1.1-0.1-1.9-0.7-2-1.7h-1.3
	c0.1,1.6,1.3,2.7,3.3,2.8V113.5z M371.9,111.2v-3.6l0,0c1.1,0.3,2.1,0.7,2.1,1.7C374,110.4,373.2,111.1,371.9,111.2z M371.1,106.2
	c-0.8-0.2-1.8-0.6-1.8-1.7c0-0.9,0.7-1.5,1.8-1.7V106.2z"/>
<g>
	<path class="st32" d="M410.1,100.2l2.1,4.2l4.6,0.7l-3.3,3.2l0.8,4.6l-4.1-2.2l-4.1,2.2l0.8-4.6l-3.3-3.2l4.6-0.7L410.1,100.2z"/>
	<path class="st32" d="M434.1,100.2l2.1,4.2l4.6,0.7l-3.3,3.2l0.8,4.6l-4.1-2.2l-4.1,2.2l0.8-4.6l-3.3-3.2l4.6-0.7L434.1,100.2z"/>
	<path class="st32" d="M458.1,100.2l2.1,4.2l4.6,0.7l-3.3,3.2l0.8,4.6l-4.1-2.2l-4.1,2.2l0.8-4.6l-3.3-3.2l4.6-0.7L458.1,100.2z"/>
</g>
<path class="st31" d="M380.2,113.5h0.8v-1.1c2.1-0.1,3.3-1.4,3.3-2.9c0-1.9-1.8-2.5-2.9-2.8l-0.4-0.1v-3.6c1.1,0.1,1.9,0.7,2,1.6
	h1.2c-0.1-1.5-1.3-2.6-3.2-2.7v-1.2h-0.8v1.2c-1.7,0.2-3,1.3-3,2.8c0,1.4,1,2.2,2.6,2.7l0.4,0.1v3.8c-1.1-0.1-1.9-0.7-2-1.7h-1.3
	c0.1,1.6,1.3,2.7,3.3,2.8V113.5z M381,111.2v-3.6l0,0c1.1,0.3,2.1,0.7,2.1,1.7C383.1,110.4,382.2,111.1,381,111.2z M380.2,106.2
	c-0.8-0.2-1.8-0.6-1.8-1.7c0-0.9,0.7-1.5,1.8-1.7V106.2z"/>
<g id="BACKGROUND">
	<g id="BASEBALL_FIELD">
		<path id="DIRT" class="st33" d="M204.6,72.6l39.1,4.5l61.2,61.1l-3.3,3.9l-7.6,9.1l-8.7,10.5l0,10l-11,27.2l-4.5,4.5l-8.7,8.6
			l-23.9,23.9l-1.4,1.4l-6.1,6.1l-19.6,0l-2-2L204,237l-1.2-1.3l-37-37l-3.3-7.8l-8.2-19.4l0.1-5.7l0.2-4.1l-9.4-11.1l-10-12.1
			l0-7.5l2.7-2.7l46.8-46.8h7.7L204.6,72.6z M203.4,67.8L203.4,67.8L191,76.7l-0.3,0.3h-8.1l-5.6,5.6L165.7,94l-10.3,10.3
			l-11.3,11.3l-9.5,9.5l-4,4l0,11l1.1,1.3l10,12l8.2,9.8l-0.1,2.4l-0.2,6.8l3.8,8.9l4.9,11.5l3.4,8.1l0.2,0.5l4.9,4.9l8.9,8.9
			l23.9,23.9l1.3,1.3l4.3,4.2l3.3,3.4l7.1,0h9.2l7.2,0l3-3l4.4-4.4l1.4-1.4l23.9-23.9l8.7-8.6l5.2-5.2l0.2-0.5l3.1-7.8l4.8-11.9
			l3-7.4l0.5-1.3l0-6.4l0-2.8l7.7-9.2l7.6-9.1l6-7.2l-2.4-2.4l-9.3-9.3l-10.8-10.8l-11-11l-10.9-10.9l-11-11l-9.8-9.8l-11.7-1.4l0,0
			L203.4,67.8z"/>
		<path id="GRASS" class="st34" d="M204.6,72.6l-12.4,9h-7.7l-46.8,46.8l-2.7,2.7l0,7.5l10,12.1l9.4,11.1l-0.2,4.1l-0.1,5.7
			l8.2,19.4l3.3,7.8l37,37l1.2,1.3l4.3,4.2l2,2l19.6,0l6.1-6.1l1.4-1.4l23.9-23.9l8.7-8.6l4.5-4.5l11-27.2l0-10l8.7-10.5l7.6-9.1
			l3.3-3.9l-61.2-61.1L204.6,72.6z"/>
		<g id="BASEBALL_DIAMOND">
			<path class="st33" d="M259.3,190c0,0-8.5-29.3-38.6-29.3c-0.1,0-0.1,0-0.2,0c-0.1,0-0.1,0-0.2,0c-29.9,0-38.6,29.3-38.6,29.3
				l34.2,34.2c-0.4,0.8-0.7,1.7-0.7,2.6c0,2.9,2.4,5.3,5.3,5.3c2.9,0,5.3-2.4,5.3-5.3c0-1-0.3-1.9-0.7-2.6L259.3,190z M223.2,222.3
				c-0.8-0.5-1.7-0.7-2.7-0.7c-1,0-1.9,0.3-2.7,0.7l-19.7-19.7c0.4-0.8,0.7-1.7,0.7-2.6c0-1-0.3-1.9-0.7-2.6l19.7-19.7
				c0.8,0.4,1.7,0.7,2.6,0.7c1,0,1.9-0.3,2.6-0.7l19.7,19.7c-0.4,0.8-0.7,1.7-0.7,2.6c0,1,0.3,1.9,0.7,2.6L223.2,222.3z"/>
			<path id="PITCHER_MOUND" class="st33" d="M220.5,197.6c2.3,0,4.1,1.8,4.1,4.1c0,2.3-1.8,4.1-4.1,4.1c-2.3,0-4.1-1.8-4.1-4.1
				C216.4,199.4,218.3,197.6,220.5,197.6z"/>
			<path id="_x31_ST_BASE" class="st31" d="M246.2,200l0.7-0.7l0.7,0.7l-0.7,0.7L246.2,200z"/>
			<path id="_x32_ND_BASE" class="st31" d="M219.8,173.6l0.7-0.7l0.7,0.7l-0.7,0.7L219.8,173.6z"/>
			<path id="_x33_RD_BASE" class="st31" d="M193.4,200l0.7-0.7l0.7,0.7l-0.7,0.7L193.4,200z"/>
			<path id="HOME_PLATE" class="st31" d="M219.8,226v-0.7h1.4v0.7l-0.7,0.7L219.8,226z"/>
			<path id="PITCHING_PLATE" class="st31" d="M219.5,200.6h2.2v0.3h-2.2V200.6z"/>
			<line id="FOUL_LINE" class="st35" x1="222.3" y1="224.7" x2="309.7" y2="136.7"/>
			
				<line id="FOUL_LINE_00000007404944116198880080000005650423033090756285_" class="st35" x1="130.6" y1="135.8" x2="218.8" y2="224.7"/>
			<path id="BATTER_BOX" class="st31" d="M221.4,224.6v2.8h0.2v2.1h-2v-2.1h0.2v-2.8h-1.9v2.8h1.5v2.3h2.5v-2.3h1.5v-2.8H221.4z
				 M219.4,227.1H218v-2.3h1.5V227.1z M223.1,227.1h-1.5v-2.3h1.5V227.1z"/>
			<path id="COACH_BOX" class="st31" d="M246.5,211.9l-1.9-1.9l6.2-6.2l1.9,1.9l0.2-0.2l-2.1-2.1l-6.5,6.5l2.1,2.1L246.5,211.9z"/>
			<path id="COACH_BOX_00000071523607078937941470000007408729386356650894_" class="st31" d="M188.3,205.7l1.9-1.9l6.2,6.2
				l-1.9,1.9l0.2,0.2l2.1-2.1l-6.5-6.5l-2.1,2.1L188.3,205.7z"/>
			<path id="BATTER_CIRCLE" class="st31" d="M225.2,224.2l-0.2,0.2c0.4,0.8,0.7,1.6,0.7,2.6c0,2.8-2.3,5.2-5.2,5.2
				c-2.8,0-5.2-2.3-5.2-5.2c0-0.9,0.3-1.8,0.7-2.6l-0.2-0.2c-0.5,0.8-0.7,1.7-0.7,2.7c0,3,2.4,5.4,5.4,5.4c3,0,5.4-2.4,5.4-5.4
				C225.9,225.9,225.6,225,225.2,224.2z"/>
		</g>
	</g>
	<g id="_x31_00_LEVEL" class="st36">
		<path id="_x31_34" class="st37" d="M158.2,192.8l-33.6,14.4l6.8,14.5l30.3-20.8L158.2,192.8z"/>
		<path id="_x31_33" class="st37" d="M161.8,201.4l-0.2-0.5l-30.3,20.8l10,9.6l25.4-25L161.8,201.4z"/>
		<path id="_x31_36" class="st37" d="M149.6,172.4l-37.5,8.3l6.9,14.6l34.4-14L149.6,172.4z"/>
		<path id="_x31_35" class="st37" d="M153.3,181.3l-34.4,14l5.6,11.9l33.6-14.4L153.3,181.3z"/>
		<path id="_x31_32" class="st37" d="M166.7,206.2l-25.4,25l9.1,8.8l25.2-24.9L166.7,206.2z"/>
		<path id="_x31_31" class="st37" d="M173.1,217.6l-22.7,22.5l9.5,9.2l22.5-22.4L173.1,217.6z"/>
		<path id="_x31_29" class="st37" d="M191.4,235.9l-21.9,22.7l15.7-6.5l1.2,0.1l10.7-10.7L191.4,235.9z"/>
		<path id="_x31_30" class="st37" d="M182.3,226.8l-22.5,22.4l9.6,9.3l21.9-22.7L182.3,226.8z"/>
		<path id="_x31_46" class="st37" d="M168.9,57.5l-8.4,8.5l16.6,16.6l5.6-5.6l-5.3,0l0.1-19.5L168.9,57.5z"/>
		<path id="_x31_43" class="st37" d="M138.8,87.7L127.6,99l16.5,16.5l11.3-11.3L138.8,87.7z"/>
		<path id="_x31_45" class="st37" d="M160.4,65.9l-11.4,11.4L165.7,94l11.4-11.4L160.4,65.9z"/>
		<path id="_x31_48" class="st37" d="M203.4,67.8L191,61.3v15.4L203.4,67.8z"/>
		<path id="_x31_47" class="st37" d="M177.4,57.5L177.4,77l5.3,0h8.1l0.3-0.3V61.3v-3.9L177.4,57.5z"/>
		<path id="_x31_42" class="st37" d="M127.6,99l-9.5,9.6l16.5,16.5l9.5-9.5L127.6,99z"/>
		<path id="_x31_37" class="st37" d="M112.1,165.7l0,15l37.5-8.3l0.2-6.7v0H112.1z"/>
		<path id="_x31_38" class="st37" d="M112.1,153.5l0,12.1h37.6l0.1-2.3l-8.2-9.8L112.1,153.5z"/>
		<path id="_x31_39" class="st37" d="M111.9,141.5v0.1l0.2,11.9l29.5,0l-10-12H111.9z"/>
		<path id="_x31_40" class="st37" d="M111.9,129.1l0,12.3h19.7l-1.1-1.3l0-11H111.9z"/>
		<path id="_x31_41" class="st37" d="M118.1,108.6l-6.1,6.2l0,14.4h18.6l4-4L118.1,108.6z"/>
		<path id="_x31_44" class="st37" d="M149.1,77.4l-10.3,10.3l16.6,16.6L165.7,94L149.1,77.4z"/>
		<path id="_x31_02" class="st37" d="M273.2,70.1l-4.6,0.1l-3.6,5.2l-2.2-0.3l-7.2,7.3l11,11l14.8-14.9L273.2,70.1z"/>
		<path id="_x31_11" class="st37" d="M286.5,181.3l33,13.4l6.5-14.9l-36.5-6L286.5,181.3z"/>
		<path id="_x31_09" class="st37" d="M290,163.3l0,2.8l36-0.1v-12l-28.3,0.1L290,163.3z"/>
		<path id="_x31_10" class="st37" d="M290,172.5l-0.5,1.3l36.5,6l0-13.7l-36,0.1L290,172.5z"/>
		<path id="_x31_03" class="st37" d="M281.5,78.6l-14.8,14.9l10.9,10.9l14.7-14.8L281.5,78.6z"/>
		<path id="_x31_01" class="st37" d="M245.9,72.7l9.8,9.8l7.2-7.3L245.9,72.7z"/>
		<path id="_x31_07" class="st37" d="M324.9,122.8l-12.4,12.4l1.7,1.8l0,5.1l11.7,0v-18.2L324.9,122.8z"/>
		<path id="_x31_04" class="st37" d="M292.3,89.6l-14.7,14.8l11,11l14.7-14.6L292.3,89.6z"/>
		<path id="_x31_06" class="st37" d="M314.1,111.6l-14.7,14.6l9.3,9.3l2.2-2l1.6,1.7l12.4-12.4L314.1,111.6z"/>
		<path id="_x31_05" class="st37" d="M303.3,100.7l-14.7,14.6l10.8,10.8l14.7-14.6L303.3,100.7z"/>
		<path id="_x31_08" class="st37" d="M314.2,145.1l-9,0l-7.6,9.1L326,154l0-12l-11.8,0L314.2,145.1z"/>
		<path id="_x31_17" class="st37" d="M248.5,235.8l21.9,21.8l9.1-8.9l-22-21.8L248.5,235.8z"/>
		<path id="_x31_18" class="st37" d="M242.9,241.4l11.2,11.2l1-1l15.3,6l-21.9-21.8L242.9,241.4z"/>
		<path id="_x31_12" class="st37" d="M281.7,193.1l32.8,13l5-11.5l-33-13.4L281.7,193.1z"/>
		<path id="_x31_16" class="st37" d="M266.8,217.6l-9.3,9.2l22,21.8l9.3-9.1L266.8,217.6L266.8,217.6z"/>
		<path id="_x31_14" class="st37" d="M273.2,206.6l24.3,24.4l10.5-10.3l-29.5-19.8l-0.2,0.5L273.2,206.6z"/>
		<path id="_x31_13" class="st37" d="M278.5,200.9l29.5,19.8l6.4-14.5l-32.8-13L278.5,200.9z"/>
		<path id="_x31_15" class="st37" d="M264.5,215.3l24.3,24.3l8.8-8.6l-24.3-24.3L264.5,215.3z"/>
		<path id="_x31_25" class="st37" d="M199.9,266.7l-6.2,15.3l17.5,0l0-15.2L199.9,266.7z"/>
		<path id="_x31_24" class="st37" d="M211.2,266.8h8.8V282h-8.8V266.8z"/>
		<path id="_x31_26" class="st37" d="M196.4,262.3l-11.3,11.3l8.7,8.4l6.5-15.9L196.4,262.3z"/>
		<path id="_x31_28" class="st37" d="M185.2,252.1l-15.7,6.5l8.4,8.1l11.5-11.4l-3.1-3.2L185.2,252.1z"/>
		<path id="_x31_27" class="st37" d="M189.4,255.3l-11.5,11.4l7.2,6.9l11.3-11.3L189.4,255.3z"/>
		<path id="_x31_23" class="st37" d="M220,266.8h8.9V282H220V266.8z"/>
		<path id="_x31_19" class="st37" d="M270.4,257.6l-15.3-6l-4.1,4.3l10.7,10.7L270.4,257.6z"/>
		<path id="_x31_20" class="st37" d="M250.9,255.8l-7,7l10.6,10.7l7-7.1L250.9,255.8z"/>
		<path id="_x31_22" class="st37" d="M228.9,266.8l0,15.2l17.3,0l-6.3-15.2L228.9,266.8z"/>
		<path id="_x31_21" class="st37" d="M239.9,266.8l6.3,15.2l8.4-8.4L244,262.8L239.9,266.8z"/>
		<path id="B" class="st37" d="M205.1,244.5L192,257.8l8.3,8.4l8.1-18.2L205.1,244.5z"/>
		<path id="C" class="st37" d="M208.4,247.9l-8.5,18.8l15.5,0.1l0-18.9L208.4,247.9z"/>
		<path id="A" class="st37" d="M200.8,240.3l-1.3-1.3l-2.5,2.4l-10.7,10.7l5.7,5.6l13.1-13.3L200.8,240.3z"/>
		<path id="D" class="st37" d="M215.4,247.9h9.2v18.9h-9.2V247.9z"/>
		<path id="G" class="st37" d="M240.6,239.2l-1.4,1.3l-4.4,4.4l13.6,13.4l5.6-5.7l-11.2-11.2L240.6,239.2z"/>
		<path id="E" class="st37" d="M224.6,247.9l0,18.9l15.3,0l-8.1-18.9L224.6,247.9z"/>
		<path id="F" class="st37" d="M231.9,247.9l8.1,18.9l8.5-8.6l-13.6-13.4L231.9,247.9z"/>
		<path id="ROOFTOP_BLEACHERS" class="st37" d="M238.6,44.5L237,56.3l25.6,3.4l1.6-11.8L238.6,44.5z"/>
	</g>
	<g id="DETAILS_TOP">
		<path id="VISITORS_DUGOUT" class="st38" d="M197,241.4l2.5-2.4l-23.9-23.9l-2.5,2.5L197,241.4z"/>
		<path id="HOME_DUGOUT" class="st38" d="M266.8,217.6l-2.3-2.3l-23.9,23.9l2.2,2.2L266.8,217.6z"/>
		<path id="INACTIVE_AREA" class="st39" d="M311,133.5l-2.2,2l2.4,2.4l-6,7.2l9,0l0-3.1l0-5.1l-1.7-1.8L311,133.5z"/>
		<path id="BULLPENS" class="st38" d="M235.9,56.2l-1.8,15.1l11.7,1.4l19.2,2.8l3.5-5.2v-9.8L235.9,56.2z"/>
		<path id="INACTIVE_AREA_00000030469496375511195490000016007250659960506809_" class="st38" d="M203.4,56.2l0,11.6l30.7,3.5
			l1.8-15.2L203.4,56.2z"/>
		<text transform="matrix(0.9914 0.1305 -0.1305 0.9914 239.7767 66.2755)" class="st40 st41 st42">BULLPENS</text>
		<text transform="matrix(0.7071 0.7071 -0.7071 0.7071 181.1468 224.6843)" class="st40 st41 st43">VISITORS</text>
		<text transform="matrix(0.7071 -0.7071 0.7071 0.7071 251.2323 232.2534)" class="st40 st41 st43">HOME</text>
	</g>
</g>
<g id="Artwork_14_00000074430278724739337890000015383469571185712050_">
	<g>
		<defs>
			<rect id="SVGID_00000083076073656912667440000003343939910342004387_" x="20" y="57" width="73" height="114.8"/>
		</defs>
		<clipPath id="SVGID_00000067917241597909065280000003371308886449588126_">
			<use xlink:href="#SVGID_00000083076073656912667440000003343939910342004387_"  style="overflow:visible;"/>
		</clipPath>
		<g style="clip-path:url(#SVGID_00000067917241597909065280000003371308886449588126_);">
			<defs>
				<rect id="SVGID_00000168112935889715096190000007971069760718259875_" x="20" y="57" width="73" height="114.8"/>
			</defs>
			<clipPath id="SVGID_00000135670788947132370310000014766088827528144278_">
				<use xlink:href="#SVGID_00000168112935889715096190000007971069760718259875_"  style="overflow:visible;"/>
			</clipPath>
			<path style="clip-path:url(#SVGID_00000135670788947132370310000014766088827528144278_);fill:#666766;" d="M20.4,70.4
				c0-7.2,5.8-13,13-13s13,5.8,13,13c0,7.2-5.8,13-13,13S20.4,77.6,20.4,70.4"/>
			<path style="clip-path:url(#SVGID_00000135670788947132370310000014766088827528144278_);fill:#333333;" d="M33.4,83
				c-7,0-12.6-5.6-12.6-12.6H20c0,7.4,6,13.4,13.4,13.4V83z M46,70.4c0,7-5.6,12.6-12.6,12.6v0.8c7.4,0,13.4-6,13.4-13.4H46z
				 M33.4,57.8c7,0,12.6,5.6,12.6,12.6h0.8c0-7.4-6-13.4-13.4-13.4V57.8z M33.4,57C26,57,20,63,20,70.4h0.8c0-7,5.6-12.6,12.6-12.6
				V57z"/>
			<path style="clip-path:url(#SVGID_00000135670788947132370310000014766088827528144278_);fill:#333333;" d="M20.6,111.4
				c0-2.2,1.8-4,4-4h32c2.2,0,4,1.8,4,4c0,2.2-1.8,4-4,4h-32C22.4,115.4,20.6,113.6,20.6,111.4"/>
			<path style="clip-path:url(#SVGID_00000135670788947132370310000014766088827528144278_);fill:#333333;" d="M24.6,107.8h32V107
				h-32V107.8z M56.6,115h-32v0.8h32V115z M24.6,115c-2,0-3.6-1.6-3.6-3.6h-0.8c0,2.4,2,4.4,4.4,4.4V115z M60.2,111.4
				c0,2-1.6,3.6-3.6,3.6v0.8c2.4,0,4.4-2,4.4-4.4H60.2z M56.6,107.8c2,0,3.6,1.6,3.6,3.6H61c0-2.4-2-4.4-4.4-4.4V107.8z M24.6,107
				c-2.4,0-4.4,2-4.4,4.4H21c0-2,1.6-3.6,3.6-3.6V107z"/>
			<path style="clip-path:url(#SVGID_00000135670788947132370310000014766088827528144278_);fill:#333333;" d="M20.6,125.4
				c0-2.2,1.8-4,4-4h18c2.2,0,4,1.8,4,4c0,2.2-1.8,4-4,4h-18C22.4,129.4,20.6,127.6,20.6,125.4"/>
			<path style="clip-path:url(#SVGID_00000135670788947132370310000014766088827528144278_);fill:#333333;" d="M24.6,121.8h18V121
				h-18V121.8z M42.6,129h-18v0.8h18V129z M24.6,129c-2,0-3.6-1.6-3.6-3.6h-0.8c0,2.4,2,4.4,4.4,4.4V129z M46.2,125.4
				c0,2-1.6,3.6-3.6,3.6v0.8c2.4,0,4.4-2,4.4-4.4H46.2z M42.6,121.8c2,0,3.6,1.6,3.6,3.6H47c0-2.4-2-4.4-4.4-4.4V121.8z M24.6,121
				c-2.4,0-4.4,2-4.4,4.4H21c0-2,1.6-3.6,3.6-3.6V121z"/>
			<path style="clip-path:url(#SVGID_00000135670788947132370310000014766088827528144278_);fill:#333333;" d="M20.6,139.4
				c0-2.2,1.8-4,4-4h12c2.2,0,4,1.8,4,4s-1.8,4-4,4h-12C22.4,143.4,20.6,141.6,20.6,139.4"/>
			<path style="clip-path:url(#SVGID_00000135670788947132370310000014766088827528144278_);fill:#333333;" d="M24.6,135.8h12V135
				h-12V135.8z M36.6,143h-12v0.8h12V143z M24.6,143c-2,0-3.6-1.6-3.6-3.6h-0.8c0,2.4,2,4.4,4.4,4.4V143z M40.2,139.4
				c0,2-1.6,3.6-3.6,3.6v0.8c2.4,0,4.4-2,4.4-4.4H40.2z M36.6,135.8c2,0,3.6,1.6,3.6,3.6H41c0-2.4-2-4.4-4.4-4.4V135.8z M24.6,135
				c-2.4,0-4.4,2-4.4,4.4H21c0-2,1.6-3.6,3.6-3.6V135z"/>
			<path style="clip-path:url(#SVGID_00000135670788947132370310000014766088827528144278_);fill:#333333;" d="M46.6,139.4
				c0-2.2,1.8-4,4-4h32c2.2,0,4,1.8,4,4s-1.8,4-4,4h-32C48.4,143.4,46.6,141.6,46.6,139.4"/>
			<path style="clip-path:url(#SVGID_00000135670788947132370310000014766088827528144278_);fill:#333333;" d="M50.6,135.8h32V135
				h-32V135.8z M82.6,143h-32v0.8h32V143z M50.6,143c-2,0-3.6-1.6-3.6-3.6h-0.8c0,2.4,2,4.4,4.4,4.4V143z M86.2,139.4
				c0,2-1.6,3.6-3.6,3.6v0.8c2.4,0,4.4-2,4.4-4.4H86.2z M82.6,135.8c2,0,3.6,1.6,3.6,3.6H87c0-2.4-2-4.4-4.4-4.4V135.8z M50.6,135
				c-2.4,0-4.4,2-4.4,4.4H47c0-2,1.6-3.6,3.6-3.6V135z"/>
			<path style="clip-path:url(#SVGID_00000135670788947132370310000014766088827528144278_);fill:#333333;" d="M52.6,125.4
				c0-2.2,1.8-4,4-4h12c2.2,0,4,1.8,4,4c0,2.2-1.8,4-4,4h-12C54.4,129.4,52.6,127.6,52.6,125.4"/>
			<path style="clip-path:url(#SVGID_00000135670788947132370310000014766088827528144278_);fill:#333333;" d="M56.6,121.8h12V121
				h-12V121.8z M68.6,129h-12v0.8h12V129z M56.6,129c-2,0-3.6-1.6-3.6-3.6h-0.8c0,2.4,2,4.4,4.4,4.4V129z M72.2,125.4
				c0,2-1.6,3.6-3.6,3.6v0.8c2.4,0,4.4-2,4.4-4.4H72.2z M68.6,121.8c2,0,3.6,1.6,3.6,3.6H73c0-2.4-2-4.4-4.4-4.4V121.8z M56.6,121
				c-2.4,0-4.4,2-4.4,4.4H53c0-2,1.6-3.6,3.6-3.6V121z"/>
			<path style="clip-path:url(#SVGID_00000135670788947132370310000014766088827528144278_);fill:#333333;" d="M20.6,153.4
				c0-2.2,1.8-4,4-4h32c2.2,0,4,1.8,4,4s-1.8,4-4,4h-32C22.4,157.4,20.6,155.6,20.6,153.4"/>
			<path style="clip-path:url(#SVGID_00000135670788947132370310000014766088827528144278_);fill:#333333;" d="M24.6,149.8h32V149
				h-32V149.8z M56.6,157h-32v0.8h32V157z M24.6,157c-2,0-3.6-1.6-3.6-3.6h-0.8c0,2.4,2,4.4,4.4,4.4V157z M60.2,153.4
				c0,2-1.6,3.6-3.6,3.6v0.8c2.4,0,4.4-2,4.4-4.4H60.2z M56.6,149.8c2,0,3.6,1.6,3.6,3.6H61c0-2.4-2-4.4-4.4-4.4V149.8z M24.6,149
				c-2.4,0-4.4,2-4.4,4.4H21c0-2,1.6-3.6,3.6-3.6V149z"/>
			<path style="clip-path:url(#SVGID_00000135670788947132370310000014766088827528144278_);fill:#333333;" d="M20.6,167.4
				c0-2.2,1.8-4,4-4h44c2.2,0,4,1.8,4,4c0,2.2-1.8,4-4,4h-44C22.4,171.4,20.6,169.6,20.6,167.4"/>
			<path style="clip-path:url(#SVGID_00000135670788947132370310000014766088827528144278_);fill:#333333;" d="M24.6,163.8h44V163
				h-44V163.8z M68.6,171h-44v0.8h44V171z M24.6,171c-2,0-3.6-1.6-3.6-3.6h-0.8c0,2.4,2,4.4,4.4,4.4V171z M72.2,167.4
				c0,2-1.6,3.6-3.6,3.6v0.8c2.4,0,4.4-2,4.4-4.4H72.2z M68.6,163.8c2,0,3.6,1.6,3.6,3.6H73c0-2.4-2-4.4-4.4-4.4V163.8z M24.6,163
				c-2.4,0-4.4,2-4.4,4.4H21c0-2,1.6-3.6,3.6-3.6V163z"/>
			<path style="clip-path:url(#SVGID_00000135670788947132370310000014766088827528144278_);fill:#333333;" d="M66.6,153.4
				c0-2.2,1.8-4,4-4h18c2.2,0,4,1.8,4,4s-1.8,4-4,4h-18C68.4,157.4,66.6,155.6,66.6,153.4"/>
			<path style="clip-path:url(#SVGID_00000135670788947132370310000014766088827528144278_);fill:#333333;" d="M70.6,149.8h18V149
				h-18V149.8z M88.6,157h-18v0.8h18V157z M70.6,157c-2,0-3.6-1.6-3.6-3.6h-0.8c0,2.4,2,4.4,4.4,4.4V157z M92.2,153.4
				c0,2-1.6,3.6-3.6,3.6v0.8c2.4,0,4.4-2,4.4-4.4H92.2z M88.6,149.8c2,0,3.6,1.6,3.6,3.6H93c0-2.4-2-4.4-4.4-4.4V149.8z M70.6,149
				c-2.4,0-4.4,2-4.4,4.4H67c0-2,1.6-3.6,3.6-3.6V149z"/>
		</g>
	</g>
</g>
<path class="st29" d="M21.3,277.8c0-2.6,2.1-4.7,4.7-4.7h11.3c2.6,0,4.7,2.1,4.7,4.7v0.2c0,2.6-2.1,4.7-4.7,4.7H26.1
	c-2.6,0-4.7-2.1-4.7-4.7V277.8z"/>
<path class="st31" d="M28,280.3h0.3v-0.4c0.8-0.1,1.3-0.5,1.3-1.2c0-0.8-0.7-1-1.1-1.1l-0.2,0v-1.4c0.4,0,0.7,0.3,0.8,0.6h0.5
	c0-0.6-0.5-1-1.2-1.1v-0.5H28v0.5c-0.7,0.1-1.2,0.5-1.2,1.1c0,0.5,0.4,0.9,1,1l0.2,0v1.5c-0.4,0-0.8-0.3-0.8-0.7h-0.5
	c0,0.6,0.5,1.1,1.3,1.1V280.3z M28.3,279.4V278l0,0c0.4,0.1,0.8,0.3,0.8,0.7C29.1,279.1,28.8,279.3,28.3,279.4z M28,277.4
	c-0.3-0.1-0.7-0.2-0.7-0.6c0-0.3,0.3-0.6,0.7-0.7V277.4z"/>
<path class="st31" d="M31.5,280.3h0.3v-0.4c0.8-0.1,1.3-0.5,1.3-1.2c0-0.8-0.7-1-1.1-1.1l-0.2,0v-1.4c0.4,0,0.7,0.3,0.8,0.6h0.5
	c0-0.6-0.5-1-1.2-1.1v-0.5h-0.3v0.5c-0.7,0.1-1.2,0.5-1.2,1.1c0,0.5,0.4,0.9,1,1l0.2,0v1.5c-0.4,0-0.8-0.3-0.8-0.7h-0.5
	c0,0.6,0.5,1.1,1.3,1.1V280.3z M31.9,279.4V278l0,0c0.4,0.1,0.8,0.3,0.8,0.7C32.7,279.1,32.3,279.3,31.9,279.4z M31.5,277.4
	c-0.3-0.1-0.7-0.2-0.7-0.6c0-0.3,0.3-0.6,0.7-0.7V277.4z"/>
<path class="st31" d="M35.1,280.3h0.3v-0.4c0.8-0.1,1.3-0.5,1.3-1.2c0-0.8-0.7-1-1.1-1.1l-0.2,0v-1.4c0.4,0,0.7,0.3,0.8,0.6h0.5
	c0-0.6-0.5-1-1.2-1.1v-0.5h-0.3v0.5c-0.7,0.1-1.2,0.5-1.2,1.1c0,0.5,0.4,0.9,1,1l0.2,0v1.5c-0.4,0-0.8-0.3-0.8-0.7h-0.5
	c0,0.6,0.5,1.1,1.3,1.1V280.3z M35.4,279.4V278l0,0c0.4,0.1,0.8,0.3,0.8,0.7C36.3,279.1,35.9,279.3,35.4,279.4z M35.1,277.4
	c-0.3-0.1-0.7-0.2-0.7-0.6c0-0.3,0.3-0.6,0.7-0.7V277.4z"/>
<g>
	<path class="st32" d="M23.5,244.2l0.6,1.3l1.4,0.2l-1,1l0.2,1.4l-1.3-0.7l-1.3,0.7l0.2-1.4l-1-1l1.4-0.2L23.5,244.2z"/>
	<path class="st32" d="M31.1,244.2l0.6,1.3l1.4,0.2l-1,1l0.2,1.4l-1.3-0.7l-1.3,0.7l0.2-1.4l-1-1l1.4-0.2L31.1,244.2z"/>
	<path class="st32" d="M38.6,244.2l0.6,1.3l1.4,0.2l-1,1l0.2,1.4l-1.3-0.7l-1.3,0.7l0.2-1.4l-1-1l1.4-0.2L38.6,244.2z"/>
</g>
<path class="st47" d="M46.2,244.2l0.6,1.3l1.4,0.2l-1,1l0.2,1.4l-1.3-0.7l-1.3,0.7l0.2-1.4l-1-1l1.4-0.2L46.2,244.2z"/>
<path class="st47" d="M53.7,244.2l0.6,1.3l1.4,0.2l-1,1l0.2,1.4l-1.3-0.7l-1.3,0.7l0.2-1.4l-1-1l1.4-0.2L53.7,244.2z"/>
<path class="st18" d="M22.6,253.5h64.2c0.7,0,1.3,0.6,1.3,1.3l0,0c0,0.7-0.6,1.3-1.3,1.3H22.6c-0.7,0-1.3-0.6-1.3-1.3l0,0
	C21.3,254.1,21.9,253.5,22.6,253.5z"/>
<path class="st18" d="M22.6,259.2h43.7c0.7,0,1.3,0.6,1.3,1.3l0,0c0,0.7-0.6,1.3-1.3,1.3H22.6c-0.7,0-1.3-0.6-1.3-1.3l0,0
	C21.3,259.8,21.9,259.2,22.6,259.2z"/>
<path class="st18" d="M22.6,264.9h26.1c0.7,0,1.3,0.6,1.3,1.3l0,0c0,0.7-0.6,1.3-1.3,1.3H22.6c-0.7,0-1.3-0.6-1.3-1.3l0,0
	C21.3,265.4,21.9,264.9,22.6,264.9z"/>
<g id="Artwork_10_00000055683695726056311600000006901305217851349125_">
	<g>
		<defs>
			<rect id="SVGID_00000078740585484711346270000012822851829261792677_" x="20" y="218" width="63.4" height="17"/>
		</defs>
		<clipPath id="SVGID_00000055689176457699084640000015984212758908620695_">
			<use xlink:href="#SVGID_00000078740585484711346270000012822851829261792677_"  style="overflow:visible;"/>
		</clipPath>
		<g style="clip-path:url(#SVGID_00000055689176457699084640000015984212758908620695_);">
			<defs>
				<rect id="SVGID_00000135649357259459154350000008274496033340416416_" x="20" y="218" width="63.4" height="17"/>
			</defs>
			<clipPath id="SVGID_00000026130022611631036500000017319401459311836812_">
				<use xlink:href="#SVGID_00000135649357259459154350000008274496033340416416_"  style="overflow:visible;"/>
			</clipPath>
			<path style="clip-path:url(#SVGID_00000026130022611631036500000017319401459311836812_);fill:#333333;" d="M20,220.6
				c0-1.4,1.1-2.6,2.6-2.6h58.2c1.4,0,2.6,1.1,2.6,2.6v11.8c0,1.4-1.1,2.6-2.6,2.6H22.6c-1.4,0-2.6-1.1-2.6-2.6V220.6z"/>
			<path style="clip-path:url(#SVGID_00000026130022611631036500000017319401459311836812_);fill:#3F6EB6;" d="M25.4,226
				c0-1.1,0.9-2.1,2-2.1h15.8c1.1,0,2,0.9,2,2.1s-0.9,2.1-2,2.1H27.3C26.2,228,25.4,227.1,25.4,226"/>
			<path style="clip-path:url(#SVGID_00000026130022611631036500000017319401459311836812_);fill:#999999;" d="M47.9,226.2
				c0-1.1,0.9-2.1,2-2.1s2,0.9,2,2.1c0,1.1-0.9,2.1-2,2.1C48.8,228.3,47.9,227.4,47.9,226.2"/>
			<path style="clip-path:url(#SVGID_00000026130022611631036500000017319401459311836812_);fill:#3F6EB6;" d="M54.8,226.2
				c0-1.1,0.9-2.1,2-2.1h21.7c1.1,0,2,0.9,2,2.1c0,1.1-0.9,2.1-2,2.1H56.7C55.7,228.3,54.8,227.4,54.8,226.2"/>
		</g>
	</g>
</g>
<path class="st29" d="M21.7,208.6c0-2.6,1.7-4.7,3.7-4.7h8.9c2.1,0,3.7,2.1,3.7,4.7v0.2c0,2.6-1.7,4.7-3.7,4.7h-8.9
	c-2.1,0-3.7-2.1-3.7-4.7V208.6z"/>
<path class="st31" d="M28.3,211.1h0.3v-0.4c0.8-0.1,1.3-0.5,1.3-1.2c0-0.8-0.7-1-1.1-1.1l-0.2,0V207c0.4,0,0.7,0.3,0.8,0.6h0.5
	c0-0.6-0.5-1-1.2-1.1v-0.5h-0.3v0.5c-0.7,0.1-1.2,0.5-1.2,1.1c0,0.5,0.4,0.9,1,1l0.2,0v1.5c-0.4,0-0.8-0.3-0.8-0.7H27
	c0,0.6,0.5,1.1,1.3,1.1V211.1z M28.7,210.2v-1.4l0,0c0.4,0.1,0.8,0.3,0.8,0.7C29.5,209.9,29.1,210.2,28.7,210.2z M28.3,208.3
	c-0.3-0.1-0.7-0.2-0.7-0.6c0-0.3,0.3-0.6,0.7-0.7V208.3z"/>
<path class="st31" d="M31.9,211.1h0.3v-0.4c0.8-0.1,1.3-0.5,1.3-1.2c0-0.8-0.7-1-1.1-1.1l-0.2,0V207c0.4,0,0.7,0.3,0.8,0.6h0.5
	c0-0.6-0.5-1-1.2-1.1v-0.5h-0.3v0.5c-0.7,0.1-1.2,0.5-1.2,1.1c0,0.5,0.4,0.9,1,1l0.2,0v1.5c-0.4,0-0.8-0.3-0.8-0.7h-0.5
	c0,0.6,0.5,1.1,1.3,1.1V211.1z M32.2,210.2v-1.4l0,0c0.4,0.1,0.8,0.3,0.8,0.7C33,209.9,32.7,210.2,32.2,210.2z M31.9,208.3
	c-0.3-0.1-0.7-0.2-0.7-0.6c0-0.3,0.3-0.6,0.7-0.7V208.3z"/>
<g>
	<path class="st32" d="M23.9,175l0.6,1.3l1.4,0.2l-1,1l0.2,1.4l-1.3-0.7l-1.3,0.7l0.2-1.4l-1-1l1.4-0.2L23.9,175z"/>
	<path class="st32" d="M31.4,175l0.6,1.3l1.4,0.2l-1,1l0.2,1.4l-1.3-0.7l-1.3,0.7l0.2-1.4l-1-1l1.4-0.2L31.4,175z"/>
	<path class="st32" d="M39,175l0.6,1.3l1.4,0.2l-1,1l0.2,1.4l-1.3-0.7l-1.3,0.7l0.2-1.4l-1-1l1.4-0.2L39,175z"/>
	<path class="st32" d="M47,175l0.6,1.3l1.4,0.2l-1,1l0.2,1.4l-1.3-0.7l-1.3,0.7l0.2-1.4l-1-1l1.4-0.2L47,175z"/>
</g>
<path class="st47" d="M54.1,175l0.6,1.3l1.4,0.2l-1,1l0.2,1.4l-1.3-0.7l-1.3,0.7l0.2-1.4l-1-1l1.4-0.2L54.1,175z"/>
<path class="st18" d="M22.9,184.4h64.2c0.7,0,1.3,0.6,1.3,1.3l0,0c0,0.7-0.6,1.3-1.3,1.3H22.9c-0.7,0-1.3-0.6-1.3-1.3l0,0
	C21.7,184.9,22.2,184.4,22.9,184.4z"/>
<path class="st18" d="M22.9,190h43.7c0.7,0,1.3,0.6,1.3,1.3l0,0c0,0.7-0.6,1.3-1.3,1.3H22.9c-0.7,0-1.3-0.6-1.3-1.3l0,0
	C21.7,190.6,22.2,190,22.9,190z"/>
<path class="st18" d="M22.9,195.7H49c0.7,0,1.3,0.6,1.3,1.3l0,0c0,0.7-0.6,1.3-1.3,1.3H22.9c-0.7,0-1.3-0.6-1.3-1.3l0,0
	C21.7,196.3,22.2,195.7,22.9,195.7z"/>
</svg>
