
<!-- Generator: Adobe Illustrator 26.3.1, SVG Export Plug-In . SVG Version: 6.00 Build 0)  -->
<svg xmlns="http://www.w3.org/2000/svg" width="480" height="320" viewBox="0 0 488 312" style="enable-background:new 0 0 488 312;" xml:space="preserve">
<style type="text/css">
	.st0{fill:#131318;fill-opacity:0.8;stroke:#333333;}
	.st1{fill:#333333;}
	.st2{fill-opacity:0.8;stroke:#333333;}
	.st3{fill:#FF6059;stroke:#E14640;stroke-width:0.5;}
	.st4{fill:#FFBD2E;stroke:#DFA023;stroke-width:0.5;}
	.st5{fill:#28CA42;stroke:#1DAC2C;stroke-width:0.5;}
	.st6{fill:#111111;}
	.st7{fill:none;}
	.st8{opacity:0.28;fill:#BFBEBB;}
	.st9{fill:#231F20;}
	.st10{fill:#393947;}
	.st11{fill:#FFFFFF;}
	.st12{fill:#C4C4C4;}
	.st13{fill:#017FF0;}
	.st14{fill:#076CC6;}
	.st15{fill:#5D3611;}
	.st16{fill:#2A6C28;}
	.st17{fill:#20591F;}
	.st18{fill:#0070F3;}
	.st19{fill:#999999;}
	.st20{fill:#666666;}
	.st21{fill:#4C2889;}
	.st22{fill:#F81CE5;}
</style>
<path class="st0" d="M12,0.5h464c6.4,0,11.5,5.1,11.5,11.5v288c0,6.4-5.1,11.5-11.5,11.5H12c-6.4,0-11.5-5.1-11.5-11.5V12
	C0.5,5.6,5.6,0.5,12,0.5z"/>
<path class="st1" d="M56,150.3h32v-0.8H56V150.3z M88,157.4H56v0.8h32V157.4z M56,157.4c-2,0-3.6-1.6-3.6-3.6h-0.8
	c0,2.4,2,4.4,4.4,4.4V157.4z M91.6,153.9c0,2-1.6,3.6-3.6,3.6v0.8c2.4,0,4.4-2,4.4-4.4H91.6z M88,150.3c2,0,3.6,1.6,3.6,3.6h0.8
	c0-2.4-2-4.4-4.4-4.4V150.3z M56,149.4c-2.4,0-4.4,2-4.4,4.4h0.8c0-2,1.6-3.6,3.6-3.6V149.4z"/>
<path class="st1" d="M62,136.3h12v-0.8H62V136.3z M74,143.4H62v0.8h12V143.4z M62,143.4c-2,0-3.6-1.6-3.6-3.6h-0.8
	c0,2.4,2,4.4,4.4,4.4V143.4z M77.6,139.9c0,2-1.6,3.6-3.6,3.6v0.8c2.4,0,4.4-2,4.4-4.4H77.6z M74,136.3c2,0,3.6,1.6,3.6,3.6h0.8
	c0-2.4-2-4.4-4.4-4.4V136.3z M62,135.4c-2.4,0-4.4,2-4.4,4.4h0.8c0-2,1.6-3.6,3.6-3.6V135.4z"/>
<path class="st1" d="M76,164.3h18v-0.8H76V164.3z M94,171.4H76v0.8h18V171.4z M76,171.4c-2,0-3.6-1.6-3.6-3.6h-0.8
	c0,2.4,2,4.4,4.4,4.4V171.4z M97.6,167.9c0,2-1.6,3.6-3.6,3.6v0.8c2.4,0,4.4-2,4.4-4.4H97.6z M94,164.3c2,0,3.6,1.6,3.6,3.6h0.8
	c0-2.4-2-4.4-4.4-4.4V164.3z M76,163.4c-2.4,0-4.4,2-4.4,4.4h0.8c0-2,1.6-3.6,3.6-3.6V163.4z"/>
<path class="st2" d="M0.5,12C0.5,5.6,5.6,0.5,12,0.5h464c6.4,0,11.5,5.1,11.5,11.5v15.5H0.5V12z"/>
<path class="st1" d="M113,10c0-2.2,1.8-4,4-4h254c2.2,0,4,1.8,4,4v8.4c0,2.2-1.8,4-4,4H117c-2.2,0-4-1.8-4-4V10z"/>
<path class="st1" d="M117,6.4h254V5.6H117V6.4z M374.6,10v8.4h0.8V10H374.6z M371,22H117v0.8h254V22z M113.4,18.4V10h-0.8v8.4H113.4
	z M117,22c-2,0-3.6-1.6-3.6-3.6h-0.8c0,2.4,2,4.4,4.4,4.4V22z M374.6,18.4c0,2-1.6,3.6-3.6,3.6v0.8c2.4,0,4.4-2,4.4-4.4H374.6z
	 M371,6.4c2,0,3.6,1.6,3.6,3.6h0.8c0-2.4-2-4.4-4.4-4.4V6.4z M117,5.6c-2.4,0-4.4,2-4.4,4.4h0.8c0-2,1.6-3.6,3.6-3.6V5.6z"/>
<path class="st3" d="M19.8,14c0,2.1-1.7,3.8-3.8,3.8s-3.8-1.7-3.8-3.8s1.7-3.8,3.8-3.8S19.8,11.9,19.8,14z"/>
<path class="st4" d="M31.8,14c0,2.1-1.7,3.8-3.8,3.8s-3.8-1.7-3.8-3.8s1.7-3.8,3.8-3.8S31.8,11.9,31.8,14z"/>
<path class="st5" d="M43.8,14c0,2.1-1.7,3.8-3.8,3.8s-3.8-1.7-3.8-3.8s1.7-3.8,3.8-3.8S43.8,11.9,43.8,14z"/>
<g>
	<g>
		<path class="st6" d="M46,130.1h139c5.5,0,10,4.5,10,10v122c0,5.5-4.5,10-10,10H46c-5.5,0-10-4.5-10-10v-122
			C36,134.6,40.5,130.1,46,130.1z"/>
		<path class="st1" d="M218,134.2c0-2.8,2.2-5,5-5h113c2.8,0,5,2.2,5,5v23c0,2.8-2.2,5-5,5H223c-2.8,0-5-2.2-5-5V134.2z"/>
		<path class="st1" d="M218,176.2c0-2.8,2.3-5,5.1-5h215.8c2.8,0,5.1,2.2,5.1,5v90c0,2.8-2.3,5-5.1,5H223.2c-2.8,0-5.1-2.2-5.1-5
			L218,176.2L218,176.2z"/>
		<path class="st7" d="M399,139.4c0-5.7,4.6-10.3,10.3-10.3h24.5c5.7,0,10.3,4.6,10.3,10.3v0.5c0,5.7-4.6,10.3-10.3,10.3h-24.5
			c-5.7,0-10.3-4.6-10.3-10.3V139.4z"/>
	</g>
	<g>
		<path class="st8" d="M73.1,84.6c0-10.7-8.7-19.4-19.5-19.4s-19.5,8.7-19.5,19.4S42.8,104,53.6,104C64.3,104,73.1,95.3,73.1,84.6z"
			/>
		<path class="st9" d="M72.1,84.6c0-10.1-8.3-18.4-18.5-18.4s-18.5,8.2-18.5,18.4c0,10.1,8.3,18.4,18.5,18.4S72.1,94.7,72.1,84.6z
			 M53.6,65.2c10.8,0,19.5,8.7,19.5,19.4S64.4,104,53.6,104s-19.5-8.7-19.5-19.4C34,73.9,42.8,65.2,53.6,65.2z"/>
		<path class="st10" d="M83.8,90.9c0-1.9,1.5-3.4,3.4-3.4h61.5c1.9,0,3.4,1.5,3.4,3.4s-1.5,3.4-3.4,3.4H87.2
			C85.3,94.3,83.8,92.8,83.8,90.9z"/>
		<path class="st11" d="M83.8,77.3c0-1.9,1.5-3.4,3.4-3.4h32.2c1.9,0,3.4,1.5,3.4,3.4c0,1.9-1.5,3.4-3.4,3.4H87.2
			C85.3,80.7,83.8,79.2,83.8,77.3z"/>
		<path class="st10" d="M264.5,82.2c0-1.9,1.5-3.4,3.4-3.4h32.2c1.9,0,3.4,1.5,3.4,3.4s-1.5,3.4-3.4,3.4h-32.2
			C266,85.6,264.5,84,264.5,82.2z"/>
		<path class="st10" d="M358.2,82.2c0-1.9,1.5-3.4,3.4-3.4h32.2c1.9,0,3.4,1.5,3.4,3.4s-1.5,3.4-3.4,3.4h-32.2
			C359.7,85.6,358.2,84,358.2,82.2z"/>
		<path class="st10" d="M217.6,82.2c0-1.9,1.5-3.4,3.4-3.4h32.2c1.9,0,3.4,1.5,3.4,3.4s-1.5,3.4-3.4,3.4H221
			C219.1,85.6,217.6,84,217.6,82.2z"/>
		<path class="st10" d="M311.3,82.2c0-1.9,1.5-3.4,3.4-3.4h32.2c1.9,0,3.4,1.5,3.4,3.4s-1.5,3.4-3.4,3.4h-32.2
			C312.8,85.6,311.3,84,311.3,82.2z"/>
		<path class="st10" d="M405,82.2c0-1.9,1.5-3.4,3.4-3.4h32.2c1.9,0,3.4,1.5,3.4,3.4s-1.5,3.4-3.4,3.4h-32.2
			C406.5,85.6,405,84,405,82.2z"/>
		<path class="st9" d="M50,90.5c0.2,0,0.3-0.1,0.3-0.3c0-0.2-0.1-0.3-0.3-0.3s-0.3,0.1-0.3,0.3C49.7,90.4,49.9,90.5,50,90.5z
			 M48.4,90.2c0-0.9,0.7-1.7,1.7-1.7c0.9,0,1.7,0.7,1.7,1.7s-0.7,1.7-1.7,1.7C49.1,91.8,48.4,91.1,48.4,90.2z"/>
		<path class="st9" d="M57.4,90.5c0.2,0,0.3-0.1,0.3-0.3c0-0.2-0.1-0.3-0.3-0.3s-0.3,0.1-0.3,0.3C57.1,90.4,57.2,90.5,57.4,90.5z
			 M55.7,90.2c0-0.9,0.7-1.7,1.7-1.7c0.9,0,1.7,0.7,1.7,1.7s-0.7,1.7-1.7,1.7C56.5,91.8,55.7,91.1,55.7,90.2z"/>
		<path class="st9" d="M43.7,76.8c0-0.6,0.4-1,1-1h2.7c0.5,0,0.9,0.3,1,0.8l0.5,2.5h10.5c0.3,0,0.6,0.1,0.8,0.4
			c0.2,0.2,0.3,0.5,0.2,0.8l-1.1,5.6c-0.1,0.5-0.4,1-0.8,1.4c-0.4,0.3-1,0.5-1.5,0.5h-6.5c-0.5,0-1.1-0.2-1.5-0.5
			c-0.4-0.3-0.7-0.8-0.8-1.4l0,0l-1.1-5.5c0,0,0,0,0-0.1l-0.5-2.5h-1.8C44.2,77.8,43.7,77.4,43.7,76.8z M49.3,81.2l0.9,4.4
			c0,0.1,0.1,0.1,0.1,0.2c0.1,0,0.1,0.1,0.2,0.1l0,0H57l0,0c0.1,0,0.2,0,0.2-0.1c0.1,0,0.1-0.1,0.1-0.2l0.8-4.4H49.3z"/>
	</g>
	<g>
		<path class="st11" d="M412.2,146.4h0.8v-1.1c2.1-0.1,3.3-1.4,3.3-2.9c0-1.9-1.8-2.5-2.9-2.8l-0.4-0.1V136c1.1,0.1,1.8,0.7,1.9,1.6
			h1.2c0-1.5-1.3-2.6-3.1-2.7v-1.1h-0.8v1.2c-1.7,0.2-3,1.3-3,2.8c0,1.4,1,2.2,2.6,2.6l0.4,0.1v3.8c-1-0.1-1.9-0.6-2-1.7h-1.3
			c0.1,1.6,1.3,2.7,3.3,2.8V146.4z M413,144.2v-3.5l0,0c1.1,0.3,2,0.7,2,1.7C415.1,143.4,414.2,144.1,413,144.2z M412.2,139.3
			c-0.8-0.2-1.8-0.6-1.8-1.6c0-0.9,0.7-1.5,1.8-1.7V139.3z"/>
		<path class="st11" d="M421.1,146.4h0.8v-1.1c2.1-0.1,3.3-1.4,3.3-2.9c0-1.9-1.8-2.5-2.9-2.8l-0.4-0.1V136c1.1,0.1,1.8,0.7,1.9,1.6
			h1.2c0-1.5-1.3-2.6-3.1-2.7v-1.1h-0.8v1.2c-1.7,0.2-3,1.3-3,2.8c0,1.4,1,2.2,2.6,2.6l0.4,0.1v3.8c-1-0.1-1.9-0.6-2-1.7h-1.3
			c0.1,1.6,1.3,2.7,3.3,2.8V146.4z M422,144.2v-3.5l0,0c1.1,0.3,2,0.7,2,1.7S423.2,144.1,422,144.2z M421.1,139.3
			c-0.8-0.2-1.8-0.6-1.8-1.6c0-0.9,0.7-1.5,1.8-1.7V139.3z"/>
		<path class="st11" d="M430.1,146.4h0.8v-1.1c2.1-0.1,3.3-1.4,3.3-2.9c0-1.9-1.8-2.5-2.9-2.8l-0.4-0.1V136c1.1,0.1,1.8,0.7,1.9,1.6
			h1.2c-0.1-1.5-1.3-2.6-3.1-2.7v-1.1h-0.8v1.2c-1.7,0.2-3,1.3-3,2.8c0,1.4,1,2.2,2.6,2.6l0.4,0.1v3.8c-1-0.1-1.9-0.6-2-1.7h-1.3
			c0.1,1.6,1.3,2.7,3.3,2.8V146.4z M430.9,144.2v-3.5l0,0c1.1,0.3,2,0.7,2,1.7C433,143.4,432.1,144.1,430.9,144.2z M430.1,139.3
			c-0.8-0.2-1.8-0.6-1.8-1.6c0-0.9,0.7-1.5,1.8-1.7V139.3z"/>
		<ellipse class="st12" cx="115.5" cy="241.7" rx="23.5" ry="4.5"/>
		<path class="st13" d="M101,241.2l-6-34.5h41.5l-6,34.5H101z"/>
		<path class="st14" d="M131,207.2c-12.4,2.8-13.5,23.2-12,33.5h-17.5l-6-33.5H131z"/>
		<path class="st15" d="M113.5,195.2c0-0.7,0.2-2.5,1-4.5s2-5.5,2.5-7c0.3-0.8,0.6-2.8-1-4c0.5,0.2,1.5,0.9,1.5,2.5
			c0.3-1.2,1.1-4.4,1.5-8c0.3-3-0.2-4.4-0.7-4.8c-0.1-0.1-0.2-0.1-0.3-0.2c0.1,0,0.2,0.1,0.3,0.2c0.3,0.2,0.6,0.6,0.7,1.1
			c-0.1-1.6-0.1-4.5,1-5.2c-0.5,0.8-1.3,3.1-0.5,5.5c0.8,2.4,0.7,4.3,0.5,5c0.2-0.5,0.8-1.5,2-1.5c-0.7,0.3-2.1,1.6-2.5,4
			c-0.5,3-2,8-2.5,9.5c0.3-0.2,1.5-1,1.5-1c-0.2,0.7-0.7,2.1-1.5,2.5c-0.3,0.5-1,2.4-1,6L113.5,195.2L113.5,195.2z"/>
		<rect x="91" y="195.2" class="st13" width="49" height="12"/>
		<path class="st16" d="M116.5,179.7c-2.4,2.4-5.3-0.7-6.5-2.5c1.2,0.3,3.4,0.8,3,0s-0.5-4.3-0.5-6
			C114.9,173,118.9,177.3,116.5,179.7z"/>
		<path class="st17" d="M116.5,179.2l-6.5-2c4-0.8,5.3-0.7,5.5-0.5c0.8-1.2-1.7-4.2-3-5.5c2.5,1.5,3.2,2.3,4,3
			c0.3,0.3,1.1,1.3,1.5,2.5S117.2,178.8,116.5,179.2z"/>
		<path class="st16" d="M117.5,169.7c-2.4,2.4-5.3-0.7-6.5-2.5c1.2,0.3,3.4,0.8,3,0s-0.5-4.3-0.5-6
			C115.9,163,119.9,167.3,117.5,169.7z"/>
		<path class="st17" d="M117.5,169.2l-6.5-2c4-0.8,5.3-0.7,5.5-0.5c0.8-1.2-1.7-4.2-3-5.5c2.5,1.5,3.2,2.3,4,3
			c0.3,0.3,1.1,1.3,1.5,2.5S118.2,168.8,117.5,169.2z"/>
		<path class="st16" d="M118.6,188.7c2.4,2.4,5.3-0.7,6.5-2.5c-1.2,0.3-3.4,0.8-3,0s0.5-4.3,0.5-6
			C120.3,182,116.2,186.3,118.6,188.7z"/>
		<path class="st17" d="M118.6,188.2l6.5-2c-4-0.8-5.3-0.7-5.5-0.5c-0.8-1.2,1.7-4.2,3-5.5c-2.5,1.5-3.2,2.3-4,3
			c-0.3,0.3-1.1,1.3-1.5,2.5S118,187.8,118.6,188.2z"/>
		<path class="st16" d="M121.6,175.7c2.4,2.4,5.3-0.7,6.5-2.5c-1.2,0.3-3.4,0.8-3,0s0.5-4.3,0.5-6
			C123.3,169,119.2,173.3,121.6,175.7z"/>
		<path class="st17" d="M121.6,175.2l6.5-2c-4-0.8-5.3-0.7-5.5-0.5c-0.8-1.2,1.7-4.2,3-5.5c-2.5,1.5-3.2,2.3-4,3
			c-0.3,0.3-1.1,1.3-1.5,2.5S121,174.8,121.6,175.2z"/>
		<path class="st16" d="M119.6,165.7c2.4,2.4,5.3-0.7,6.5-2.5c-1.2,0.3-3.4,0.8-3,0s0.5-4.3,0.5-6
			C121.3,159,117.2,163.3,119.6,165.7z"/>
		<path class="st17" d="M119.6,165.2l6.5-2c-4-0.8-5.3-0.7-5.5-0.5c-0.8-1.2,1.7-4.2,3-5.5c-2.5,1.5-3.2,2.3-4,3
			c-0.3,0.3-1.1,1.3-1.5,2.5C117.7,163.9,119,164.8,119.6,165.2z"/>
	</g>
</g>
<path class="st18" d="M228.4,144.7c0-2.2,1.7-4,3.8-4h30.6c2.1,0,3.8,1.8,3.8,4l0,0c0,2.2-1.7,4-3.8,4h-30.6
	C230.1,148.7,228.4,146.9,228.4,144.7L228.4,144.7z"/>
<path class="st19" d="M272.1,145.1c0-2.2,1.7-4,3.8-4l0,0c2.1,0,3.8,1.8,3.8,4l0,0c0,2.2-1.7,4-3.8,4l0,0
	C273.9,149.1,272.1,147.4,272.1,145.1L272.1,145.1z"/>
<path class="st18" d="M285.5,145.1c0-2.2,1.7-4,3.8-4h42.1c2.1,0,3.8,1.8,3.8,4l0,0c0,2.2-1.7,4-3.8,4h-42.1
	C287.3,149.1,285.5,147.4,285.5,145.1L285.5,145.1z"/>
<path class="st20" d="M133.1,144c0-2.2,1.8-4,4-4h44c2.2,0,4,1.8,4,4l0,0c0,2.2-1.8,4-4,4h-44C134.9,148,133.1,146.2,133.1,144
	L133.1,144z"/>
<path class="st18" d="M231.9,210.1c0-2.2,1.8-4,4-4h18c2.2,0,4,1.8,4,4l0,0c0,2.2-1.8,4-4,4h-18
	C233.7,214.1,231.9,212.3,231.9,210.1L231.9,210.1z"/>
<path class="st21" d="M234.3,223.1c0-2.2,1.8-4,4-4h12c2.2,0,4,1.8,4,4l0,0c0,2.2-1.8,4-4,4h-12
	C236.1,227.1,234.3,225.4,234.3,223.1L234.3,223.1z"/>
<path class="st22" d="M257.9,224.1c0-2.2,1.8-4,4-4h32c2.2,0,4,1.8,4,4l0,0c0,2.2-1.8,4-4,4h-32
	C259.7,228.1,257.9,226.3,257.9,224.1L257.9,224.1z"/>
<path class="st22" d="M303.9,224.1c0-2.2,1.8-4,4-4h12c2.2,0,4,1.8,4,4l0,0c0,2.2-1.8,4-4,4h-12
	C305.7,228.1,303.9,226.3,303.9,224.1L303.9,224.1z"/>
<path class="st22" d="M277.9,196.1c0-2.2,1.8-4,4-4h12c2.2,0,4,1.8,4,4l0,0c0,2.2-1.8,4-4,4h-12
	C279.7,200.1,277.9,198.3,277.9,196.1L277.9,196.1z"/>
<path class="st18" d="M231.9,238.1c0-2.2,1.8-4,4-4h32c2.2,0,4,1.8,4,4l0,0c0,2.2-1.8,4-4,4h-32
	C233.7,242.1,231.9,240.3,231.9,238.1L231.9,238.1z"/>
<path class="st22" d="M263.9,210.1c0-2.2,1.8-4,4-4h44c2.2,0,4,1.8,4,4l0,0c0,2.2-1.8,4-4,4h-44
	C265.7,214.1,263.9,212.3,263.9,210.1L263.9,210.1z"/>
<path class="st18" d="M277.9,238.1c0-2.2,1.8-4,4-4h18c2.2,0,4,1.8,4,4l0,0c0,2.2-1.8,4-4,4h-18
	C279.7,242.1,277.9,240.3,277.9,238.1L277.9,238.1z"/>
<path class="st18" d="M329.8,209.9c0-2.2,1.8-4,4-4h18c2.2,0,4,1.8,4,4l0,0c0,2.2-1.8,4-4,4h-18
	C331.6,213.9,329.8,212.2,329.8,209.9L329.8,209.9z"/>
<path class="st21" d="M332.1,223c0-2.2,1.8-4,4-4h12c2.2,0,4,1.8,4,4l0,0c0,2.2-1.8,4-4,4h-12C333.9,227,332.1,225.2,332.1,223
	L332.1,223z"/>
<path class="st22" d="M355.8,223.9c0-2.2,1.8-4,4-4h32c2.2,0,4,1.8,4,4l0,0c0,2.2-1.8,4-4,4h-32
	C357.6,227.9,355.8,226.2,355.8,223.9L355.8,223.9z"/>
<path class="st22" d="M401.8,223.9c0-2.2,1.8-4,4-4h12c2.2,0,4,1.8,4,4l0,0c0,2.2-1.8,4-4,4h-12
	C403.6,227.9,401.8,226.2,401.8,223.9L401.8,223.9z"/>
<path class="st22" d="M375.8,195.9c0-2.2,1.8-4,4-4h12c2.2,0,4,1.8,4,4l0,0c0,2.2-1.8,4-4,4h-12
	C377.6,199.9,375.8,198.2,375.8,195.9L375.8,195.9z"/>
<path class="st18" d="M329.8,237.9c0-2.2,1.8-4,4-4h32c2.2,0,4,1.8,4,4l0,0c0,2.2-1.8,4-4,4h-32
	C331.6,241.9,329.8,240.2,329.8,237.9L329.8,237.9z"/>
<path class="st22" d="M361.8,209.9c0-2.2,1.8-4,4-4h44c2.2,0,4,1.8,4,4l0,0c0,2.2-1.8,4-4,4h-44
	C363.6,213.9,361.8,212.2,361.8,209.9L361.8,209.9z"/>
<path class="st18" d="M375.8,237.9c0-2.2,1.8-4,4-4h18c2.2,0,4,1.8,4,4l0,0c0,2.2-1.8,4-4,4h-18
	C377.6,241.9,375.8,240.2,375.8,237.9L375.8,237.9z"/>
<path class="st18" d="M232.5,195.3c0-2.2,1.8-4,4-4h32c2.2,0,4,1.8,4,4l0,0c0,2.2-1.8,4-4,4h-32
	C234.3,199.3,232.5,197.5,232.5,195.3L232.5,195.3z"/>
<path class="st18" d="M329.4,195.8c0-2.2,1.8-4,4-4h32c2.2,0,4,1.8,4,4l0,0c0,2.2-1.8,4-4,4h-32C331.2,199.8,329.4,198,329.4,195.8
	L329.4,195.8z"/>
<path class="st19" d="M304.9,195.3c0-2.2,1.8-4,4-4l0,0c2.2,0,4,1.8,4,4l0,0c0,2.2-1.8,4-4,4l0,0
	C306.7,199.3,304.9,197.5,304.9,195.3L304.9,195.3z"/>
<path class="st19" d="M309.2,237.6c0-2.2,1.8-4,4-4l0,0c2.2,0,4,1.8,4,4l0,0c0,2.2-1.8,4-4,4l0,0C311,241.6,309.2,239.9,309.2,237.6
	L309.2,237.6z"/>
<path class="st21" d="M400.6,195.4c0-2.2,1.8-4,4-4h12c2.2,0,4,1.8,4,4l0,0c0,2.2-1.8,4-4,4h-12
	C402.4,199.4,400.6,197.6,400.6,195.4L400.6,195.4z"/>
<path class="st19" d="M416,209.9c0-2.2,1.8-4,4-4l0,0c2.2,0,4,1.8,4,4l0,0c0,2.2-1.8,4-4,4l0,0C417.8,213.9,416,212.1,416,209.9
	L416,209.9z"/>
<path class="st21" d="M403.9,238.2c0-2.2,1.4-4,3.2-4h14.4c1.8,0,3.2,1.8,3.2,4l0,0c0,2.2-1.4,4-3.2,4h-14.4
	C405.3,242.2,403.9,240.4,403.9,238.2L403.9,238.2z"/>
</svg>
