<svg width="480" height="320" viewBox="0 0 480 320" fill="none" xmlns="http://www.w3.org/2000/svg">
<rect x="0.5" y="0.5" width="479" height="319" rx="11.5" fill="black" fill-opacity="0.8" stroke="#333333"/>
<path opacity="0.8" d="M0.5 12C0.5 5.64873 5.64873 0.5 12 0.5H468C474.351 0.5 479.5 5.64873 479.5 12V27.5H0.5V12Z" fill="black" fill-opacity="0.8" stroke="#333333"/>
<g opacity="0.8">
<path d="M113 10C113 7.79086 114.791 6 117 6H371C373.209 6 375 7.79086 375 10V18.431C375 20.6401 373.209 22.431 371 22.431H117C114.791 22.431 113 20.6401 113 18.431V10Z" fill="#333333"/>
</g>
<path d="M19.75 14C19.75 16.0711 18.0711 17.75 16 17.75C13.9289 17.75 12.25 16.0711 12.25 14C12.25 11.9289 13.9289 10.25 16 10.25C18.0711 10.25 19.75 11.9289 19.75 14Z" fill="#FF6059" stroke="#E14640" stroke-width="0.5"/>
<path d="M31.75 14C31.75 16.0711 30.0711 17.75 28 17.75C25.9289 17.75 24.25 16.0711 24.25 14C24.25 11.9289 25.9289 10.25 28 10.25C30.0711 10.25 31.75 11.9289 31.75 14Z" fill="#FFBD2E" stroke="#DFA023" stroke-width="0.5"/>
<path d="M43.75 14C43.75 16.0711 42.0711 17.75 40 17.75C37.9289 17.75 36.25 16.0711 36.25 14C36.25 11.9289 37.9289 10.25 40 10.25C42.0711 10.25 43.75 11.9289 43.75 14Z" fill="#28CA42" stroke="#1DAC2C" stroke-width="0.5"/>
<path d="M201 254.062C201 245.744 207.744 239 216.062 239H251.987C260.306 239 267.05 245.744 267.05 254.062V254.761C267.05 263.08 260.306 269.823 251.987 269.823H216.062C207.744 269.823 201 263.08 201 254.761V254.062Z" fill="#F81CE5"/>
<path d="M222.142 262H223.178V260.606C225.83 260.425 227.321 258.875 227.321 256.925C227.321 254.525 225.022 253.75 223.683 253.4L223.178 253.262V248.819C224.517 248.95 225.489 249.662 225.628 250.8H227.144C227.081 248.975 225.464 247.587 223.178 247.438V246H222.142V247.456C219.977 247.675 218.354 249.038 218.354 251C218.354 252.725 219.617 253.75 221.637 254.325L222.142 254.469V259.2C220.816 259.062 219.73 258.387 219.617 257.1H218C218.145 259.069 219.661 260.444 222.142 260.606V262ZM223.178 259.2V254.762L223.229 254.775C224.593 255.15 225.805 255.625 225.805 256.9C225.805 258.156 224.706 259.031 223.178 259.2ZM222.142 252.988C221.183 252.719 219.869 252.194 219.869 250.925C219.869 249.844 220.753 249.019 222.142 248.838V252.988Z" fill="white"/>
<path d="M233.482 262H234.518V260.606C237.17 260.425 238.66 258.875 238.66 256.925C238.66 254.525 236.362 253.75 235.023 253.4L234.518 253.262V248.819C235.857 248.95 236.829 249.662 236.968 250.8H238.483C238.42 248.975 236.804 247.587 234.518 247.438V246H233.482V247.456C231.316 247.675 229.693 249.038 229.693 251C229.693 252.725 230.956 253.75 232.977 254.325L233.482 254.469V259.2C232.156 259.062 231.07 258.387 230.956 257.1H229.34C229.485 259.069 231 260.444 233.482 260.606V262ZM234.518 259.2V254.762L234.568 254.775C235.932 255.15 237.145 255.625 237.145 256.9C237.145 258.156 236.046 259.031 234.518 259.2ZM233.482 252.988C232.522 252.719 231.209 252.194 231.209 250.925C231.209 249.844 232.093 249.019 233.482 248.838V252.988Z" fill="white"/>
<path d="M244.822 262H245.858V260.606C248.51 260.425 250 258.875 250 256.925C250 254.525 247.701 253.75 246.363 253.4L245.858 253.262V248.819C247.196 248.95 248.169 249.662 248.308 250.8H249.823C249.76 248.975 248.143 247.587 245.858 247.438V246H244.822V247.456C242.656 247.675 241.033 249.038 241.033 251C241.033 252.725 242.296 253.75 244.317 254.325L244.822 254.469V259.2C243.496 259.062 242.41 258.387 242.296 257.1H240.679C240.825 259.069 242.34 260.444 244.822 260.606V262ZM245.858 259.2V254.762L245.908 254.775C247.272 255.15 248.484 255.625 248.484 256.9C248.484 258.156 247.386 259.031 245.858 259.2ZM244.822 252.988C243.862 252.719 242.549 252.194 242.549 250.925C242.549 249.844 243.433 249.019 244.822 248.838V252.988Z" fill="white"/>
<path opacity="0.8" d="M60 76C60 66.0589 51.9411 58 42 58C32.0589 58 24 66.0589 24 76C24 85.9411 32.0589 94 42 94C51.9411 94 60 85.9411 60 76Z" fill="#F81CE5"/>
<rect opacity="0.8" x="24" y="105" width="153" height="171" rx="8" fill="#F7D4D6"/>
<path opacity="0.8" d="M208 147.333L210.06 151.506L214.666 152.18L211.333 155.426L212.12 160.013L208 157.846L203.88 160.013L204.666 155.426L201.333 152.18L205.94 151.506L208 147.333Z" fill="#FFA800" stroke="#FFA800" stroke-linecap="round" stroke-linejoin="round"/>
<path opacity="0.8" d="M232 147.333L234.06 151.506L238.666 152.18L235.333 155.426L236.12 160.013L232 157.846L227.88 160.013L228.666 155.426L225.333 152.18L229.94 151.506L232 147.333Z" fill="#FFA800" stroke="#FFA800" stroke-linecap="round" stroke-linejoin="round"/>
<path opacity="0.8" d="M256 147.333L258.06 151.506L262.666 152.18L259.333 155.426L260.12 160.013L256 157.846L251.88 160.013L252.666 155.426L249.333 152.18L253.94 151.506L256 147.333Z" fill="#FFA800" stroke="#FFA800" stroke-linecap="round" stroke-linejoin="round"/>
<path opacity="0.8" d="M280 147.333L282.06 151.506L286.666 152.18L283.333 155.426L284.12 160.013L280 157.846L275.88 160.013L276.666 155.426L273.333 152.18L277.94 151.506L280 147.333Z" fill="#333333" stroke="#333333" stroke-linecap="round" stroke-linejoin="round"/>
<path opacity="0.8" d="M304 147.333L306.06 151.506L310.666 152.18L307.333 155.426L308.12 160.013L304 157.846L299.88 160.013L300.666 155.426L297.333 152.18L301.94 151.506L304 147.333Z" fill="#333333" stroke="#333333" stroke-linecap="round" stroke-linejoin="round"/>
<rect opacity="0.8" x="201" y="177" width="212" height="8" rx="4" fill="#444444"/>
<rect opacity="0.8" x="201" y="118" width="114" height="14" rx="7" fill="#444444"/>
<rect opacity="0.8" x="201" y="195" width="147" height="8" rx="4" fill="#444444"/>
<rect opacity="0.8" x="201" y="213" width="91" height="8" rx="4" fill="#444444"/>
<rect opacity="0.8" x="387" y="69" width="50" height="8" rx="4" fill="#666666"/>
<rect opacity="0.8" x="325" y="69" width="50" height="8" rx="4" fill="#666666"/>
<rect opacity="0.8" x="263" y="69" width="50" height="8" rx="4" fill="#666666"/>
<rect opacity="0.8" x="201" y="69" width="50" height="8" rx="4" fill="#666666"/>
<circle opacity="0.8" cx="65" cy="293" r="4" fill="#0180F0"/>
<circle opacity="0.8" cx="113" cy="293" r="4" fill="#444444"/>
<circle opacity="0.8" cx="89" cy="293" r="4" fill="#444444"/>
<circle opacity="0.8" cx="137" cy="293" r="4" fill="#444444"/>
</svg>
