<?xml version="1.0" encoding="utf-8"?>
<!-- Generator: Adobe Illustrator 26.3.1, SVG Export Plug-In . SVG Version: 6.00 Build 0)  -->
<svg version="1.1" xmlns="http://www.w3.org/2000/svg" xmlns:xlink="http://www.w3.org/1999/xlink" x="0px" y="0px"
	width="480" height="320" viewBox="0 0 816 508" style="enable-background:new 0 0 816 508;" xml:space="preserve">
<style type="text/css">
	.st0{fill:#313535;stroke:#000000;stroke-miterlimit:10;}
	.st1{fill:#333333;}
	.st2{fill:#CCCCCB;}
	.st3{fill:#669999;}
	.st4{fill:#009999;}
	.st5{fill:#010101;stroke:#333333;}
	.st6{fill:#F1615B;stroke:#E14740;stroke-width:0.5;}
	.st7{fill:#FEBC2F;stroke:#E0A126;stroke-width:0.5;}
	.st8{fill:#4EB748;stroke:#25AC4A;stroke-width:0.5;}
	.st9{fill:#333333;stroke:#000000;stroke-miterlimit:10;}
	.st10{fill:#262626;}
	.st11{fill:#676767;}
	.st12{fill:#416EB6;}
	.st13{fill:#3D3D3D;}
	.st14{fill:#00AA5D;}
	.st15{fill:#989898;}
	.st16{fill:#989897;}
	.st17{fill:#126D97;}
	.st18{fill:#136D97;}
	.st19{fill:#4D2E88;}
	.st20{fill:#C0509D;}
	.st21{fill:#454545;}
	.st22{fill:none;stroke:#333333;stroke-width:0.4108;}
	.st23{fill:none;stroke:#FFFFFF;stroke-width:1.5;stroke-miterlimit:10;}
</style>
<g id="Layer_1">
	<path class="st0" d="M802.5,503.5H11.5c-5.5,0-10-4.5-10-10V14.5c0-5.5,4.5-10,10-10h791.1c5.5,0,10,4.5,10,10v479.1
		C812.5,499,808,503.5,802.5,503.5z"/>
</g>
<g id="Layer_2">
	<path class="st1" d="M746,20.9h18v-0.8h-18V20.9z M764,28.1h-18v0.8h18V28.1z M746,28.1c-2,0-3.6-1.6-3.6-3.6h-0.8
		c0,2.4,2,4.4,4.4,4.4V28.1L746,28.1z M767.6,24.5c0,2-1.6,3.6-3.6,3.6v0.8c2.4,0,4.4-2,4.4-4.4H767.6z M764,20.9
		c2,0,3.6,1.6,3.6,3.6h0.8c0-2.4-2-4.4-4.4-4.4V20.9L764,20.9z M746,20.1c-2.4,0-4.4,2-4.4,4.4h0.8c0-2,1.6-3.6,3.6-3.6V20.1
		L746,20.1z"/>
	<g>
		<path class="st1" d="M831.5-98h-194c-2.5,0-4.5-2-4.5-4.5v-221c0-2.5,2-4.5,4.5-4.5h194c2.5,0,4.5,2,4.5,4.5v221
			C836-100,834-98,831.5-98z"/>
		
			<text transform="matrix(1 0 0 1 731.2354 -146.5293)" style="fill:#FFFFFF; font-family:'Inter-Bold'; font-size:20px; letter-spacing:-1;">#333333</text>
		
			<text transform="matrix(1 0 0 1 694.9402 -118.1187)" style="fill:#FFFFFF; font-family:'Inter-Bold'; font-size:24px; letter-spacing:-1;">#hiContrast</text>
	</g>
	<g>
		<path class="st2" d="M170.5-98h-194c-2.5,0-4.5-2-4.5-4.5v-221c0-2.5,2-4.5,4.5-4.5h194c2.5,0,4.5,2,4.5,4.5v221
			C175-100,173-98,170.5-98z"/>
		
			<text transform="matrix(1 0 0 1 62.2353 -147.5293)" style="fill:#FFFFFF; font-family:'Inter-Bold'; font-size:20px; letter-spacing:-1;">#CCCCCB</text>
		
			<text transform="matrix(1 0 0 1 33.9402 -118.1188)" style="fill:#FFFFFF; font-family:'Inter-Bold'; font-size:24px; letter-spacing:-1;">#hiContrast</text>
	</g>
	<g>
		<g>
			<path class="st3" d="M391.5-99h-194c-2.5,0-4.5-2-4.5-4.5v-221c0-2.5,2-4.5,4.5-4.5h194c2.5,0,4.5,2,4.5,4.5v221
				C396-101,394-99,391.5-99z"/>
			
				<text transform="matrix(1 0 0 1 296.2354 -180.5293)" class="st3" style="font-family:'Inter-Bold'; font-size:20px; letter-spacing:-1;">#333333</text>
			
				<text transform="matrix(1 0 0 1 254.9402 -119.1188)" class="st3" style="font-family:'Inter-Bold'; font-size:24px; letter-spacing:-1;">#hiContrast</text>
		</g>
		
			<text transform="matrix(1 0 0 1 291.8157 -148.6984)" style="fill:#FFFFFF; font-family:'Inter-Bold'; font-size:20px; letter-spacing:-1;">#669999</text>
		
			<text transform="matrix(1 0 0 1 255.5205 -120.2879)" style="fill:#FFFFFF; font-family:'Inter-Bold'; font-size:24px; letter-spacing:-1;">#hiContrast</text>
	</g>
	<g>
		<g>
			<g>
				<path class="st4" d="M613.5-99h-194c-2.5,0-4.5-2-4.5-4.5v-221c0-2.5,2-4.5,4.5-4.5h194c2.5,0,4.5,2,4.5,4.5v221
					C618-101,616-99,613.5-99z"/>
			</g>
		</g>
		
			<text transform="matrix(1 0 0 1 513.8159 -150.6984)" style="fill:#FFFFFF; font-family:'Inter-Bold'; font-size:20px; letter-spacing:-1;">#009999</text>
		
			<text transform="matrix(1 0 0 1 477.5208 -122.2878)" style="fill:#FFFFFF; font-family:'Inter-Bold'; font-size:24px; letter-spacing:-1;">#hiContrast</text>
	</g>
	<path class="st5" d="M800.1,3.5H13.6C6.9,3.5,1.5,8.9,1.5,15.6v31.9h811V15.9C812.5,9.1,806.9,3.5,800.1,3.5z"/>
	<g>
		<path class="st6" d="M34.4,24.4c0,3.4-2.7,6.1-6.1,6.1s-6.1-2.7-6.1-6.1s2.7-6.1,6.1-6.1S34.4,21.1,34.4,24.4z"/>
		<path class="st7" d="M53.6,24.4c0,3.4-2.7,6.1-6.1,6.1s-6.1-2.7-6.1-6.1s2.7-6.1,6.1-6.1S53.6,21.1,53.6,24.4z"/>
		<path class="st8" d="M72.8,24.4c0,3.4-2.7,6.1-6.1,6.1c-3.4,0-6.1-2.7-6.1-6.1s2.7-6.1,6.1-6.1C70.1,18.3,72.8,21.1,72.8,24.4z"/>
	</g>
	<path class="st9" d="M601.1,41.5H147.9c-3,0-5.4-2.4-5.4-5.4V15.9c0-3,2.4-5.4,5.4-5.4h453.2c3,0,5.4,2.4,5.4,5.4v20.2
		C606.5,39.1,604.1,41.5,601.1,41.5z"/>
	<path class="st10" d="M803.3,504.5H212V50h600.5v445.3C812.5,500.4,808.4,504.5,803.3,504.5z"/>
	<path class="st11" d="M373.4,86c0-2.2,1.8-4,4-4h44c2.2,0,4,1.8,4,4l0,0c0,2.2-1.8,4-4,4h-44C375.2,90,373.4,88.2,373.4,86
		L373.4,86z"/>
	<path class="st11" d="M309.4,86c0-2.2,1.8-4,4-4h44c2.2,0,4,1.8,4,4l0,0c0,2.2-1.8,4-4,4h-44C311.2,90,309.4,88.2,309.4,86
		L309.4,86z"/>
	<path class="st12" d="M245.4,86c0-2.2,1.8-4,4-4h44c2.2,0,4,1.8,4,4l0,0c0,2.2-1.8,4-4,4h-44C247.2,90,245.4,88.2,245.4,86
		L245.4,86z"/>
	<path class="st13" d="M501.3,269H247.7c-2.6,0-4.7-2.1-4.7-4.7V133.7c0-2.6,2.1-4.7,4.7-4.7h253.6c2.6,0,4.7,2.1,4.7,4.7v130.6
		C506,266.9,503.9,269,501.3,269z"/>
	<path class="st14" d="M255.6,153.3c0-2.2,1.8-4,4-4l0,0c2.2,0,4,1.8,4,4l0,0c0,2.2-1.8,4-4,4l0,0
		C257.4,157.3,255.6,155.5,255.6,153.3L255.6,153.3z"/>
	<path class="st14" d="M259.6,156.8c-2,0-3.6-1.6-3.6-3.6h-0.8c0,2.4,2,4.4,4.4,4.4V156.8z M263.2,153.3c0,2-1.6,3.6-3.6,3.6v0.8
		c2.4,0,4.4-2,4.4-4.4H263.2z M259.6,149.7c2,0,3.6,1.6,3.6,3.6h0.8c0-2.4-2-4.4-4.4-4.4V149.7z M259.6,148.8c-2.4,0-4.4,2-4.4,4.4
		h0.8c0-2,1.6-3.6,3.6-3.6V148.8z"/>
	<path class="st1" d="M255.6,167.3c0-2.2,1.8-4,4-4l0,0c2.2,0,4,1.8,4,4l0,0c0,2.2-1.8,4-4,4l0,0
		C257.4,171.3,255.6,169.5,255.6,167.3L255.6,167.3z"/>
	<path class="st1" d="M259.6,170.8c-2,0-3.6-1.6-3.6-3.6h-0.8c0,2.4,2,4.4,4.4,4.4V170.8z M263.2,167.3c0,2-1.6,3.6-3.6,3.6v0.8
		c2.4,0,4.4-2,4.4-4.4H263.2z M259.6,163.7c2,0,3.6,1.6,3.6,3.6h0.8c0-2.4-2-4.4-4.4-4.4V163.7z M259.6,162.8c-2.4,0-4.4,2-4.4,4.4
		h0.8c0-2,1.6-3.6,3.6-3.6V162.8z"/>
	<path class="st1" d="M255.6,181.3c0-2.2,1.8-4,4-4l0,0c2.2,0,4,1.8,4,4l0,0c0,2.2-1.8,4-4,4l0,0
		C257.4,185.3,255.6,183.5,255.6,181.3L255.6,181.3z"/>
	<path class="st1" d="M259.6,184.8c-2,0-3.6-1.6-3.6-3.6h-0.8c0,2.4,2,4.4,4.4,4.4V184.8z M263.2,181.3c0,2-1.6,3.6-3.6,3.6v0.8
		c2.4,0,4.4-2,4.4-4.4H263.2z M259.6,177.7c2,0,3.6,1.6,3.6,3.6h0.8c0-2.4-2-4.4-4.4-4.4V177.7z M259.6,176.8c-2.4,0-4.4,2-4.4,4.4
		h0.8c0-2,1.6-3.6,3.6-3.6V176.8z"/>
	<path class="st1" d="M255.6,195.3c0-2.2,1.8-4,4-4l0,0c2.2,0,4,1.8,4,4l0,0c0,2.2-1.8,4-4,4l0,0
		C257.4,199.3,255.6,197.5,255.6,195.3L255.6,195.3z"/>
	<path class="st1" d="M259.6,198.8c-2,0-3.6-1.6-3.6-3.6h-0.8c0,2.4,2,4.4,4.4,4.4V198.8z M263.2,195.3c0,2-1.6,3.6-3.6,3.6v0.8
		c2.4,0,4.4-2,4.4-4.4H263.2z M259.6,191.7c2,0,3.6,1.6,3.6,3.6h0.8c0-2.4-2-4.4-4.4-4.4V191.7z M259.6,190.8c-2.4,0-4.4,2-4.4,4.4
		h0.8c0-2,1.6-3.6,3.6-3.6V190.8z"/>
	<path class="st15" d="M255.6,209.3c0-2.2,1.8-4,4-4l0,0c2.2,0,4,1.8,4,4l0,0c0,2.2-1.8,4-4,4l0,0
		C257.4,213.3,255.6,211.5,255.6,209.3L255.6,209.3z"/>
	<path class="st1" d="M255.6,223.3c0-2.2,1.8-4,4-4l0,0c2.2,0,4,1.8,4,4l0,0c0,2.2-1.8,4-4,4l0,0
		C257.4,227.3,255.6,225.5,255.6,223.3L255.6,223.3z"/>
	<path class="st1" d="M259.6,226.8c-2,0-3.6-1.6-3.6-3.6h-0.8c0,2.4,2,4.4,4.4,4.4V226.8z M263.2,223.3c0,2-1.6,3.6-3.6,3.6v0.8
		c2.4,0,4.4-2,4.4-4.4L263.2,223.3L263.2,223.3z M259.6,219.7c2,0,3.6,1.6,3.6,3.6h0.8c0-2.4-2-4.4-4.4-4.4V219.7z M259.6,218.8
		c-2.4,0-4.4,2-4.4,4.4h0.8c0-2,1.6-3.6,3.6-3.6V218.8z"/>
	<path class="st1" d="M255.6,237.3c0-2.2,1.8-4,4-4l0,0c2.2,0,4,1.8,4,4l0,0c0,2.2-1.8,4-4,4l0,0
		C257.4,241.3,255.6,239.5,255.6,237.3L255.6,237.3z"/>
	<path class="st1" d="M259.6,240.8c-2,0-3.6-1.6-3.6-3.6h-0.8c0,2.4,2,4.4,4.4,4.4V240.8z M263.2,237.3c0,2-1.6,3.6-3.6,3.6v0.8
		c2.4,0,4.4-2,4.4-4.4L263.2,237.3L263.2,237.3z M259.6,233.7c2,0,3.6,1.6,3.6,3.6h0.8c0-2.4-2-4.4-4.4-4.4V233.7z M259.6,232.8
		c-2.4,0-4.4,2-4.4,4.4h0.8c0-2,1.6-3.6,3.6-3.6V232.8z"/>
	<path class="st1" d="M255.6,251.3c0-2.2,1.8-4,4-4l0,0c2.2,0,4,1.8,4,4l0,0c0,2.2-1.8,4-4,4l0,0
		C257.4,255.3,255.6,253.5,255.6,251.3L255.6,251.3z"/>
	<path class="st1" d="M259.6,254.8c-2,0-3.6-1.6-3.6-3.6h-0.8c0,2.4,2,4.4,4.4,4.4V254.8z M263.2,251.3c0,2-1.6,3.6-3.6,3.6v0.8
		c2.4,0,4.4-2,4.4-4.4L263.2,251.3L263.2,251.3z M259.6,247.7c2,0,3.6,1.6,3.6,3.6h0.8c0-2.4-2-4.4-4.4-4.4V247.7z M259.6,246.8
		c-2.4,0-4.4,2-4.4,4.4h0.8c0-2,1.6-3.6,3.6-3.6V246.8z"/>
	<path class="st1" d="M371.6,247.3c2.2,0,4,1.8,4,4l0,0c0,2.2-1.8,4-4,4l0,0c-2.2,0-4-1.8-4-4l0,0
		C367.6,249.1,369.4,247.3,371.6,247.3L371.6,247.3z"/>
	<path class="st1" d="M368.1,251.3c0-2,1.6-3.6,3.6-3.6v-0.8c-2.4,0-4.4,2-4.4,4.4H368.1z M371.6,254.9c-2,0-3.6-1.6-3.6-3.6h-0.8
		c0,2.4,2,4.4,4.4,4.4V254.9z M375.2,251.3c0,2-1.6,3.6-3.6,3.6v0.8c2.4,0,4.4-2,4.4-4.4H375.2z M376.1,251.3c0-2.4-2-4.4-4.4-4.4
		v0.8c2,0,3.6,1.6,3.6,3.6H376.1z"/>
	<path class="st1" d="M357.6,247.3c2.2,0,4,1.8,4,4l0,0c0,2.2-1.8,4-4,4l0,0c-2.2,0-4-1.8-4-4l0,0
		C353.6,249.1,355.4,247.3,357.6,247.3L357.6,247.3z"/>
	<path class="st1" d="M354.1,251.3c0-2,1.6-3.6,3.6-3.6v-0.8c-2.4,0-4.4,2-4.4,4.4H354.1z M357.6,254.9c-2,0-3.6-1.6-3.6-3.6h-0.8
		c0,2.4,2,4.4,4.4,4.4V254.9z M361.2,251.3c0,2-1.6,3.6-3.6,3.6v0.8c2.4,0,4.4-2,4.4-4.4H361.2z M362.1,251.3c0-2.4-2-4.4-4.4-4.4
		v0.8c2,0,3.6,1.6,3.6,3.6H362.1z"/>
	<path class="st1" d="M343.6,247.3c2.2,0,4,1.8,4,4l0,0c0,2.2-1.8,4-4,4l0,0c-2.2,0-4-1.8-4-4l0,0
		C339.6,249.1,341.4,247.3,343.6,247.3L343.6,247.3z"/>
	<path class="st1" d="M340.1,251.3c0-2,1.6-3.6,3.6-3.6v-0.8c-2.4,0-4.4,2-4.4,4.4H340.1z M343.6,254.9c-2,0-3.6-1.6-3.6-3.6h-0.8
		c0,2.4,2,4.4,4.4,4.4V254.9z M347.2,251.3c0,2-1.6,3.6-3.6,3.6v0.8c2.4,0,4.4-2,4.4-4.4H347.2z M348.1,251.3c0-2.4-2-4.4-4.4-4.4
		v0.8c2,0,3.6,1.6,3.6,3.6H348.1z"/>
	<path class="st1" d="M329.6,247.3c2.2,0,4,1.8,4,4l0,0c0,2.2-1.8,4-4,4l0,0c-2.2,0-4-1.8-4-4l0,0
		C325.6,249.1,327.4,247.3,329.6,247.3L329.6,247.3z"/>
	<path class="st1" d="M326.1,251.3c0-2,1.6-3.6,3.6-3.6v-0.8c-2.4,0-4.4,2-4.4,4.4H326.1z M329.6,254.9c-2,0-3.6-1.6-3.6-3.6h-0.8
		c0,2.4,2,4.4,4.4,4.4V254.9z M333.2,251.3c0,2-1.6,3.6-3.6,3.6v0.8c2.4,0,4.4-2,4.4-4.4H333.2z M334.1,251.3c0-2.4-2-4.4-4.4-4.4
		v0.8c2,0,3.6,1.6,3.6,3.6H334.1z"/>
	<path class="st15" d="M315.6,247.3c2.2,0,4,1.8,4,4l0,0c0,2.2-1.8,4-4,4l0,0c-2.2,0-4-1.8-4-4l0,0
		C311.6,249.1,313.4,247.3,315.6,247.3L315.6,247.3z"/>
	<path class="st1" d="M301.6,247.3c2.2,0,4,1.8,4,4l0,0c0,2.2-1.8,4-4,4l0,0c-2.2,0-4-1.8-4-4l0,0
		C297.6,249.1,299.4,247.3,301.6,247.3L301.6,247.3z"/>
	<path class="st1" d="M298.1,251.3c0-2,1.6-3.6,3.6-3.6v-0.8c-2.4,0-4.4,2-4.4,4.4H298.1z M301.6,254.9c-2,0-3.6-1.6-3.6-3.6h-0.8
		c0,2.4,2,4.4,4.4,4.4L301.6,254.9L301.6,254.9z M305.2,251.3c0,2-1.6,3.6-3.6,3.6v0.8c2.4,0,4.4-2,4.4-4.4H305.2z M306.1,251.3
		c0-2.4-2-4.4-4.4-4.4v0.8c2,0,3.6,1.6,3.6,3.6H306.1z"/>
	<path class="st1" d="M287.6,247.3c2.2,0,4,1.8,4,4l0,0c0,2.2-1.8,4-4,4l0,0c-2.2,0-4-1.8-4-4l0,0
		C283.6,249.1,285.4,247.3,287.6,247.3L287.6,247.3z"/>
	<path class="st1" d="M284.1,251.3c0-2,1.6-3.6,3.6-3.6v-0.8c-2.4,0-4.4,2-4.4,4.4H284.1z M287.6,254.9c-2,0-3.6-1.6-3.6-3.6h-0.8
		c0,2.4,2,4.4,4.4,4.4L287.6,254.9L287.6,254.9z M291.2,251.3c0,2-1.6,3.6-3.6,3.6v0.8c2.4,0,4.4-2,4.4-4.4H291.2z M292.1,251.3
		c0-2.4-2-4.4-4.4-4.4v0.8c2,0,3.6,1.6,3.6,3.6H292.1z"/>
	<path class="st1" d="M273.6,247.3c2.2,0,4,1.8,4,4l0,0c0,2.2-1.8,4-4,4l0,0c-2.2,0-4-1.8-4-4l0,0
		C269.6,249.1,271.4,247.3,273.6,247.3L273.6,247.3z"/>
	<path class="st1" d="M270.1,251.3c0-2,1.6-3.6,3.6-3.6v-0.8c-2.4,0-4.4,2-4.4,4.4H270.1z M273.6,254.9c-2,0-3.6-1.6-3.6-3.6h-0.8
		c0,2.4,2,4.4,4.4,4.4L273.6,254.9L273.6,254.9z M277.2,251.3c0,2-1.6,3.6-3.6,3.6v0.8c2.4,0,4.4-2,4.4-4.4H277.2z M278.1,251.3
		c0-2.4-2-4.4-4.4-4.4v0.8c2,0,3.6,1.6,3.6,3.6H278.1z"/>
	<g>
		<path class="st16" d="M428.6,247.3c2.2,0,4,1.8,4,4l0,0c0,2.2-1.8,4-4,4l0,0c-2.2,0-4-1.8-4-4l0,0
			C424.6,249.1,426.4,247.3,428.6,247.3L428.6,247.3z"/>
		<path class="st16" d="M425.1,251.3c0-2,1.6-3.6,3.6-3.6v-0.8c-2.4,0-4.4,2-4.4,4.4H425.1z M428.6,254.9c-2,0-3.6-1.6-3.6-3.6h-0.8
			c0,2.4,2,4.4,4.4,4.4V254.9z M432.2,251.3c0,2-1.6,3.6-3.6,3.6v0.8c2.4,0,4.4-2,4.4-4.4H432.2z M433.1,251.3c0-2.4-2-4.4-4.4-4.4
			v0.8c2,0,3.6,1.6,3.6,3.6H433.1z"/>
		<path class="st1" d="M414.6,247.3c2.2,0,4,1.8,4,4l0,0c0,2.2-1.8,4-4,4l0,0c-2.2,0-4-1.8-4-4l0,0
			C410.6,249.1,412.4,247.3,414.6,247.3L414.6,247.3z"/>
		<path class="st1" d="M411.1,251.3c0-2,1.6-3.6,3.6-3.6v-0.8c-2.4,0-4.4,2-4.4,4.4H411.1z M414.6,254.9c-2,0-3.6-1.6-3.6-3.6h-0.8
			c0,2.4,2,4.4,4.4,4.4V254.9z M418.2,251.3c0,2-1.6,3.6-3.6,3.6v0.8c2.4,0,4.4-2,4.4-4.4H418.2z M419.1,251.3c0-2.4-2-4.4-4.4-4.4
			v0.8c2,0,3.6,1.6,3.6,3.6H419.1z"/>
		<path class="st1" d="M400.6,247.3c2.2,0,4,1.8,4,4l0,0c0,2.2-1.8,4-4,4l0,0c-2.2,0-4-1.8-4-4l0,0
			C396.6,249.1,398.4,247.3,400.6,247.3L400.6,247.3z"/>
		<path class="st1" d="M397.1,251.3c0-2,1.6-3.6,3.6-3.6v-0.8c-2.4,0-4.4,2-4.4,4.4H397.1z M400.6,254.9c-2,0-3.6-1.6-3.6-3.6h-0.8
			c0,2.4,2,4.4,4.4,4.4V254.9z M404.2,251.3c0,2-1.6,3.6-3.6,3.6v0.8c2.4,0,4.4-2,4.4-4.4H404.2z M405.1,251.3c0-2.4-2-4.4-4.4-4.4
			v0.8c2,0,3.6,1.6,3.6,3.6H405.1z"/>
		<path class="st1" d="M386.6,247.3c2.2,0,4,1.8,4,4l0,0c0,2.2-1.8,4-4,4l0,0c-2.2,0-4-1.8-4-4l0,0
			C382.6,249.1,384.4,247.3,386.6,247.3L386.6,247.3z"/>
		<path class="st1" d="M383.1,251.3c0-2,1.6-3.6,3.6-3.6v-0.8c-2.4,0-4.4,2-4.4,4.4H383.1z M386.6,254.9c-2,0-3.6-1.6-3.6-3.6h-0.8
			c0,2.4,2,4.4,4.4,4.4V254.9z M390.2,251.3c0,2-1.6,3.6-3.6,3.6v0.8c2.4,0,4.4-2,4.4-4.4H390.2z M391.1,251.3c0-2.4-2-4.4-4.4-4.4
			v0.8c2,0,3.6,1.6,3.6,3.6H391.1z"/>
		<path class="st1" d="M485.6,247.3c2.2,0,4,1.8,4,4l0,0c0,2.2-1.8,4-4,4l0,0c-2.2,0-4-1.8-4-4l0,0
			C481.6,249.1,483.4,247.3,485.6,247.3L485.6,247.3z"/>
		<path class="st1" d="M482.1,251.3c0-2,1.6-3.6,3.6-3.6v-0.8c-2.4,0-4.4,2-4.4,4.4H482.1z M485.6,254.9c-2,0-3.6-1.6-3.6-3.6h-0.8
			c0,2.4,2,4.4,4.4,4.4V254.9z M489.2,251.3c0,2-1.6,3.6-3.6,3.6v0.8c2.4,0,4.4-2,4.4-4.4H489.2z M490.1,251.3c0-2.4-2-4.4-4.4-4.4
			v0.8c2,0,3.6,1.6,3.6,3.6H490.1z"/>
		<path class="st17" d="M471.6,247.3c2.2,0,4,1.8,4,4l0,0c0,2.2-1.8,4-4,4l0,0c-2.2,0-4-1.8-4-4l0,0
			C467.6,249.1,469.4,247.3,471.6,247.3L471.6,247.3z"/>
		<path class="st17" d="M468.1,251.3c0-2,1.6-3.6,3.6-3.6v-0.8c-2.4,0-4.4,2-4.4,4.4H468.1z M471.6,254.9c-2,0-3.6-1.6-3.6-3.6h-0.8
			c0,2.4,2,4.4,4.4,4.4V254.9z M475.2,251.3c0,2-1.6,3.6-3.6,3.6v0.8c2.4,0,4.4-2,4.4-4.4H475.2z M476.1,251.3c0-2.4-2-4.4-4.4-4.4
			v0.8c2,0,3.6,1.6,3.6,3.6H476.1z"/>
		<path class="st1" d="M457.6,247.3c2.2,0,4,1.8,4,4l0,0c0,2.2-1.8,4-4,4l0,0c-2.2,0-4-1.8-4-4l0,0
			C453.6,249.1,455.4,247.3,457.6,247.3L457.6,247.3z"/>
		<path class="st1" d="M454.1,251.3c0-2,1.6-3.6,3.6-3.6v-0.8c-2.4,0-4.4,2-4.4,4.4H454.1z M457.6,254.9c-2,0-3.6-1.6-3.6-3.6h-0.8
			c0,2.4,2,4.4,4.4,4.4V254.9z M461.2,251.3c0,2-1.6,3.6-3.6,3.6v0.8c2.4,0,4.4-2,4.4-4.4H461.2z M462.1,251.3c0-2.4-2-4.4-4.4-4.4
			v0.8c2,0,3.6,1.6,3.6,3.6H462.1z"/>
		<path class="st1" d="M443.6,247.3c2.2,0,4,1.8,4,4l0,0c0,2.2-1.8,4-4,4l0,0c-2.2,0-4-1.8-4-4l0,0
			C439.6,249.1,441.4,247.3,443.6,247.3L443.6,247.3z"/>
		<path class="st1" d="M440.1,251.3c0-2,1.6-3.6,3.6-3.6v-0.8c-2.4,0-4.4,2-4.4,4.4H440.1z M443.6,254.9c-2,0-3.6-1.6-3.6-3.6h-0.8
			c0,2.4,2,4.4,4.4,4.4V254.9z M447.2,251.3c0,2-1.6,3.6-3.6,3.6v0.8c2.4,0,4.4-2,4.4-4.4H447.2z M448.1,251.3c0-2.4-2-4.4-4.4-4.4
			v0.8c2,0,3.6,1.6,3.6,3.6H448.1z"/>
	</g>
	<path class="st15" d="M613.7-341H418.3c-2.9,0-5.3-2.4-5.3-5.3v-218.4c0-2.9,2.4-5.3,5.3-5.3h195.4c2.9,0,5.3,2.4,5.3,5.3v218.4
		C619-343.4,616.6-341,613.7-341z"/>
	<text transform="matrix(1 0 0 1 522.2354 -384.1763)" style="font-family:'Inter-Bold'; font-size:24px; letter-spacing:-1;">989898</text>
	<text transform="matrix(1 0 0 1 568.1172 -414.0586)" style="font-family:'Inter-Bold'; font-size:24px; letter-spacing:-1;">dot</text>
	<path class="st18" d="M390.1-341H199.9c-3.8,0-6.9-3.1-6.9-6.9v-215.1c0-3.8,3.1-6.9,6.9-6.9h190.1c3.8,0,6.9,3.1,6.9,6.9v215.1
		C397-344.1,393.9-341,390.1-341z"/>
	<text transform="matrix(1 0 0 1 299.4707 -381.8823)" style="font-family:'Inter-Bold'; font-size:24px; letter-spacing:-1;">126D97</text>
	<text transform="matrix(1 0 0 1 319.4121 -416.4707)" style="font-family:'Inter-Bold'; font-size:24px; letter-spacing:-1;">graph</text>
	<path class="st18" d="M487.8,164.8l-13-2.6c-0.5-0.1-1.1,0-1.6,0.4l-45.6,34.9c-0.4,0.3-1,0.5-1.6,0.4l-111.3-22.6
		c-0.5-0.1-1.1,0-1.6,0.4L273,206.2c-0.6,0.5-0.9,1.3-0.7,2l0,0.1c0.3,1.3,1.9,1.9,3,1.1l39-29.7c0.4-0.3,1-0.5,1.6-0.4L427.2,202
		c0.5,0.1,1.1,0,1.6-0.4l45.6-34.9c0.4-0.3,1-0.5,1.6-0.4l11.1,2.2c1.4,0.3,2.6-1,2.3-2.4v0C489.1,165.5,488.5,164.9,487.8,164.8z"
		/>
	<path class="st13" d="M501.4,460H248.6c-3.1,0-5.6-2.5-5.6-5.6V314.6c0-3.1,2.5-5.6,5.6-5.6h252.8c3.1,0,5.6,2.5,5.6,5.6v139.8
		C507,457.5,504.5,460,501.4,460z"/>
	<g>
		<path class="st17" d="M268.4,340.2c0-7.2,5.8-13,13-13l0,0c7.2,0,13,5.8,13,13l0,0c0,7.2-5.8,13-13,13l0,0
			C274.2,353.2,268.4,347.4,268.4,340.2L268.4,340.2z"/>
		<path class="st1" d="M281.4,352.8c-7,0-12.6-5.6-12.6-12.6H268c0,7.4,6,13.4,13.4,13.4V352.8L281.4,352.8z M294,340.2
			c0,7-5.6,12.6-12.6,12.6v0.8c7.4,0,13.4-6,13.4-13.4H294z M281.4,327.6c7,0,12.6,5.6,12.6,12.6h0.8c0-7.4-6-13.4-13.4-13.4
			L281.4,327.6L281.4,327.6z M281.4,326.8c-7.4,0-13.4,6-13.4,13.4h0.8c0-7,5.6-12.6,12.6-12.6L281.4,326.8L281.4,326.8z"/>
		<path class="st1" d="M268.6,381.2c0-2.2,1.8-4,4-4h32c2.2,0,4,1.8,4,4l0,0c0,2.2-1.8,4-4,4h-32
			C270.4,385.2,268.6,383.4,268.6,381.2L268.6,381.2z"/>
		<path class="st1" d="M272.6,377.6h32v-0.8h-32V377.6z M304.6,384.8h-32v0.8h32V384.8z M272.6,384.8c-2,0-3.6-1.6-3.6-3.6h-0.8
			c0,2.4,2,4.4,4.4,4.4L272.6,384.8L272.6,384.8z M308.2,381.2c0,2-1.6,3.6-3.6,3.6v0.8c2.4,0,4.4-2,4.4-4.4H308.2z M304.6,377.6
			c2,0,3.6,1.6,3.6,3.6h0.8c0-2.4-2-4.4-4.4-4.4V377.6L304.6,377.6z M272.6,376.8c-2.4,0-4.4,2-4.4,4.4h0.8c0-2,1.6-3.6,3.6-3.6
			V376.8L272.6,376.8z"/>
		<path class="st1" d="M268.6,395.2c0-2.2,1.8-4,4-4h18c2.2,0,4,1.8,4,4l0,0c0,2.2-1.8,4-4,4h-18
			C270.4,399.2,268.6,397.4,268.6,395.2L268.6,395.2z"/>
		<path class="st1" d="M272.6,391.6h18v-0.8h-18V391.6z M290.6,398.8h-18v0.8h18V398.8z M272.6,398.8c-2,0-3.6-1.6-3.6-3.6h-0.8
			c0,2.4,2,4.4,4.4,4.4L272.6,398.8L272.6,398.8z M294.2,395.2c0,2-1.6,3.6-3.6,3.6v0.8c2.4,0,4.4-2,4.4-4.4H294.2z M290.6,391.6
			c2,0,3.6,1.6,3.6,3.6h0.8c0-2.4-2-4.4-4.4-4.4V391.6L290.6,391.6z M272.6,390.8c-2.4,0-4.4,2-4.4,4.4h0.8c0-2,1.6-3.6,3.6-3.6
			V390.8L272.6,390.8z"/>
		<path class="st1" d="M268.6,409.2c0-2.2,1.8-4,4-4h12c2.2,0,4,1.8,4,4l0,0c0,2.2-1.8,4-4,4h-12
			C270.4,413.2,268.6,411.4,268.6,409.2L268.6,409.2z"/>
		<path class="st1" d="M272.6,405.6h12v-0.8h-12V405.6z M284.6,412.8h-12v0.8h12V412.8z M272.6,412.8c-2,0-3.6-1.6-3.6-3.6h-0.8
			c0,2.4,2,4.4,4.4,4.4L272.6,412.8L272.6,412.8z M288.2,409.2c0,2-1.6,3.6-3.6,3.6v0.8c2.4,0,4.4-2,4.4-4.4L288.2,409.2
			L288.2,409.2z M284.6,405.6c2,0,3.6,1.6,3.6,3.6h0.8c0-2.4-2-4.4-4.4-4.4V405.6L284.6,405.6z M272.6,404.8c-2.4,0-4.4,2-4.4,4.4
			h0.8c0-2,1.6-3.6,3.6-3.6V404.8L272.6,404.8z"/>
		<path class="st1" d="M294.6,409.2c0-2.2,1.8-4,4-4h32c2.2,0,4,1.8,4,4l0,0c0,2.2-1.8,4-4,4h-32
			C296.4,413.2,294.6,411.4,294.6,409.2L294.6,409.2z"/>
		<path class="st1" d="M298.6,405.6h32v-0.8h-32V405.6z M330.6,412.8h-32v0.8h32V412.8z M298.6,412.8c-2,0-3.6-1.6-3.6-3.6h-0.8
			c0,2.4,2,4.4,4.4,4.4L298.6,412.8L298.6,412.8z M334.2,409.2c0,2-1.6,3.6-3.6,3.6v0.8c2.4,0,4.4-2,4.4-4.4L334.2,409.2
			L334.2,409.2z M330.6,405.6c2,0,3.6,1.6,3.6,3.6h0.8c0-2.4-2-4.4-4.4-4.4V405.6z M298.6,404.8c-2.4,0-4.4,2-4.4,4.4h0.8
			c0-2,1.6-3.6,3.6-3.6V404.8L298.6,404.8z"/>
		<path class="st1" d="M300.6,395.2c0-2.2,1.8-4,4-4h12c2.2,0,4,1.8,4,4l0,0c0,2.2-1.8,4-4,4h-12
			C302.4,399.2,300.6,397.4,300.6,395.2L300.6,395.2z"/>
		<path class="st1" d="M304.6,391.6h12v-0.8h-12V391.6z M316.6,398.8h-12v0.8h12V398.8z M304.6,398.8c-2,0-3.6-1.6-3.6-3.6h-0.8
			c0,2.4,2,4.4,4.4,4.4L304.6,398.8L304.6,398.8z M320.2,395.2c0,2-1.6,3.6-3.6,3.6v0.8c2.4,0,4.4-2,4.4-4.4H320.2z M316.6,391.6
			c2,0,3.6,1.6,3.6,3.6h0.8c0-2.4-2-4.4-4.4-4.4V391.6L316.6,391.6z M304.6,390.8c-2.4,0-4.4,2-4.4,4.4h0.8c0-2,1.6-3.6,3.6-3.6
			V390.8L304.6,390.8z"/>
		<path class="st1" d="M268.6,423.2c0-2.2,1.8-4,4-4h32c2.2,0,4,1.8,4,4l0,0c0,2.2-1.8,4-4,4h-32
			C270.4,427.2,268.6,425.4,268.6,423.2L268.6,423.2z"/>
		<path class="st1" d="M272.6,419.6h32v-0.8h-32V419.6z M304.6,426.8h-32v0.8h32V426.8z M272.6,426.8c-2,0-3.6-1.6-3.6-3.6h-0.8
			c0,2.4,2,4.4,4.4,4.4L272.6,426.8L272.6,426.8z M308.2,423.2c0,2-1.6,3.6-3.6,3.6v0.8c2.4,0,4.4-2,4.4-4.4L308.2,423.2
			L308.2,423.2z M304.6,419.6c2,0,3.6,1.6,3.6,3.6h0.8c0-2.4-2-4.4-4.4-4.4V419.6L304.6,419.6z M272.6,418.8c-2.4,0-4.4,2-4.4,4.4
			h0.8c0-2,1.6-3.6,3.6-3.6V418.8L272.6,418.8z"/>
		<path class="st1" d="M268.6,437.2c0-2.2,1.8-4,4-4h44c2.2,0,4,1.8,4,4l0,0c0,2.2-1.8,4-4,4h-44
			C270.4,441.2,268.6,439.4,268.6,437.2L268.6,437.2z"/>
		<path class="st1" d="M272.6,433.6h44v-0.8h-44V433.6z M316.6,440.8h-44v0.8h44V440.8z M272.6,440.8c-2,0-3.6-1.6-3.6-3.6h-0.8
			c0,2.4,2,4.4,4.4,4.4L272.6,440.8L272.6,440.8z M320.2,437.2c0,2-1.6,3.6-3.6,3.6v0.8c2.4,0,4.4-2,4.4-4.4L320.2,437.2
			L320.2,437.2z M316.6,433.6c2,0,3.6,1.6,3.6,3.6h0.8c0-2.4-2-4.4-4.4-4.4V433.6L316.6,433.6z M272.6,432.8c-2.4,0-4.4,2-4.4,4.4
			h0.8c0-2,1.6-3.6,3.6-3.6V432.8L272.6,432.8z"/>
		<path class="st1" d="M314.6,423.2c0-2.2,1.8-4,4-4h18c2.2,0,4,1.8,4,4l0,0c0,2.2-1.8,4-4,4h-18
			C316.4,427.2,314.6,425.4,314.6,423.2L314.6,423.2z"/>
		<path class="st1" d="M318.6,419.6h18v-0.8h-18V419.6z M336.6,426.8h-18v0.8h18V426.8z M318.6,426.8c-2,0-3.6-1.6-3.6-3.6h-0.8
			c0,2.4,2,4.4,4.4,4.4L318.6,426.8L318.6,426.8z M340.2,423.2c0,2-1.6,3.6-3.6,3.6v0.8c2.4,0,4.4-2,4.4-4.4L340.2,423.2
			L340.2,423.2z M336.6,419.6c2,0,3.6,1.6,3.6,3.6h0.8c0-2.4-2-4.4-4.4-4.4V419.6z M318.6,418.8c-2.4,0-4.4,2-4.4,4.4h0.8
			c0-2,1.6-3.6,3.6-3.6V418.8L318.6,418.8z"/>
		<path class="st1" d="M313.5,381.2c0-2.2,1.8-4,4-4h12c2.2,0,4,1.8,4,4l0,0c0,2.2-1.8,4-4,4h-12
			C315.3,385.2,313.5,383.4,313.5,381.2L313.5,381.2z"/>
		<path class="st1" d="M317.5,377.6h12v-0.8h-12V377.6z M329.5,384.8h-12v0.8h12V384.8z M317.5,384.8c-2,0-3.6-1.6-3.6-3.6h-0.8
			c0,2.4,2,4.4,4.4,4.4L317.5,384.8L317.5,384.8z M333.1,381.2c0,2-1.6,3.6-3.6,3.6v0.8c2.4,0,4.4-2,4.4-4.4H333.1z M329.5,377.6
			c2,0,3.6,1.6,3.6,3.6h0.8c0-2.4-2-4.4-4.4-4.4V377.6L329.5,377.6z M317.5,376.8c-2.4,0-4.4,2-4.4,4.4h0.8c0-2,1.6-3.6,3.6-3.6
			V376.8L317.5,376.8z"/>
	</g>
	<g>
		<path class="st12" d="M560.5,329.1c0-2.2,1.8-4,4-4h18c2.2,0,4,1.8,4,4l0,0c0,2.2-1.8,4-4,4h-18
			C562.3,333.1,560.5,331.3,560.5,329.1L560.5,329.1z"/>
		<path class="st10" d="M564.5,325.5h18v-0.8h-18V325.5z M582.5,332.6h-18v0.8h18V332.6z M564.5,332.6c-2,0-3.6-1.6-3.6-3.6h-0.8
			c0,2.4,2,4.4,4.4,4.4V332.6z M586.1,329.1c0,2-1.6,3.6-3.6,3.6v0.8c2.4,0,4.4-2,4.4-4.4H586.1z M582.5,325.5c2,0,3.6,1.6,3.6,3.6
			h0.8c0-2.4-2-4.4-4.4-4.4C582.5,324.7,582.5,325.5,582.5,325.5z M564.5,324.6c-2.4,0-4.4,2-4.4,4.4h0.8c0-2,1.6-3.6,3.6-3.6V324.6
			z"/>
		<path class="st19" d="M560.5,343.1c0-2.2,1.8-4,4-4h12c2.2,0,4,1.8,4,4l0,0c0,2.2-1.8,4-4,4h-12
			C562.3,347.1,560.5,345.3,560.5,343.1L560.5,343.1z"/>
		<path class="st10" d="M564.5,339.5h12v-0.8h-12V339.5z M576.5,346.6h-12v0.8h12V346.6z M564.5,346.6c-2,0-3.6-1.6-3.6-3.6h-0.8
			c0,2.4,2,4.4,4.4,4.4V346.6z M580.1,343.1c0,2-1.6,3.6-3.6,3.6v0.8c2.4,0,4.4-2,4.4-4.4H580.1z M576.5,339.5c2,0,3.6,1.6,3.6,3.6
			h0.8c0-2.4-2-4.4-4.4-4.4C576.5,338.7,576.5,339.5,576.5,339.5z M564.5,338.6c-2.4,0-4.4,2-4.4,4.4h0.8c0-2,1.6-3.6,3.6-3.6V338.6
			z"/>
		<path class="st20" d="M586.5,343.1c0-2.2,1.8-4,4-4h32c2.2,0,4,1.8,4,4l0,0c0,2.2-1.8,4-4,4h-32
			C588.3,347.1,586.5,345.3,586.5,343.1L586.5,343.1z"/>
		<path class="st10" d="M590.5,339.5h32v-0.8h-32V339.5z M622.5,346.6h-32v0.8h32V346.6z M590.5,346.6c-2,0-3.6-1.6-3.6-3.6h-0.8
			c0,2.4,2,4.4,4.4,4.4C590.5,347.4,590.5,346.6,590.5,346.6z M626.1,343.1c0,2-1.6,3.6-3.6,3.6v0.8c2.4,0,4.4-2,4.4-4.4H626.1z
			 M622.5,339.5c2,0,3.6,1.6,3.6,3.6h0.8c0-2.4-2-4.4-4.4-4.4V339.5z M590.5,338.6c-2.4,0-4.4,2-4.4,4.4h0.8c0-2,1.6-3.6,3.6-3.6
			C590.5,339.4,590.5,338.6,590.5,338.6z"/>
		<path class="st20" d="M632.5,343.1c0-2.2,1.8-4,4-4h12c2.2,0,4,1.8,4,4l0,0c0,2.2-1.8,4-4,4h-12
			C634.3,347.1,632.5,345.3,632.5,343.1L632.5,343.1z"/>
		<path class="st10" d="M636.5,339.5h12v-0.8h-12V339.5z M648.5,346.6h-12v0.8h12V346.6z M636.5,346.6c-2,0-3.6-1.6-3.6-3.6h-0.8
			c0,2.4,2,4.4,4.4,4.4V346.6z M652.1,343.1c0,2-1.6,3.6-3.6,3.6v0.8c2.4,0,4.4-2,4.4-4.4H652.1z M648.5,339.5c2,0,3.6,1.6,3.6,3.6
			h0.8c0-2.4-2-4.4-4.4-4.4V339.5z M636.5,338.6c-2.4,0-4.4,2-4.4,4.4h0.8c0-2,1.6-3.6,3.6-3.6V338.6z"/>
		<path class="st1" d="M546.5,315.1c0-2.2,1.8-4,4-4l0,0c2.2,0,4,1.8,4,4l0,0c0,2.2-1.8,4-4,4l0,0
			C548.3,319.1,546.5,317.3,546.5,315.1L546.5,315.1z"/>
		<path class="st1" d="M550.5,318.6c-2,0-3.6-1.6-3.6-3.6h-0.8c0,2.4,2,4.4,4.4,4.4V318.6z M554.1,315.1c0,2-1.6,3.6-3.6,3.6v0.8
			c2.4,0,4.4-2,4.4-4.4H554.1z M550.5,311.5c2,0,3.6,1.6,3.6,3.6h0.8c0-2.4-2-4.4-4.4-4.4V311.5z M550.5,310.6c-2.4,0-4.4,2-4.4,4.4
			h0.8c0-2,1.6-3.6,3.6-3.6V310.6z"/>
		<path class="st12" d="M560.5,315.1c0-2.2,1.8-4,4-4h32c2.2,0,4,1.8,4,4l0,0c0,2.2-1.8,4-4,4h-32
			C562.3,319.1,560.5,317.3,560.5,315.1L560.5,315.1z"/>
		<path class="st10" d="M564.5,311.5h32v-0.8h-32V311.5z M596.5,318.6h-32v0.8h32V318.6z M564.5,318.6c-2,0-3.6-1.6-3.6-3.6h-0.8
			c0,2.4,2,4.4,4.4,4.4V318.6z M600.1,315.1c0,2-1.6,3.6-3.6,3.6v0.8c2.4,0,4.4-2,4.4-4.4H600.1z M596.5,311.5c2,0,3.6,1.6,3.6,3.6
			h0.8c0-2.4-2-4.4-4.4-4.4V311.5z M564.5,310.6c-2.4,0-4.4,2-4.4,4.4h0.8c0-2,1.6-3.6,3.6-3.6V310.6z"/>
		<path class="st20" d="M606.5,315.1c0-2.2,1.8-4,4-4h12c2.2,0,4,1.8,4,4l0,0c0,2.2-1.8,4-4,4h-12
			C608.3,319.1,606.5,317.3,606.5,315.1L606.5,315.1z"/>
		<path class="st10" d="M610.5,311.5h12v-0.8h-12V311.5z M622.5,318.6h-12v0.8h12V318.6z M610.5,318.6c-2,0-3.6-1.6-3.6-3.6h-0.8
			c0,2.4,2,4.4,4.4,4.4V318.6z M626.1,315.1c0,2-1.6,3.6-3.6,3.6v0.8c2.4,0,4.4-2,4.4-4.4H626.1z M622.5,311.5c2,0,3.6,1.6,3.6,3.6
			h0.8c0-2.4-2-4.4-4.4-4.4V311.5z M610.5,310.6c-2.4,0-4.4,2-4.4,4.4h0.8c0-2,1.6-3.6,3.6-3.6V310.6z"/>
		<path class="st1" d="M546.5,329.1c0-2.2,1.8-4,4-4l0,0c2.2,0,4,1.8,4,4l0,0c0,2.2-1.8,4-4,4l0,0
			C548.3,333.1,546.5,331.3,546.5,329.1L546.5,329.1z"/>
		<path class="st1" d="M550.5,332.6c-2,0-3.6-1.6-3.6-3.6h-0.8c0,2.4,2,4.4,4.4,4.4V332.6z M554.1,329.1c0,2-1.6,3.6-3.6,3.6v0.8
			c2.4,0,4.4-2,4.4-4.4H554.1z M550.5,325.5c2,0,3.6,1.6,3.6,3.6h0.8c0-2.4-2-4.4-4.4-4.4V325.5z M550.5,324.6c-2.4,0-4.4,2-4.4,4.4
			h0.8c0-2,1.6-3.6,3.6-3.6V324.6z"/>
		<path class="st1" d="M546.5,343.1c0-2.2,1.8-4,4-4l0,0c2.2,0,4,1.8,4,4l0,0c0,2.2-1.8,4-4,4l0,0
			C548.3,347.1,546.5,345.3,546.5,343.1L546.5,343.1z"/>
		<path class="st1" d="M550.5,346.6c-2,0-3.6-1.6-3.6-3.6h-0.8c0,2.4,2,4.4,4.4,4.4V346.6z M554.1,343.1c0,2-1.6,3.6-3.6,3.6v0.8
			c2.4,0,4.4-2,4.4-4.4H554.1z M550.5,339.5c2,0,3.6,1.6,3.6,3.6h0.8c0-2.4-2-4.4-4.4-4.4V339.5z M550.5,338.6c-2.4,0-4.4,2-4.4,4.4
			h0.8c0-2,1.6-3.6,3.6-3.6V338.6z"/>
		<path class="st1" d="M546.5,357.1c0-2.2,1.8-4,4-4l0,0c2.2,0,4,1.8,4,4l0,0c0,2.2-1.8,4-4,4l0,0
			C548.3,361.1,546.5,359.3,546.5,357.1L546.5,357.1z"/>
		<path class="st1" d="M550.5,360.6c-2,0-3.6-1.6-3.6-3.6h-0.8c0,2.4,2,4.4,4.4,4.4V360.6z M554.1,357.1c0,2-1.6,3.6-3.6,3.6v0.8
			c2.4,0,4.4-2,4.4-4.4H554.1z M550.5,353.5c2,0,3.6,1.6,3.6,3.6h0.8c0-2.4-2-4.4-4.4-4.4V353.5z M550.5,352.6c-2.4,0-4.4,2-4.4,4.4
			h0.8c0-2,1.6-3.6,3.6-3.6V352.6z"/>
		<path class="st15" d="M546.5,371.1c0-2.2,1.8-4,4-4l0,0c2.2,0,4,1.8,4,4l0,0c0,2.2-1.8,4-4,4l0,0
			C548.3,375.1,546.5,373.3,546.5,371.1L546.5,371.1z"/>
		<path class="st1" d="M546.5,385.1c0-2.2,1.8-4,4-4l0,0c2.2,0,4,1.8,4,4l0,0c0,2.2-1.8,4-4,4l0,0
			C548.3,389.1,546.5,387.3,546.5,385.1L546.5,385.1z"/>
		<path class="st1" d="M550.5,388.6c-2,0-3.6-1.6-3.6-3.6h-0.8c0,2.4,2,4.4,4.4,4.4V388.6z M554.1,385.1c0,2-1.6,3.6-3.6,3.6v0.8
			c2.4,0,4.4-2,4.4-4.4H554.1L554.1,385.1z M550.5,381.5c2,0,3.6,1.6,3.6,3.6h0.8c0-2.4-2-4.4-4.4-4.4V381.5z M550.5,380.6
			c-2.4,0-4.4,2-4.4,4.4h0.8c0-2,1.6-3.6,3.6-3.6V380.6z"/>
		<path class="st1" d="M546.5,399.1c0-2.2,1.8-4,4-4l0,0c2.2,0,4,1.8,4,4l0,0c0,2.2-1.8,4-4,4l0,0
			C548.3,403.1,546.5,401.3,546.5,399.1L546.5,399.1z"/>
		<path class="st1" d="M550.5,402.6c-2,0-3.6-1.6-3.6-3.6h-0.8c0,2.4,2,4.4,4.4,4.4V402.6z M554.1,399.1c0,2-1.6,3.6-3.6,3.6v0.8
			c2.4,0,4.4-2,4.4-4.4H554.1L554.1,399.1z M550.5,395.5c2,0,3.6,1.6,3.6,3.6h0.8c0-2.4-2-4.4-4.4-4.4V395.5z M550.5,394.6
			c-2.4,0-4.4,2-4.4,4.4h0.8c0-2,1.6-3.6,3.6-3.6V394.6z"/>
		<path class="st1" d="M546.5,413.1c0-2.2,1.8-4,4-4l0,0c2.2,0,4,1.8,4,4l0,0c0,2.2-1.8,4-4,4l0,0
			C548.3,417.1,546.5,415.3,546.5,413.1L546.5,413.1z"/>
		<path class="st1" d="M550.5,416.6c-2,0-3.6-1.6-3.6-3.6h-0.8c0,2.4,2,4.4,4.4,4.4V416.6z M554.1,413.1c0,2-1.6,3.6-3.6,3.6v0.8
			c2.4,0,4.4-2,4.4-4.4H554.1L554.1,413.1z M550.5,409.5c2,0,3.6,1.6,3.6,3.6h0.8c0-2.4-2-4.4-4.4-4.4V409.5z M550.5,408.6
			c-2.4,0-4.4,2-4.4,4.4h0.8c0-2,1.6-3.6,3.6-3.6V408.6z"/>
		<path class="st12" d="M560.5,357.1c0-2.2,1.8-4,4-4h32c2.2,0,4,1.8,4,4l0,0c0,2.2-1.8,4-4,4h-32
			C562.3,361.1,560.5,359.3,560.5,357.1L560.5,357.1z"/>
		<path class="st10" d="M564.5,353.5h32v-0.8h-32V353.5z M596.5,360.6h-32v0.8h32V360.6z M564.5,360.6c-2,0-3.6-1.6-3.6-3.6h-0.8
			c0,2.4,2,4.4,4.4,4.4V360.6z M600.1,357.1c0,2-1.6,3.6-3.6,3.6v0.8c2.4,0,4.4-2,4.4-4.4H600.1z M596.5,353.5c2,0,3.6,1.6,3.6,3.6
			h0.8c0-2.4-2-4.4-4.4-4.4V353.5z M564.5,352.6c-2.4,0-4.4,2-4.4,4.4h0.8c0-2,1.6-3.6,3.6-3.6V352.6z"/>
		<path class="st12" d="M560.5,371.1c0-2.2,1.8-4,4-4h44c2.2,0,4,1.8,4,4l0,0c0,2.2-1.8,4-4,4h-44
			C562.3,375.1,560.5,373.3,560.5,371.1L560.5,371.1z"/>
		<path class="st10" d="M564.5,367.5h44v-0.8h-44V367.5z M608.5,374.6h-44v0.8h44V374.6z M564.5,374.6c-2,0-3.6-1.6-3.6-3.6h-0.8
			c0,2.4,2,4.4,4.4,4.4V374.6z M612.1,371.1c0,2-1.6,3.6-3.6,3.6v0.8c2.4,0,4.4-2,4.4-4.4H612.1z M608.5,367.5c2,0,3.6,1.6,3.6,3.6
			h0.8c0-2.4-2-4.4-4.4-4.4V367.5z M564.5,366.6c-2.4,0-4.4,2-4.4,4.4h0.8c0-2,1.6-3.6,3.6-3.6V366.6z"/>
		<path class="st19" d="M560.5,385.1c0-2.2,1.8-4,4-4h18c2.2,0,4,1.8,4,4l0,0c0,2.2-1.8,4-4,4h-18
			C562.3,389.1,560.5,387.3,560.5,385.1L560.5,385.1z"/>
		<path class="st10" d="M564.5,381.5h18v-0.8h-18V381.5z M582.5,388.6h-18v0.8h18V388.6z M564.5,388.6c-2,0-3.6-1.6-3.6-3.6h-0.8
			c0,2.4,2,4.4,4.4,4.4V388.6z M586.1,385.1c0,2-1.6,3.6-3.6,3.6v0.8c2.4,0,4.4-2,4.4-4.4H586.1L586.1,385.1z M582.5,381.5
			c2,0,3.6,1.6,3.6,3.6h0.8c0-2.4-2-4.4-4.4-4.4C582.5,380.7,582.5,381.5,582.5,381.5z M564.5,380.6c-2.4,0-4.4,2-4.4,4.4h0.8
			c0-2,1.6-3.6,3.6-3.6V380.6z"/>
		<path class="st12" d="M560.5,399.1c0-2.2,1.8-4,4-4h12c2.2,0,4,1.8,4,4l0,0c0,2.2-1.8,4-4,4h-12
			C562.3,403.1,560.5,401.3,560.5,399.1L560.5,399.1z"/>
		<path class="st10" d="M564.5,395.5h12v-0.8h-12V395.5z M576.5,402.6h-12v0.8h12V402.6z M564.5,402.6c-2,0-3.6-1.6-3.6-3.6h-0.8
			c0,2.4,2,4.4,4.4,4.4V402.6z M580.1,399.1c0,2-1.6,3.6-3.6,3.6v0.8c2.4,0,4.4-2,4.4-4.4H580.1L580.1,399.1z M576.5,395.5
			c2,0,3.6,1.6,3.6,3.6h0.8c0-2.4-2-4.4-4.4-4.4C576.5,394.7,576.5,395.5,576.5,395.5z M564.5,394.6c-2.4,0-4.4,2-4.4,4.4h0.8
			c0-2,1.6-3.6,3.6-3.6V394.6z"/>
		<path class="st12" d="M586.5,399.1c0-2.2,1.8-4,4-4h32c2.2,0,4,1.8,4,4l0,0c0,2.2-1.8,4-4,4h-32
			C588.3,403.1,586.5,401.3,586.5,399.1L586.5,399.1z"/>
		<path class="st10" d="M590.5,395.5h32v-0.8h-32V395.5z M622.5,402.6h-32v0.8h32V402.6z M590.5,402.6c-2,0-3.6-1.6-3.6-3.6h-0.8
			c0,2.4,2,4.4,4.4,4.4C590.5,403.4,590.5,402.6,590.5,402.6z M626.1,399.1c0,2-1.6,3.6-3.6,3.6v0.8c2.4,0,4.4-2,4.4-4.4H626.1
			L626.1,399.1z M622.5,395.5c2,0,3.6,1.6,3.6,3.6h0.8c0-2.4-2-4.4-4.4-4.4V395.5z M590.5,394.6c-2.4,0-4.4,2-4.4,4.4h0.8
			c0-2,1.6-3.6,3.6-3.6C590.5,395.4,590.5,394.6,590.5,394.6z"/>
		<path class="st19" d="M592.5,385.1c0-2.2,1.8-4,4-4h12c2.2,0,4,1.8,4,4l0,0c0,2.2-1.8,4-4,4h-12
			C594.3,389.1,592.5,387.3,592.5,385.1L592.5,385.1z"/>
		<path class="st10" d="M596.5,381.5h12v-0.8h-12V381.5z M608.5,388.6h-12v0.8h12V388.6z M596.5,388.6c-2,0-3.6-1.6-3.6-3.6h-0.8
			c0,2.4,2,4.4,4.4,4.4C596.5,389.4,596.5,388.6,596.5,388.6z M612.1,385.1c0,2-1.6,3.6-3.6,3.6v0.8c2.4,0,4.4-2,4.4-4.4H612.1
			L612.1,385.1z M608.5,381.5c2,0,3.6,1.6,3.6,3.6h0.8c0-2.4-2-4.4-4.4-4.4V381.5z M596.5,380.6c-2.4,0-4.4,2-4.4,4.4h0.8
			c0-2,1.6-3.6,3.6-3.6C596.5,381.4,596.5,380.6,596.5,380.6z"/>
		<path class="st19" d="M560.5,413.1c0-2.2,1.8-4,4-4h32c2.2,0,4,1.8,4,4l0,0c0,2.2-1.8,4-4,4h-32
			C562.3,417.1,560.5,415.3,560.5,413.1L560.5,413.1z"/>
		<path class="st10" d="M564.5,409.5h32v-0.8h-32V409.5z M596.5,416.6h-32v0.8h32V416.6z M564.5,416.6c-2,0-3.6-1.6-3.6-3.6h-0.8
			c0,2.4,2,4.4,4.4,4.4V416.6z M600.1,413.1c0,2-1.6,3.6-3.6,3.6v0.8c2.4,0,4.4-2,4.4-4.4H600.1L600.1,413.1z M596.5,409.5
			c2,0,3.6,1.6,3.6,3.6h0.8c0-2.4-2-4.4-4.4-4.4V409.5z M564.5,408.6c-2.4,0-4.4,2-4.4,4.4h0.8c0-2,1.6-3.6,3.6-3.6V408.6z"/>
		<path class="st12" d="M606.5,413.1c0-2.2,1.8-4,4-4h18c2.2,0,4,1.8,4,4l0,0c0,2.2-1.8,4-4,4h-18
			C608.3,417.1,606.5,415.3,606.5,413.1L606.5,413.1z"/>
		<path class="st10" d="M610.5,409.5h18v-0.8h-18V409.5z M628.5,416.6h-18v0.8h18V416.6z M610.5,416.6c-2,0-3.6-1.6-3.6-3.6h-0.8
			c0,2.4,2,4.4,4.4,4.4V416.6z M632.1,413.1c0,2-1.6,3.6-3.6,3.6v0.8c2.4,0,4.4-2,4.4-4.4H632.1L632.1,413.1z M628.5,409.5
			c2,0,3.6,1.6,3.6,3.6h0.8c0-2.4-2-4.4-4.4-4.4V409.5z M610.5,408.6c-2.4,0-4.4,2-4.4,4.4h0.8c0-2,1.6-3.6,3.6-3.6V408.6z"/>
		<path class="st20" d="M592.5,329.1c0-2.2,1.8-4,4-4h44c2.2,0,4,1.8,4,4l0,0c0,2.2-1.8,4-4,4h-44
			C594.3,333.1,592.5,331.3,592.5,329.1L592.5,329.1z"/>
		<path class="st10" d="M596.5,325.5h44v-0.8h-44V325.5z M640.5,332.6h-44v0.8h44V332.6z M596.5,332.6c-2,0-3.6-1.6-3.6-3.6h-0.8
			c0,2.4,2,4.4,4.4,4.4C596.5,333.4,596.5,332.6,596.5,332.6z M644.1,329.1c0,2-1.6,3.6-3.6,3.6v0.8c2.4,0,4.4-2,4.4-4.4H644.1z
			 M640.5,325.5c2,0,3.6,1.6,3.6,3.6h0.8c0-2.4-2-4.4-4.4-4.4V325.5z M596.5,324.6c-2.4,0-4.4,2-4.4,4.4h0.8c0-2,1.6-3.6,3.6-3.6
			C596.5,325.4,596.5,324.6,596.5,324.6z"/>
		<path class="st12" d="M606.5,357.1c0-2.2,1.8-4,4-4h18c2.2,0,4,1.8,4,4l0,0c0,2.2-1.8,4-4,4h-18
			C608.3,361.1,606.5,359.3,606.5,357.1L606.5,357.1z"/>
		<path class="st10" d="M610.5,353.5h18v-0.8h-18V353.5z M628.5,360.6h-18v0.8h18V360.6z M610.5,360.6c-2,0-3.6-1.6-3.6-3.6h-0.8
			c0,2.4,2,4.4,4.4,4.4V360.6z M632.1,357.1c0,2-1.6,3.6-3.6,3.6v0.8c2.4,0,4.4-2,4.4-4.4H632.1z M628.5,353.5c2,0,3.6,1.6,3.6,3.6
			h0.8c0-2.4-2-4.4-4.4-4.4V353.5z M610.5,352.6c-2.4,0-4.4,2-4.4,4.4h0.8c0-2,1.6-3.6,3.6-3.6V352.6z"/>
		<path class="st1" d="M546.6,426.3c0-2.2,1.8-4,4-4l0,0c2.2,0,4,1.8,4,4l0,0c0,2.2-1.8,4-4,4l0,0
			C548.4,430.3,546.6,428.5,546.6,426.3L546.6,426.3z"/>
		<path class="st1" d="M550.6,429.8c-2,0-3.6-1.6-3.6-3.6h-0.8c0,2.4,2,4.4,4.4,4.4V429.8z M554.2,426.3c0,2-1.6,3.6-3.6,3.6v0.8
			c2.4,0,4.4-2,4.4-4.4L554.2,426.3L554.2,426.3z M550.6,422.7c2,0,3.6,1.6,3.6,3.6h0.8c0-2.4-2-4.4-4.4-4.4V422.7z M550.6,421.8
			c-2.4,0-4.4,2-4.4,4.4h0.8c0-2,1.6-3.6,3.6-3.6V421.8z"/>
		<path class="st1" d="M546.6,440.3c0-2.2,1.8-4,4-4l0,0c2.2,0,4,1.8,4,4l0,0c0,2.2-1.8,4-4,4l0,0
			C548.4,444.3,546.6,442.5,546.6,440.3L546.6,440.3z"/>
		<path class="st1" d="M550.6,443.8c-2,0-3.6-1.6-3.6-3.6h-0.8c0,2.4,2,4.4,4.4,4.4V443.8z M554.2,440.3c0,2-1.6,3.6-3.6,3.6v0.8
			c2.4,0,4.4-2,4.4-4.4L554.2,440.3L554.2,440.3z M550.6,436.7c2,0,3.6,1.6,3.6,3.6h0.8c0-2.4-2-4.4-4.4-4.4V436.7z M550.6,435.8
			c-2.4,0-4.4,2-4.4,4.4h0.8c0-2,1.6-3.6,3.6-3.6V435.8z"/>
		<path class="st1" d="M546.6,454.3c0-2.2,1.8-4,4-4l0,0c2.2,0,4,1.8,4,4l0,0c0,2.2-1.8,4-4,4l0,0
			C548.4,458.3,546.6,456.5,546.6,454.3L546.6,454.3z"/>
		<path class="st1" d="M550.6,457.8c-2,0-3.6-1.6-3.6-3.6h-0.8c0,2.4,2,4.4,4.4,4.4V457.8z M554.2,454.3c0,2-1.6,3.6-3.6,3.6v0.8
			c2.4,0,4.4-2,4.4-4.4L554.2,454.3L554.2,454.3z M550.6,450.7c2,0,3.6,1.6,3.6,3.6h0.8c0-2.4-2-4.4-4.4-4.4V450.7z M550.6,449.8
			c-2.4,0-4.4,2-4.4,4.4h0.8c0-2,1.6-3.6,3.6-3.6V449.8z"/>
		<path class="st19" d="M560.6,426.3c0-2.2,1.8-4,4-4h18c2.2,0,4,1.8,4,4l0,0c0,2.2-1.8,4-4,4h-18
			C562.4,430.3,560.6,428.5,560.6,426.3L560.6,426.3z"/>
		<path class="st10" d="M564.6,422.7h18v-0.8h-18V422.7z M582.6,429.8h-18v0.8h18V429.8z M564.6,429.8c-2,0-3.6-1.6-3.6-3.6h-0.8
			c0,2.4,2,4.4,4.4,4.4V429.8z M586.2,426.3c0,2-1.6,3.6-3.6,3.6v0.8c2.4,0,4.4-2,4.4-4.4L586.2,426.3L586.2,426.3z M582.6,422.7
			c2,0,3.6,1.6,3.6,3.6h0.8c0-2.4-2-4.4-4.4-4.4C582.6,421.9,582.6,422.7,582.6,422.7z M564.6,421.8c-2.4,0-4.4,2-4.4,4.4h0.8
			c0-2,1.6-3.6,3.6-3.6V421.8z"/>
		<path class="st12" d="M560.6,440.3c0-2.2,1.8-4,4-4h12c2.2,0,4,1.8,4,4l0,0c0,2.2-1.8,4-4,4h-12
			C562.4,444.3,560.6,442.5,560.6,440.3L560.6,440.3z"/>
		<path class="st10" d="M564.6,436.7h12v-0.8h-12V436.7z M576.6,443.8h-12v0.8h12V443.8z M564.6,443.8c-2,0-3.6-1.6-3.6-3.6h-0.8
			c0,2.4,2,4.4,4.4,4.4V443.8z M580.2,440.3c0,2-1.6,3.6-3.6,3.6v0.8c2.4,0,4.4-2,4.4-4.4L580.2,440.3L580.2,440.3z M576.6,436.7
			c2,0,3.6,1.6,3.6,3.6h0.8c0-2.4-2-4.4-4.4-4.4C576.6,435.9,576.6,436.7,576.6,436.7z M564.6,435.8c-2.4,0-4.4,2-4.4,4.4h0.8
			c0-2,1.6-3.6,3.6-3.6V435.8z"/>
		<path class="st12" d="M586.6,440.3c0-2.2,1.8-4,4-4h32c2.2,0,4,1.8,4,4l0,0c0,2.2-1.8,4-4,4h-32
			C588.4,444.3,586.6,442.5,586.6,440.3L586.6,440.3z"/>
		<path class="st10" d="M590.6,436.7h32v-0.8h-32V436.7z M622.6,443.8h-32v0.8h32V443.8z M590.6,443.8c-2,0-3.6-1.6-3.6-3.6h-0.8
			c0,2.4,2,4.4,4.4,4.4C590.6,444.6,590.6,443.8,590.6,443.8z M626.2,440.3c0,2-1.6,3.6-3.6,3.6v0.8c2.4,0,4.4-2,4.4-4.4
			L626.2,440.3L626.2,440.3z M622.6,436.7c2,0,3.6,1.6,3.6,3.6h0.8c0-2.4-2-4.4-4.4-4.4V436.7z M590.6,435.8c-2.4,0-4.4,2-4.4,4.4
			h0.8c0-2,1.6-3.6,3.6-3.6C590.6,436.6,590.6,435.8,590.6,435.8z"/>
		<path class="st19" d="M592.6,426.3c0-2.2,1.8-4,4-4h12c2.2,0,4,1.8,4,4l0,0c0,2.2-1.8,4-4,4h-12
			C594.4,430.3,592.6,428.5,592.6,426.3L592.6,426.3z"/>
		<path class="st10" d="M596.6,422.7h12v-0.8h-12V422.7z M608.6,429.8h-12v0.8h12V429.8z M596.6,429.8c-2,0-3.6-1.6-3.6-3.6h-0.8
			c0,2.4,2,4.4,4.4,4.4C596.6,430.6,596.6,429.8,596.6,429.8z M612.2,426.3c0,2-1.6,3.6-3.6,3.6v0.8c2.4,0,4.4-2,4.4-4.4
			L612.2,426.3L612.2,426.3z M608.6,422.7c2,0,3.6,1.6,3.6,3.6h0.8c0-2.4-2-4.4-4.4-4.4V422.7z M596.6,421.8c-2.4,0-4.4,2-4.4,4.4
			h0.8c0-2,1.6-3.6,3.6-3.6C596.6,422.6,596.6,421.8,596.6,421.8z"/>
		<path class="st19" d="M560.6,454.3c0-2.2,1.8-4,4-4h32c2.2,0,4,1.8,4,4l0,0c0,2.2-1.8,4-4,4h-32
			C562.4,458.3,560.6,456.5,560.6,454.3L560.6,454.3z"/>
		<path class="st10" d="M564.6,450.7h32v-0.8h-32V450.7z M596.6,457.8h-32v0.8h32V457.8z M564.6,457.8c-2,0-3.6-1.6-3.6-3.6h-0.8
			c0,2.4,2,4.4,4.4,4.4V457.8z M600.2,454.3c0,2-1.6,3.6-3.6,3.6v0.8c2.4,0,4.4-2,4.4-4.4L600.2,454.3L600.2,454.3z M596.6,450.7
			c2,0,3.6,1.6,3.6,3.6h0.8c0-2.4-2-4.4-4.4-4.4V450.7z M564.6,449.8c-2.4,0-4.4,2-4.4,4.4h0.8c0-2,1.6-3.6,3.6-3.6V449.8z"/>
		<path class="st12" d="M606.6,454.3c0-2.2,1.8-4,4-4h18c2.2,0,4,1.8,4,4l0,0c0,2.2-1.8,4-4,4h-18
			C608.4,458.3,606.6,456.5,606.6,454.3L606.6,454.3z"/>
		<path class="st10" d="M610.6,450.7h18v-0.8h-18V450.7z M628.6,457.8h-18v0.8h18V457.8z M610.6,457.8c-2,0-3.6-1.6-3.6-3.6h-0.8
			c0,2.4,2,4.4,4.4,4.4V457.8z M632.2,454.3c0,2-1.6,3.6-3.6,3.6v0.8c2.4,0,4.4-2,4.4-4.4L632.2,454.3L632.2,454.3z M628.6,450.7
			c2,0,3.6,1.6,3.6,3.6h0.8c0-2.4-2-4.4-4.4-4.4V450.7z M610.6,449.8c-2.4,0-4.4,2-4.4,4.4h0.8c0-2,1.6-3.6,3.6-3.6V449.8z"/>
		<path class="st20" d="M618.6,426.3c0-2.2,1.8-4,4-4h32c2.2,0,4,1.8,4,4l0,0c0,2.2-1.8,4-4,4h-32
			C620.4,430.3,618.6,428.5,618.6,426.3L618.6,426.3z"/>
		<path class="st10" d="M622.6,422.7h32v-0.8h-32V422.7z M654.6,429.8h-32v0.8h32V429.8z M622.6,429.8c-2,0-3.6-1.6-3.6-3.6h-0.8
			c0,2.4,2,4.4,4.4,4.4C622.6,430.6,622.6,429.8,622.6,429.8z M658.2,426.3c0,2-1.6,3.6-3.6,3.6v0.8c2.4,0,4.4-2,4.4-4.4H658.2z
			 M654.6,422.7c2,0,3.6,1.6,3.6,3.6h0.8c0-2.4-2-4.4-4.4-4.4V422.7z M622.6,421.8c-2.4,0-4.4,2-4.4,4.4h0.8c0-2,1.6-3.6,3.6-3.6
			C622.6,422.6,622.6,421.8,622.6,421.8z"/>
		<path class="st20" d="M663.6,426.3c0-2.2,1.8-4,4-4h12c2.2,0,4,1.8,4,4l0,0c0,2.2-1.8,4-4,4h-12
			C665.4,430.3,663.6,428.5,663.6,426.3L663.6,426.3z"/>
		<path class="st10" d="M667.6,422.7h12v-0.8h-12V422.7z M679.6,429.8h-12v0.8h12V429.8z M667.6,429.8c-2,0-3.6-1.6-3.6-3.6h-0.8
			c0,2.4,2,4.4,4.4,4.4V429.8z M683.2,426.3c0,2-1.6,3.6-3.6,3.6v0.8c2.4,0,4.4-2,4.4-4.4H683.2z M679.6,422.7c2,0,3.6,1.6,3.6,3.6
			h0.8c0-2.4-2-4.4-4.4-4.4V422.7z M667.6,421.8c-2.4,0-4.4,2-4.4,4.4h0.8c0-2,1.6-3.6,3.6-3.6V421.8z"/>
		<path class="st20" d="M657.6,399.3c0-2.2,1.8-4,4-4h12c2.2,0,4,1.8,4,4l0,0c0,2.2-1.8,4-4,4h-12
			C659.4,403.3,657.6,401.5,657.6,399.3L657.6,399.3z"/>
		<path class="st10" d="M661.6,395.7h12v-0.8h-12V395.7z M673.6,402.8h-12v0.8h12V402.8z M661.6,402.8c-2,0-3.6-1.6-3.6-3.6h-0.8
			c0,2.4,2,4.4,4.4,4.4V402.8z M677.2,399.3c0,2-1.6,3.6-3.6,3.6v0.8c2.4,0,4.4-2,4.4-4.4H677.2z M673.6,395.7c2,0,3.6,1.6,3.6,3.6
			h0.8c0-2.4-2-4.4-4.4-4.4V395.7z M661.6,394.8c-2.4,0-4.4,2-4.4,4.4h0.8c0-2,1.6-3.6,3.6-3.6V394.8z"/>
		<path class="st20" d="M637.6,413.3c0-2.2,1.8-4,4-4h44c2.2,0,4,1.8,4,4l0,0c0,2.2-1.8,4-4,4h-44
			C639.4,417.3,637.6,415.5,637.6,413.3L637.6,413.3z"/>
		<path class="st10" d="M641.6,409.7h44v-0.8h-44V409.7z M685.6,416.8h-44v0.8h44V416.8z M641.6,416.8c-2,0-3.6-1.6-3.6-3.6h-0.8
			c0,2.4,2,4.4,4.4,4.4C641.6,417.6,641.6,416.8,641.6,416.8z M689.2,413.3c0,2-1.6,3.6-3.6,3.6v0.8c2.4,0,4.4-2,4.4-4.4H689.2z
			 M685.6,409.7c2,0,3.6,1.6,3.6,3.6h0.8c0-2.4-2-4.4-4.4-4.4V409.7z M641.6,408.8c-2.4,0-4.4,2-4.4,4.4h0.8c0-2,1.6-3.6,3.6-3.6
			C641.6,409.6,641.6,408.8,641.6,408.8z"/>
		<path class="st12" d="M655.6,440.3c0-2.2,1.8-4,4-4h18c2.2,0,4,1.8,4,4l0,0c0,2.2-1.8,4-4,4h-18
			C657.4,444.3,655.6,442.5,655.6,440.3L655.6,440.3z"/>
		<path class="st10" d="M659.6,436.7h18v-0.8h-18V436.7z M677.6,443.8h-18v0.8h18V443.8z M659.6,443.8c-2,0-3.6-1.6-3.6-3.6h-0.8
			c0,2.4,2,4.4,4.4,4.4V443.8z M681.2,440.3c0,2-1.6,3.6-3.6,3.6v0.8c2.4,0,4.4-2,4.4-4.4H681.2z M677.6,436.7c2,0,3.6,1.6,3.6,3.6
			h0.8c0-2.4-2-4.4-4.4-4.4V436.7z M659.6,435.8c-2.4,0-4.4,2-4.4,4.4h0.8c0-2,1.6-3.6,3.6-3.6V435.8z"/>
		<path class="st12" d="M640.6,454.3c0-2.2,1.8-4,4-4h44c2.2,0,4,1.8,4,4l0,0c0,2.2-1.8,4-4,4h-44
			C642.4,458.3,640.6,456.5,640.6,454.3L640.6,454.3z"/>
		<path class="st10" d="M644.6,450.7h44v-0.8h-44V450.7z M688.6,457.8h-44v0.8h44V457.8z M644.6,457.8c-2,0-3.6-1.6-3.6-3.6h-0.8
			c0,2.4,2,4.4,4.4,4.4V457.8z M692.2,454.3c0,2-1.6,3.6-3.6,3.6v0.8c2.4,0,4.4-2,4.4-4.4H692.2z M688.6,450.7c2,0,3.6,1.6,3.6,3.6
			h0.8c0-2.4-2-4.4-4.4-4.4V450.7z M644.6,449.8c-2.4,0-4.4,2-4.4,4.4h0.8c0-2,1.6-3.6,3.6-3.6V449.8z"/>
		<path class="st19" d="M618.6,371.3c0-2.2,1.8-4,4-4h18c2.2,0,4,1.8,4,4l0,0c0,2.2-1.8,4-4,4h-18
			C620.4,375.3,618.6,373.5,618.6,371.3L618.6,371.3z"/>
		<path class="st10" d="M622.6,367.7h18v-0.8h-18V367.7z M640.6,374.8h-18v0.8h18V374.8z M622.6,374.8c-2,0-3.6-1.6-3.6-3.6h-0.8
			c0,2.4,2,4.4,4.4,4.4V374.8z M644.2,371.3c0,2-1.6,3.6-3.6,3.6v0.8c2.4,0,4.4-2,4.4-4.4L644.2,371.3L644.2,371.3z M640.6,367.7
			c2,0,3.6,1.6,3.6,3.6h0.8c0-2.4-2-4.4-4.4-4.4C640.6,366.9,640.6,367.7,640.6,367.7z M622.6,366.8c-2.4,0-4.4,2-4.4,4.4h0.8
			c0-2,1.6-3.6,3.6-3.6V366.8z"/>
		<path class="st12" d="M629.6,440.3c0-2.2,1.8-4,4-4h12c2.2,0,4,1.8,4,4l0,0c0,2.2-1.8,4-4,4h-12
			C631.4,444.3,629.6,442.5,629.6,440.3L629.6,440.3z"/>
		<path class="st10" d="M633.6,436.7h12v-0.8h-12V436.7z M645.6,443.8h-12v0.8h12V443.8z M633.6,443.8c-2,0-3.6-1.6-3.6-3.6h-0.8
			c0,2.4,2,4.4,4.4,4.4V443.8z M649.2,440.3c0,2-1.6,3.6-3.6,3.6v0.8c2.4,0,4.4-2,4.4-4.4L649.2,440.3L649.2,440.3z M645.6,436.7
			c2,0,3.6,1.6,3.6,3.6h0.8c0-2.4-2-4.4-4.4-4.4C645.6,435.9,645.6,436.7,645.6,436.7z M633.6,435.8c-2.4,0-4.4,2-4.4,4.4h0.8
			c0-2,1.6-3.6,3.6-3.6V435.8z"/>
		<path class="st12" d="M618.6,385.3c0-2.2,1.8-4,4-4h32c2.2,0,4,1.8,4,4l0,0c0,2.2-1.8,4-4,4h-32
			C620.4,389.3,618.6,387.5,618.6,385.3L618.6,385.3z"/>
		<path class="st10" d="M622.6,381.7h32v-0.8h-32V381.7z M654.6,388.8h-32v0.8h32V388.8z M622.6,388.8c-2,0-3.6-1.6-3.6-3.6h-0.8
			c0,2.4,2,4.4,4.4,4.4C622.6,389.6,622.6,388.8,622.6,388.8z M658.2,385.3c0,2-1.6,3.6-3.6,3.6v0.8c2.4,0,4.4-2,4.4-4.4
			L658.2,385.3L658.2,385.3z M654.6,381.7c2,0,3.6,1.6,3.6,3.6h0.8c0-2.4-2-4.4-4.4-4.4V381.7z M622.6,380.8c-2.4,0-4.4,2-4.4,4.4
			h0.8c0-2,1.6-3.6,3.6-3.6C622.6,381.6,622.6,380.8,622.6,380.8z"/>
		<path class="st19" d="M637.6,357.3c0-2.2,1.8-4,4-4h12c2.2,0,4,1.8,4,4l0,0c0,2.2-1.8,4-4,4h-12
			C639.4,361.3,637.6,359.5,637.6,357.3L637.6,357.3z"/>
		<path class="st10" d="M641.6,353.7h12v-0.8h-12V353.7z M653.6,360.8h-12v0.8h12V360.8z M641.6,360.8c-2,0-3.6-1.6-3.6-3.6h-0.8
			c0,2.4,2,4.4,4.4,4.4C641.6,361.6,641.6,360.8,641.6,360.8z M657.2,357.3c0,2-1.6,3.6-3.6,3.6v0.8c2.4,0,4.4-2,4.4-4.4
			L657.2,357.3L657.2,357.3z M653.6,353.7c2,0,3.6,1.6,3.6,3.6h0.8c0-2.4-2-4.4-4.4-4.4V353.7z M641.6,352.8c-2.4,0-4.4,2-4.4,4.4
			h0.8c0-2,1.6-3.6,3.6-3.6C641.6,353.6,641.6,352.8,641.6,352.8z"/>
		<path class="st12" d="M656.1,315.3c0-2.2,1.8-4,4-4h18c2.2,0,4,1.8,4,4l0,0c0,2.2-1.8,4-4,4h-18
			C657.9,319.3,656.1,317.5,656.1,315.3L656.1,315.3z"/>
		<path class="st10" d="M660.1,311.7h18v-0.8h-18V311.7z M678.1,318.8h-18v0.8h18V318.8z M660.1,318.8c-2,0-3.6-1.6-3.6-3.6h-0.8
			c0,2.4,2,4.4,4.4,4.4V318.8z M681.7,315.3c0,2-1.6,3.6-3.6,3.6v0.8c2.4,0,4.4-2,4.4-4.4H681.7z M678.1,311.7c2,0,3.6,1.6,3.6,3.6
			h0.8c0-2.4-2-4.4-4.4-4.4V311.7z M660.1,310.8c-2.4,0-4.4,2-4.4,4.4h0.8c0-2,1.6-3.6,3.6-3.6V310.8z"/>
		<path class="st12" d="M648.1,329.3c0-2.2,1.8-4,4-4h44c2.2,0,4,1.8,4,4l0,0c0,2.2-1.8,4-4,4h-44
			C649.9,333.3,648.1,331.5,648.1,329.3L648.1,329.3z"/>
		<path class="st10" d="M652.1,325.7h44v-0.8h-44V325.7z M696.1,332.8h-44v0.8h44V332.8z M652.1,332.8c-2,0-3.6-1.6-3.6-3.6h-0.8
			c0,2.4,2,4.4,4.4,4.4V332.8z M699.7,329.3c0,2-1.6,3.6-3.6,3.6v0.8c2.4,0,4.4-2,4.4-4.4H699.7z M696.1,325.7c2,0,3.6,1.6,3.6,3.6
			h0.8c0-2.4-2-4.4-4.4-4.4V325.7z M652.1,324.8c-2.4,0-4.4,2-4.4,4.4h0.8c0-2,1.6-3.6,3.6-3.6V324.8z"/>
		<path class="st12" d="M631.1,315.3c0-2.2,1.8-4,4-4h12c2.2,0,4,1.8,4,4l0,0c0,2.2-1.8,4-4,4h-12
			C632.9,319.3,631.1,317.5,631.1,315.3L631.1,315.3z"/>
		<path class="st10" d="M635.1,311.7h12v-0.8h-12V311.7z M647.1,318.8h-12v0.8h12V318.8z M635.1,318.8c-2,0-3.6-1.6-3.6-3.6h-0.8
			c0,2.4,2,4.4,4.4,4.4V318.8z M650.7,315.3c0,2-1.6,3.6-3.6,3.6v0.8c2.4,0,4.4-2,4.4-4.4L650.7,315.3L650.7,315.3z M647.1,311.7
			c2,0,3.6,1.6,3.6,3.6h0.8c0-2.4-2-4.4-4.4-4.4C647.1,310.9,647.1,311.7,647.1,311.7z M635.1,310.8c-2.4,0-4.4,2-4.4,4.4h0.8
			c0-2,1.6-3.6,3.6-3.6V310.8z"/>
		<path class="st20" d="M631.6,399.3c0-2.2,1.8-4,4-4h12c2.2,0,4,1.8,4,4l0,0c0,2.2-1.8,4-4,4h-12
			C633.4,403.3,631.6,401.5,631.6,399.3L631.6,399.3z"/>
		<path class="st10" d="M635.6,395.7h12v-0.8h-12V395.7z M647.6,402.8h-12v0.8h12V402.8z M635.6,402.8c-2,0-3.6-1.6-3.6-3.6h-0.8
			c0,2.4,2,4.4,4.4,4.4V402.8z M651.2,399.3c0,2-1.6,3.6-3.6,3.6v0.8c2.4,0,4.4-2,4.4-4.4H651.2z M647.6,395.7c2,0,3.6,1.6,3.6,3.6
			h0.8c0-2.4-2-4.4-4.4-4.4V395.7z M635.6,394.8c-2.4,0-4.4,2-4.4,4.4h0.8c0-2,1.6-3.6,3.6-3.6V394.8z"/>
		<path class="st12" d="M648.6,371.3c0-2.2,1.8-4,4-4h18c2.2,0,4,1.8,4,4l0,0c0,2.2-1.8,4-4,4h-18
			C650.4,375.3,648.6,373.5,648.6,371.3L648.6,371.3z"/>
		<path class="st10" d="M652.6,367.7h18v-0.8h-18V367.7z M670.6,374.8h-18v0.8h18V374.8z M652.6,374.8c-2,0-3.6-1.6-3.6-3.6h-0.8
			c0,2.4,2,4.4,4.4,4.4V374.8z M674.2,371.3c0,2-1.6,3.6-3.6,3.6v0.8c2.4,0,4.4-2,4.4-4.4L674.2,371.3L674.2,371.3z M670.6,367.7
			c2,0,3.6,1.6,3.6,3.6h0.8c0-2.4-2-4.4-4.4-4.4V367.7z M652.6,366.8c-2.4,0-4.4,2-4.4,4.4h0.8c0-2,1.6-3.6,3.6-3.6V366.8z"/>
		<path class="st12" d="M657.6,343.3c0-2.2,1.8-4,4-4h18c2.2,0,4,1.8,4,4l0,0c0,2.2-1.8,4-4,4h-18
			C659.4,347.3,657.6,345.5,657.6,343.3L657.6,343.3z"/>
		<path class="st10" d="M661.6,339.7h18v-0.8h-18V339.7z M679.6,346.8h-18v0.8h18V346.8z M661.6,346.8c-2,0-3.6-1.6-3.6-3.6h-0.8
			c0,2.4,2,4.4,4.4,4.4V346.8z M683.2,343.3c0,2-1.6,3.6-3.6,3.6v0.8c2.4,0,4.4-2,4.4-4.4H683.2z M679.6,339.7c2,0,3.6,1.6,3.6,3.6
			h0.8c0-2.4-2-4.4-4.4-4.4V339.7z M661.6,338.8c-2.4,0-4.4,2-4.4,4.4h0.8c0-2,1.6-3.6,3.6-3.6V338.8z"/>
		<path class="st12" d="M662.6,357.3c0-2.2,1.8-4,4-4h12c2.2,0,4,1.8,4,4l0,0c0,2.2-1.8,4-4,4h-12
			C664.4,361.3,662.6,359.5,662.6,357.3L662.6,357.3z"/>
		<path class="st10" d="M666.6,353.7h12v-0.8h-12V353.7z M678.6,360.8h-12v0.8h12V360.8z M666.6,360.8c-2,0-3.6-1.6-3.6-3.6h-0.8
			c0,2.4,2,4.4,4.4,4.4V360.8z M682.2,357.3c0,2-1.6,3.6-3.6,3.6v0.8c2.4,0,4.4-2,4.4-4.4L682.2,357.3L682.2,357.3z M678.6,353.7
			c2,0,3.6,1.6,3.6,3.6h0.8c0-2.4-2-4.4-4.4-4.4C678.6,352.9,678.6,353.7,678.6,353.7z M666.6,352.8c-2.4,0-4.4,2-4.4,4.4h0.8
			c0-2,1.6-3.6,3.6-3.6V352.8z"/>
		<path class="st20" d="M663.6,385.3c0-2.2,1.8-4,4-4h12c2.2,0,4,1.8,4,4l0,0c0,2.2-1.8,4-4,4h-12
			C665.4,389.3,663.6,387.5,663.6,385.3L663.6,385.3z"/>
		<path class="st10" d="M667.6,381.7h12v-0.8h-12V381.7z M679.6,388.8h-12v0.8h12V388.8z M667.6,388.8c-2,0-3.6-1.6-3.6-3.6h-0.8
			c0,2.4,2,4.4,4.4,4.4V388.8z M683.2,385.3c0,2-1.6,3.6-3.6,3.6v0.8c2.4,0,4.4-2,4.4-4.4H683.2z M679.6,381.7c2,0,3.6,1.6,3.6,3.6
			h0.8c0-2.4-2-4.4-4.4-4.4V381.7z M667.6,380.8c-2.4,0-4.4,2-4.4,4.4h0.8c0-2,1.6-3.6,3.6-3.6V380.8z"/>
		<path class="st17" d="M27.6,424.1c0-2.2,1.8-4,4-4l0,0c2.2,0,4,1.8,4,4l0,0c0,2.2-1.8,4-4,4l0,0C29.4,428.1,27.6,426.3,27.6,424.1
			L27.6,424.1z"/>
		<path class="st17" d="M31.6,427.6c-2,0-3.6-1.6-3.6-3.6h-0.8c0,2.4,2,4.4,4.4,4.4V427.6z M35.2,424.1c0,2-1.6,3.6-3.6,3.6v0.8
			c2.4,0,4.4-2,4.4-4.4L35.2,424.1L35.2,424.1z M31.6,420.5c2,0,3.6,1.6,3.6,3.6H36c0-2.4-2-4.4-4.4-4.4V420.5z M31.6,419.6
			c-2.4,0-4.4,2-4.4,4.4H28c0-2,1.6-3.6,3.6-3.6V419.6z"/>
		<path class="st19" d="M41.6,424.1c0-2.2,1.8-4,4-4h32c2.2,0,4,1.8,4,4l0,0c0,2.2-1.8,4-4,4h-32C43.4,428.1,41.6,426.3,41.6,424.1
			L41.6,424.1z"/>
		<path class="st10" d="M45.6,420.5h32v-0.8h-32V420.5z M77.6,427.6h-32v0.8h32V427.6z M45.6,427.6c-2,0-3.6-1.6-3.6-3.6h-0.8
			c0,2.4,2,4.4,4.4,4.4V427.6z M81.2,424.1c0,2-1.6,3.6-3.6,3.6v0.8c2.4,0,4.4-2,4.4-4.4L81.2,424.1L81.2,424.1z M77.6,420.5
			c2,0,3.6,1.6,3.6,3.6H82c0-2.4-2-4.4-4.4-4.4V420.5z M45.6,419.6c-2.4,0-4.4,2-4.4,4.4H42c0-2,1.6-3.6,3.6-3.6V419.6z"/>
		<path class="st12" d="M87.6,424.1c0-2.2,1.8-4,4-4h18c2.2,0,4,1.8,4,4l0,0c0,2.2-1.8,4-4,4h-18C89.4,428.1,87.6,426.3,87.6,424.1
			L87.6,424.1z"/>
		<path class="st10" d="M91.6,420.5h18v-0.8h-18V420.5z M109.6,427.6h-18v0.8h18V427.6z M91.6,427.6c-2,0-3.6-1.6-3.6-3.6h-0.8
			c0,2.4,2,4.4,4.4,4.4V427.6z M113.2,424.1c0,2-1.6,3.6-3.6,3.6v0.8c2.4,0,4.4-2,4.4-4.4L113.2,424.1L113.2,424.1z M109.6,420.5
			c2,0,3.6,1.6,3.6,3.6h0.8c0-2.4-2-4.4-4.4-4.4V420.5z M91.6,419.6c-2.4,0-4.4,2-4.4,4.4H88c0-2,1.6-3.6,3.6-3.6V419.6z"/>
		<path class="st17" d="M27.7,437.2c0-2.2,1.8-4,4-4l0,0c2.2,0,4,1.8,4,4l0,0c0,2.2-1.8,4-4,4l0,0C29.5,441.2,27.7,439.4,27.7,437.2
			L27.7,437.2z"/>
		<path class="st17" d="M31.7,440.7c-2,0-3.6-1.6-3.6-3.6h-0.8c0,2.4,2,4.4,4.4,4.4V440.7z M35.3,437.2c0,2-1.6,3.6-3.6,3.6v0.8
			c2.4,0,4.4-2,4.4-4.4H35.3L35.3,437.2z M31.7,433.6c2,0,3.6,1.6,3.6,3.6h0.8c0-2.4-2-4.4-4.4-4.4V433.6z M31.7,432.7
			c-2.4,0-4.4,2-4.4,4.4h0.8c0-2,1.6-3.6,3.6-3.6V432.7z"/>
		<path class="st17" d="M27.7,451.2c0-2.2,1.8-4,4-4l0,0c2.2,0,4,1.8,4,4l0,0c0,2.2-1.8,4-4,4l0,0C29.5,455.2,27.7,453.4,27.7,451.2
			L27.7,451.2z"/>
		<path class="st17" d="M31.7,454.7c-2,0-3.6-1.6-3.6-3.6h-0.8c0,2.4,2,4.4,4.4,4.4V454.7z M35.3,451.2c0,2-1.6,3.6-3.6,3.6v0.8
			c2.4,0,4.4-2,4.4-4.4H35.3L35.3,451.2z M31.7,447.6c2,0,3.6,1.6,3.6,3.6h0.8c0-2.4-2-4.4-4.4-4.4V447.6z M31.7,446.7
			c-2.4,0-4.4,2-4.4,4.4h0.8c0-2,1.6-3.6,3.6-3.6V446.7z"/>
		<path class="st17" d="M27.7,465.2c0-2.2,1.8-4,4-4l0,0c2.2,0,4,1.8,4,4l0,0c0,2.2-1.8,4-4,4l0,0C29.5,469.2,27.7,467.4,27.7,465.2
			L27.7,465.2z"/>
		<path class="st17" d="M31.7,468.7c-2,0-3.6-1.6-3.6-3.6h-0.8c0,2.4,2,4.4,4.4,4.4V468.7z M35.3,465.2c0,2-1.6,3.6-3.6,3.6v0.8
			c2.4,0,4.4-2,4.4-4.4H35.3L35.3,465.2z M31.7,461.6c2,0,3.6,1.6,3.6,3.6h0.8c0-2.4-2-4.4-4.4-4.4V461.6z M31.7,460.7
			c-2.4,0-4.4,2-4.4,4.4h0.8c0-2,1.6-3.6,3.6-3.6V460.7z"/>
		<path class="st19" d="M41.7,437.2c0-2.2,1.8-4,4-4h18c2.2,0,4,1.8,4,4l0,0c0,2.2-1.8,4-4,4h-18C43.5,441.2,41.7,439.4,41.7,437.2
			L41.7,437.2z"/>
		<path class="st10" d="M45.7,433.6h18v-0.8h-18V433.6z M63.7,440.7h-18v0.8h18V440.7z M45.7,440.7c-2,0-3.6-1.6-3.6-3.6h-0.8
			c0,2.4,2,4.4,4.4,4.4V440.7z M67.3,437.2c0,2-1.6,3.6-3.6,3.6v0.8c2.4,0,4.4-2,4.4-4.4H67.3L67.3,437.2z M63.7,433.6
			c2,0,3.6,1.6,3.6,3.6h0.8c0-2.4-2-4.4-4.4-4.4C63.7,432.8,63.7,433.6,63.7,433.6z M45.7,432.7c-2.4,0-4.4,2-4.4,4.4h0.8
			c0-2,1.6-3.6,3.6-3.6V432.7z"/>
		<path class="st12" d="M41.7,451.2c0-2.2,1.8-4,4-4h12c2.2,0,4,1.8,4,4l0,0c0,2.2-1.8,4-4,4h-12C43.5,455.2,41.7,453.4,41.7,451.2
			L41.7,451.2z"/>
		<path class="st10" d="M45.7,447.6h12v-0.8h-12V447.6z M57.7,454.7h-12v0.8h12V454.7z M45.7,454.7c-2,0-3.6-1.6-3.6-3.6h-0.8
			c0,2.4,2,4.4,4.4,4.4V454.7z M61.3,451.2c0,2-1.6,3.6-3.6,3.6v0.8c2.4,0,4.4-2,4.4-4.4H61.3L61.3,451.2z M57.7,447.6
			c2,0,3.6,1.6,3.6,3.6h0.8c0-2.4-2-4.4-4.4-4.4C57.7,446.8,57.7,447.6,57.7,447.6z M45.7,446.7c-2.4,0-4.4,2-4.4,4.4h0.8
			c0-2,1.6-3.6,3.6-3.6V446.7z"/>
		<path class="st12" d="M67.7,451.2c0-2.2,1.8-4,4-4h32c2.2,0,4,1.8,4,4l0,0c0,2.2-1.8,4-4,4h-32C69.5,455.2,67.7,453.4,67.7,451.2
			L67.7,451.2z"/>
		<path class="st10" d="M71.7,447.6h32v-0.8h-32V447.6z M103.7,454.7h-32v0.8h32V454.7z M71.7,454.7c-2,0-3.6-1.6-3.6-3.6h-0.8
			c0,2.4,2,4.4,4.4,4.4C71.7,455.5,71.7,454.7,71.7,454.7z M107.3,451.2c0,2-1.6,3.6-3.6,3.6v0.8c2.4,0,4.4-2,4.4-4.4H107.3
			L107.3,451.2z M103.7,447.6c2,0,3.6,1.6,3.6,3.6h0.8c0-2.4-2-4.4-4.4-4.4V447.6z M71.7,446.7c-2.4,0-4.4,2-4.4,4.4h0.8
			c0-2,1.6-3.6,3.6-3.6C71.7,447.5,71.7,446.7,71.7,446.7z"/>
		<path class="st19" d="M73.7,437.2c0-2.2,1.8-4,4-4h12c2.2,0,4,1.8,4,4l0,0c0,2.2-1.8,4-4,4h-12C75.5,441.2,73.7,439.4,73.7,437.2
			L73.7,437.2z"/>
		<path class="st10" d="M77.7,433.6h12v-0.8h-12V433.6z M89.7,440.7h-12v0.8h12V440.7z M77.7,440.7c-2,0-3.6-1.6-3.6-3.6h-0.8
			c0,2.4,2,4.4,4.4,4.4C77.7,441.5,77.7,440.7,77.7,440.7z M93.3,437.2c0,2-1.6,3.6-3.6,3.6v0.8c2.4,0,4.4-2,4.4-4.4H93.3
			L93.3,437.2z M89.7,433.6c2,0,3.6,1.6,3.6,3.6h0.8c0-2.4-2-4.4-4.4-4.4V433.6z M77.7,432.7c-2.4,0-4.4,2-4.4,4.4h0.8
			c0-2,1.6-3.6,3.6-3.6C77.7,433.5,77.7,432.7,77.7,432.7z"/>
		<path class="st19" d="M41.7,465.2c0-2.2,1.8-4,4-4h32c2.2,0,4,1.8,4,4l0,0c0,2.2-1.8,4-4,4h-32C43.5,469.2,41.7,467.4,41.7,465.2
			L41.7,465.2z"/>
		<path class="st10" d="M45.7,461.6h32v-0.8h-32V461.6z M77.7,468.7h-32v0.8h32V468.7z M45.7,468.7c-2,0-3.6-1.6-3.6-3.6h-0.8
			c0,2.4,2,4.4,4.4,4.4V468.7z M81.3,465.2c0,2-1.6,3.6-3.6,3.6v0.8c2.4,0,4.4-2,4.4-4.4H81.3L81.3,465.2z M77.7,461.6
			c2,0,3.6,1.6,3.6,3.6h0.8c0-2.4-2-4.4-4.4-4.4V461.6z M45.7,460.7c-2.4,0-4.4,2-4.4,4.4h0.8c0-2,1.6-3.6,3.6-3.6V460.7z"/>
		<path class="st12" d="M87.7,465.2c0-2.2,1.8-4,4-4h18c2.2,0,4,1.8,4,4l0,0c0,2.2-1.8,4-4,4h-18C89.5,469.2,87.7,467.4,87.7,465.2
			L87.7,465.2z"/>
		<path class="st10" d="M91.7,461.6h18v-0.8h-18V461.6z M109.7,468.7h-18v0.8h18V468.7z M91.7,468.7c-2,0-3.6-1.6-3.6-3.6h-0.8
			c0,2.4,2,4.4,4.4,4.4V468.7z M113.3,465.2c0,2-1.6,3.6-3.6,3.6v0.8c2.4,0,4.4-2,4.4-4.4H113.3L113.3,465.2z M109.7,461.6
			c2,0,3.6,1.6,3.6,3.6h0.8c0-2.4-2-4.4-4.4-4.4V461.6z M91.7,460.7c-2.4,0-4.4,2-4.4,4.4h0.8c0-2,1.6-3.6,3.6-3.6V460.7z"/>
		<path class="st20" d="M99.7,437.2c0-2.2,1.8-4,4-4h32c2.2,0,4,1.8,4,4l0,0c0,2.2-1.8,4-4,4h-32C101.5,441.2,99.7,439.4,99.7,437.2
			L99.7,437.2z"/>
		<path class="st10" d="M103.7,433.6h32v-0.8h-32V433.6z M135.7,440.7h-32v0.8h32V440.7z M103.7,440.7c-2,0-3.6-1.6-3.6-3.6h-0.8
			c0,2.4,2,4.4,4.4,4.4C103.7,441.5,103.7,440.7,103.7,440.7z M139.3,437.2c0,2-1.6,3.6-3.6,3.6v0.8c2.4,0,4.4-2,4.4-4.4H139.3z
			 M135.7,433.6c2,0,3.6,1.6,3.6,3.6h0.8c0-2.4-2-4.4-4.4-4.4V433.6z M103.7,432.7c-2.4,0-4.4,2-4.4,4.4h0.8c0-2,1.6-3.6,3.6-3.6
			C103.7,433.5,103.7,432.7,103.7,432.7z"/>
		<path class="st20" d="M144.7,437.2c0-2.2,1.8-4,4-4h12c2.2,0,4,1.8,4,4l0,0c0,2.2-1.8,4-4,4h-12
			C146.5,441.2,144.7,439.4,144.7,437.2L144.7,437.2z"/>
		<path class="st10" d="M148.7,433.6h12v-0.8h-12V433.6z M160.7,440.7h-12v0.8h12V440.7z M148.7,440.7c-2,0-3.6-1.6-3.6-3.6h-0.8
			c0,2.4,2,4.4,4.4,4.4V440.7z M164.3,437.2c0,2-1.6,3.6-3.6,3.6v0.8c2.4,0,4.4-2,4.4-4.4H164.3z M160.7,433.6c2,0,3.6,1.6,3.6,3.6
			h0.8c0-2.4-2-4.4-4.4-4.4V433.6z M148.7,432.7c-2.4,0-4.4,2-4.4,4.4h0.8c0-2,1.6-3.6,3.6-3.6V432.7z"/>
		<path class="st20" d="M118.7,424.2c0-2.2,1.8-4,4-4h44c2.2,0,4,1.8,4,4l0,0c0,2.2-1.8,4-4,4h-44
			C120.5,428.2,118.7,426.4,118.7,424.2L118.7,424.2z"/>
		<path class="st10" d="M122.7,420.6h44v-0.8h-44V420.6z M166.7,427.7h-44v0.8h44V427.7z M122.7,427.7c-2,0-3.6-1.6-3.6-3.6h-0.8
			c0,2.4,2,4.4,4.4,4.4C122.7,428.5,122.7,427.7,122.7,427.7z M170.3,424.2c0,2-1.6,3.6-3.6,3.6v0.8c2.4,0,4.4-2,4.4-4.4H170.3z
			 M166.7,420.6c2,0,3.6,1.6,3.6,3.6h0.8c0-2.4-2-4.4-4.4-4.4V420.6z M122.7,419.7c-2.4,0-4.4,2-4.4,4.4h0.8c0-2,1.6-3.6,3.6-3.6
			C122.7,420.5,122.7,419.7,122.7,419.7z"/>
		<path class="st12" d="M136.7,451.2c0-2.2,1.8-4,4-4h18c2.2,0,4,1.8,4,4l0,0c0,2.2-1.8,4-4,4h-18
			C138.5,455.2,136.7,453.4,136.7,451.2L136.7,451.2z"/>
		<path class="st10" d="M140.7,447.6h18v-0.8h-18V447.6z M158.7,454.7h-18v0.8h18V454.7z M140.7,454.7c-2,0-3.6-1.6-3.6-3.6h-0.8
			c0,2.4,2,4.4,4.4,4.4V454.7z M162.3,451.2c0,2-1.6,3.6-3.6,3.6v0.8c2.4,0,4.4-2,4.4-4.4H162.3z M158.7,447.6c2,0,3.6,1.6,3.6,3.6
			h0.8c0-2.4-2-4.4-4.4-4.4V447.6z M140.7,446.7c-2.4,0-4.4,2-4.4,4.4h0.8c0-2,1.6-3.6,3.6-3.6V446.7z"/>
		<path class="st12" d="M121.7,465.2c0-2.2,1.8-4,4-4h44c2.2,0,4,1.8,4,4l0,0c0,2.2-1.8,4-4,4h-44
			C123.5,469.2,121.7,467.4,121.7,465.2L121.7,465.2z"/>
		<path class="st10" d="M125.7,461.6h44v-0.8h-44V461.6z M169.7,468.7h-44v0.8h44V468.7z M125.7,468.7c-2,0-3.6-1.6-3.6-3.6h-0.8
			c0,2.4,2,4.4,4.4,4.4V468.7z M173.3,465.2c0,2-1.6,3.6-3.6,3.6v0.8c2.4,0,4.4-2,4.4-4.4H173.3z M169.7,461.6c2,0,3.6,1.6,3.6,3.6
			h0.8c0-2.4-2-4.4-4.4-4.4V461.6z M125.7,460.7c-2.4,0-4.4,2-4.4,4.4h0.8c0-2,1.6-3.6,3.6-3.6V460.7z"/>
		<path class="st12" d="M110.7,451.2c0-2.2,1.8-4,4-4h12c2.2,0,4,1.8,4,4l0,0c0,2.2-1.8,4-4,4h-12
			C112.5,455.2,110.7,453.4,110.7,451.2L110.7,451.2z"/>
		<path class="st10" d="M114.7,447.6h12v-0.8h-12V447.6z M126.7,454.7h-12v0.8h12V454.7z M114.7,454.7c-2,0-3.6-1.6-3.6-3.6h-0.8
			c0,2.4,2,4.4,4.4,4.4V454.7z M130.3,451.2c0,2-1.6,3.6-3.6,3.6v0.8c2.4,0,4.4-2,4.4-4.4H130.3L130.3,451.2z M126.7,447.6
			c2,0,3.6,1.6,3.6,3.6h0.8c0-2.4-2-4.4-4.4-4.4C126.7,446.8,126.7,447.6,126.7,447.6z M114.7,446.7c-2.4,0-4.4,2-4.4,4.4h0.8
			c0-2,1.6-3.6,3.6-3.6V446.7z"/>
	</g>
	<g>
		<path class="st14" d="M389.4,341.2c0-7.2,5.8-13,13-13l0,0c7.2,0,13,5.8,13,13l0,0c0,7.2-5.8,13-13,13l0,0
			C395.2,354.2,389.4,348.4,389.4,341.2L389.4,341.2z"/>
		<path class="st1" d="M402.4,353.8c-7,0-12.6-5.6-12.6-12.6H389c0,7.4,6,13.4,13.4,13.4V353.8L402.4,353.8z M415,341.2
			c0,7-5.6,12.6-12.6,12.6v0.8c7.4,0,13.4-6,13.4-13.4H415z M402.4,328.6c7,0,12.6,5.6,12.6,12.6h0.8c0-7.4-6-13.4-13.4-13.4
			L402.4,328.6L402.4,328.6z M402.4,327.8c-7.4,0-13.4,6-13.4,13.4h0.8c0-7,5.6-12.6,12.6-12.6L402.4,327.8L402.4,327.8z"/>
		<path class="st1" d="M389.6,382.2c0-2.2,1.8-4,4-4h32c2.2,0,4,1.8,4,4l0,0c0,2.2-1.8,4-4,4h-32
			C391.4,386.2,389.6,384.4,389.6,382.2L389.6,382.2z"/>
		<path class="st1" d="M393.6,378.6h32v-0.8h-32V378.6z M425.6,385.8h-32v0.8h32V385.8z M393.6,385.8c-2,0-3.6-1.6-3.6-3.6h-0.8
			c0,2.4,2,4.4,4.4,4.4L393.6,385.8L393.6,385.8z M429.2,382.2c0,2-1.6,3.6-3.6,3.6v0.8c2.4,0,4.4-2,4.4-4.4H429.2z M425.6,378.6
			c2,0,3.6,1.6,3.6,3.6h0.8c0-2.4-2-4.4-4.4-4.4V378.6L425.6,378.6z M393.6,377.8c-2.4,0-4.4,2-4.4,4.4h0.8c0-2,1.6-3.6,3.6-3.6
			V377.8L393.6,377.8z"/>
		<path class="st1" d="M389.6,396.2c0-2.2,1.8-4,4-4h18c2.2,0,4,1.8,4,4l0,0c0,2.2-1.8,4-4,4h-18
			C391.4,400.2,389.6,398.4,389.6,396.2L389.6,396.2z"/>
		<path class="st1" d="M393.6,392.6h18v-0.8h-18V392.6z M411.6,399.8h-18v0.8h18V399.8z M393.6,399.8c-2,0-3.6-1.6-3.6-3.6h-0.8
			c0,2.4,2,4.4,4.4,4.4L393.6,399.8L393.6,399.8z M415.2,396.2c0,2-1.6,3.6-3.6,3.6v0.8c2.4,0,4.4-2,4.4-4.4H415.2z M411.6,392.6
			c2,0,3.6,1.6,3.6,3.6h0.8c0-2.4-2-4.4-4.4-4.4V392.6L411.6,392.6z M393.6,391.8c-2.4,0-4.4,2-4.4,4.4h0.8c0-2,1.6-3.6,3.6-3.6
			V391.8L393.6,391.8z"/>
		<path class="st1" d="M389.6,410.2c0-2.2,1.8-4,4-4h12c2.2,0,4,1.8,4,4l0,0c0,2.2-1.8,4-4,4h-12
			C391.4,414.2,389.6,412.4,389.6,410.2L389.6,410.2z"/>
		<path class="st1" d="M393.6,406.6h12v-0.8h-12V406.6z M405.6,413.8h-12v0.8h12V413.8z M393.6,413.8c-2,0-3.6-1.6-3.6-3.6h-0.8
			c0,2.4,2,4.4,4.4,4.4L393.6,413.8L393.6,413.8z M409.2,410.2c0,2-1.6,3.6-3.6,3.6v0.8c2.4,0,4.4-2,4.4-4.4L409.2,410.2
			L409.2,410.2z M405.6,406.6c2,0,3.6,1.6,3.6,3.6h0.8c0-2.4-2-4.4-4.4-4.4V406.6L405.6,406.6z M393.6,405.8c-2.4,0-4.4,2-4.4,4.4
			h0.8c0-2,1.6-3.6,3.6-3.6V405.8L393.6,405.8z"/>
		<path class="st1" d="M415.6,410.2c0-2.2,1.8-4,4-4h32c2.2,0,4,1.8,4,4l0,0c0,2.2-1.8,4-4,4h-32
			C417.4,414.2,415.6,412.4,415.6,410.2L415.6,410.2z"/>
		<path class="st1" d="M419.6,406.6h32v-0.8h-32V406.6z M451.6,413.8h-32v0.8h32V413.8z M419.6,413.8c-2,0-3.6-1.6-3.6-3.6h-0.8
			c0,2.4,2,4.4,4.4,4.4L419.6,413.8L419.6,413.8z M455.2,410.2c0,2-1.6,3.6-3.6,3.6v0.8c2.4,0,4.4-2,4.4-4.4L455.2,410.2
			L455.2,410.2z M451.6,406.6c2,0,3.6,1.6,3.6,3.6h0.8c0-2.4-2-4.4-4.4-4.4V406.6z M419.6,405.8c-2.4,0-4.4,2-4.4,4.4h0.8
			c0-2,1.6-3.6,3.6-3.6V405.8L419.6,405.8z"/>
		<path class="st1" d="M421.6,396.2c0-2.2,1.8-4,4-4h12c2.2,0,4,1.8,4,4l0,0c0,2.2-1.8,4-4,4h-12
			C423.4,400.2,421.6,398.4,421.6,396.2L421.6,396.2z"/>
		<path class="st1" d="M425.6,392.6h12v-0.8h-12V392.6z M437.6,399.8h-12v0.8h12V399.8z M425.6,399.8c-2,0-3.6-1.6-3.6-3.6h-0.8
			c0,2.4,2,4.4,4.4,4.4L425.6,399.8L425.6,399.8z M441.2,396.2c0,2-1.6,3.6-3.6,3.6v0.8c2.4,0,4.4-2,4.4-4.4H441.2z M437.6,392.6
			c2,0,3.6,1.6,3.6,3.6h0.8c0-2.4-2-4.4-4.4-4.4V392.6L437.6,392.6z M425.6,391.8c-2.4,0-4.4,2-4.4,4.4h0.8c0-2,1.6-3.6,3.6-3.6
			V391.8L425.6,391.8z"/>
		<path class="st1" d="M389.6,424.2c0-2.2,1.8-4,4-4h32c2.2,0,4,1.8,4,4l0,0c0,2.2-1.8,4-4,4h-32
			C391.4,428.2,389.6,426.4,389.6,424.2L389.6,424.2z"/>
		<path class="st1" d="M393.6,420.6h32v-0.8h-32V420.6z M425.6,427.8h-32v0.8h32V427.8z M393.6,427.8c-2,0-3.6-1.6-3.6-3.6h-0.8
			c0,2.4,2,4.4,4.4,4.4L393.6,427.8L393.6,427.8z M429.2,424.2c0,2-1.6,3.6-3.6,3.6v0.8c2.4,0,4.4-2,4.4-4.4L429.2,424.2
			L429.2,424.2z M425.6,420.6c2,0,3.6,1.6,3.6,3.6h0.8c0-2.4-2-4.4-4.4-4.4V420.6L425.6,420.6z M393.6,419.8c-2.4,0-4.4,2-4.4,4.4
			h0.8c0-2,1.6-3.6,3.6-3.6V419.8L393.6,419.8z"/>
		<path class="st1" d="M389.6,438.2c0-2.2,1.8-4,4-4h44c2.2,0,4,1.8,4,4l0,0c0,2.2-1.8,4-4,4h-44
			C391.4,442.2,389.6,440.4,389.6,438.2L389.6,438.2z"/>
		<path class="st1" d="M393.6,434.6h44v-0.8h-44V434.6z M437.6,441.8h-44v0.8h44V441.8z M393.6,441.8c-2,0-3.6-1.6-3.6-3.6h-0.8
			c0,2.4,2,4.4,4.4,4.4L393.6,441.8L393.6,441.8z M441.2,438.2c0,2-1.6,3.6-3.6,3.6v0.8c2.4,0,4.4-2,4.4-4.4L441.2,438.2
			L441.2,438.2z M437.6,434.6c2,0,3.6,1.6,3.6,3.6h0.8c0-2.4-2-4.4-4.4-4.4V434.6L437.6,434.6z M393.6,433.8c-2.4,0-4.4,2-4.4,4.4
			h0.8c0-2,1.6-3.6,3.6-3.6V433.8L393.6,433.8z"/>
		<path class="st1" d="M435.6,424.2c0-2.2,1.8-4,4-4h18c2.2,0,4,1.8,4,4l0,0c0,2.2-1.8,4-4,4h-18
			C437.4,428.2,435.6,426.4,435.6,424.2L435.6,424.2z"/>
		<path class="st1" d="M439.6,420.6h18v-0.8h-18V420.6z M457.6,427.8h-18v0.8h18V427.8z M439.6,427.8c-2,0-3.6-1.6-3.6-3.6h-0.8
			c0,2.4,2,4.4,4.4,4.4L439.6,427.8L439.6,427.8z M461.2,424.2c0,2-1.6,3.6-3.6,3.6v0.8c2.4,0,4.4-2,4.4-4.4L461.2,424.2
			L461.2,424.2z M457.6,420.6c2,0,3.6,1.6,3.6,3.6h0.8c0-2.4-2-4.4-4.4-4.4V420.6z M439.6,419.8c-2.4,0-4.4,2-4.4,4.4h0.8
			c0-2,1.6-3.6,3.6-3.6V419.8L439.6,419.8z"/>
	</g>
	<path class="st13" d="M776.3,269.8h-238c-2.6,0-4.7-2.1-4.7-4.7V134.5c0-2.6,2.1-4.7,4.7-4.7h238c2.6,0,4.7,2.1,4.7,4.7v130.6
		C781,267.7,778.9,269.8,776.3,269.8z"/>
	<path class="st17" d="M546.3,154.1c0-2.2,1.8-4,4-4l0,0c2.2,0,4,1.8,4,4l0,0c0,2.2-1.8,4-4,4l0,0
		C548.1,158.1,546.3,156.3,546.3,154.1L546.3,154.1z"/>
	<path class="st17" d="M550.3,157.6c-2,0-3.6-1.6-3.6-3.6h-0.8c0,2.4,2,4.4,4.4,4.4V157.6z M553.9,154.1c0,2-1.6,3.6-3.6,3.6v0.8
		c2.4,0,4.4-2,4.4-4.4H553.9z M550.3,150.5c2,0,3.6,1.6,3.6,3.6h0.8c0-2.4-2-4.4-4.4-4.4V150.5z M550.3,149.6c-2.4,0-4.4,2-4.4,4.4
		h0.8c0-2,1.6-3.6,3.6-3.6V149.6z"/>
	<path class="st1" d="M546.3,168.1c0-2.2,1.8-4,4-4l0,0c2.2,0,4,1.8,4,4l0,0c0,2.2-1.8,4-4,4l0,0
		C548.1,172.1,546.3,170.3,546.3,168.1L546.3,168.1z"/>
	<path class="st1" d="M550.3,171.6c-2,0-3.6-1.6-3.6-3.6h-0.8c0,2.4,2,4.4,4.4,4.4V171.6z M553.9,168.1c0,2-1.6,3.6-3.6,3.6v0.8
		c2.4,0,4.4-2,4.4-4.4H553.9z M550.3,164.5c2,0,3.6,1.6,3.6,3.6h0.8c0-2.4-2-4.4-4.4-4.4V164.5z M550.3,163.6c-2.4,0-4.4,2-4.4,4.4
		h0.8c0-2,1.6-3.6,3.6-3.6V163.6z"/>
	<path class="st15" d="M546.3,182.1c0-2.2,1.8-4,4-4l0,0c2.2,0,4,1.8,4,4l0,0c0,2.2-1.8,4-4,4l0,0
		C548.1,186.1,546.3,184.3,546.3,182.1L546.3,182.1z"/>
	<path class="st15" d="M550.3,185.6c-2,0-3.6-1.6-3.6-3.6h-0.8c0,2.4,2,4.4,4.4,4.4V185.6z M553.9,182.1c0,2-1.6,3.6-3.6,3.6v0.8
		c2.4,0,4.4-2,4.4-4.4H553.9z M550.3,178.5c2,0,3.6,1.6,3.6,3.6h0.8c0-2.4-2-4.4-4.4-4.4V178.5z M550.3,177.6c-2.4,0-4.4,2-4.4,4.4
		h0.8c0-2,1.6-3.6,3.6-3.6V177.6z"/>
	<path class="st1" d="M546.3,196.1c0-2.2,1.8-4,4-4l0,0c2.2,0,4,1.8,4,4l0,0c0,2.2-1.8,4-4,4l0,0
		C548.1,200.1,546.3,198.3,546.3,196.1L546.3,196.1z"/>
	<path class="st1" d="M550.3,199.6c-2,0-3.6-1.6-3.6-3.6h-0.8c0,2.4,2,4.4,4.4,4.4V199.6z M553.9,196.1c0,2-1.6,3.6-3.6,3.6v0.8
		c2.4,0,4.4-2,4.4-4.4H553.9z M550.3,192.5c2,0,3.6,1.6,3.6,3.6h0.8c0-2.4-2-4.4-4.4-4.4V192.5z M550.3,191.6c-2.4,0-4.4,2-4.4,4.4
		h0.8c0-2,1.6-3.6,3.6-3.6V191.6z"/>
	<path class="st1" d="M546.3,210.1c0-2.2,1.8-4,4-4l0,0c2.2,0,4,1.8,4,4l0,0c0,2.2-1.8,4-4,4l0,0
		C548.1,214.1,546.3,212.3,546.3,210.1L546.3,210.1z"/>
	<path class="st1" d="M546.3,224.1c0-2.2,1.8-4,4-4l0,0c2.2,0,4,1.8,4,4l0,0c0,2.2-1.8,4-4,4l0,0
		C548.1,228.1,546.3,226.3,546.3,224.1L546.3,224.1z"/>
	<path class="st1" d="M550.3,227.6c-2,0-3.6-1.6-3.6-3.6h-0.8c0,2.4,2,4.4,4.4,4.4V227.6z M553.9,224.1c0,2-1.6,3.6-3.6,3.6v0.8
		c2.4,0,4.4-2,4.4-4.4L553.9,224.1L553.9,224.1z M550.3,220.5c2,0,3.6,1.6,3.6,3.6h0.8c0-2.4-2-4.4-4.4-4.4V220.5z M550.3,219.6
		c-2.4,0-4.4,2-4.4,4.4h0.8c0-2,1.6-3.6,3.6-3.6V219.6z"/>
	<path class="st1" d="M546.3,238.1c0-2.2,1.8-4,4-4l0,0c2.2,0,4,1.8,4,4l0,0c0,2.2-1.8,4-4,4l0,0
		C548.1,242.1,546.3,240.3,546.3,238.1L546.3,238.1z"/>
	<path class="st1" d="M550.3,241.6c-2,0-3.6-1.6-3.6-3.6h-0.8c0,2.4,2,4.4,4.4,4.4V241.6z M553.9,238.1c0,2-1.6,3.6-3.6,3.6v0.8
		c2.4,0,4.4-2,4.4-4.4L553.9,238.1L553.9,238.1z M550.3,234.5c2,0,3.6,1.6,3.6,3.6h0.8c0-2.4-2-4.4-4.4-4.4V234.5z M550.3,233.6
		c-2.4,0-4.4,2-4.4,4.4h0.8c0-2,1.6-3.6,3.6-3.6V233.6z"/>
	<path class="st1" d="M546.3,252.1c0-2.2,1.8-4,4-4l0,0c2.2,0,4,1.8,4,4l0,0c0,2.2-1.8,4-4,4l0,0
		C548.1,256.1,546.3,254.3,546.3,252.1L546.3,252.1z"/>
	<path class="st1" d="M550.3,255.6c-2,0-3.6-1.6-3.6-3.6h-0.8c0,2.4,2,4.4,4.4,4.4V255.6z M553.9,252.1c0,2-1.6,3.6-3.6,3.6v0.8
		c2.4,0,4.4-2,4.4-4.4L553.9,252.1L553.9,252.1z M550.3,248.5c2,0,3.6,1.6,3.6,3.6h0.8c0-2.4-2-4.4-4.4-4.4V248.5z M550.3,247.6
		c-2.4,0-4.4,2-4.4,4.4h0.8c0-2,1.6-3.6,3.6-3.6V247.6z"/>
	<path class="st15" d="M662.2,248.1c2.2,0,4,1.8,4,4l0,0c0,2.2-1.8,4-4,4l0,0c-2.2,0-4-1.8-4-4l0,0
		C658.2,249.9,660,248.1,662.2,248.1L662.2,248.1z"/>
	<path class="st15" d="M658.7,252.1c0-2,1.6-3.6,3.6-3.6v-0.8c-2.4,0-4.4,2-4.4,4.4H658.7z M662.2,255.7c-2,0-3.6-1.6-3.6-3.6h-0.8
		c0,2.4,2,4.4,4.4,4.4V255.7z M665.8,252.1c0,2-1.6,3.6-3.6,3.6v0.8c2.4,0,4.4-2,4.4-4.4H665.8z M666.7,252.1c0-2.4-2-4.4-4.4-4.4
		v0.8c2,0,3.6,1.6,3.6,3.6H666.7z"/>
	<path class="st1" d="M648.2,248.1c2.2,0,4,1.8,4,4l0,0c0,2.2-1.8,4-4,4l0,0c-2.2,0-4-1.8-4-4l0,0
		C644.2,249.9,646,248.1,648.2,248.1L648.2,248.1z"/>
	<path class="st1" d="M644.7,252.1c0-2,1.6-3.6,3.6-3.6v-0.8c-2.4,0-4.4,2-4.4,4.4H644.7z M648.2,255.7c-2,0-3.6-1.6-3.6-3.6h-0.8
		c0,2.4,2,4.4,4.4,4.4V255.7z M651.8,252.1c0,2-1.6,3.6-3.6,3.6v0.8c2.4,0,4.4-2,4.4-4.4H651.8z M652.7,252.1c0-2.4-2-4.4-4.4-4.4
		v0.8c2,0,3.6,1.6,3.6,3.6H652.7z"/>
	<path class="st1" d="M634.2,248.1c2.2,0,4,1.8,4,4l0,0c0,2.2-1.8,4-4,4l0,0c-2.2,0-4-1.8-4-4l0,0
		C630.2,249.9,632,248.1,634.2,248.1L634.2,248.1z"/>
	<path class="st1" d="M630.7,252.1c0-2,1.6-3.6,3.6-3.6v-0.8c-2.4,0-4.4,2-4.4,4.4H630.7z M634.2,255.7c-2,0-3.6-1.6-3.6-3.6h-0.8
		c0,2.4,2,4.4,4.4,4.4V255.7z M637.8,252.1c0,2-1.6,3.6-3.6,3.6v0.8c2.4,0,4.4-2,4.4-4.4H637.8z M638.7,252.1c0-2.4-2-4.4-4.4-4.4
		v0.8c2,0,3.6,1.6,3.6,3.6H638.7z"/>
	<path class="st1" d="M620.2,248.1c2.2,0,4,1.8,4,4l0,0c0,2.2-1.8,4-4,4l0,0c-2.2,0-4-1.8-4-4l0,0
		C616.2,249.9,618,248.1,620.2,248.1L620.2,248.1z"/>
	<path class="st1" d="M616.7,252.1c0-2,1.6-3.6,3.6-3.6v-0.8c-2.4,0-4.4,2-4.4,4.4H616.7z M620.2,255.7c-2,0-3.6-1.6-3.6-3.6h-0.8
		c0,2.4,2,4.4,4.4,4.4V255.7z M623.8,252.1c0,2-1.6,3.6-3.6,3.6v0.8c2.4,0,4.4-2,4.4-4.4H623.8z M624.7,252.1c0-2.4-2-4.4-4.4-4.4
		v0.8c2,0,3.6,1.6,3.6,3.6H624.7z"/>
	<path class="st15" d="M606.2,248.1c2.2,0,4,1.8,4,4l0,0c0,2.2-1.8,4-4,4l0,0c-2.2,0-4-1.8-4-4l0,0
		C602.2,249.9,604,248.1,606.2,248.1L606.2,248.1z"/>
	<path class="st1" d="M592.2,248.1c2.2,0,4,1.8,4,4l0,0c0,2.2-1.8,4-4,4l0,0c-2.2,0-4-1.8-4-4l0,0
		C588.2,249.9,590,248.1,592.2,248.1L592.2,248.1z"/>
	<path class="st1" d="M588.7,252.1c0-2,1.6-3.6,3.6-3.6v-0.8c-2.4,0-4.4,2-4.4,4.4H588.7z M592.2,255.7c-2,0-3.6-1.6-3.6-3.6h-0.8
		c0,2.4,2,4.4,4.4,4.4V255.7L592.2,255.7z M595.8,252.1c0,2-1.6,3.6-3.6,3.6v0.8c2.4,0,4.4-2,4.4-4.4H595.8z M596.7,252.1
		c0-2.4-2-4.4-4.4-4.4v0.8c2,0,3.6,1.6,3.6,3.6H596.7z"/>
	<path class="st1" d="M578.2,248.1c2.2,0,4,1.8,4,4l0,0c0,2.2-1.8,4-4,4l0,0c-2.2,0-4-1.8-4-4l0,0
		C574.2,249.9,576,248.1,578.2,248.1L578.2,248.1z"/>
	<path class="st1" d="M574.7,252.1c0-2,1.6-3.6,3.6-3.6v-0.8c-2.4,0-4.4,2-4.4,4.4H574.7z M578.2,255.7c-2,0-3.6-1.6-3.6-3.6h-0.8
		c0,2.4,2,4.4,4.4,4.4V255.7L578.2,255.7z M581.8,252.1c0,2-1.6,3.6-3.6,3.6v0.8c2.4,0,4.4-2,4.4-4.4H581.8z M582.7,252.1
		c0-2.4-2-4.4-4.4-4.4v0.8c2,0,3.6,1.6,3.6,3.6H582.7z"/>
	<path class="st1" d="M564.2,248.1c2.2,0,4,1.8,4,4l0,0c0,2.2-1.8,4-4,4l0,0c-2.2,0-4-1.8-4-4l0,0
		C560.2,249.9,562,248.1,564.2,248.1L564.2,248.1z"/>
	<path class="st1" d="M560.7,252.1c0-2,1.6-3.6,3.6-3.6v-0.8c-2.4,0-4.4,2-4.4,4.4H560.7z M564.2,255.7c-2,0-3.6-1.6-3.6-3.6h-0.8
		c0,2.4,2,4.4,4.4,4.4V255.7L564.2,255.7z M567.8,252.1c0,2-1.6,3.6-3.6,3.6v0.8c2.4,0,4.4-2,4.4-4.4H567.8z M568.7,252.1
		c0-2.4-2-4.4-4.4-4.4v0.8c2,0,3.6,1.6,3.6,3.6H568.7z"/>
	<g>
		<path class="st1" d="M719.2,248.1c2.2,0,4,1.8,4,4l0,0c0,2.2-1.8,4-4,4l0,0c-2.2,0-4-1.8-4-4l0,0
			C715.2,249.9,717,248.1,719.2,248.1L719.2,248.1z"/>
		<path class="st1" d="M715.7,252.1c0-2,1.6-3.6,3.6-3.6v-0.8c-2.4,0-4.4,2-4.4,4.4H715.7z M719.2,255.7c-2,0-3.6-1.6-3.6-3.6h-0.8
			c0,2.4,2,4.4,4.4,4.4V255.7z M722.8,252.1c0,2-1.6,3.6-3.6,3.6v0.8c2.4,0,4.4-2,4.4-4.4H722.8z M723.7,252.1c0-2.4-2-4.4-4.4-4.4
			v0.8c2,0,3.6,1.6,3.6,3.6H723.7z"/>
		<path class="st1" d="M705.2,248.1c2.2,0,4,1.8,4,4l0,0c0,2.2-1.8,4-4,4l0,0c-2.2,0-4-1.8-4-4l0,0
			C701.2,249.9,703,248.1,705.2,248.1L705.2,248.1z"/>
		<path class="st1" d="M701.7,252.1c0-2,1.6-3.6,3.6-3.6v-0.8c-2.4,0-4.4,2-4.4,4.4H701.7z M705.2,255.7c-2,0-3.6-1.6-3.6-3.6h-0.8
			c0,2.4,2,4.4,4.4,4.4V255.7z M708.8,252.1c0,2-1.6,3.6-3.6,3.6v0.8c2.4,0,4.4-2,4.4-4.4H708.8z M709.7,252.1c0-2.4-2-4.4-4.4-4.4
			v0.8c2,0,3.6,1.6,3.6,3.6H709.7z"/>
		<path class="st1" d="M691.2,248.1c2.2,0,4,1.8,4,4l0,0c0,2.2-1.8,4-4,4l0,0c-2.2,0-4-1.8-4-4l0,0
			C687.2,249.9,689,248.1,691.2,248.1L691.2,248.1z"/>
		<path class="st1" d="M687.7,252.1c0-2,1.6-3.6,3.6-3.6v-0.8c-2.4,0-4.4,2-4.4,4.4H687.7z M691.2,255.7c-2,0-3.6-1.6-3.6-3.6h-0.8
			c0,2.4,2,4.4,4.4,4.4V255.7z M694.8,252.1c0,2-1.6,3.6-3.6,3.6v0.8c2.4,0,4.4-2,4.4-4.4H694.8z M695.7,252.1c0-2.4-2-4.4-4.4-4.4
			v0.8c2,0,3.6,1.6,3.6,3.6H695.7z"/>
		<path class="st1" d="M677.2,248.1c2.2,0,4,1.8,4,4l0,0c0,2.2-1.8,4-4,4l0,0c-2.2,0-4-1.8-4-4l0,0
			C673.2,249.9,675,248.1,677.2,248.1L677.2,248.1z"/>
		<path class="st1" d="M673.7,252.1c0-2,1.6-3.6,3.6-3.6v-0.8c-2.4,0-4.4,2-4.4,4.4H673.7z M677.2,255.7c-2,0-3.6-1.6-3.6-3.6h-0.8
			c0,2.4,2,4.4,4.4,4.4V255.7z M680.8,252.1c0,2-1.6,3.6-3.6,3.6v0.8c2.4,0,4.4-2,4.4-4.4H680.8z M681.7,252.1c0-2.4-2-4.4-4.4-4.4
			v0.8c2,0,3.6,1.6,3.6,3.6H681.7z"/>
		<path class="st1" d="M748.2,248.1c2.2,0,4,1.8,4,4l0,0c0,2.2-1.8,4-4,4l0,0c-2.2,0-4-1.8-4-4l0,0
			C744.2,249.9,746,248.1,748.2,248.1L748.2,248.1z"/>
		<path class="st1" d="M744.7,252.1c0-2,1.6-3.6,3.6-3.6v-0.8c-2.4,0-4.4,2-4.4,4.4H744.7z M748.2,255.7c-2,0-3.6-1.6-3.6-3.6h-0.8
			c0,2.4,2,4.4,4.4,4.4V255.7z M751.8,252.1c0,2-1.6,3.6-3.6,3.6v0.8c2.4,0,4.4-2,4.4-4.4H751.8z M752.7,252.1c0-2.4-2-4.4-4.4-4.4
			v0.8c2,0,3.6,1.6,3.6,3.6H752.7z"/>
		<path class="st14" d="M734.2,248.1c2.2,0,4,1.8,4,4l0,0c0,2.2-1.8,4-4,4l0,0c-2.2,0-4-1.8-4-4l0,0
			C730.2,249.9,732,248.1,734.2,248.1L734.2,248.1z"/>
		<path class="st14" d="M730.7,252.1c0-2,1.6-3.6,3.6-3.6v-0.8c-2.4,0-4.4,2-4.4,4.4H730.7z M734.2,255.7c-2,0-3.6-1.6-3.6-3.6h-0.8
			c0,2.4,2,4.4,4.4,4.4V255.7z M737.8,252.1c0,2-1.6,3.6-3.6,3.6v0.8c2.4,0,4.4-2,4.4-4.4H737.8z M738.7,252.1c0-2.4-2-4.4-4.4-4.4
			v0.8c2,0,3.6,1.6,3.6,3.6H738.7z"/>
	</g>
	<path class="st14" d="M755,163.5l-23.6,33.9c-0.3,0.4-0.6,0.6-1.1,0.7L659,214l-57,12.8c-0.6,0.1-1.2-0.1-1.7-0.5L563,187
		c-0.6-0.6-0.6-1.5-0.2-2.2l0,0c0.6-0.9,2-1.1,2.7-0.3l36.8,37.7c0.4,0.4,1.1,0.6,1.7,0.5l55-12.8l68.3-14.9
		c0.4-0.1,0.8-0.3,1.1-0.7l23.6-33c0.6-0.8,1.6-1,2.4-0.4l0.1,0C755.3,161.5,755.5,162.7,755,163.5z"/>
	<path class="st21" d="M21,147.8c0-4.4,3.6-8,8-8h156c4.4,0,8,3.6,8,8v24c0,4.4-3.6,8-8,8H29c-4.4,0-8-3.6-8-8V147.8z"/>
	<path class="st1" d="M29,140.8h156v-2H29V140.8z M192,147.8v24h2v-24H192z M185,178.8H29v2h156V178.8z M22,171.8v-24h-2v24H22z
		 M29,178.8c-3.9,0-7-3.1-7-7h-2c0,5,4,9,9,9V178.8z M192,171.8c0,3.9-3.1,7-7,7v2c5,0,9-4,9-9H192z M185,140.8c3.9,0,7,3.1,7,7h2
		c0-5-4-9-9-9V140.8z M29,138.8c-5,0-9,4-9,9h2c0-3.9,3.1-7,7-7V138.8z"/>
	<path class="st21" d="M21,221.8c0-4.4,3.6-8,8-8h156c4.4,0,8,3.6,8,8v24c0,4.4-3.6,8-8,8H29c-4.4,0-8-3.6-8-8V221.8z"/>
	<path class="st1" d="M29,214.8h156v-2H29V214.8z M192,221.8v24h2v-24H192z M185,252.8H29v2h156V252.8z M22,245.8v-24h-2v24H22z
		 M29,252.8c-3.9,0-7-3.1-7-7h-2c0,5,4,9,9,9V252.8z M192,245.8c0,3.9-3.1,7-7,7v2c5,0,9-4,9-9H192z M185,214.8c3.9,0,7,3.1,7,7h2
		c0-5-4-9-9-9V214.8z M29,212.8c-5,0-9,4-9,9h2c0-3.9,3.1-7,7-7V212.8z"/>
	<path class="st15" d="M21,125.8c0-2.2,1.8-4,4-4h74c2.2,0,4,1.8,4,4l0,0c0,2.2-1.8,4-4,4H25C22.8,129.8,21,128,21,125.8L21,125.8z"
		/>
	<path class="st1" d="M25,122.2h74v-0.8H25V122.2z M99,129.4H25v0.8h74V129.4z M25,129.4c-2,0-3.6-1.6-3.6-3.6h-0.8
		c0,2.4,2,4.4,4.4,4.4V129.4z M102.6,125.8c0,2-1.6,3.6-3.6,3.6v0.8c2.4,0,4.4-2,4.4-4.4H102.6z M99,122.2c2,0,3.6,1.6,3.6,3.6h0.8
		c0-2.4-2-4.4-4.4-4.4V122.2z M25,121.4c-2.4,0-4.4,2-4.4,4.4h0.8c0-2,1.6-3.6,3.6-3.6V121.4z"/>
	<path class="st15" d="M21,199.8c0-2.2,1.8-4,4-4h74c2.2,0,4,1.8,4,4l0,0c0,2.2-1.8,4-4,4H25C22.8,203.8,21,202,21,199.8L21,199.8z"
		/>
	<path class="st1" d="M25,196.2h74v-0.8H25V196.2z M99,203.4H25v0.8h74V203.4z M25,203.4c-2,0-3.6-1.6-3.6-3.6h-0.8
		c0,2.4,2,4.4,4.4,4.4V203.4z M102.6,199.8c0,2-1.6,3.6-3.6,3.6v0.8c2.4,0,4.4-2,4.4-4.4L102.6,199.8L102.6,199.8z M99,196.2
		c2,0,3.6,1.6,3.6,3.6h0.8c0-2.4-2-4.4-4.4-4.4V196.2z M25,195.4c-2.4,0-4.4,2-4.4,4.4h0.8c0-2,1.6-3.6,3.6-3.6V195.4z"/>
	<path class="st1" d="M26,82h56c4.3,0,7.8,3.5,7.8,7.8l0,0c0,4.3-3.5,7.8-7.8,7.8H26c-4.3,0-7.8-3.5-7.8-7.8l0,0
		C18.2,85.5,21.7,82,26,82z"/>
	<path class="st15" d="M22,89.8c0-2.2,1.8-4,4-4h56c2.2,0,4,1.8,4,4l0,0c0,2.2-1.8,4-4,4H26C23.8,93.8,22,92,22,89.8L22,89.8z"/>
	<path class="st22" d="M26,82h56c4.3,0,7.8,3.5,7.8,7.8l0,0c0,4.3-3.5,7.8-7.8,7.8H26c-4.3,0-7.8-3.5-7.8-7.8l0,0
		C18.2,85.5,21.7,82,26,82z"/>
	<path class="st21" d="M21,291.3c0-4.4,3.6-8,8-8h156c4.4,0,8,3.6,8,8v24c0,4.4-3.6,8-8,8H29c-4.4,0-8-3.6-8-8V291.3z"/>
	<path class="st1" d="M29,284.3h156v-2H29V284.3z M192,291.3v24h2v-24H192z M185,322.3H29v2h156V322.3z M22,315.3v-24h-2v24H22z
		 M29,322.3c-3.9,0-7-3.1-7-7h-2c0,5,4,9,9,9V322.3z M192,315.3c0,3.9-3.1,7-7,7v2c5,0,9-4,9-9H192z M185,284.3c3.9,0,7,3.1,7,7h2
		c0-5-4-9-9-9V284.3z M29,282.3c-5,0-9,4-9,9h2c0-3.9,3.1-7,7-7V282.3z"/>
	<path class="st21" d="M21,365.3c0-4.4,3.6-8,8-8h156c4.4,0,8,3.6,8,8v24c0,4.4-3.6,8-8,8H29c-4.4,0-8-3.6-8-8V365.3z"/>
	<path class="st1" d="M29,358.3h156v-2H29V358.3z M192,365.3v24h2v-24H192z M185,396.3H29v2h156V396.3z M22,389.3v-24h-2v24H22z
		 M29,396.3c-3.9,0-7-3.1-7-7h-2c0,5,4,9,9,9V396.3z M192,389.3c0,3.9-3.1,7-7,7v2c5,0,9-4,9-9H192z M185,358.3c3.9,0,7,3.1,7,7h2
		c0-5-4-9-9-9V358.3z M29,356.3c-5,0-9,4-9,9h2c0-3.9,3.1-7,7-7V356.3z"/>
	<path class="st15" d="M21,269.3c0-2.2,1.8-4,4-4h74c2.2,0,4,1.8,4,4l0,0c0,2.2-1.8,4-4,4H25C22.8,273.3,21,271.5,21,269.3L21,269.3
		z"/>
	<path class="st1" d="M25,265.7h74v-0.8H25V265.7z M99,272.9H25v0.8h74V272.9z M25,272.9c-2,0-3.6-1.6-3.6-3.6h-0.8
		c0,2.4,2,4.4,4.4,4.4V272.9z M102.6,269.3c0,2-1.6,3.6-3.6,3.6v0.8c2.4,0,4.4-2,4.4-4.4H102.6z M99,265.7c2,0,3.6,1.6,3.6,3.6h0.8
		c0-2.4-2-4.4-4.4-4.4V265.7z M25,264.9c-2.4,0-4.4,2-4.4,4.4h0.8c0-2,1.6-3.6,3.6-3.6V264.9z"/>
	<path class="st15" d="M21,343.3c0-2.2,1.8-4,4-4h74c2.2,0,4,1.8,4,4l0,0c0,2.2-1.8,4-4,4H25C22.8,347.3,21,345.5,21,343.3L21,343.3
		z"/>
	<path class="st1" d="M25,339.7h74v-0.8H25V339.7z M99,346.9H25v0.8h74V346.9z M25,346.9c-2,0-3.6-1.6-3.6-3.6h-0.8
		c0,2.4,2,4.4,4.4,4.4V346.9z M102.6,343.3c0,2-1.6,3.6-3.6,3.6v0.8c2.4,0,4.4-2,4.4-4.4L102.6,343.3L102.6,343.3z M99,339.7
		c2,0,3.6,1.6,3.6,3.6h0.8c0-2.4-2-4.4-4.4-4.4V339.7z M25,338.9c-2.4,0-4.4,2-4.4,4.4h0.8c0-2,1.6-3.6,3.6-3.6V338.9z"/>
	
		<image style="overflow:visible;" width="664" height="607" xlink:href="../../Bassnectar/bassnectar-unlimited.png"  transform="matrix(5.271829e-02 0 0 5.271829e-02 767 7)">
	</image>
	<g>
		<path class="st23" d="M158.7,25.8c0.5,0,1,0,1.5,0c2.5,0,5,0,7.5,0c0.1,0,0.5,0,0.9,0.4c0.2,0.3,0.4,0.6,0.4,1v4.9
			c0,0.8-0.6,1.4-1.3,1.4h-9c-0.7,0-1.3-0.6-1.3-1.4v-4.9C157.4,26.4,158,25.8,158.7,25.8z"/>
		<path class="st23" d="M155.5,18"/>
		<path class="st23" d="M166.2,25.7c0-0.8,0-1.8,0-3.1c0-1.7,0-1.9-0.2-2.2c-0.9-1.7-4.9-1.7-5.8-0.1c-0.1,0.2-0.2,0.4-0.2,2.1
			c0,1.3,0,2.3,0,3.1"/>
	</g>
</g>
</svg>
