<?xml version="1.0" encoding="utf-8"?>
<!-- Generator: Adobe Illustrator 26.3.1, SVG Export Plug-In . SVG Version: 6.00 Build 0)  -->
<svg version="1.1" id="Layer_1" xmlns="http://www.w3.org/2000/svg" xmlns:xlink="http://www.w3.org/1999/xlink" x="0px" y="0px"
	 viewBox="0 0 258 64" style="enable-background:new 0 0 258 64;" xml:space="preserve">
<style type="text/css">
	.st0{display:none;}
	.st1{fill:none;}
	.st2{fill:none;stroke:#FFFFFF;stroke-width:1.5;stroke-linecap:round;stroke-linejoin:round;}
	.st3{fill:none;stroke:#FFFFFF;stroke-width:2;}
	.st4{fill:none;stroke:#FFFFFF;}
	.st5{fill:none;stroke:#FFFFFF;stroke-linecap:round;stroke-linejoin:round;}
	.st6{fill:none;stroke:#FFFFFF;stroke-linecap:round;}
	.st7{fill-rule:evenodd;clip-rule:evenodd;fill:#FFFFFF;}
	.st8{fill:#FFFFFF;}
</style>
<rect x="-0.1" y="0.1" class="st0" width="258.4" height="63.8"/>
<path class="st1" d="M146.5-7"/>
<g>
	<path class="st2" d="M137.5,25.8v13.7 M130.6,32.6h13.7"/>
	<g>
		<circle class="st3" cx="24.5" cy="32.7" r="16.4"/>
		<path class="st4" d="M19.2,48.4l21.6-12.5"/>
		<path class="st4" d="M8.4,29.7L30,17.3"/>
		<path class="st5" d="M14.5,45.9l19.6-11.3"/>
		<path class="st6" d="M15.1,31.1l19.6-11.3"/>
		<path class="st5" d="M19.7,29l10.5,7.8"/>
		<path class="st5" d="M23.6,26.7l10.5,7.8"/>
		<path class="st5" d="M15.1,31.1l11.1,8"/>
	</g>
	<path class="st7" d="M83.1,27.4c1.7-6.7,5.9-10.1,12.6-10.1c6.3,0,9.1,2.9,11.6,5.4c1.5,1.5,2.9,2.9,4.8,3.4
		c3.4,0.8,6.3-0.4,8.9-3.8c-1.7,6.7-5.9,10.1-12.6,10.1c-6.3,0-9.1-2.9-11.6-5.4c-1.5-1.5-2.9-2.9-4.8-3.4
		C88.6,22.8,85.6,24,83.1,27.4z M70.5,42.5c1.7-6.7,5.9-10.1,12.6-10.1c6.3,0,9.1,2.9,11.6,5.4l0,0c1.5,1.5,2.9,2.9,4.8,3.4
		c3.4,0.8,6.3-0.4,8.9-3.8c-1.7,6.7-5.9,10.1-12.6,10.1c-6.3,0-9.1-2.9-11.6-5.4l0,0c-1.5-1.5-2.9-2.9-4.8-3.4
		C75.9,37.8,73,39.1,70.5,42.5z"/>
	<path class="st2" d="M56.4,25.8v13.7 M49.5,32.6h13.7"/>
	<g>
		<path class="st8" d="M164.8,49.5c-6.1,0-11-4.9-11-11s4.9-11,11-11V49.5z"/>
		<path class="st8" d="M164.8,15.1h-11v11h11V15.1z"/>
		<path class="st8" d="M171.7,26.1c3,0,5.5-2.5,5.5-5.5s-2.5-5.5-5.5-5.5c-3,0-5.5,2.5-5.5,5.5S168.7,26.1,171.7,26.1z"/>
	</g>
	<path class="st2" d="M193.5,25.8v13.7 M186.6,32.6h13.7"/>
</g>
<g>
	<path class="st8" d="M231.9,22.2l1.8,3.2l-0.8,0.5l-1.8-3.2L231.9,22.2z M224.7,25.4l1.8-3.2l0.8,0.5l-1.8,3.2L224.7,25.4z
		 M235.1,27.8l1.8,3.2l-0.8,0.5l-1.8-3.2L235.1,27.8z M221.5,31l1.8-3.2l0.8,0.5l-1.8,3.2L221.5,31z M218.3,36.7l1.8-3.2l0.8,0.5
		l-1.8,3.2L218.3,36.7z M238.3,33.5l1.8,3.2l-0.8,0.5l-1.8-3.2L238.3,33.5z M215.1,42.3l1.8-3.2l0.8,0.5l-1.8,3.2L215.1,42.3z
		 M241.5,39.1l1.8,3.2l-0.8,0.5l-1.8-3.2L241.5,39.1z M221.4,47.1h-3.7v-0.9h3.7V47.1z M227.8,47.1h-3.7v-0.9h3.7V47.1z M234.2,47.1
		h-3.7v-0.9h3.7V47.1z M240.6,47.1h-3.7v-0.9h3.7V47.1z"/>
	<path class="st8" d="M229.2,15.5c-1.6,0-2.8,1.3-2.8,2.8c0,1.6,1.3,2.8,2.8,2.8c1.6,0,2.8-1.3,2.8-2.8
		C232,16.8,230.7,15.5,229.2,15.5z M225.4,18.4c0-2.1,1.7-3.8,3.8-3.8s3.8,1.7,3.8,3.8c0,2.1-1.7,3.8-3.8,3.8S225.4,20.4,225.4,18.4
		z"/>
	<path class="st8" d="M246.1,43.8c-1.6,0-2.8,1.3-2.8,2.8s1.3,2.8,2.8,2.8c1.6,0,2.8-1.3,2.8-2.8S247.7,43.8,246.1,43.8z
		 M242.4,46.6c0-2.1,1.7-3.8,3.8-3.8c2.1,0,3.8,1.7,3.8,3.8s-1.7,3.8-3.8,3.8C244,50.4,242.4,48.7,242.4,46.6z"/>
	<path class="st8" d="M213.2,43.8c-1.6,0-2.8,1.3-2.8,2.8s1.3,2.8,2.8,2.8c1.6,0,2.8-1.3,2.8-2.8S214.7,43.8,213.2,43.8z
		 M209.4,46.6c0-2.1,1.7-3.8,3.8-3.8c2.1,0,3.8,1.7,3.8,3.8s-1.7,3.8-3.8,3.8C211.1,50.4,209.4,48.7,209.4,46.6z"/>
</g>
</svg>
