<svg xmlns="http://www.w3.org/2000/svg" height="56" viewBox="0 0 56 56" width="56"><g fill="none" fill-rule="evenodd" stroke="#2088ff" stroke-width="2"><g transform="translate(7 14)"><circle cx="42" cy="35" r="3"/><path d="m0 0v29c0 3.3137085 2.6862915 6 6 6h32" stroke-linecap="round"/></g><g opacity=".5" transform="translate(4 4)"><circle cx="3" cy="3" r="3"/><path d="m6 3v29c0 3.3137085 2.6862915 6 6 6h33" stroke-linecap="round" transform="matrix(-1 0 0 -1 51 41)"/></g><g stroke-linecap="round" transform="translate(12.5 12)"><path d="m29.5 4.71545432v10.07400148c0 3.1221246-.4568247 6.9532508-3.6953243 10.6323611-4.5006474 4.5977144-9.967768 6.4392315-10.2997247 6.4422438-.3319567.002942-6.15222552-2.0519535-10.28388884-6.4422438-3.16283814-3.3608202-3.72106216-7.5174522-3.72106216-10.6323611v-10.07400148c0-.93739729.65106397-1.74902409 1.56613908-1.95237412l12.43386092-2.7630802 12.4338609 2.7630802c.9150751.20335003 1.5661391 1.01497683 1.5661391 1.95237412z" stroke-linejoin="round"/><path d="m1.5 17.5v3" transform="matrix(0 -1 1 0 -17.5 20.5)"/><path d="m4.99719238 36.5028076v6.9943848" transform="matrix(0 -1 1 0 -35.002808 44.997192)"/><path d="m26.0285645 36.5v7" transform="matrix(0 -1 1 0 -13.971436 66.028564)"/><path d="m1.5 6.5v3" transform="matrix(0 -1 1 0 -6.5 9.5)"/></g><g transform="translate(19 18)"><circle cx="9" cy="9" r="6.5"/><g stroke-linecap="round" stroke-linejoin="round"><path d="m9 0v2.5zm0 15.5v2.5z"/><path d="m9 0v1.92893219zm0 16.0710678v1.9289322z" transform="matrix(.70710678 .70710678 -.70710678 .70710678 9 -3.727922)"/><path d="m9 0v2.5zm0 15.5v2.5z" transform="matrix(0 1 -1 0 18 0)"/><path d="m9 0v1.92893219zm0 16.0710678v1.9289322z" transform="matrix(-.70710678 .70710678 -.70710678 -.70710678 21.727922 9)"/></g></g><path d="m30 26-2.9978638 2.9942017-1.5021362-1.4942017" opacity=".5" stroke-linecap="round" stroke-linejoin="round"/></g></svg>