<svg xmlns="http://www.w3.org/2000/svg" height="56" viewBox="0 0 56 56" width="56"><g fill="none" fill-rule="evenodd" stroke-width="2" transform="translate(5 5)"><g stroke="#2088ff"><rect height="7" rx="2" width="18" x="14"/><path d="m6.98608398 14.0333252c0-1.9329966 1.56700338-3.5 3.50000002-3.5h9.0343017c1.9329967 0 3.5-1.56700338 3.5-3.5" stroke-linecap="round" stroke-linejoin="round"/><path d="m23 14.0333252c0-1.9329966 1.5670034-3.5 3.5-3.5h9c1.9329966 0 3.5-1.56700338 3.5-3.5" stroke-linecap="round" stroke-linejoin="round" transform="matrix(-1 0 0 1 62 0)"/><path d="m2 15h8c1.1045695 0 2 .8954305 2 2v2c0 1.1045695-.8954305 2-2 2h-8c-1.1045695 0-2-.8954305-2-2v-2c0-1.1045695.8954305-2 2-2z"/><path d="m19 15h8c1.1045695 0 2 .8954305 2 2v2c0 1.1045695-.8954305 2-2 2h-8c-1.1045695 0-2-.8954305-2-2v-2c0-1.1045695.8954305-2 2-2z"/></g><path d="m7.03625488 31.9083252c0-1.9329966 1.56700338-3.5 3.50000002-3.5h9.1534424c1.8394884 0 3.3306884-1.4912 3.3306884-3.3306885" stroke="#79b8ff" stroke-linecap="round" stroke-linejoin="round" transform="matrix(1 0 0 -1 0 56.985962)"/><path d="m23 31.9083252c0-1.9329966 1.5670034-3.5 3.5-3.5h9.1693115c1.8394885 0 3.3306885-1.4912 3.3306885-3.3306885" stroke="#79b8ff" stroke-linecap="round" stroke-linejoin="round" transform="matrix(-1 0 0 -1 62 56.985962)"/><path d="m23.0203857 25.0776367v6.6082764" stroke="#79b8ff" stroke-linecap="round"/><path d="m36 15h8c1.1045695 0 2 .8954305 2 2v2c0 1.1045695-.8954305 2-2 2h-8c-1.1045695 0-2-.8954305-2-2v-2c0-1.1045695.8954305-2 2-2z" stroke="#2088ff"/><path d="m23.0203857 7.0333252v8" stroke="#2088ff"/><path d="m15.9973145 40h-10.9973145c-1.1045695 0-2-.8954305-2-2 0-7.0785164 0-10.1253304 0-12.999939m0-13.9813842c0-1.57058381 0-2.87750927 0-6.0186768 0-1.1045695.8954305-2 2-2h4.97851562" stroke="#79b8ff" stroke-linecap="round" stroke-linejoin="round"/><path d="m42.9973145 40h-10.9973145c-1.1045695 0-2-.8954305-2-2 0-6.5484394 0-10.1895934 0-12.9234619m0-14.0250244c0-1.34478084 0-3.36195207 0-6.0515137 0-1.1045695.8954305-2 2-2h4.9785156" stroke="#79b8ff" stroke-linecap="round" stroke-linejoin="round" transform="matrix(-1 0 0 1 72.997314 0)"/><path d="m23.050293 46c3.5898508 0 6.5-2.9101491 6.5-6.5s-2.9101492-6.5-6.5-6.5c-3.5898509 0-6.5 2.9101491-6.5 6.5s2.9101491 6.5 6.5 6.5z" stroke="#79b8ff"/><path d="m22.572998 36.8859405 3.0153534 1.7728698c.4760929.2799177.6351244.8927854.3552067 1.3688784-.0874326.1487082-.2118477.2722695-.3611543.3586761l-3.0153534 1.7450425c-.4780091.276633-1.0897673.1133854-1.3664002-.3646236-.0880986-.1522303-.1344881-.3250037-.1344881-.5008883v-3.5179123c0-.5522848.4477153-1 1-1 .1782203 0 .3532024.047629.5068359.1379574z" fill-rule="nonzero" stroke="#2088ff" stroke-linecap="round" stroke-linejoin="round"/></g></svg>