<svg xmlns="http://www.w3.org/2000/svg" height="56" viewBox="0 0 56 56" width="56">
<g fill="none" fill-rule="evenodd" stroke-linecap="round" stroke-width="2" transform="translate(3 5)">
<path d="m17.643758 3.93029336-3.3686774.08473051c-1.0519166.02645829-1.9034233.86348177-1.9479219 1.91478966l-1.509832 35.67077867c-.0328933.777125-.6552158 1.3997194-1.43232646 1.432952-.78057067.0333805-1.45986217-.5291548-1.57255847-1.3022683l-4.16643056-28.5823345c-.15598343-1.0700696.56683761-2.0703261 1.63178766-2.2581055l3.08741405-.5443944" stroke="url(#paint2_linear_11_60)" stroke-linejoin="round" transform="matrix(.98480775 -.17364818 .17364818 .98480775 -3.923102 2.181342)"/>
<g stroke="url(#paint1_linear_11_60)">
<path d="m33.7995605 43h-13.7995605c-1.1045695 0-2-.8954305-2-2v-39c0-1.1045695.8954305-2 2-2h26c1.1045695 0 2 .8954305 2 2v32.7661133"/>
<path d="m26 15.9550781-3.3989592 3.3989593c-.3319457.3319456-.3319457.8701358 0 1.2020815l3.3989592 3.3989592" stroke-linejoin="round"/>
<path d="m43.6618345 15.9550781-3.3989592 3.3989593c-.3319457.3319456-.3319457.8701358 0 1.2020815l3.3989592 3.3989592" stroke-linejoin="round" transform="matrix(-1 0 0 1 83.67575 0)"/>
<path d="m35.5264893 13-5.0538331 14.0158691"/>
<path d="m41 31c4.4182609 0 8 3.5817391 8 8s-3.5817391 8-8 8-8-3.5817391-8-8 3.5817391-8 8-8z" stroke-linejoin="round"/>
<path d="m40.0676217 35.7485767 3.8459059 2.3959271c.4687614.2920295.6120308.9087724.3200013 1.3775337-.0820761.1317474-.193695.2425794-.3260198.3237213l-3.845906 2.3583203c-.4708158.2887055-1.0865295.141076-1.3752351-.3297398-.0964582-.1573024-.1475125-.3382261-.1475125-.5227477v-4.7542474c0-.5522848.4477152-1 1-1 .1869258 0 .3701096.0523924.5287662.1512325z" fill-rule="nonzero" stroke-linejoin="round"/>
</g>
</g>
<defs>
    <filter id="filter0_d_11_60" x="0" y="0.994263" width="54" height="54" filterUnits="userSpaceOnUse" color-interpolation-filters="sRGB">
    <feFlood flood-opacity="0" result="BackgroundImageFix"/>
    <feColorMatrix in="SourceAlpha" type="matrix" values="0 0 0 0 0 0 0 0 0 0 0 0 0 0 0 0 0 0 127 0" result="hardAlpha"/>
    <feOffset dy="4"/>
    <feGaussianBlur stdDeviation="8"/>
    <feComposite in2="hardAlpha" operator="out"/>
    <feColorMatrix type="matrix" values="0 0 0 0 0.941176 0 0 0 0 0.14902 0 0 0 0 0.384314 0 0 0 1 0"/>
    <feBlend mode="normal" in2="BackgroundImageFix" result="effect1_dropShadow_11_60"/>
    <feBlend mode="normal" in="SourceGraphic" in2="effect1_dropShadow_11_60" result="shape"/>
    </filter>
    //background
    <linearGradient id="paint0_linear_11_60" x1="27" y1="0" x2="27" y2="48" gradientUnits="userSpaceOnUse">
    <stop stop-color="#007cf0"/>
    <stop offset="1" stop-color="#00dfd8"/>
    </linearGradient>
    <linearGradient id="paint1_linear_11_60" x1="35.4615" y1="17.7125" x2="22.1326" y2="13.2704" gradientUnits="userSpaceOnUse">
    <stop stop-color="#00dfd8"/>
    <stop offset="1" stop-color="#007cf0"/>
    </linearGradient>
    <linearGradient id="paint2_linear_11_60" x1="35.4615" y1="17.7125" x2="22.1326" y2="13.2704" gradientUnits="userSpaceOnUse">
    <stop stop-color="#00dfd8"/>
    <stop offset="1" stop-color="#007cf0"/>
    </linearGradient>
    </defs>
</svg>