<svg xmlns="http://www.w3.org/2000/svg" viewBox="0 0 66.18 58.22" class="d-inline-block mx-auto my-5" width="70"><path d="m33.09 40.92a1 1 0 0 1 -1-1v-22a1 1 0 1 1 2 0v22a1 1 0 0 1 -1 1z" fill="#79b8ff"></path><path d="m33.09 18.93a4.64 4.64 0 1 1 4.59-4.69 4.64 4.64 0 0 1 -4.59 4.69zm0-7.28a2.64 2.64 0 1 0 2.59 2.69 2.64 2.64 0 0 0 -2.59-2.69zm0 36.71a4.64 4.64 0 1 1 4.59-4.69 4.64 4.64 0 0 1 -4.59 4.69zm0-7.28a2.64 2.64 0 1 0 2.59 2.69 2.64 2.64 0 0 0 -2.59-2.62zm0-3.26h-.09a1 1 0 0 1 -.87-1.11 8 8 0 0 1 5-6.12 12.25 12.25 0 0 1 4.66-.84c2.34 0 4.09-.6 5.2-1.77a5.46 5.46 0 0 0 1.36-3.7 1.002 1.002 0 0 1 2-.13 7.43 7.43 0 0 1 -1.88 5.18c-1.5 1.61-3.75 2.42-6.68 2.42a10.29 10.29 0 0 0 -3.91.69 6.05 6.05 0 0 0 -3.88 4.55 1 1 0 0 1 -.91.83z" fill="#79b8ff"></path><g fill="#2088ff"><path d="m18.75 42.18h-16.37a2.47 2.47 0 0 1 -2.38-2.38v-12.38a2.3 2.3 0 0 1 2.23-2.37h16.52a2.3 2.3 0 0 1 2.38 2.22v12.53a2.3 2.3 0 0 1 -2.22 2.38zm-16.37-15.13a.32.32 0 0 0 -.38.38v12.37a.52.52 0 0 0 .38.38h16.37a.32.32 0 0 0 .38-.38v-12.38a.32.32 0 0 0 -.26-.37z"></path><path d="m17.13 26.18h-2v-4.08a4.64 4.64 0 0 0 -9.28 0v4.13h-2v-4.13a6.64 6.64 0 0 1 13.28 0z"></path><circle cx="10.63" cy="32.65" r="2.2"></circle><path d="m10.68 37.36a1 1 0 0 1 -1-1v-2.75a1 1 0 0 1 2 0v2.75a1 1 0 0 1 -1 1z"></path></g><path d="m49.36 25.2a4.64 4.64 0 1 1 4.64-4.64 4.64 4.64 0 0 1 -4.64 4.64zm0-7.28a2.64 2.64 0 1 0 2.64 2.64 2.64 2.64 0 0 0 -2.64-2.63z" fill="#79b8ff"></path><path d="m37.07 58.22a28.88 28.88 0 0 1 -20.85-8.81 1.018 1.018 0 1 1 1.46-1.42 27.09 27.09 0 1 0 0-37.82 1.012 1.012 0 0 1 -1.47-1.39 29.11 29.11 0 1 1 20.86 49.44z" fill="#2088ff"></path></svg>