<svg xmlns="http://www.w3.org/2000/svg" viewBox="0 0 66.3 58.4" class="d-inline-block mx-auto my-5" width="70"><path d="m39.8 48.3h-12.8a1 1 0 0 1 0-2h12.8a1 1 0 0 1 0 2z" fill="#79b8ff"></path><path d="m21.3 10.1h23.7v2h-23.7z" fill="#2088ff"></path><circle cx="6.6" cy="47.5" fill="#79b8ff" r="1.3"></circle><circle cx="11.1" cy="47.5" fill="#79b8ff" r="1.3"></circle><circle cx="15.9" cy="47.5" fill="#79b8ff" r="1.3"></circle><g fill="#2088ff"><path d="m11.1 58.4a11.1 11.1 0 1 1 11.1-11.1 11.1 11.1 0 0 1 -11.1 11.1zm0-20.2a9.1 9.1 0 1 0 9.1 9.1 9.11 9.11 0 0 0 -9.1-9.1z"></path><path d="m18.628 40.493 28.51-23.027 1.26 1.56-28.51 23.027z"></path><path d="m55.2 22.2a11.1 11.1 0 1 1 11.1-11.1 11.1 11.1 0 0 1 -11.1 11.1zm0-20.2a9.1 9.1 0 1 0 9.1 9.1 9.1 9.1 0 0 0 -9.1-9.1zm-44.1 20.2a11.1 11.1 0 1 1 11.1-11.1 11.11 11.11 0 0 1 -11.1 11.1zm0-20.2a9.1 9.1 0 1 0 9.1 9.1 9.11 9.11 0 0 0 -9.1-9.1z"></path><path d="m9.7 15a1 1 0 0 1 -.7-.29l-2.71-2.71a1 1 0 0 1 1.41-1.4l2 2 5.09-5.09a1 1 0 0 1 1.41 1.41l-5.8 5.8a1 1 0 0 1 -.7.28zm43.9 0a1 1 0 0 1 -.7-.29l-2.7-2.71a1 1 0 0 1 1.41-1.41l2 2 5.19-5.09a1 1 0 0 1 1.4 1.43l-5.9 5.8a1 1 0 0 1 -.7.27z"></path></g><path d="m55.2 58.4a11.1 11.1 0 1 1 11.1-11.1 11.1 11.1 0 0 1 -11.1 11.1zm0-20.2a9.1 9.1 0 1 0 9.1 9.1 9.1 9.1 0 0 0 -9.1-9.1z" fill="#79b8ff"></path></svg>