<svg xmlns="http://www.w3.org/2000/svg" viewBox="0 0 66.3 58.4" class="d-inline-block mx-auto my-5" width="70">
<path d="m39.8 48.3h-12.8a1 1 0 0 1 0-2h12.8a1 1 0 0 1 0 2z" fill="url(#paint2_linear_11_60)" />
<path d="m21.3 10.1h23.7v2h-23.7z" fill="url(#paint1_linear_11_60)" />
<circle cx="6.6" cy="47.5" fill="url(#paint2_linear_11_60)" r="1.3"/> 
<circle cx="11.1" cy="47.5" fill="url(#paint2_linear_11_60)" r="1.3" />
<circle cx="15.9" cy="47.5" fill="url(#paint2_linear_11_60)" r="1.3"/> 
<g fill="url(#paint1_linear_11_60)">
<path d="m11.1 58.4a11.1 11.1 0 1 1 11.1-11.1 11.1 11.1 0 0 1 -11.1 11.1zm0-20.2a9.1 9.1 0 1 0 9.1 9.1 9.11 9.11 0 0 0 -9.1-9.1z" />
<path d="m18.628 40.493 28.51-23.027 1.26 1.56-28.51 23.027z"/>
<path d="m55.2 22.2a11.1 11.1 0 1 1 11.1-11.1 11.1 11.1 0 0 1 -11.1 11.1zm0-20.2a9.1 9.1 0 1 0 9.1 9.1 9.1 9.1 0 0 0 -9.1-9.1zm-44.1 20.2a11.1 11.1 0 1 1 11.1-11.1 11.11 11.11 0 0 1 -11.1 11.1zm0-20.2a9.1 9.1 0 1 0 9.1 9.1 9.11 9.11 0 0 0 -9.1-9.1z"/>
<path d="m9.7 15a1 1 0 0 1 -.7-.29l-2.71-2.71a1 1 0 0 1 1.41-1.4l2 2 5.09-5.09a1 1 0 0 1 1.41 1.41l-5.8 5.8a1 1 0 0 1 -.7.28zm43.9 0a1 1 0 0 1 -.7-.29l-2.7-2.71a1 1 0 0 1 1.41-1.41l2 2 5.19-5.09a1 1 0 0 1 1.4 1.43l-5.9 5.8a1 1 0 0 1 -.7.27z" />
</g>
<path d="m55.2 58.4a11.1 11.1 0 1 1 11.1-11.1 11.1 11.1 0 0 1 -11.1 11.1zm0-20.2a9.1 9.1 0 1 0 9.1 9.1 9.1 9.1 0 0 0 -9.1-9.1z" fill="url(#paint2_linear_11_60)"/>
<defs>
    <filter id="filter0_d_11_60" x="0" y="0.994263" width="54" height="54" filterUnits="userSpaceOnUse" color-interpolation-filters="sRGB">
    <feFlood flood-opacity="0" result="BackgroundImageFix"/>
    <feColorMatrix in="SourceAlpha" type="matrix" values="0 0 0 0 0 0 0 0 0 0 0 0 0 0 0 0 0 0 127 0" result="hardAlpha"/>
    <feOffset dy="4"/>
    <feGaussianBlur stdDeviation="8"/>
    <feComposite in2="hardAlpha" operator="out"/>
    <feColorMatrix type="matrix" values="0 0 0 0 0.941176 0 0 0 0 0.14902 0 0 0 0 0.384314 0 0 0 1 0"/>
    <feBlend mode="normal" in2="BackgroundImageFix" result="effect1_dropShadow_11_60"/>
    <feBlend mode="normal" in="SourceGraphic" in2="effect1_dropShadow_11_60" result="shape"/>
    </filter>
    //background
    <linearGradient id="paint0_linear_11_60" x1="27" y1="0" x2="27" y2="48" gradientUnits="userSpaceOnUse">
    <stop stop-color="#007cf0"/>
    <stop offset="1" stop-color="#00dfd8"/>
    </linearGradient>
    <linearGradient id="paint1_linear_11_60" x1="35.4615" y1="17.7125" x2="22.1326" y2="13.2704" gradientUnits="userSpaceOnUse">
    <stop stop-color="#00dfd8"/>
    <stop offset="1" stop-color="#007cf0"/>
    </linearGradient>
    <linearGradient id="paint2_linear_11_60" x1="35.4615" y1="17.7125" x2="22.1326" y2="13.2704" gradientUnits="userSpaceOnUse">
    <stop stop-color="#00dfd8"/>
    <stop offset="1" stop-color="#007cf0"/>
    </linearGradient>
    </defs>
</svg>